<svg width="72" height="72" viewBox="0 0 72 72" fill="none" xmlns="http://www.w3.org/2000/svg">
<g opacity="0.6">
<path opacity="0.15" d="M59.3184 33.5657L60.8289 22.5597H38.3398L39.8504 33.5657H59.3184Z" fill="white"/>
</g>
<g opacity="0.6">
<path opacity="0.6" d="M12.3994 28.0626H12.918" stroke="#DF5E4C" stroke-width="0.516667" stroke-miterlimit="10" stroke-linecap="round" stroke-linejoin="round"/>
<path opacity="0.6" d="M12.6582 27.8016V28.3236" stroke="#DF5E4C" stroke-width="0.516667" stroke-miterlimit="10" stroke-linecap="round" stroke-linejoin="round"/>
</g>
<g opacity="0.67">
<path opacity="0.67" d="M65.4707 30.2638H65.9892" stroke="#DF5E4C" stroke-width="0.516667" stroke-miterlimit="10" stroke-linecap="round" stroke-linejoin="round"/>
<path opacity="0.67" d="M65.7295 30.0028V30.5248" stroke="#DF5E4C" stroke-width="0.516667" stroke-miterlimit="10" stroke-linecap="round" stroke-linejoin="round"/>
</g>
<path d="M6.9554 28.0626H5.82812" stroke="#F7931E" stroke-width="0.688889" stroke-miterlimit="10" stroke-linecap="round" stroke-linejoin="round"/>
<path d="M6.3916 27.4953V28.6299" stroke="#F7931E" stroke-width="0.688889" stroke-miterlimit="10" stroke-linecap="round" stroke-linejoin="round"/>
<g opacity="0.7">
<path opacity="0.7" d="M62.7783 26.2358H61.6172" stroke="#F7931E" stroke-width="0.688889" stroke-miterlimit="10" stroke-linecap="round" stroke-linejoin="round"/>
<path opacity="0.7" d="M62.2031 25.6458V26.8258" stroke="#F7931E" stroke-width="0.688889" stroke-miterlimit="10" stroke-linecap="round" stroke-linejoin="round"/>
</g>
<g opacity="0.4">
<path opacity="0.4" d="M10.9902 38.0928H12.1175" stroke="#622F2F" stroke-width="0.861111" stroke-miterlimit="10" stroke-linecap="round" stroke-linejoin="round"/>
<path opacity="0.4" d="M11.5537 37.5255V38.6601" stroke="#622F2F" stroke-width="0.861111" stroke-miterlimit="10" stroke-linecap="round" stroke-linejoin="round"/>
</g>
<g opacity="0.6">
<path opacity="0.6" d="M54.042 38.0928H54.8762" stroke="#8DC838" stroke-width="0.516667" stroke-miterlimit="10" stroke-linecap="round"/>
<path opacity="0.6" d="M54.459 37.673V38.5126" stroke="#8DC838" stroke-width="0.516667" stroke-miterlimit="10" stroke-linecap="round"/>
</g>
<path d="M62.2032 34.791C62.502 34.791 62.7443 34.5472 62.7443 34.2464C62.7443 33.9456 62.502 33.7018 62.2032 33.7018C61.9044 33.7018 61.6621 33.9456 61.6621 34.2464C61.6621 34.5472 61.9044 34.791 62.2032 34.791Z" stroke="#8DC838" stroke-width="0.688889" stroke-miterlimit="10"/>
<path opacity="0.8" d="M9.85317 32.9189C10.0898 32.9189 10.2815 32.7257 10.2815 32.4877C10.2815 32.2495 10.0898 32.0565 9.85317 32.0565C9.61655 32.0565 9.4248 32.2495 9.4248 32.4877C9.4248 32.7257 9.61655 32.9189 9.85317 32.9189Z" stroke="#8DC838" stroke-width="0.688889" stroke-miterlimit="10"/>
<path opacity="0.74" d="M60.8271 41.5194C61.0326 41.5194 61.1991 41.3517 61.1991 41.145C61.1991 40.9382 61.0326 40.7706 60.8271 40.7706C60.6216 40.7706 60.4551 40.9382 60.4551 41.145C60.4551 41.3517 60.6216 41.5194 60.8271 41.5194Z" stroke="#622F2F" stroke-width="0.516667" stroke-miterlimit="10" stroke-linecap="round" stroke-linejoin="round"/>
<path d="M44.572 47.1131H25.0927C21.0684 47.1131 17.8105 43.8453 17.8105 39.7947V39.7833C17.8105 39.0685 18.3855 38.4785 19.1069 38.4785H50.5691C51.2793 38.4785 51.8655 39.0685 51.8655 39.7947V39.7833C51.8542 43.834 48.5964 47.1131 44.572 47.1131Z" fill="#FFAA2B"/>
<g opacity="0.25">
<path opacity="0.62" d="M25.1388 39.7947C25.1388 39.0685 25.7137 38.4785 26.4352 38.4785H19.1079C18.3977 38.4785 17.8115 39.0685 17.8115 39.7833V39.7947C17.8115 43.8453 21.0693 47.1131 25.0937 47.1131H32.421C28.3966 47.1131 25.1388 43.8453 25.1388 39.7947Z" fill="#491200"/>
<path opacity="0.25" d="M17.834 39.8629H51.8213C51.6973 39.1821 51.1787 38.6601 50.5587 38.6601H19.1078C18.4878 38.6488 17.9693 39.1707 17.834 39.8629Z" fill="#EAA772"/>
</g>
<path d="M44.572 47.1131H25.0927C21.0684 47.1131 17.8105 43.8453 17.8105 39.7947V39.7833C17.8105 39.0685 18.3855 38.4785 19.1069 38.4785H50.5691C51.2793 38.4785 51.8655 39.0685 51.8655 39.7947V39.7833C51.8542 43.834 48.5964 47.1131 44.572 47.1131Z" stroke="#442F2F" stroke-width="1.37778" stroke-miterlimit="10" stroke-linecap="round" stroke-linejoin="round"/>
<path d="M36.1968 12.6428H33.3899C24.7663 12.6428 17.8223 17.4877 17.8223 23.3311V23.3198C17.8223 24.5792 19.2764 25.5777 21.1252 25.5777H48.4728C50.3215 25.5777 51.8659 24.5792 51.8659 23.3198C51.8546 17.4877 44.8204 12.6428 36.1968 12.6428Z" fill="#EAA772"/>
<path d="M36.1968 12.6428H33.3899C24.7663 12.6428 17.8223 17.4877 17.8223 23.3311V23.3198C17.8223 24.5792 19.2764 25.5777 21.1252 25.5777H48.4728C50.3215 25.5777 51.8659 24.5792 51.8659 23.3198C51.8546 17.4877 44.8204 12.6428 36.1968 12.6428Z" fill="#FFAA2B"/>
<g opacity="0.3">
<path opacity="0.62" d="M38.4857 12.7676C37.7417 12.6882 36.9752 12.6542 36.1861 12.6542H33.3792C24.7555 12.6542 17.8115 17.4991 17.8115 23.3425C17.8115 24.5906 19.2657 25.5891 21.1144 25.5891H25.5446V23.6715C26.593 17.8622 31.1923 13.5165 38.4857 12.7676Z" fill="#491200"/>
</g>
<path d="M36.1968 12.6428H33.3899C24.7663 12.6428 17.8223 17.4877 17.8223 23.3311V23.3198C17.8223 24.5792 19.2764 25.5777 21.1252 25.5777H48.4728C50.3215 25.5777 51.8659 24.5792 51.8659 23.3198C51.8546 17.4877 44.8204 12.6428 36.1968 12.6428Z" stroke="#442F2F" stroke-width="1.37778" stroke-miterlimit="10" stroke-linecap="round" stroke-linejoin="round"/>
<path d="M52.5424 34.7797C52.5424 36.822 50.8966 38.4786 48.8675 38.4786H20.8097C18.7806 38.4786 17.1348 36.822 17.1348 34.7797C17.1348 32.7373 18.7806 31.0807 20.8097 31.0807H48.8675C50.8966 31.0807 52.5424 32.7373 52.5424 34.7797Z" fill="#5B3E40"/>
<g opacity="0.6">
<path opacity="0.6" d="M19.0395 35.9258C19.1827 35.9258 19.2988 35.8089 19.2988 35.6648C19.2988 35.5207 19.1827 35.4038 19.0395 35.4038C18.8964 35.4038 18.7803 35.5207 18.7803 35.6648C18.7803 35.8089 18.8964 35.9258 19.0395 35.9258Z" fill="#442F2F"/>
<path opacity="0.6" d="M20.7866 37.0944C20.9298 37.0944 21.0459 36.9776 21.0459 36.8335C21.0459 36.6893 20.9298 36.5725 20.7866 36.5725C20.6435 36.5725 20.5273 36.6893 20.5273 36.8335C20.5273 36.9776 20.6435 37.0944 20.7866 37.0944Z" fill="#442F2F"/>
<path opacity="0.6" d="M19.6821 37.0944C19.8253 37.0944 19.9414 36.9776 19.9414 36.8335C19.9414 36.6893 19.8253 36.5725 19.6821 36.5725C19.539 36.5725 19.4229 36.6893 19.4229 36.8335C19.4229 36.9776 19.539 37.0944 19.6821 37.0944Z" fill="#442F2F"/>
<path opacity="0.6" d="M19.0395 35.0293C19.1827 35.0293 19.2988 34.9125 19.2988 34.7683C19.2988 34.6242 19.1827 34.5073 19.0395 34.5073C18.8964 34.5073 18.7803 34.6242 18.7803 34.7683C18.7803 34.9125 18.8964 35.0293 19.0395 35.0293Z" fill="#442F2F"/>
<path opacity="0.6" d="M20.5278 35.6648C20.671 35.6648 20.7871 35.5479 20.7871 35.4038C20.7871 35.2597 20.671 35.1429 20.5278 35.1429C20.3847 35.1429 20.2686 35.2597 20.2686 35.4038C20.2686 35.5479 20.3847 35.6648 20.5278 35.6648Z" fill="#442F2F"/>
<path opacity="0.6" d="M24.5854 36.4476C24.7286 36.4476 24.8447 36.3308 24.8447 36.1866C24.8447 36.0425 24.7286 35.9256 24.5854 35.9256C24.4423 35.9256 24.3262 36.0425 24.3262 36.1866C24.3262 36.3308 24.4423 36.4476 24.5854 36.4476Z" fill="#442F2F"/>
<path opacity="0.6" d="M29.354 35.9258C29.4972 35.9258 29.6133 35.8089 29.6133 35.6648C29.6133 35.5207 29.4972 35.4038 29.354 35.4038C29.2108 35.4038 29.0947 35.5207 29.0947 35.6648C29.0947 35.8089 29.2108 35.9258 29.354 35.9258Z" fill="#442F2F"/>
<path opacity="0.6" d="M47.4136 37.0944C47.5567 37.0944 47.6728 36.9776 47.6728 36.8335C47.6728 36.6893 47.5567 36.5725 47.4136 36.5725C47.2704 36.5725 47.1543 36.6893 47.1543 36.8335C47.1543 36.9776 47.2704 37.0944 47.4136 37.0944Z" fill="#442F2F"/>
<path opacity="0.6" d="M45.813 37.0944C45.9562 37.0944 46.0723 36.9776 46.0723 36.8335C46.0723 36.6893 45.9562 36.5725 45.813 36.5725C45.6698 36.5725 45.5537 36.6893 45.5537 36.8335C45.5537 36.9776 45.6698 37.0944 45.813 37.0944Z" fill="#442F2F"/>
<path opacity="0.6" d="M44.8208 37.0944C44.964 37.0944 45.0801 36.9776 45.0801 36.8335C45.0801 36.6893 44.964 36.5725 44.8208 36.5725C44.6776 36.5725 44.5615 36.6893 44.5615 36.8335C44.5615 36.9776 44.6776 37.0944 44.8208 37.0944Z" fill="#442F2F"/>
<path opacity="0.6" d="M45.3384 36.4476C45.4815 36.4476 45.5976 36.3308 45.5976 36.1866C45.5976 36.0425 45.4815 35.9256 45.3384 35.9256C45.1952 35.9256 45.0791 36.0425 45.0791 36.1866C45.0791 36.3308 45.1952 36.4476 45.3384 36.4476Z" fill="#442F2F"/>
<path opacity="0.6" d="M50.1079 35.0293C50.2511 35.0293 50.3672 34.9125 50.3672 34.7683C50.3672 34.6242 50.2511 34.5073 50.1079 34.5073C49.9647 34.5073 49.8486 34.6242 49.8486 34.7683C49.8486 34.9125 49.9647 35.0293 50.1079 35.0293Z" fill="#442F2F"/>
<path opacity="0.6" d="M49.8481 36.4476C49.9913 36.4476 50.1074 36.3308 50.1074 36.1866C50.1074 36.0425 49.9913 35.9256 49.8481 35.9256C49.705 35.9256 49.5889 36.0425 49.5889 36.1866C49.5889 36.3308 49.705 36.4476 49.8481 36.4476Z" fill="#442F2F"/>
<path opacity="0.6" d="M47.6724 34.7684C47.8155 34.7684 47.9316 34.6516 47.9316 34.5075C47.9316 34.3632 47.8155 34.2465 47.6724 34.2465C47.5292 34.2465 47.4131 34.3632 47.4131 34.5075C47.4131 34.6516 47.5292 34.7684 47.6724 34.7684Z" fill="#442F2F"/>
<path opacity="0.6" d="M38.395 37.0944C38.5382 37.0944 38.6543 36.9776 38.6543 36.8335C38.6543 36.6893 38.5382 36.5725 38.395 36.5725C38.2518 36.5725 38.1357 36.6893 38.1357 36.8335C38.1357 36.9776 38.2518 37.0944 38.395 37.0944Z" fill="#442F2F"/>
<path opacity="0.6" d="M36.0835 37.0944C36.2267 37.0944 36.3428 36.9776 36.3428 36.8335C36.3428 36.6893 36.2267 36.5725 36.0835 36.5725C35.9403 36.5725 35.8242 36.6893 35.8242 36.8335C35.8242 36.9776 35.9403 37.0944 36.0835 37.0944Z" fill="#442F2F"/>
<path opacity="0.6" d="M36.9976 37.0944C37.1407 37.0944 37.2568 36.9776 37.2568 36.8335C37.2568 36.6893 37.1407 36.5725 36.9976 36.5725C36.8544 36.5725 36.7383 36.6893 36.7383 36.8335C36.7383 36.9776 36.8544 37.0944 36.9976 37.0944Z" fill="#442F2F"/>
<path opacity="0.6" d="M33.5249 37.0944C33.6681 37.0944 33.7842 36.9776 33.7842 36.8335C33.7842 36.6893 33.6681 36.5725 33.5249 36.5725C33.3817 36.5725 33.2656 36.6893 33.2656 36.8335C33.2656 36.9776 33.3817 37.0944 33.5249 37.0944Z" fill="#442F2F"/>
<path opacity="0.6" d="M32.4204 36.6973C32.5636 36.6973 32.6797 36.5804 32.6797 36.4363C32.6797 36.2921 32.5636 36.1754 32.4204 36.1754C32.2772 36.1754 32.1611 36.2921 32.1611 36.4363C32.1611 36.5804 32.2772 36.6973 32.4204 36.6973Z" fill="#442F2F"/>
<path opacity="0.6" d="M28.9936 36.9582C29.1368 36.9582 29.2529 36.8414 29.2529 36.6972C29.2529 36.5531 29.1368 36.4362 28.9936 36.4362C28.8505 36.4362 28.7344 36.5531 28.7344 36.6972C28.7344 36.8414 28.8505 36.9582 28.9936 36.9582Z" fill="#442F2F"/>
</g>
<g opacity="0.15">
<path d="M24.2709 36.4816V33.0777C24.2709 31.9771 25.1615 31.0807 26.2549 31.0807H20.7989C18.7698 31.0807 17.124 32.7373 17.124 34.7797C17.124 36.822 18.7698 38.4786 20.7989 38.4786H26.2662C25.1615 38.4786 24.2709 37.5822 24.2709 36.4816Z" fill="#3E0004"/>
<path opacity="0.15" d="M48.8572 31.6481H20.8107C18.7816 31.6481 17.1357 33.3046 17.1357 35.347C17.1357 35.4037 17.1357 35.4491 17.1357 35.5058C17.9587 35.3016 19.0521 35.1087 20.1343 35.1087C21.239 35.1087 21.7463 35.3016 22.3437 35.5285C22.975 35.7668 23.6852 36.0278 25.0267 36.0278C26.3681 36.0278 27.0783 35.7555 27.7096 35.5285C28.307 35.3016 28.8143 35.1087 29.919 35.1087C31.0237 35.1087 31.531 35.3016 32.1285 35.5285C32.7597 35.7668 33.4699 36.0278 34.8114 36.0278C36.1528 36.0278 36.863 35.7554 37.4943 35.5172C38.0917 35.2902 38.599 35.0974 39.7037 35.0974C40.8085 35.0974 41.3157 35.2902 41.9132 35.5172C42.5445 35.7554 43.2547 36.0278 44.5961 36.0278C45.9376 36.0278 46.6477 35.7554 47.279 35.5172C47.8765 35.2902 48.3837 35.0974 49.4885 35.0974C50.5819 35.0974 51.0892 35.2902 51.6754 35.5172C51.9234 35.6079 52.2052 35.7214 52.5321 35.8008C52.5547 35.6533 52.5659 35.4945 52.5659 35.3356C52.5434 33.3046 50.8976 31.6481 48.8572 31.6481Z" fill="#5B3E40"/>
</g>
<path d="M52.5424 34.7797C52.5424 36.822 50.8966 38.4786 48.8675 38.4786H20.8097C18.7806 38.4786 17.1348 36.822 17.1348 34.7797C17.1348 32.7373 18.7806 31.0807 20.8097 31.0807H48.8675C50.8966 31.0807 52.5424 32.7373 52.5424 34.7797Z" stroke="#442F2F" stroke-width="1.37778" stroke-miterlimit="10" stroke-linecap="round" stroke-linejoin="round"/>
<path d="M51.8542 30.2524C51.8542 30.7063 51.4935 31.0694 51.0425 31.0694H18.6222C18.1713 31.0694 17.8105 30.7063 17.8105 30.2524V28.3349C17.8105 27.881 18.1713 27.518 18.6222 27.518H51.0313C51.4822 27.518 51.8429 27.881 51.8429 28.3349V30.2524H51.8542Z" fill="#D83634"/>
<path d="M51.8542 30.2524C51.8542 30.7063 51.4935 31.0694 51.0425 31.0694H18.6222C18.1713 31.0694 17.8105 30.7063 17.8105 30.2524V28.3349C17.8105 27.881 18.1713 27.518 18.6222 27.518H51.0313C51.4822 27.518 51.8429 27.881 51.8429 28.3349V30.2524H51.8542Z" fill="#D83634"/>
<path opacity="0.3" d="M23.9993 30.2524V28.3349C23.9993 27.881 24.36 27.518 24.8109 27.518H18.6222C18.1713 27.518 17.8105 27.881 17.8105 28.3349V30.2524C17.8105 30.7063 18.1713 31.0694 18.6222 31.0694H24.8109C24.36 31.0807 23.9993 30.7063 23.9993 30.2524Z" fill="#D83634"/>
<path opacity="0.2" d="M39.7249 27.5066H37.166V31.0694H39.7249V27.5066Z" fill="white"/>
<path opacity="0.2" d="M41.2577 27.5066H40.5137V31.0694H41.2577V27.5066Z" fill="white"/>
<path d="M51.8542 30.2524C51.8542 30.7063 51.4935 31.0694 51.0425 31.0694H18.6222C18.1713 31.0694 17.8105 30.7063 17.8105 30.2524V28.3349C17.8105 27.881 18.1713 27.518 18.6222 27.518H51.0313C51.4822 27.518 51.8429 27.881 51.8429 28.3349V30.2524H51.8542Z" stroke="#442F2F" stroke-width="1.37778" stroke-miterlimit="10" stroke-linecap="round" stroke-linejoin="round"/>
<path d="M15.2754 30.0028C16.5492 27.3364 19.7281 25.5891 23.2678 25.5891H46.4107C49.9503 25.5891 53.1179 27.3478 54.403 30.0028C51.9568 30.0028 51.9568 27.813 49.5107 27.813C47.0645 27.813 47.0645 30.0028 44.6183 30.0028C42.1721 30.0028 42.1721 27.813 39.7259 27.813C37.2798 27.813 37.2798 30.0028 34.8336 30.0028C32.3874 30.0028 32.3874 27.813 29.9412 27.813C27.495 27.813 27.495 30.0028 25.0488 30.0028C22.6027 30.0028 22.6027 27.813 20.1565 27.813C17.7103 27.813 17.7216 30.0028 15.2754 30.0028Z" fill="#8DC838"/>
<path d="M49.9489 26.2358C48.5961 25.5437 48.0776 25.5777 46.398 25.5777H25.7012H25.1376H23.2551C19.7154 25.5777 16.5478 27.3364 15.2627 29.9915C17.7089 29.9915 17.7089 27.8016 20.1551 27.8016C21.722 27.8016 22.9732 29.1178 23.8187 29.7645L24.0892 29.4582C24.5965 28.8795 24.9911 28.2101 25.2616 27.4953C25.5547 26.7464 26.2649 26.2472 27.0652 26.2472L49.9489 26.2358Z" fill="#73B727"/>
<path d="M15.2754 30.0028C16.5492 27.3364 19.7281 25.5891 23.2678 25.5891H46.4107C49.9503 25.5891 53.1179 27.3478 54.403 30.0028C51.9568 30.0028 51.9568 27.813 49.5107 27.813C47.0645 27.813 47.0645 30.0028 44.6183 30.0028C42.1721 30.0028 42.1721 27.813 39.7259 27.813C37.2798 27.813 37.2798 30.0028 34.8336 30.0028C32.3874 30.0028 32.3874 27.813 29.9412 27.813C27.495 27.813 27.495 30.0028 25.0488 30.0028C22.6027 30.0028 22.6027 27.813 20.1565 27.813C17.7103 27.813 17.7216 30.0028 15.2754 30.0028Z" stroke="#442F2F" stroke-width="1.37778" stroke-miterlimit="10" stroke-linecap="round" stroke-linejoin="round"/>
<path d="M15.5111 33.5656C15.3984 34.0875 15.9845 34.53 16.582 34.3712C17.5176 34.1216 18.8253 33.8493 20.1329 33.8493C22.5791 33.8493 22.5791 34.7683 25.0253 34.7683C27.4715 34.7683 27.4715 33.8493 29.9176 33.8493C32.3638 33.8493 32.3638 34.7683 34.81 34.7683C37.2562 34.7683 37.2562 33.8493 39.7024 33.8493C42.1485 33.8493 42.1485 34.7683 44.5947 34.7683C47.0409 34.7683 47.0409 33.8493 49.4758 33.8493C51.4485 33.8493 51.798 34.4506 53.1733 34.6775C53.7482 34.7797 54.2667 34.3371 54.154 33.8493L54.0525 33.6337C53.3198 32.0792 51.5387 31.058 49.566 31.058H19.9638C18.0249 31.0807 16.2776 32.0565 15.5111 33.5656Z" fill="#FBB03B"/>
<path d="M52.418 31.875C51.6064 31.3757 50.6144 31.0807 49.5547 31.0807H25.6453H24.8111H24.0896H19.9638C18.0249 31.0807 16.2664 32.0565 15.5111 33.5769C15.3984 34.0989 15.9845 34.5414 16.582 34.3825C17.5176 34.1329 18.8253 33.8606 20.1329 33.8606C21.3278 33.8606 21.9365 34.0762 22.534 34.3031L22.7595 34.1216C23.0751 33.8719 23.4358 33.4408 23.7402 33.021C24.27 32.2948 25.1155 31.875 26.006 31.875H52.418Z" fill="#F99A29"/>
<path d="M15.5111 33.5656C15.3984 34.0875 15.9845 34.53 16.582 34.3712C17.5176 34.1216 18.8253 33.8493 20.1329 33.8493C22.5791 33.8493 22.5791 34.7683 25.0253 34.7683C27.4715 34.7683 27.4715 33.8493 29.9176 33.8493C32.3638 33.8493 32.3638 34.7683 34.81 34.7683C37.2562 34.7683 37.2562 33.8493 39.7024 33.8493C42.1485 33.8493 42.1485 34.7683 44.5947 34.7683C47.0409 34.7683 47.0409 33.8493 49.4758 33.8493C51.4485 33.8493 51.798 34.4506 53.1733 34.6775C53.7482 34.7797 54.2667 34.3371 54.154 33.8493L54.0525 33.6337C53.3198 32.0792 51.5387 31.058 49.566 31.058H19.9638C18.0249 31.0807 16.2776 32.0565 15.5111 33.5656Z" stroke="#442F2F" stroke-width="1.37778" stroke-miterlimit="10" stroke-linecap="round" stroke-linejoin="round"/>
<path d="M25.5443 43.8226C24.8454 43.8226 24.2705 43.2553 24.2705 42.5405V38.4785H26.8069V42.5405C26.8181 43.244 26.2432 43.8226 25.5443 43.8226Z" stroke="#442F2F" stroke-width="1.37778" stroke-miterlimit="10" stroke-linecap="round" stroke-linejoin="round"/>
<path d="M25.5443 43.8226C24.8454 43.8226 24.2705 43.2553 24.2705 42.5405V38.4785H26.8069V42.5405C26.8181 43.244 26.2432 43.8226 25.5443 43.8226Z" fill="#D83634"/>
<path d="M29.8725 41.2358C29.3089 41.2358 28.8467 40.7706 28.8467 40.2032V38.4672H30.887V40.2032C30.8983 40.7819 30.4361 41.2358 29.8725 41.2358Z" fill="#D83634"/>
<path d="M29.8725 41.2358C29.3089 41.2358 28.8467 40.7706 28.8467 40.2032V38.4672H30.887V40.2032C30.8983 40.7819 30.4361 41.2358 29.8725 41.2358Z" stroke="#442F2F" stroke-width="1.37778" stroke-miterlimit="10" stroke-linecap="round" stroke-linejoin="round"/>
<path d="M25.5443 43.8226C24.8454 43.8226 24.2705 43.2553 24.2705 42.5405V38.4785H26.8069V42.5405C26.8181 43.244 26.2432 43.8226 25.5443 43.8226Z" stroke="#442F2F" stroke-width="1.37778" stroke-miterlimit="10" stroke-linecap="round" stroke-linejoin="round"/>
<path d="M42.2391 44.5942C41.1907 44.5942 40.334 43.7319 40.334 42.6767V38.4785H44.1442V42.6767C44.1442 43.7432 43.2987 44.5942 42.2391 44.5942Z" fill="#D83634"/>
<path d="M42.2391 44.5942C41.1907 44.5942 40.334 43.7319 40.334 42.6767V38.4785H44.1442V42.6767C44.1442 43.7432 43.2987 44.5942 42.2391 44.5942Z" stroke="#442F2F" stroke-width="1.37778" stroke-miterlimit="10" stroke-linecap="round" stroke-linejoin="round"/>
<path d="M22.7144 42.5066C22.9385 42.5066 23.1202 42.3237 23.1202 42.0981C23.1202 41.8725 22.9385 41.6896 22.7144 41.6896C22.4903 41.6896 22.3086 41.8725 22.3086 42.0981C22.3086 42.3237 22.4903 42.5066 22.7144 42.5066Z" fill="#442F2F"/>
<path d="M45.6659 44.8212C45.7904 44.8212 45.8913 44.7196 45.8913 44.5943C45.8913 44.4689 45.7904 44.3674 45.6659 44.3674C45.5413 44.3674 45.4404 44.4689 45.4404 44.5943C45.4404 44.7196 45.5413 44.8212 45.6659 44.8212Z" fill="#442F2F"/>
<path d="M34.3937 44.651C34.487 44.651 34.5628 44.5748 34.5628 44.4808C34.5628 44.3868 34.487 44.3106 34.3937 44.3106C34.3004 44.3106 34.2246 44.3868 34.2246 44.4808C34.2246 44.5748 34.3004 44.651 34.3937 44.651Z" fill="#442F2F"/>
<path d="M33.006 42.1662C33.2489 42.1662 33.4457 41.9681 33.4457 41.7237C33.4457 41.4793 33.2489 41.2812 33.006 41.2812C32.7632 41.2812 32.5664 41.4793 32.5664 41.7237C32.5664 41.9681 32.7632 42.1662 33.006 42.1662Z" fill="#442F2F"/>
<path d="M30.0529 44.0724C30.1462 44.0724 30.222 43.9962 30.222 43.9022C30.222 43.8082 30.1462 43.732 30.0529 43.732C29.9595 43.732 29.8838 43.8082 29.8838 43.9022C29.8838 43.9962 29.9595 44.0724 30.0529 44.0724Z" fill="#442F2F"/>
<path d="M37.8087 43.4824C38.1885 43.4824 38.4964 43.1725 38.4964 42.7902C38.4964 42.408 38.1885 42.0981 37.8087 42.0981C37.4289 42.0981 37.1211 42.408 37.1211 42.7902C37.1211 43.1725 37.4289 43.4824 37.8087 43.4824Z" fill="#442F2F"/>
<path d="M46.1955 42.2343C46.3698 42.2343 46.5112 42.0921 46.5112 41.9166C46.5112 41.7411 46.3698 41.5989 46.1955 41.5989C46.0212 41.5989 45.8799 41.7411 45.8799 41.9166C45.8799 42.0921 46.0212 42.2343 46.1955 42.2343Z" fill="#442F2F"/>
<path d="M35.893 41.4627C36.0237 41.4627 36.1297 41.356 36.1297 41.2244C36.1297 41.0928 36.0237 40.9861 35.893 40.9861C35.7622 40.9861 35.6562 41.0928 35.6562 41.2244C35.6562 41.356 35.7622 41.4627 35.893 41.4627Z" fill="#442F2F"/>
<path d="M26.7053 18.0323C26.9481 18.0323 27.1449 17.8342 27.1449 17.5897C27.1449 17.3453 26.9481 17.1472 26.7053 17.1472C26.4624 17.1472 26.2656 17.3453 26.2656 17.5897C26.2656 17.8342 26.4624 18.0323 26.7053 18.0323Z" fill="#442F2F"/>
<path d="M33.4465 19.7342C33.6893 19.7342 33.8861 19.5361 33.8861 19.2917C33.8861 19.0473 33.6893 18.8492 33.4465 18.8492C33.2037 18.8492 33.0068 19.0473 33.0068 19.2917C33.0068 19.5361 33.2037 19.7342 33.4465 19.7342Z" fill="#442F2F"/>
<path d="M35.9823 21.0278C36.1069 21.0278 36.2077 20.9262 36.2077 20.8009C36.2077 20.6755 36.1069 20.574 35.9823 20.574C35.8577 20.574 35.7568 20.6755 35.7568 20.8009C35.7568 20.9262 35.8577 21.0278 35.9823 21.0278Z" fill="#442F2F"/>
<path d="M44.0423 18.4634C44.2291 18.4634 44.3805 18.311 44.3805 18.123C44.3805 17.935 44.2291 17.7826 44.0423 17.7826C43.8555 17.7826 43.7041 17.935 43.7041 18.123C43.7041 18.311 43.8555 18.4634 44.0423 18.4634Z" fill="#442F2F"/>
<path d="M35.757 16.092C36.1368 16.092 36.4446 15.7821 36.4446 15.3999C36.4446 15.0176 36.1368 14.7078 35.757 14.7078C35.3772 14.7078 35.0693 15.0176 35.0693 15.3999C35.0693 15.7821 35.3772 16.092 35.757 16.092Z" fill="#442F2F"/>
<path d="M41.021 17.3401C41.3137 17.3401 41.5509 17.1014 41.5509 16.8068C41.5509 16.5123 41.3137 16.2736 41.021 16.2736C40.7284 16.2736 40.4912 16.5123 40.4912 16.8068C40.4912 17.1014 40.7284 17.3401 41.021 17.3401Z" fill="#442F2F"/>
<path d="M29.6143 19.6888C29.7637 19.6888 29.8848 19.567 29.8848 19.4165C29.8848 19.2662 29.7637 19.1442 29.6143 19.1442C29.4649 19.1442 29.3438 19.2662 29.3438 19.4165C29.3438 19.567 29.4649 19.6888 29.6143 19.6888Z" fill="#442F2F"/>
<path d="M37.8083 18.5769C38.0573 18.5769 38.2592 18.3737 38.2592 18.123C38.2592 17.8724 38.0573 17.6692 37.8083 17.6692C37.5593 17.6692 37.3574 17.8724 37.3574 18.123C37.3574 18.3737 37.5593 18.5769 37.8083 18.5769Z" fill="#442F2F"/>
<path d="M32.6125 16.4438C32.7058 16.4438 32.7815 16.3676 32.7815 16.2736C32.7815 16.1796 32.7058 16.1034 32.6125 16.1034C32.5191 16.1034 32.4434 16.1796 32.4434 16.2736C32.4434 16.3676 32.5191 16.4438 32.6125 16.4438Z" fill="#442F2F"/>
<path d="M27.7414 21.266C27.8347 21.266 27.9104 21.1898 27.9104 21.0958C27.9104 21.0018 27.8347 20.9256 27.7414 20.9256C27.648 20.9256 27.5723 21.0018 27.5723 21.0958C27.5723 21.1898 27.648 21.266 27.7414 21.266Z" fill="#442F2F"/>
<path d="M46.0833 18.6564C46.1332 18.6564 46.1735 18.6157 46.1735 18.5656C46.1735 18.5155 46.1332 18.4749 46.0833 18.4749C46.0335 18.4749 45.9932 18.5155 45.9932 18.5656C45.9932 18.6157 46.0335 18.6564 46.0833 18.6564Z" fill="#442F2F"/>
<path d="M29.8839 16.2623C29.9773 16.2623 30.053 16.1861 30.053 16.0921C30.053 15.9981 29.9773 15.9219 29.8839 15.9219C29.7906 15.9219 29.7148 15.9981 29.7148 16.0921C29.7148 16.1861 29.7906 16.2623 29.8839 16.2623Z" fill="#442F2F"/>
<path d="M42.5539 21.0278C42.6472 21.0278 42.7229 20.9516 42.7229 20.8576C42.7229 20.7636 42.6472 20.6874 42.5539 20.6874C42.4605 20.6874 42.3848 20.7636 42.3848 20.8576C42.3848 20.9516 42.4605 21.0278 42.5539 21.0278Z" fill="#442F2F"/>
<path d="M39.8833 19.428C39.9581 19.428 40.0186 19.3669 40.0186 19.2918C40.0186 19.2166 39.9581 19.1557 39.8833 19.1557C39.8086 19.1557 39.748 19.2166 39.748 19.2918C39.748 19.3669 39.8086 19.428 39.8833 19.428Z" fill="#442F2F"/>
<path d="M18.8027 14.7078L19.7046 15.3999" stroke="#F7931E" stroke-width="0.688889" stroke-miterlimit="10" stroke-linecap="round" stroke-linejoin="round"/>
<path d="M19.8184 13.2895L20.6638 14.5943" stroke="#F7931E" stroke-width="0.688889" stroke-miterlimit="10" stroke-linecap="round" stroke-linejoin="round"/>
<path d="M21.7002 12.484V14.0498" stroke="#F7931E" stroke-width="0.688889" stroke-miterlimit="10" stroke-linecap="round" stroke-linejoin="round"/>
</svg>
