<svg width="57" height="57" viewBox="0 0 57 57" fill="none" xmlns="http://www.w3.org/2000/svg">
<g clip-path="url(#clip0_8685_21079)">
<path d="M28.8994 56.5C44.3634 56.5 56.8994 43.964 56.8994 28.5C56.8994 13.036 44.3634 0.5 28.8994 0.5C13.4354 0.5 0.899414 13.036 0.899414 28.5C0.899414 43.964 13.4354 56.5 28.8994 56.5Z" fill="#E5FDF3"/>
<path d="M28.8997 48.3332C39.8534 48.3332 48.7331 39.4535 48.7331 28.4998C48.7331 17.5462 39.8534 8.6665 28.8997 8.6665C17.9461 8.6665 9.06641 17.5462 9.06641 28.4998C9.06641 39.4535 17.9461 48.3332 28.8997 48.3332Z" fill="#BCF2DD"/>
<path fill-rule="evenodd" clip-rule="evenodd" d="M29.0432 17.75H29.156C30.9938 17.75 32.4494 17.75 33.5886 17.9031C34.7611 18.0608 35.71 18.3929 36.4584 19.1412C37.2067 19.8896 37.5388 20.8386 37.6965 22.011C37.7992 22.775 37.833 23.6814 37.8442 24.75H38.0996C39.0661 24.75 39.8496 25.5335 39.8496 26.5V27.5C39.8496 28.0508 39.5903 28.5695 39.1496 28.9L37.8472 29.8768C37.8399 31.1093 37.811 32.1375 37.6965 32.989C37.5388 34.1614 37.2067 35.1104 36.4584 35.8588C36.2685 36.0486 36.0657 36.2117 35.8496 36.352V37.5C35.8496 38.4665 35.0661 39.25 34.0996 39.25H32.5996C31.6331 39.25 30.8496 38.4665 30.8496 37.5V37.2445C30.325 37.25 29.7612 37.25 29.156 37.25H29.0432C28.438 37.25 27.8743 37.25 27.3496 37.2445V37.5C27.3496 38.4665 26.5661 39.25 25.5996 39.25H24.0996C23.1331 39.25 22.3496 38.4665 22.3496 37.5V36.352C22.1335 36.2117 21.9307 36.0486 21.7409 35.8588C20.9925 35.1104 20.6604 34.1614 20.5027 32.989C20.3883 32.1375 20.3594 31.1093 20.3521 29.8768L19.0496 28.9C18.6089 28.5695 18.3496 28.0508 18.3496 27.5V26.5C18.3496 25.5335 19.1331 24.75 20.0996 24.75H20.3551C20.3662 23.6814 20.4 22.775 20.5027 22.011C20.6604 20.8386 20.9925 19.8896 21.7409 19.1412C22.4892 18.3929 23.4382 18.0608 24.6106 17.9031C25.7498 17.75 27.2054 17.75 29.0432 17.75ZM20.3496 26.25H20.0996C19.9615 26.25 19.8496 26.3619 19.8496 26.5V27.5C19.8496 27.5787 19.8867 27.6528 19.9496 27.7L20.3496 28L20.3496 26.4436C20.3496 26.3786 20.3496 26.3141 20.3496 26.25ZM21.8553 30.25C21.8662 31.2836 21.8978 32.1082 21.9894 32.7892C22.1246 33.7952 22.3783 34.3749 22.8015 34.7981C23.2247 35.2213 23.8044 35.475 24.8105 35.6102C25.8381 35.7484 27.1928 35.75 29.0996 35.75C31.0064 35.75 32.3611 35.7484 33.3888 35.6102C34.3948 35.475 34.9745 35.2213 35.3977 34.7981C35.8209 34.3749 36.0746 33.7952 36.2099 32.7892C36.3014 32.1082 36.333 31.2836 36.3439 30.25H21.8553ZM36.3496 28.75H21.8496C21.8496 28.6677 21.8496 28.5844 21.8496 28.5V26.5C21.8496 24.6173 21.8512 23.2729 21.9842 22.25H36.215C36.3481 23.2729 36.3496 24.6173 36.3496 26.5V28.5C36.3496 28.5844 36.3496 28.6677 36.3496 28.75ZM37.8496 28L38.2496 27.7C38.3126 27.6528 38.3496 27.5787 38.3496 27.5V26.5C38.3496 26.3619 38.2377 26.25 38.0996 26.25H37.8496C37.8496 26.3141 37.8496 26.3786 37.8496 26.4436V28ZM35.8006 20.75C35.6878 20.5367 35.5544 20.3586 35.3977 20.2019C34.9745 19.7787 34.3948 19.525 33.3888 19.3898C32.3611 19.2516 31.0064 19.25 29.0996 19.25C27.1928 19.25 25.8381 19.2516 24.8105 19.3898C23.8044 19.525 23.2247 19.7787 22.8015 20.2019C22.6448 20.3586 22.5114 20.5367 22.3986 20.75H35.8006ZM23.8496 36.9605V37.5C23.8496 37.6381 23.9615 37.75 24.0996 37.75H25.5996C25.7377 37.75 25.8496 37.6381 25.8496 37.5V37.2042C25.4003 37.1815 24.9881 37.1476 24.6106 37.0969C24.3456 37.0612 24.092 37.0167 23.8496 36.9605ZM32.3496 37.2042V37.5C32.3496 37.6381 32.4615 37.75 32.5996 37.75H34.0996C34.2377 37.75 34.3496 37.6381 34.3496 37.5V36.9605C34.1072 37.0167 33.8536 37.0612 33.5886 37.0969C33.2112 37.1476 32.7989 37.1815 32.3496 37.2042ZM23.3496 32.5C23.3496 32.0858 23.6854 31.75 24.0996 31.75H25.5996C26.0138 31.75 26.3496 32.0858 26.3496 32.5C26.3496 32.9142 26.0138 33.25 25.5996 33.25H24.0996C23.6854 33.25 23.3496 32.9142 23.3496 32.5ZM31.8496 32.5C31.8496 32.0858 32.1854 31.75 32.5996 31.75H34.0996C34.5138 31.75 34.8496 32.0858 34.8496 32.5C34.8496 32.9142 34.5138 33.25 34.0996 33.25H32.5996C32.1854 33.25 31.8496 32.9142 31.8496 32.5Z" fill="#2D7156"/>
</g>
<defs>
<clipPath id="clip0_8685_21079">
<rect width="56" height="56" fill="white" transform="translate(0.899414 0.5)"/>
</clipPath>
</defs>
</svg>
