<svg width="57" height="56" viewBox="0 0 57 56" fill="none" xmlns="http://www.w3.org/2000/svg">
<g clip-path="url(#clip0_8350_51939)">
<path d="M28.3999 56C43.8639 56 56.3999 43.464 56.3999 28C56.3999 12.536 43.8639 0 28.3999 0C12.9359 0 0.399902 12.536 0.399902 28C0.399902 43.464 12.9359 56 28.3999 56Z" fill="#FEF6F4"/>
<path d="M28.4002 47.8332C39.3539 47.8332 48.2336 38.9535 48.2336 27.9998C48.2336 17.0462 39.3539 8.1665 28.4002 8.1665C17.4466 8.1665 8.56689 17.0462 8.56689 27.9998C8.56689 38.9535 17.4466 47.8332 28.4002 47.8332Z" fill="#FFE9E9"/>
<path fill-rule="evenodd" clip-rule="evenodd" d="M23.3071 17.25C22.5061 17.2497 21.9565 17.2495 21.468 17.3834C20.4424 17.6646 19.5844 18.368 19.1075 19.3185C18.8804 19.7713 18.7728 20.3102 18.616 21.0957L17.9964 24.1938C17.7648 25.3519 18.0822 26.4718 18.75 27.3115L18.75 30.0564C18.75 31.8942 18.75 33.3498 18.9031 34.489C19.0608 35.6614 19.3929 36.6104 20.1413 37.3587C20.8896 38.1071 21.8386 38.4392 23.011 38.5969C24.1502 38.75 25.6058 38.75 27.4436 38.75H28.5564C30.3942 38.75 31.8498 38.75 32.989 38.5969C34.1615 38.4392 35.1104 38.1071 35.8588 37.3587C36.6071 36.6104 36.9392 35.6614 37.0969 34.489C37.25 33.3498 37.25 31.8942 37.25 30.0564V27.3115C37.9179 26.4718 38.2352 25.3519 38.0036 24.1938L37.384 21.0957C37.2272 20.3102 37.1196 19.7713 36.8925 19.3185C36.4157 18.368 35.5577 17.6646 34.532 17.3834C34.0436 17.2495 33.4939 17.2497 32.693 17.25H23.3071ZM34.2685 28.75C34.7974 28.75 35.2971 28.6435 35.75 28.4524V30C35.75 31.9068 35.7484 33.2615 35.6103 34.2891C35.475 35.2952 35.2213 35.8749 34.7981 36.2981C34.3749 36.7213 33.7953 36.975 32.7892 37.1102C32.3437 37.1701 31.8367 37.2044 31.25 37.2239V34.4678C31.25 34.028 31.25 33.6486 31.2218 33.3373C31.192 33.0082 31.1259 32.6822 30.9486 32.375C30.7511 32.0329 30.4671 31.7489 30.125 31.5514C29.8178 31.3741 29.4918 31.308 29.1627 31.2782C28.8514 31.25 28.472 31.25 28.0322 31.25H27.9678C27.528 31.25 27.1487 31.25 26.8374 31.2782C26.5082 31.308 26.1822 31.3741 25.875 31.5514C25.533 31.7489 25.2489 32.0329 25.0515 32.375C24.8741 32.6822 24.808 33.0082 24.7782 33.3373C24.75 33.6486 24.75 34.028 24.75 34.4678L24.75 37.2239C24.1633 37.2044 23.6563 37.1701 23.2109 37.1102C22.2048 36.975 21.6251 36.7213 21.2019 36.2981C20.7787 35.8749 20.525 35.2952 20.3898 34.2891C20.2516 33.2615 20.25 31.9068 20.25 30V28.4523C20.7029 28.6435 21.2027 28.75 21.7316 28.75C23.0055 28.75 24.1445 28.1216 24.8381 27.1458C25.5476 28.1139 26.6932 28.75 27.9998 28.75C29.3066 28.75 30.4523 28.1138 31.1618 27.1455C31.8553 28.1215 32.9944 28.75 34.2685 28.75ZM26.25 37.248C26.6384 37.2499 27.0541 37.25 27.5 37.25H28.5C28.9459 37.25 29.3616 37.2499 29.75 37.248V34.5C29.75 34.0189 29.7493 33.7082 29.728 33.4727C29.7075 33.2476 29.6731 33.1659 29.6495 33.125C29.5837 33.011 29.489 32.9163 29.375 32.8505C29.3341 32.8269 29.2524 32.7925 29.0273 32.772C28.7918 32.7507 28.4811 32.75 28 32.75C27.5189 32.75 27.2082 32.7507 26.9728 32.772C26.7476 32.7925 26.6659 32.8269 26.625 32.8505C26.511 32.9163 26.4163 33.011 26.3505 33.125C26.3269 33.1659 26.2925 33.2476 26.2721 33.4727C26.2507 33.7082 26.25 34.0189 26.25 34.5V37.248ZM24.6711 18.75H23.4177C22.4633 18.75 22.1327 18.7565 21.8646 18.83C21.2492 18.9987 20.7344 19.4208 20.4483 19.9911C20.3236 20.2396 20.2524 20.5625 20.0652 21.4984L19.4673 24.488C19.1815 25.9169 20.2744 27.25 21.7316 27.25C22.9179 27.25 23.9112 26.3511 24.0292 25.1706L24.0978 24.4847L24.1018 24.4427L24.6711 18.75ZM25.5913 24.625L26.1788 18.75H29.8211L30.4053 24.592C30.5476 26.0151 29.43 27.25 27.9998 27.25C26.5807 27.25 25.4694 26.0341 25.5913 24.625ZM34.1355 18.83C33.8673 18.7565 33.5368 18.75 32.5823 18.75H31.3288L31.9708 25.1706C32.0889 26.3511 33.0822 27.25 34.2685 27.25C35.7256 27.25 36.8185 25.9169 36.5328 24.488L35.9348 21.4984C35.7477 20.5625 35.6764 20.2396 35.5517 19.9911C35.2656 19.4208 34.7508 18.9987 34.1355 18.83Z" fill="#D73E3E"/>
</g>
<defs>
<clipPath id="clip0_8350_51939">
<rect width="56" height="56" fill="white" transform="translate(0.399902)"/>
</clipPath>
</defs>
</svg>
