<svg width="266" height="240" viewBox="0 0 266 240" fill="none" xmlns="http://www.w3.org/2000/svg">
<rect x="0.399902" width="264.8" height="240" rx="8" fill="white"/>
<path d="M25.2964 128V115.396H30.271C31.314 115.396 32.1958 115.722 32.9165 116.372C33.6372 117.017 33.9976 117.808 33.9976 118.745C33.9976 119.249 33.8687 119.721 33.6108 120.16C33.3589 120.6 33.0132 120.969 32.5737 121.268C33.2534 121.543 33.7983 121.962 34.2085 122.524C34.6187 123.081 34.8237 123.711 34.8237 124.414C34.8237 125.41 34.4517 126.257 33.7075 126.954C32.9692 127.651 32.064 128 30.9917 128H25.2964ZM30.0337 117.436H27.731V120.529H30.0337C30.479 120.529 30.8423 120.38 31.1235 120.081C31.4048 119.782 31.5454 119.416 31.5454 118.982C31.5454 118.537 31.4048 118.168 31.1235 117.875C30.8481 117.582 30.4849 117.436 30.0337 117.436ZM30.5698 125.97C31.0972 125.97 31.5249 125.809 31.853 125.486C32.187 125.158 32.354 124.742 32.354 124.238C32.354 123.74 32.187 123.324 31.853 122.99C31.519 122.656 31.0913 122.489 30.5698 122.489H27.731V125.97H30.5698ZM36.8972 124.616V118.692H39.2527V124.15C39.2527 124.73 39.4314 125.208 39.7888 125.583C40.1463 125.958 40.6121 126.146 41.1863 126.146C41.7605 126.146 42.2263 125.961 42.5838 125.592C42.9471 125.223 43.1287 124.742 43.1287 124.15V118.692H45.4842V128H43.1287V127.174C42.449 127.871 41.5965 128.22 40.5711 128.22C39.4988 128.22 38.617 127.874 37.9256 127.183C37.24 126.491 36.8972 125.636 36.8972 124.616ZM51.5919 128.22C50.4083 128.22 49.4415 127.927 48.6915 127.341C47.9473 126.755 47.4815 125.996 47.294 125.064H49.5264C49.6378 125.516 49.878 125.853 50.2471 126.075C50.6163 126.292 51.0645 126.4 51.5919 126.4C52.0137 126.4 52.3419 126.312 52.5762 126.137C52.8106 125.961 52.9278 125.729 52.9278 125.442C52.9278 125.249 52.8487 125.076 52.6905 124.924C52.5323 124.771 52.2979 124.657 51.9874 124.581L50.0626 124.133C48.3223 123.717 47.4522 122.803 47.4522 121.391C47.4522 120.512 47.7774 119.806 48.4278 119.272C49.0782 118.733 49.9102 118.464 50.9239 118.464C52.0723 118.464 53.004 118.763 53.7188 119.36C54.4395 119.952 54.8702 120.714 55.0108 121.646H52.796C52.6788 121.188 52.4415 120.846 52.084 120.617C51.7266 120.389 51.334 120.274 50.9063 120.274C50.543 120.274 50.2588 120.356 50.0538 120.521C49.8546 120.685 49.7549 120.893 49.7549 121.145C49.7549 121.625 50.127 121.953 50.8712 122.129L52.6553 122.568C54.3604 122.979 55.2129 123.878 55.2129 125.267C55.2129 126.122 54.8848 126.828 54.2286 127.385C53.5723 127.941 52.6934 128.22 51.5919 128.22ZM59.1849 117.33C58.9388 117.582 58.6312 117.708 58.2621 117.708C57.8929 117.708 57.5794 117.582 57.3216 117.33C57.0638 117.072 56.9349 116.759 56.9349 116.39C56.9349 116.021 57.0638 115.713 57.3216 115.467C57.5794 115.221 57.8929 115.098 58.2621 115.098C58.6312 115.098 58.9388 115.221 59.1849 115.467C59.4369 115.713 59.5628 116.021 59.5628 116.39C59.5628 116.759 59.4369 117.072 59.1849 117.33ZM59.431 118.692V128H57.0755V118.692H59.431ZM70.3551 122.076V128H67.9996V122.542C67.9996 121.938 67.8209 121.455 67.4635 121.092C67.1119 120.729 66.649 120.547 66.0748 120.547C65.5006 120.547 65.0319 120.729 64.6686 121.092C64.3053 121.449 64.1237 121.933 64.1237 122.542V128H61.7682V118.692H64.1237V119.483C64.7975 118.792 65.65 118.446 66.6813 118.446C67.7594 118.446 68.6412 118.795 69.3268 119.492C70.0123 120.184 70.3551 121.045 70.3551 122.076ZM72.3759 123.342C72.3759 122.486 72.5839 121.687 72.9999 120.942C73.4159 120.198 73.996 119.604 74.7401 119.158C75.4843 118.707 76.3046 118.481 77.2011 118.481C78.5956 118.481 79.7382 118.947 80.6288 119.879C81.5253 120.811 81.9735 122 81.9735 123.447V124.133H74.7929C74.9511 124.748 75.2675 125.249 75.7421 125.636C76.2167 126.022 76.7704 126.216 77.4032 126.216C77.913 126.216 78.3642 126.122 78.7567 125.935C79.1493 125.741 79.5126 125.428 79.8466 124.994L81.4901 126.216C81.0155 126.86 80.4325 127.358 79.7411 127.71C79.0497 128.062 78.2763 128.237 77.4208 128.237C76.4833 128.237 75.6278 128.029 74.8544 127.613C74.0868 127.197 73.4804 126.614 73.0351 125.864C72.5956 125.114 72.3759 124.273 72.3759 123.342ZM77.1483 120.494C76.5976 120.494 76.1142 120.658 75.6981 120.986C75.2821 121.314 74.9921 121.763 74.828 122.331H79.6005C79.4306 121.763 79.1229 121.314 78.6776 120.986C78.2323 120.658 77.7226 120.494 77.1483 120.494ZM87.7648 128.22C86.5812 128.22 85.6144 127.927 84.8644 127.341C84.1203 126.755 83.6545 125.996 83.467 125.064H85.6994C85.8107 125.516 86.051 125.853 86.4201 126.075C86.7892 126.292 87.2375 126.4 87.7648 126.4C88.1867 126.4 88.5148 126.312 88.7492 126.137C88.9836 125.961 89.1008 125.729 89.1008 125.442C89.1008 125.249 89.0217 125.076 88.8635 124.924C88.7053 124.771 88.4709 124.657 88.1603 124.581L86.2355 124.133C84.4953 123.717 83.6252 122.803 83.6252 121.391C83.6252 120.512 83.9504 119.806 84.6008 119.272C85.2512 118.733 86.0832 118.464 87.0969 118.464C88.2453 118.464 89.1769 118.763 89.8918 119.36C90.6125 119.952 91.0431 120.714 91.1838 121.646H88.9689C88.8517 121.188 88.6144 120.846 88.257 120.617C87.8996 120.389 87.507 120.274 87.0793 120.274C86.716 120.274 86.4318 120.356 86.2267 120.521C86.0275 120.685 85.9279 120.893 85.9279 121.145C85.9279 121.625 86.3 121.953 87.0441 122.129L88.8283 122.568C90.5334 122.979 91.3859 123.878 91.3859 125.267C91.3859 126.122 91.0578 126.828 90.4015 127.385C89.7453 127.941 88.8664 128.22 87.7648 128.22ZM97.186 128.22C96.0024 128.22 95.0356 127.927 94.2856 127.341C93.5415 126.755 93.0756 125.996 92.8881 125.064H95.1206C95.2319 125.516 95.4721 125.853 95.8413 126.075C96.2104 126.292 96.6587 126.4 97.186 126.4C97.6079 126.4 97.936 126.312 98.1704 126.137C98.4047 125.961 98.5219 125.729 98.5219 125.442C98.5219 125.249 98.4428 125.076 98.2846 124.924C98.1264 124.771 97.8921 124.657 97.5815 124.581L95.6567 124.133C93.9165 123.717 93.0463 122.803 93.0463 121.391C93.0463 120.512 93.3715 119.806 94.0219 119.272C94.6723 118.733 95.5044 118.464 96.518 118.464C97.6665 118.464 98.5981 118.763 99.313 119.36C100.034 119.952 100.464 120.714 100.605 121.646H98.3901C98.2729 121.188 98.0356 120.846 97.6782 120.617C97.3208 120.389 96.9282 120.274 96.5005 120.274C96.1372 120.274 95.853 120.356 95.6479 120.521C95.4487 120.685 95.3491 120.893 95.3491 121.145C95.3491 121.625 95.7212 121.953 96.4653 122.129L98.2495 122.568C99.9546 122.979 100.807 123.878 100.807 125.267C100.807 126.122 100.479 126.828 99.8227 127.385C99.1665 127.941 98.2876 128.22 97.186 128.22ZM102.344 123.342C102.344 122.486 102.552 121.687 102.968 120.942C103.385 120.198 103.965 119.604 104.709 119.158C105.453 118.707 106.273 118.481 107.17 118.481C108.564 118.481 109.707 118.947 110.597 119.879C111.494 120.811 111.942 122 111.942 123.447V124.133H104.761C104.92 124.748 105.236 125.249 105.711 125.636C106.185 126.022 106.739 126.216 107.372 126.216C107.882 126.216 108.333 126.122 108.725 125.935C109.118 125.741 109.481 125.428 109.815 124.994L111.459 126.216C110.984 126.86 110.401 127.358 109.71 127.71C109.018 128.062 108.245 128.237 107.389 128.237C106.452 128.237 105.596 128.029 104.823 127.613C104.055 127.197 103.449 126.614 103.004 125.864C102.564 125.114 102.344 124.273 102.344 123.342ZM107.117 120.494C106.566 120.494 106.083 120.658 105.667 120.986C105.251 121.314 104.961 121.763 104.797 122.331H109.569C109.399 121.763 109.092 121.314 108.646 120.986C108.201 120.658 107.691 120.494 107.117 120.494ZM117.733 128.22C116.55 128.22 115.583 127.927 114.833 127.341C114.089 126.755 113.623 125.996 113.436 125.064H115.668C115.779 125.516 116.02 125.853 116.389 126.075C116.758 126.292 117.206 126.4 117.733 126.4C118.155 126.4 118.483 126.312 118.718 126.137C118.952 125.961 119.069 125.729 119.069 125.442C119.069 125.249 118.99 125.076 118.832 124.924C118.674 124.771 118.439 124.657 118.129 124.581L116.204 124.133C114.464 123.717 113.594 122.803 113.594 121.391C113.594 120.512 113.919 119.806 114.569 119.272C115.22 118.733 116.052 118.464 117.065 118.464C118.214 118.464 119.146 118.763 119.86 119.36C120.581 119.952 121.012 120.714 121.152 121.646H118.938C118.82 121.188 118.583 120.846 118.226 120.617C117.868 120.389 117.476 120.274 117.048 120.274C116.685 120.274 116.4 120.356 116.195 120.521C115.996 120.685 115.897 120.893 115.897 121.145C115.897 121.625 116.269 121.953 117.013 122.129L118.797 122.568C120.502 122.979 121.355 123.878 121.355 125.267C121.355 126.122 121.026 126.828 120.37 127.385C119.714 127.941 118.835 128.22 117.733 128.22Z" fill="black"/>
<path d="M26.4093 161H25.214V149.797H31.7374V150.859H26.4093V154.859H31.5812V155.914H26.4093V161ZM41.1977 154.891C41.5727 155.531 41.7602 156.229 41.7602 156.984C41.7602 157.74 41.5727 158.438 41.1977 159.078C40.8227 159.719 40.3097 160.227 39.6587 160.602C39.0128 160.971 38.3045 161.156 37.5337 161.156C36.9503 161.156 36.3983 161.047 35.8774 160.828C35.3566 160.609 34.9087 160.312 34.5337 159.938C34.1587 159.562 33.8618 159.12 33.6431 158.609C33.4243 158.094 33.3149 157.552 33.3149 156.984C33.3149 156.229 33.4998 155.534 33.8696 154.898C34.2394 154.258 34.7472 153.753 35.3931 153.383C36.0441 153.008 36.7576 152.82 37.5337 152.82C38.3045 152.82 39.0128 153.005 39.6587 153.375C40.3097 153.745 40.8227 154.25 41.1977 154.891ZM40.604 156.984C40.604 156.109 40.3019 155.37 39.6977 154.766C39.0988 154.156 38.3774 153.852 37.5337 153.852C36.6847 153.852 35.9608 154.156 35.3618 154.766C34.7628 155.37 34.4634 156.109 34.4634 156.984C34.4634 157.854 34.7628 158.594 35.3618 159.203C35.9608 159.812 36.6847 160.117 37.5337 160.117C38.3774 160.117 39.0988 159.812 39.6977 159.203C40.3019 158.594 40.604 157.854 40.604 156.984ZM47.3846 153.977H46.7831C46.231 153.977 45.7778 154.185 45.4237 154.602C45.0695 155.018 44.8924 155.542 44.8924 156.172V161H43.7362V152.969H44.8924V154.023C45.0903 153.674 45.3534 153.401 45.6815 153.203C46.0148 153.005 46.3976 152.906 46.8299 152.906H47.3846V153.977ZM54.7037 154.766C54.1047 155.37 53.8052 156.109 53.8052 156.984C53.8052 157.859 54.1047 158.604 54.7037 159.219C55.3026 159.828 56.0266 160.133 56.8756 160.133C57.3808 160.133 57.8521 160.016 58.2896 159.781C58.7271 159.547 59.0943 159.227 59.3912 158.82L60.2506 159.43C59.8547 159.971 59.3677 160.396 58.7896 160.703C58.2167 161.005 57.5787 161.156 56.8756 161.156C56.0943 161.156 55.3808 160.971 54.7349 160.602C54.0891 160.227 53.5813 159.721 53.2115 159.086C52.8417 158.445 52.6568 157.745 52.6568 156.984C52.6568 156.224 52.8417 155.526 53.2115 154.891C53.5813 154.255 54.0891 153.753 54.7349 153.383C55.3808 153.008 56.0943 152.82 56.8756 152.82C57.5735 152.82 58.2115 152.974 58.7896 153.281C59.3677 153.583 59.8547 154.003 60.2506 154.539L59.3912 155.156C59.0995 154.75 58.7323 154.432 58.2896 154.203C57.8521 153.969 57.3808 153.852 56.8756 153.852C56.0266 153.852 55.3026 154.156 54.7037 154.766ZM69.289 154.891C69.664 155.531 69.8515 156.229 69.8515 156.984C69.8515 157.74 69.664 158.438 69.289 159.078C68.914 159.719 68.401 160.227 67.7499 160.602C67.1041 160.971 66.3958 161.156 65.6249 161.156C65.0416 161.156 64.4895 161.047 63.9687 160.828C63.4478 160.609 62.9999 160.312 62.6249 159.938C62.2499 159.562 61.9531 159.12 61.7343 158.609C61.5156 158.094 61.4062 157.552 61.4062 156.984C61.4062 156.229 61.5911 155.534 61.9609 154.898C62.3307 154.258 62.8385 153.753 63.4843 153.383C64.1353 153.008 64.8489 152.82 65.6249 152.82C66.3958 152.82 67.1041 153.005 67.7499 153.375C68.401 153.745 68.914 154.25 69.289 154.891ZM68.6952 156.984C68.6952 156.109 68.3932 155.37 67.789 154.766C67.19 154.156 66.4687 153.852 65.6249 153.852C64.776 153.852 64.052 154.156 63.4531 154.766C62.8541 155.37 62.5546 156.109 62.5546 156.984C62.5546 157.854 62.8541 158.594 63.4531 159.203C64.052 159.812 64.776 160.117 65.6249 160.117C66.4687 160.117 67.19 159.812 67.789 159.203C68.3932 158.594 68.6952 157.854 68.6952 156.984ZM72.9837 156.133V161H71.8274V152.969H72.9837V154.039C73.2441 153.654 73.5826 153.352 73.9993 153.133C74.4212 152.914 74.8821 152.805 75.3821 152.805C75.9811 152.805 76.5097 152.956 76.9681 153.258C77.4316 153.555 77.7779 153.953 78.0071 154.453C78.2415 153.953 78.5957 153.555 79.0696 153.258C79.5488 152.956 80.0904 152.805 80.6946 152.805C81.554 152.805 82.2571 153.094 82.804 153.672C83.3509 154.245 83.6243 154.958 83.6243 155.812V161H82.4681V156.039C82.4681 155.398 82.2832 154.878 81.9134 154.477C81.5436 154.07 81.0566 153.867 80.4524 153.867C79.8274 153.867 79.3144 154.081 78.9134 154.508C78.5123 154.935 78.3118 155.477 78.3118 156.133V161H77.1556V156.039C77.1556 155.404 76.9681 154.883 76.5931 154.477C76.2233 154.07 75.7389 153.867 75.1399 153.867C74.5097 153.867 73.9915 154.081 73.5852 154.508C73.1842 154.935 72.9837 155.477 72.9837 156.133ZM87.0768 156.133V161H85.9206V152.969H87.0768V154.039C87.3372 153.654 87.6758 153.352 88.0924 153.133C88.5143 152.914 88.9752 152.805 89.4752 152.805C90.0742 152.805 90.6028 152.956 91.0612 153.258C91.5247 153.555 91.8711 153.953 92.1002 154.453C92.3346 153.953 92.6888 153.555 93.1627 153.258C93.6419 152.956 94.1836 152.805 94.7877 152.805C95.6471 152.805 96.3502 153.094 96.8971 153.672C97.444 154.245 97.7174 154.958 97.7174 155.812V161H96.5612V156.039C96.5612 155.398 96.3763 154.878 96.0065 154.477C95.6367 154.07 95.1497 153.867 94.5456 153.867C93.9206 153.867 93.4075 154.081 93.0065 154.508C92.6054 154.935 92.4049 155.477 92.4049 156.133V161H91.2487V156.039C91.2487 155.404 91.0612 154.883 90.6862 154.477C90.3164 154.07 89.832 153.867 89.2331 153.867C88.6028 153.867 88.0846 154.081 87.6784 154.508C87.2773 154.935 87.0768 155.477 87.0768 156.133ZM99.7168 156.984C99.7168 156.229 99.8939 155.534 100.248 154.898C100.607 154.263 101.1 153.758 101.725 153.383C102.35 153.008 103.04 152.82 103.795 152.82C104.347 152.82 104.865 152.927 105.35 153.141C105.839 153.349 106.258 153.635 106.607 154C106.956 154.359 107.23 154.792 107.428 155.297C107.631 155.797 107.732 156.328 107.732 156.891V157.336H100.865C100.954 158.133 101.285 158.799 101.857 159.336C102.436 159.867 103.118 160.133 103.904 160.133C104.42 160.133 104.896 160.018 105.334 159.789C105.771 159.56 106.144 159.237 106.451 158.82L107.311 159.43C106.92 159.966 106.43 160.385 105.842 160.688C105.253 160.99 104.613 161.141 103.92 161.141C102.738 161.141 101.74 160.74 100.928 159.938C100.12 159.135 99.7168 158.151 99.7168 156.984ZM103.795 153.828C103.076 153.828 102.446 154.068 101.904 154.547C101.363 155.021 101.027 155.63 100.896 156.375H106.576C106.472 155.635 106.157 155.026 105.631 154.547C105.105 154.068 104.493 153.828 103.795 153.828ZM113.38 153.977H112.779C112.227 153.977 111.773 154.185 111.419 154.602C111.065 155.018 110.888 155.542 110.888 156.172V161H109.732V152.969H110.888V154.023C111.086 153.674 111.349 153.401 111.677 153.203C112.01 153.005 112.393 152.906 112.826 152.906H113.38V153.977ZM116.481 154.766C115.882 155.37 115.583 156.109 115.583 156.984C115.583 157.859 115.882 158.604 116.481 159.219C117.08 159.828 117.804 160.133 118.653 160.133C119.158 160.133 119.63 160.016 120.067 159.781C120.505 159.547 120.872 159.227 121.169 158.82L122.028 159.43C121.632 159.971 121.145 160.396 120.567 160.703C119.994 161.005 119.356 161.156 118.653 161.156C117.872 161.156 117.158 160.971 116.512 160.602C115.867 160.227 115.359 159.721 114.989 159.086C114.619 158.445 114.434 157.745 114.434 156.984C114.434 156.224 114.619 155.526 114.989 154.891C115.359 154.255 115.867 153.753 116.512 153.383C117.158 153.008 117.872 152.82 118.653 152.82C119.351 152.82 119.989 152.974 120.567 153.281C121.145 153.583 121.632 154.003 122.028 154.539L121.169 155.156C120.877 154.75 120.51 154.432 120.067 154.203C119.63 153.969 119.158 153.852 118.653 153.852C117.804 153.852 117.08 154.156 116.481 154.766ZM124.887 151.328C124.741 151.474 124.564 151.547 124.356 151.547C124.147 151.547 123.968 151.474 123.816 151.328C123.665 151.177 123.59 150.997 123.59 150.789C123.59 150.576 123.665 150.396 123.816 150.25C123.968 150.099 124.147 150.023 124.356 150.023C124.564 150.023 124.741 150.099 124.887 150.25C125.038 150.396 125.113 150.576 125.113 150.789C125.113 150.997 125.038 151.177 124.887 151.328ZM124.918 152.969V161H123.762V152.969H124.918ZM126.816 158.789C126.816 158.117 127.04 157.578 127.488 157.172C127.941 156.766 128.576 156.536 129.394 156.484L132.035 156.312V155.562C132.035 155.031 131.873 154.62 131.55 154.328C131.227 154.031 130.774 153.883 130.191 153.883C129.378 153.883 128.66 154.164 128.035 154.727L127.425 153.898C128.222 153.195 129.193 152.844 130.339 152.844C131.204 152.844 131.891 153.073 132.402 153.531C132.912 153.99 133.167 154.612 133.167 155.398V159.492C133.167 159.643 133.212 159.763 133.3 159.852C133.394 159.935 133.522 159.977 133.683 159.977H134.081V161H133.456C133.071 161 132.751 160.901 132.496 160.703C132.246 160.5 132.102 160.232 132.066 159.898C131.795 160.289 131.436 160.596 130.988 160.82C130.545 161.044 130.055 161.156 129.519 161.156C128.738 161.156 128.092 160.938 127.581 160.5C127.071 160.057 126.816 159.487 126.816 158.789ZM127.941 158.789C127.941 159.195 128.105 159.534 128.433 159.805C128.766 160.07 129.188 160.203 129.699 160.203C130.355 160.203 130.907 159.995 131.355 159.578C131.808 159.156 132.035 158.648 132.035 158.055V157.242L129.574 157.414C129.048 157.451 128.644 157.589 128.363 157.828C128.081 158.068 127.941 158.388 127.941 158.789ZM136.917 161H135.761V149.797H136.917V161ZM143.072 161V149.797H144.228V154.328C144.603 153.854 145.061 153.484 145.603 153.219C146.145 152.953 146.731 152.82 147.361 152.82C148.121 152.82 148.822 153.005 149.462 153.375C150.103 153.745 150.608 154.25 150.978 154.891C151.353 155.526 151.541 156.224 151.541 156.984C151.541 157.75 151.356 158.453 150.986 159.094C150.616 159.734 150.111 160.24 149.47 160.609C148.83 160.974 148.126 161.156 147.361 161.156C146.725 161.156 146.137 161.026 145.595 160.766C145.059 160.505 144.603 160.141 144.228 159.672V161H143.072ZM145.119 154.766C144.515 155.375 144.212 156.115 144.212 156.984C144.212 157.854 144.512 158.596 145.111 159.211C145.715 159.826 146.444 160.133 147.298 160.133C148.158 160.133 148.887 159.828 149.486 159.219C150.085 158.604 150.384 157.859 150.384 156.984C150.384 156.115 150.082 155.375 149.478 154.766C148.879 154.156 148.153 153.852 147.298 153.852C146.449 153.852 145.723 154.156 145.119 154.766ZM153.54 158.117V152.969H154.696V157.93C154.696 158.565 154.889 159.086 155.274 159.492C155.665 159.898 156.175 160.102 156.806 160.102C157.467 160.102 158.011 159.885 158.438 159.453C158.865 159.021 159.079 158.474 159.079 157.812V152.969H160.235V161H159.079V159.898C158.813 160.289 158.459 160.594 158.016 160.812C157.579 161.031 157.097 161.141 156.571 161.141C155.686 161.141 154.959 160.852 154.391 160.273C153.824 159.695 153.54 158.977 153.54 158.117ZM165.36 161.156C164.479 161.156 163.74 160.919 163.141 160.445C162.542 159.966 162.183 159.341 162.063 158.57H163.164C163.268 159.076 163.516 159.474 163.906 159.766C164.302 160.057 164.776 160.203 165.328 160.203C165.828 160.203 166.229 160.089 166.531 159.859C166.839 159.625 166.992 159.323 166.992 158.953C166.992 158.63 166.88 158.359 166.656 158.141C166.438 157.922 166.086 157.745 165.602 157.609L164.305 157.258C162.914 156.888 162.219 156.167 162.219 155.094C162.219 154.411 162.459 153.862 162.938 153.445C163.417 153.029 164.037 152.82 164.797 152.82C165.641 152.82 166.347 153.06 166.914 153.539C167.487 154.013 167.828 154.628 167.938 155.383H166.813C166.719 154.888 166.485 154.495 166.11 154.203C165.74 153.911 165.308 153.766 164.813 153.766C164.365 153.766 164.008 153.878 163.742 154.102C163.477 154.326 163.344 154.62 163.344 154.984C163.344 155.573 163.781 155.995 164.656 156.25L165.922 156.586C166.646 156.779 167.193 157.068 167.563 157.453C167.938 157.833 168.125 158.297 168.125 158.844C168.125 159.526 167.87 160.083 167.36 160.516C166.854 160.943 166.188 161.156 165.36 161.156ZM171.101 151.328C170.955 151.474 170.778 151.547 170.57 151.547C170.362 151.547 170.182 151.474 170.031 151.328C169.88 151.177 169.804 150.997 169.804 150.789C169.804 150.576 169.88 150.396 170.031 150.25C170.182 150.099 170.362 150.023 170.57 150.023C170.778 150.023 170.955 150.099 171.101 150.25C171.252 150.396 171.328 150.576 171.328 150.789C171.328 150.997 171.252 151.177 171.101 151.328ZM171.132 152.969V161H169.976V152.969H171.132ZM180.14 155.852V161H178.983V156.039C178.983 155.398 178.791 154.878 178.405 154.477C178.02 154.07 177.515 153.867 176.89 153.867C176.223 153.867 175.673 154.083 175.241 154.516C174.814 154.943 174.601 155.487 174.601 156.148V161H173.444V152.969H174.601V154.07C174.871 153.674 175.223 153.365 175.655 153.141C176.093 152.917 176.577 152.805 177.108 152.805C177.999 152.805 178.726 153.099 179.288 153.688C179.856 154.271 180.14 154.992 180.14 155.852ZM182.162 156.984C182.162 156.229 182.34 155.534 182.694 154.898C183.053 154.263 183.545 153.758 184.17 153.383C184.795 153.008 185.485 152.82 186.241 152.82C186.793 152.82 187.311 152.927 187.795 153.141C188.285 153.349 188.704 153.635 189.053 154C189.402 154.359 189.675 154.792 189.873 155.297C190.076 155.797 190.178 156.328 190.178 156.891V157.336H183.311C183.399 158.133 183.73 158.799 184.303 159.336C184.881 159.867 185.563 160.133 186.35 160.133C186.866 160.133 187.342 160.018 187.78 159.789C188.217 159.56 188.59 159.237 188.897 158.82L189.756 159.43C189.366 159.966 188.876 160.385 188.287 160.688C187.699 160.99 187.058 161.141 186.366 161.141C185.183 161.141 184.186 160.74 183.373 159.938C182.566 159.135 182.162 158.151 182.162 156.984ZM186.241 153.828C185.522 153.828 184.892 154.068 184.35 154.547C183.808 155.021 183.472 155.63 183.342 156.375H189.022C188.918 155.635 188.603 155.026 188.076 154.547C187.55 154.068 186.938 153.828 186.241 153.828ZM194.982 161.156C194.102 161.156 193.362 160.919 192.763 160.445C192.164 159.966 191.805 159.341 191.685 158.57H192.787C192.891 159.076 193.138 159.474 193.529 159.766C193.925 160.057 194.399 160.203 194.951 160.203C195.451 160.203 195.852 160.089 196.154 159.859C196.461 159.625 196.615 159.323 196.615 158.953C196.615 158.63 196.503 158.359 196.279 158.141C196.06 157.922 195.709 157.745 195.224 157.609L193.927 157.258C192.537 156.888 191.841 156.167 191.841 155.094C191.841 154.411 192.081 153.862 192.56 153.445C193.039 153.029 193.659 152.82 194.42 152.82C195.263 152.82 195.969 153.06 196.537 153.539C197.11 154.013 197.451 154.628 197.56 155.383H196.435C196.341 154.888 196.107 154.495 195.732 154.203C195.362 153.911 194.93 153.766 194.435 153.766C193.987 153.766 193.631 153.878 193.365 154.102C193.099 154.326 192.966 154.62 192.966 154.984C192.966 155.573 193.404 155.995 194.279 156.25L195.545 156.586C196.269 156.779 196.815 157.068 197.185 157.453C197.56 157.833 197.748 158.297 197.748 158.844C197.748 159.526 197.493 160.083 196.982 160.516C196.477 160.943 195.81 161.156 194.982 161.156ZM202.45 161.156C201.57 161.156 200.83 160.919 200.231 160.445C199.633 159.966 199.273 159.341 199.153 158.57H200.255C200.359 159.076 200.606 159.474 200.997 159.766C201.393 160.057 201.867 160.203 202.419 160.203C202.919 160.203 203.32 160.089 203.622 159.859C203.929 159.625 204.083 159.323 204.083 158.953C204.083 158.63 203.971 158.359 203.747 158.141C203.528 157.922 203.177 157.745 202.692 157.609L201.396 157.258C200.005 156.888 199.31 156.167 199.31 155.094C199.31 154.411 199.549 153.862 200.028 153.445C200.508 153.029 201.127 152.82 201.888 152.82C202.731 152.82 203.437 153.06 204.005 153.539C204.578 154.013 204.919 154.628 205.028 155.383H203.903C203.81 154.888 203.575 154.495 203.2 154.203C202.83 153.911 202.398 153.766 201.903 153.766C201.455 153.766 201.099 153.878 200.833 154.102C200.567 154.326 200.435 154.62 200.435 154.984C200.435 155.573 200.872 155.995 201.747 156.25L203.013 156.586C203.737 156.779 204.284 157.068 204.653 157.453C205.028 157.833 205.216 158.297 205.216 158.844C205.216 159.526 204.961 160.083 204.45 160.516C203.945 160.943 203.278 161.156 202.45 161.156ZM206.77 156.984C206.77 156.229 206.947 155.534 207.301 154.898C207.661 154.263 208.153 153.758 208.778 153.383C209.403 153.008 210.093 152.82 210.848 152.82C211.4 152.82 211.918 152.927 212.403 153.141C212.892 153.349 213.312 153.635 213.661 154C214.01 154.359 214.283 154.792 214.481 155.297C214.684 155.797 214.786 156.328 214.786 156.891V157.336H207.918C208.007 158.133 208.338 158.799 208.911 159.336C209.489 159.867 210.171 160.133 210.957 160.133C211.473 160.133 211.95 160.018 212.387 159.789C212.825 159.56 213.197 159.237 213.504 158.82L214.364 159.43C213.973 159.966 213.483 160.385 212.895 160.688C212.306 160.99 211.666 161.141 210.973 161.141C209.791 161.141 208.793 160.74 207.981 159.938C207.174 159.135 206.77 158.151 206.77 156.984ZM210.848 153.828C210.129 153.828 209.499 154.068 208.957 154.547C208.416 155.021 208.08 155.63 207.95 156.375H213.629C213.525 155.635 213.21 155.026 212.684 154.547C212.158 154.068 211.546 153.828 210.848 153.828ZM219.59 161.156C218.709 161.156 217.97 160.919 217.371 160.445C216.772 159.966 216.413 159.341 216.293 158.57H217.394C217.498 159.076 217.746 159.474 218.136 159.766C218.532 160.057 219.006 160.203 219.558 160.203C220.058 160.203 220.459 160.089 220.761 159.859C221.069 159.625 221.222 159.323 221.222 158.953C221.222 158.63 221.11 158.359 220.886 158.141C220.668 157.922 220.316 157.745 219.832 157.609L218.535 157.258C217.144 156.888 216.449 156.167 216.449 155.094C216.449 154.411 216.689 153.862 217.168 153.445C217.647 153.029 218.267 152.82 219.027 152.82C219.871 152.82 220.577 153.06 221.144 153.539C221.717 154.013 222.058 154.628 222.168 155.383H221.043C220.949 154.888 220.715 154.495 220.34 154.203C219.97 153.911 219.538 153.766 219.043 153.766C218.595 153.766 218.238 153.878 217.972 154.102C217.707 154.326 217.574 154.62 217.574 154.984C217.574 155.573 218.011 155.995 218.886 156.25L220.152 156.586C220.876 156.779 221.423 157.068 221.793 157.453C222.168 157.833 222.355 158.297 222.355 158.844C222.355 159.526 222.1 160.083 221.59 160.516C221.084 160.943 220.418 161.156 219.59 161.156ZM26.2843 185H25.1281V173.797H26.2843V185ZM36.1821 178.891C36.5571 179.531 36.7446 180.229 36.7446 180.984C36.7446 181.74 36.5571 182.438 36.1821 183.078C35.8071 183.719 35.2941 184.227 34.6431 184.602C33.9972 184.971 33.2889 185.156 32.5181 185.156C31.9347 185.156 31.3826 185.047 30.8618 184.828C30.341 184.609 29.8931 184.312 29.5181 183.938C29.1431 183.562 28.8462 183.12 28.6274 182.609C28.4087 182.094 28.2993 181.552 28.2993 180.984C28.2993 180.229 28.4842 179.534 28.854 178.898C29.2238 178.258 29.7316 177.753 30.3774 177.383C31.0285 177.008 31.742 176.82 32.5181 176.82C33.2889 176.82 33.9972 177.005 34.6431 177.375C35.2941 177.745 35.8071 178.25 36.1821 178.891ZM35.5884 180.984C35.5884 180.109 35.2863 179.37 34.6821 178.766C34.0832 178.156 33.3618 177.852 32.5181 177.852C31.6691 177.852 30.9451 178.156 30.3462 178.766C29.7472 179.37 29.4477 180.109 29.4477 180.984C29.4477 181.854 29.7472 182.594 30.3462 183.203C30.9451 183.812 31.6691 184.117 32.5181 184.117C33.3618 184.117 34.0832 183.812 34.6821 183.203C35.2863 182.594 35.5884 181.854 35.5884 180.984ZM46.3065 178.891C46.6815 179.531 46.869 180.229 46.869 180.984C46.869 181.74 46.6815 182.438 46.3065 183.078C45.9315 183.719 45.4185 184.227 44.7674 184.602C44.1216 184.971 43.4133 185.156 42.6424 185.156C42.0591 185.156 41.507 185.047 40.9862 184.828C40.4653 184.609 40.0174 184.312 39.6424 183.938C39.2674 183.562 38.9706 183.12 38.7518 182.609C38.5331 182.094 38.4237 181.552 38.4237 180.984C38.4237 180.229 38.6086 179.534 38.9784 178.898C39.3482 178.258 39.856 177.753 40.5018 177.383C41.1528 177.008 41.8664 176.82 42.6424 176.82C43.4133 176.82 44.1216 177.005 44.7674 177.375C45.4185 177.745 45.9315 178.25 46.3065 178.891ZM45.7127 180.984C45.7127 180.109 45.4107 179.37 44.8065 178.766C44.2075 178.156 43.4862 177.852 42.6424 177.852C41.7935 177.852 41.0695 178.156 40.4706 178.766C39.8716 179.37 39.5721 180.109 39.5721 180.984C39.5721 181.854 39.8716 182.594 40.4706 183.203C41.0695 183.812 41.7935 184.117 42.6424 184.117C43.4862 184.117 44.2075 183.812 44.8065 183.203C45.4107 182.594 45.7127 181.854 45.7127 180.984ZM48.8449 173.797H50.0012V180.57L53.6965 176.969H55.1496L51.0559 180.859L55.3137 185H53.7902L50.0012 181.227V185H48.8449V173.797ZM57.6412 175.328C57.4953 175.474 57.3183 175.547 57.1099 175.547C56.9016 175.547 56.7219 175.474 56.5709 175.328C56.4198 175.177 56.3443 174.997 56.3443 174.789C56.3443 174.576 56.4198 174.396 56.5709 174.25C56.7219 174.099 56.9016 174.023 57.1099 174.023C57.3183 174.023 57.4953 174.099 57.6412 174.25C57.7922 174.396 57.8677 174.576 57.8677 174.789C57.8677 174.997 57.7922 175.177 57.6412 175.328ZM57.6724 176.969V185H56.5162V176.969H57.6724ZM66.6796 179.852V185H65.5234V180.039C65.5234 179.398 65.3307 178.878 64.9452 178.477C64.5598 178.07 64.0546 177.867 63.4296 177.867C62.7629 177.867 62.2135 178.083 61.7812 178.516C61.3541 178.943 61.1406 179.487 61.1406 180.148V185H59.9843V176.969H61.1406V178.07C61.4114 177.674 61.7629 177.365 62.1952 177.141C62.6327 176.917 63.1171 176.805 63.6484 176.805C64.539 176.805 65.2656 177.099 65.8281 177.688C66.3958 178.271 66.6796 178.992 66.6796 179.852ZM77.054 176.969V185.195C77.054 186.096 76.7962 186.802 76.2806 187.312C75.7649 187.828 75.0566 188.086 74.1556 188.086H72.3821V187.062H73.9134C75.2363 187.062 75.8977 186.406 75.8977 185.094V183.625C75.5332 184.083 75.0852 184.44 74.554 184.695C74.0279 184.951 73.4524 185.078 72.8274 185.078C72.067 185.078 71.3691 184.896 70.7337 184.531C70.0983 184.167 69.5983 183.667 69.2337 183.031C68.8691 182.396 68.6868 181.698 68.6868 180.938C68.6868 180.182 68.8691 179.487 69.2337 178.852C69.6035 178.216 70.1061 177.716 70.7415 177.352C71.3769 176.987 72.0722 176.805 72.8274 176.805C73.4472 176.805 74.0253 176.938 74.5618 177.203C75.0983 177.464 75.5488 177.828 75.9134 178.297V176.969H77.054ZM69.8352 180.938C69.8352 181.807 70.1295 182.544 70.7181 183.148C71.3066 183.753 72.0253 184.055 72.8743 184.055C73.7233 184.055 74.4446 183.753 75.0384 183.148C75.6321 182.539 75.929 181.802 75.929 180.938C75.929 180.083 75.6295 179.352 75.0306 178.742C74.4316 178.133 73.7128 177.828 72.8743 177.828C72.0358 177.828 71.3196 178.133 70.7259 178.742C70.1321 179.352 69.8352 180.083 69.8352 180.938ZM85.8418 185C85.3053 185 84.8835 184.857 84.5762 184.57C84.2689 184.279 84.1152 183.893 84.1152 183.414V177.992H82.6152V176.969H84.1152V174.555H85.2715V176.969H87.1699V177.992H85.2715V183.242C85.2715 183.471 85.3418 183.651 85.4824 183.781C85.6283 183.911 85.834 183.977 86.0996 183.977H87.1699V185H85.8418ZM96.224 178.891C96.599 179.531 96.7865 180.229 96.7865 180.984C96.7865 181.74 96.599 182.438 96.224 183.078C95.849 183.719 95.336 184.227 94.6849 184.602C94.0391 184.971 93.3308 185.156 92.5599 185.156C91.9766 185.156 91.4245 185.047 90.9037 184.828C90.3828 184.609 89.9349 184.312 89.5599 183.938C89.1849 183.562 88.8881 183.12 88.6693 182.609C88.4506 182.094 88.3412 181.552 88.3412 180.984C88.3412 180.229 88.5261 179.534 88.8959 178.898C89.2657 178.258 89.7735 177.753 90.4193 177.383C91.0703 177.008 91.7839 176.82 92.5599 176.82C93.3308 176.82 94.0391 177.005 94.6849 177.375C95.336 177.745 95.849 178.25 96.224 178.891ZM95.6302 180.984C95.6302 180.109 95.3282 179.37 94.724 178.766C94.125 178.156 93.4037 177.852 92.5599 177.852C91.711 177.852 90.987 178.156 90.3881 178.766C89.7891 179.37 89.4896 180.109 89.4896 180.984C89.4896 181.854 89.7891 182.594 90.3881 183.203C90.987 183.812 91.711 184.117 92.5599 184.117C93.4037 184.117 94.125 183.812 94.724 183.203C95.3282 182.594 95.6302 181.854 95.6302 180.984ZM105.41 185.156C104.53 185.156 103.79 184.919 103.191 184.445C102.593 183.966 102.233 183.341 102.113 182.57H103.215C103.319 183.076 103.566 183.474 103.957 183.766C104.353 184.057 104.827 184.203 105.379 184.203C105.879 184.203 106.28 184.089 106.582 183.859C106.889 183.625 107.043 183.323 107.043 182.953C107.043 182.63 106.931 182.359 106.707 182.141C106.488 181.922 106.137 181.745 105.652 181.609L104.356 181.258C102.965 180.888 102.27 180.167 102.27 179.094C102.27 178.411 102.509 177.862 102.988 177.445C103.468 177.029 104.087 176.82 104.848 176.82C105.691 176.82 106.397 177.06 106.965 177.539C107.538 178.013 107.879 178.628 107.988 179.383H106.863C106.77 178.888 106.535 178.495 106.16 178.203C105.79 177.911 105.358 177.766 104.863 177.766C104.415 177.766 104.059 177.878 103.793 178.102C103.527 178.326 103.395 178.62 103.395 178.984C103.395 179.573 103.832 179.995 104.707 180.25L105.973 180.586C106.697 180.779 107.244 181.068 107.613 181.453C107.988 181.833 108.176 182.297 108.176 182.844C108.176 183.526 107.921 184.083 107.41 184.516C106.905 184.943 106.238 185.156 105.41 185.156ZM111.777 178.766C111.178 179.37 110.878 180.109 110.878 180.984C110.878 181.859 111.178 182.604 111.777 183.219C112.376 183.828 113.1 184.133 113.949 184.133C114.454 184.133 114.925 184.016 115.363 183.781C115.8 183.547 116.167 183.227 116.464 182.82L117.324 183.43C116.928 183.971 116.441 184.396 115.863 184.703C115.29 185.005 114.652 185.156 113.949 185.156C113.167 185.156 112.454 184.971 111.808 184.602C111.162 184.227 110.654 183.721 110.285 183.086C109.915 182.445 109.73 181.745 109.73 180.984C109.73 180.224 109.915 179.526 110.285 178.891C110.654 178.255 111.162 177.753 111.808 177.383C112.454 177.008 113.167 176.82 113.949 176.82C114.647 176.82 115.285 176.974 115.863 177.281C116.441 177.583 116.928 178.003 117.324 178.539L116.464 179.156C116.173 178.75 115.805 178.432 115.363 178.203C114.925 177.969 114.454 177.852 113.949 177.852C113.1 177.852 112.376 178.156 111.777 178.766ZM118.581 182.789C118.581 182.117 118.805 181.578 119.253 181.172C119.706 180.766 120.341 180.536 121.159 180.484L123.8 180.312V179.562C123.8 179.031 123.638 178.62 123.315 178.328C122.992 178.031 122.539 177.883 121.956 177.883C121.143 177.883 120.425 178.164 119.8 178.727L119.19 177.898C119.987 177.195 120.958 176.844 122.104 176.844C122.969 176.844 123.656 177.073 124.167 177.531C124.677 177.99 124.932 178.612 124.932 179.398V183.492C124.932 183.643 124.977 183.763 125.065 183.852C125.159 183.935 125.287 183.977 125.448 183.977H125.846V185H125.221C124.836 185 124.516 184.901 124.261 184.703C124.011 184.5 123.867 184.232 123.831 183.898C123.56 184.289 123.201 184.596 122.753 184.82C122.31 185.044 121.82 185.156 121.284 185.156C120.503 185.156 119.857 184.938 119.346 184.5C118.836 184.057 118.581 183.487 118.581 182.789ZM119.706 182.789C119.706 183.195 119.87 183.534 120.198 183.805C120.531 184.07 120.953 184.203 121.464 184.203C122.12 184.203 122.672 183.995 123.12 183.578C123.573 183.156 123.8 182.648 123.8 182.055V181.242L121.339 181.414C120.813 181.451 120.409 181.589 120.128 181.828C119.846 182.068 119.706 182.388 119.706 182.789ZM128.682 185H127.526V173.797H128.682V185ZM130.697 180.984C130.697 180.229 130.874 179.534 131.228 178.898C131.587 178.263 132.08 177.758 132.705 177.383C133.33 177.008 134.02 176.82 134.775 176.82C135.327 176.82 135.845 176.927 136.33 177.141C136.819 177.349 137.238 177.635 137.587 178C137.936 178.359 138.21 178.792 138.408 179.297C138.611 179.797 138.712 180.328 138.712 180.891V181.336H131.845C131.934 182.133 132.265 182.799 132.837 183.336C133.416 183.867 134.098 184.133 134.884 184.133C135.4 184.133 135.876 184.018 136.314 183.789C136.751 183.56 137.124 183.237 137.431 182.82L138.291 183.43C137.9 183.966 137.41 184.385 136.822 184.688C136.233 184.99 135.593 185.141 134.9 185.141C133.718 185.141 132.72 184.74 131.908 183.938C131.1 183.135 130.697 182.151 130.697 180.984ZM134.775 177.828C134.056 177.828 133.426 178.068 132.884 178.547C132.343 179.021 132.007 179.63 131.876 180.375H137.556C137.452 179.635 137.137 179.026 136.611 178.547C136.085 178.068 135.473 177.828 134.775 177.828ZM144.555 182.117V176.969H145.711V181.93C145.711 182.565 145.904 183.086 146.289 183.492C146.68 183.898 147.19 184.102 147.821 184.102C148.482 184.102 149.026 183.885 149.453 183.453C149.88 183.021 150.094 182.474 150.094 181.812V176.969H151.25V185H150.094V183.898C149.828 184.289 149.474 184.594 149.031 184.812C148.594 185.031 148.112 185.141 147.586 185.141C146.701 185.141 145.974 184.852 145.406 184.273C144.839 183.695 144.555 182.977 144.555 182.117ZM153.57 176.969H154.726V178.297C155.101 177.828 155.557 177.464 156.093 177.203C156.635 176.938 157.224 176.805 157.859 176.805C159.026 176.805 160.013 177.211 160.82 178.023C161.632 178.831 162.039 179.818 162.039 180.984C162.039 181.745 161.851 182.445 161.476 183.086C161.106 183.721 160.601 184.224 159.961 184.594C159.32 184.958 158.619 185.141 157.859 185.141C157.229 185.141 156.643 185.01 156.101 184.75C155.56 184.484 155.101 184.115 154.726 183.641V188.086H153.57V176.969ZM155.609 178.758C155.01 179.372 154.711 180.115 154.711 180.984C154.711 181.854 155.013 182.594 155.617 183.203C156.221 183.812 156.948 184.117 157.796 184.117C158.651 184.117 159.377 183.812 159.976 183.203C160.58 182.594 160.882 181.854 160.882 180.984C160.882 180.115 160.58 179.372 159.976 178.758C159.377 178.138 158.651 177.828 157.796 177.828C156.942 177.828 156.213 178.138 155.609 178.758Z" fill="#52525B"/>
<g clip-path="url(#clip0_8350_51934)">
<path d="M44.3999 80C59.8639 80 72.3999 67.464 72.3999 52C72.3999 36.536 59.8639 24 44.3999 24C28.9359 24 16.3999 36.536 16.3999 52C16.3999 67.464 28.9359 80 44.3999 80Z" fill="#FEF6F4"/>
<path d="M44.4002 71.8332C55.3539 71.8332 64.2336 62.9535 64.2336 51.9998C64.2336 41.0462 55.3539 32.1665 44.4002 32.1665C33.4466 32.1665 24.5669 41.0462 24.5669 51.9998C24.5669 62.9535 33.4466 71.8332 44.4002 71.8332Z" fill="#FFE9E9"/>
<path fill-rule="evenodd" clip-rule="evenodd" d="M39.3071 41.25C38.5061 41.2497 37.9565 41.2495 37.468 41.3834C36.4424 41.6646 35.5844 42.368 35.1075 43.3185C34.8804 43.7713 34.7728 44.3102 34.616 45.0957L33.9964 48.1938C33.7648 49.3519 34.0822 50.4718 34.75 51.3115L34.75 54.0564C34.75 55.8942 34.75 57.3498 34.9031 58.489C35.0608 59.6614 35.3929 60.6104 36.1413 61.3587C36.8896 62.1071 37.8386 62.4392 39.011 62.5969C40.1502 62.75 41.6058 62.75 43.4436 62.75H44.5564C46.3942 62.75 47.8498 62.75 48.989 62.5969C50.1615 62.4392 51.1104 62.1071 51.8588 61.3587C52.6071 60.6104 52.9392 59.6614 53.0969 58.489C53.25 57.3498 53.25 55.8942 53.25 54.0564V51.3115C53.9179 50.4718 54.2352 49.3519 54.0036 48.1938L53.384 45.0957C53.2272 44.3102 53.1196 43.7713 52.8925 43.3185C52.4157 42.368 51.5577 41.6646 50.532 41.3834C50.0436 41.2495 49.4939 41.2497 48.693 41.25H39.3071ZM50.2685 52.75C50.7974 52.75 51.2971 52.6435 51.75 52.4524V54C51.75 55.9068 51.7484 57.2615 51.6103 58.2891C51.475 59.2952 51.2213 59.8749 50.7981 60.2981C50.3749 60.7213 49.7953 60.975 48.7892 61.1102C48.3437 61.1701 47.8367 61.2044 47.25 61.2239V58.4678C47.25 58.028 47.25 57.6486 47.2218 57.3373C47.192 57.0082 47.1259 56.6822 46.9486 56.375C46.7511 56.0329 46.4671 55.7489 46.125 55.5514C45.8178 55.3741 45.4918 55.308 45.1627 55.2782C44.8514 55.25 44.472 55.25 44.0322 55.25H43.9678C43.528 55.25 43.1487 55.25 42.8374 55.2782C42.5082 55.308 42.1822 55.3741 41.875 55.5514C41.533 55.7489 41.2489 56.0329 41.0515 56.375C40.8741 56.6822 40.808 57.0082 40.7782 57.3373C40.75 57.6486 40.75 58.028 40.75 58.4678L40.75 61.2239C40.1633 61.2044 39.6563 61.1701 39.2109 61.1102C38.2048 60.975 37.6251 60.7213 37.2019 60.2981C36.7787 59.8749 36.525 59.2952 36.3898 58.2891C36.2516 57.2615 36.25 55.9068 36.25 54V52.4523C36.7029 52.6435 37.2027 52.75 37.7316 52.75C39.0055 52.75 40.1445 52.1216 40.8381 51.1458C41.5476 52.1139 42.6932 52.75 43.9998 52.75C45.3066 52.75 46.4523 52.1138 47.1618 51.1455C47.8553 52.1215 48.9944 52.75 50.2685 52.75ZM42.25 61.248C42.6384 61.2499 43.0541 61.25 43.5 61.25H44.5C44.9459 61.25 45.3616 61.2499 45.75 61.248V58.5C45.75 58.0189 45.7493 57.7082 45.728 57.4727C45.7075 57.2476 45.6731 57.1659 45.6495 57.125C45.5837 57.011 45.489 56.9163 45.375 56.8505C45.3341 56.8269 45.2524 56.7925 45.0273 56.772C44.7918 56.7507 44.4811 56.75 44 56.75C43.5189 56.75 43.2082 56.7507 42.9728 56.772C42.7476 56.7925 42.6659 56.8269 42.625 56.8505C42.511 56.9163 42.4163 57.011 42.3505 57.125C42.3269 57.1659 42.2925 57.2476 42.2721 57.4727C42.2507 57.7082 42.25 58.0189 42.25 58.5V61.248ZM40.6711 42.75H39.4177C38.4633 42.75 38.1327 42.7565 37.8646 42.83C37.2492 42.9987 36.7344 43.4208 36.4483 43.9911C36.3236 44.2396 36.2524 44.5625 36.0652 45.4984L35.4673 48.488C35.1815 49.9169 36.2744 51.25 37.7316 51.25C38.9179 51.25 39.9112 50.3511 40.0292 49.1706L40.0978 48.4847L40.1018 48.4427L40.6711 42.75ZM41.5913 48.625L42.1788 42.75H45.8211L46.4053 48.592C46.5476 50.0151 45.43 51.25 43.9998 51.25C42.5807 51.25 41.4694 50.0341 41.5913 48.625ZM50.1355 42.83C49.8673 42.7565 49.5368 42.75 48.5823 42.75H47.3288L47.9708 49.1706C48.0889 50.3511 49.0822 51.25 50.2685 51.25C51.7256 51.25 52.8185 49.9169 52.5328 48.488L51.9348 45.4984C51.7477 44.5625 51.6764 44.2396 51.5517 43.9911C51.2656 43.4208 50.7508 42.9987 50.1355 42.83Z" fill="#D73E3E"/>
</g>
<defs>
<clipPath id="clip0_8350_51934">
<rect width="56" height="56" fill="white" transform="translate(16.3999 24)"/>
</clipPath>
</defs>
</svg>
