<svg width="72" height="72" viewBox="0 0 72 72" fill="none" xmlns="http://www.w3.org/2000/svg">
<path d="M18.2013 23.7672C17.9925 23.7672 17.7981 23.8176 17.6325 23.9112C17.2725 23.3208 16.6245 22.9248 15.8829 22.9248C15.5229 22.9248 15.1773 23.0184 14.8821 23.184C14.3133 22.356 13.3629 21.8088 12.2757 21.8088C10.5333 21.8088 9.12207 23.22 9.12207 24.9624H13.8381H15.4293H16.9989H17.9277H19.4037C19.4037 24.3 18.8637 23.7672 18.2013 23.7672Z" fill="#ECF9FF"/>
<path d="M15.5088 43.632V47.736" stroke="#2D255E" stroke-width="0.744" stroke-miterlimit="10" stroke-linecap="round" stroke-linejoin="round"/>
<path d="M16.8624 43.7616H16.4304C15.5808 43.7616 14.8896 43.0704 14.8896 42.2208V38.6784C14.8896 37.8288 15.5808 37.1376 16.4304 37.1376H16.8624C17.712 37.1376 18.4032 37.8288 18.4032 38.6784V42.2208C18.4104 43.0704 17.7192 43.7616 16.8624 43.7616Z" fill="#14A56A"/>
<path d="M16.8624 43.7616H16.4304C15.5808 43.7616 14.8896 43.0704 14.8896 42.2208V38.6784C14.8896 37.8288 15.5808 37.1376 16.4304 37.1376H16.8624C17.712 37.1376 18.4032 37.8288 18.4032 38.6784V42.2208C18.4104 43.0704 17.7192 43.7616 16.8624 43.7616Z" stroke="#2D255E" stroke-width="0.744" stroke-miterlimit="10" stroke-linecap="round" stroke-linejoin="round"/>
<path d="M14.3428 45.0648L14.5588 46.1592L15.5092 46.5192" stroke="#2D255E" stroke-width="0.744" stroke-miterlimit="10" stroke-linecap="round" stroke-linejoin="round"/>
<path d="M13.8893 45.2448C13.1909 45.2448 12.6221 44.676 12.6221 43.9776V42.0984C12.6221 41.4 13.1909 40.8312 13.8893 40.8312C14.5877 40.8312 15.1565 41.4 15.1565 42.0984V43.9776C15.1565 44.676 14.5877 45.2448 13.8893 45.2448Z" fill="#12B075"/>
<path d="M13.8893 45.2448C13.1909 45.2448 12.6221 44.676 12.6221 43.9776V42.0984C12.6221 41.4 13.1909 40.8312 13.8893 40.8312C14.5877 40.8312 15.1565 41.4 15.1565 42.0984V43.9776C15.1565 44.676 14.5877 45.2448 13.8893 45.2448Z" stroke="#2D255E" stroke-width="0.744" stroke-miterlimit="10" stroke-linecap="round" stroke-linejoin="round"/>
<path d="M17.1507 51.8112H13.8747L13.4355 47.5272H17.5899L17.1507 51.8112Z" fill="#69351F"/>
<path d="M16.3439 47.5272L15.8975 51.8112H17.1503L17.5895 47.5272H16.3439Z" fill="#632D1B"/>
<path d="M17.438 48.42H15.8828V49.0176H17.438V48.42Z" fill="#562314"/>
<path d="M14.9254 49.4712H13.6006V50.0688H14.9254V49.4712Z" fill="#562314"/>
<path d="M17.2581 50.4072H15.4365V51.0048H17.2581V50.4072Z" fill="#562314"/>
<path d="M17.1507 51.8112H13.8747L13.4355 47.5272H17.5899L17.1507 51.8112Z" stroke="#2D255E" stroke-width="0.744" stroke-miterlimit="10" stroke-linecap="round" stroke-linejoin="round"/>
<path d="M15.5879 46.1376L16.6103 45.576V40.4496" stroke="#2D255E" stroke-width="0.744" stroke-miterlimit="10" stroke-linecap="round" stroke-linejoin="round"/>
<path d="M16.6611 42.0264L17.4387 41.4" stroke="#2D255E" stroke-width="0.744" stroke-miterlimit="10" stroke-linecap="round" stroke-linejoin="round"/>
<path opacity="0.38" d="M15.7461 39.8304L16.0989 40.4496" stroke="#006837" stroke-width="0.744" stroke-miterlimit="10" stroke-linecap="round" stroke-linejoin="round"/>
<path opacity="0.38" d="M16.042 38.4696L16.3948 39.0816" stroke="#006837" stroke-width="0.744" stroke-miterlimit="10" stroke-linecap="round" stroke-linejoin="round"/>
<path d="M16.8691 38.3544L17.2219 38.9664" stroke="#39D188" stroke-width="0.744" stroke-miterlimit="10" stroke-linecap="round" stroke-linejoin="round"/>
<path opacity="0.38" d="M13.6514 43.2936L13.8674 43.6608" stroke="#006837" stroke-width="0.744" stroke-miterlimit="10" stroke-linecap="round" stroke-linejoin="round"/>
<path d="M13.7734 42.2784L13.9966 42.6528" stroke="#39D188" stroke-width="0.744" stroke-miterlimit="10" stroke-linecap="round" stroke-linejoin="round"/>
<path d="M56.5849 27.9936H52.4089L51.1777 21.0816H55.0009L56.5849 27.9936Z" fill="white"/>
<path d="M52.4089 27.9936H48.2329L47.3545 21.0816H51.1777L52.4089 27.9936Z" fill="#F5A623"/>
<path d="M48.2329 27.9936H44.0569L43.5312 21.0816H47.3545L48.2329 27.9936Z" fill="white"/>
<path d="M44.0568 27.9936H39.8808L39.708 21.0816H43.5312L44.0568 27.9936Z" fill="#F5A623"/>
<path d="M39.8811 27.9936H35.7051L35.8851 21.0816H39.7083L39.8811 27.9936Z" fill="white"/>
<path d="M35.7053 27.9936H31.5293L32.0621 21.0816H35.8853L35.7053 27.9936Z" fill="#F5A623"/>
<path d="M31.5285 27.9936H27.3525L28.2309 21.0816H32.0613L31.5285 27.9936Z" fill="white"/>
<path d="M27.3528 27.9936H23.1768L24.408 21.0816H28.2312L27.3528 27.9936Z" fill="#F5A623"/>
<path d="M23.177 27.9936H19.001L20.585 21.0816H24.4082L23.177 27.9936Z" fill="white"/>
<path d="M32.753 30.6144H20.585V47.6064H32.753V30.6144Z" fill="#F5969C"/>
<path opacity="0.18" d="M30.8452 44.1504H22.4932V44.5896H30.8452V44.1504Z" fill="#282828" stroke="#282828" stroke-width="0.744" stroke-miterlimit="10" stroke-linecap="round" stroke-linejoin="round"/>
<path d="M32.1693 34.8696H30.3477V35.712H32.1693V34.8696Z" fill="#DF747C"/>
<path d="M21.8018 33.4008H20.585V34.2432H21.8018V33.4008Z" fill="#DF747C"/>
<path d="M32.8898 35.928H31.5938V36.7704H32.8898V35.928Z" fill="#DF747C"/>
<path d="M32.6302 44.8776H31.7158V45.72H32.6302V44.8776Z" fill="#DF747C"/>
<path d="M25.6175 44.8776H23.7959V45.72H25.6175V44.8776Z" fill="#DF747C"/>
<path d="M24.6097 45.936H22.7881V46.7784H24.6097V45.936Z" fill="#DF747C"/>
<path d="M32.825 30.6144H20.585V47.6064H32.825V30.6144Z" stroke="#2D255E" stroke-width="0.744" stroke-miterlimit="10" stroke-linecap="round" stroke-linejoin="round"/>
<path d="M30.4128 31.1904H22.9248V43.5744H30.4128V31.1904Z" fill="#66CDFD"/>
<path d="M27.7489 42.8688H24.9913C24.8833 42.8688 24.7969 42.7824 24.7969 42.6744V42.588C24.7969 42.48 24.8833 42.3936 24.9913 42.3936H27.7489C27.8569 42.3936 27.9433 42.48 27.9433 42.588V42.6744C27.9505 42.7824 27.8569 42.8688 27.7489 42.8688Z" fill="#3297D9"/>
<path d="M26.9636 42.7824H25.79V43.632H26.9636V42.7824Z" fill="#3297D9"/>
<path d="M29.0447 43.6536H28.4688V40.932C28.4688 40.7736 28.5983 40.644 28.7567 40.644C28.9151 40.644 29.0447 40.7736 29.0447 40.932V43.6536Z" fill="#3297D9"/>
<path d="M24.3572 43.6536H23.7812V40.932C23.7812 40.7736 23.9108 40.644 24.0692 40.644C24.2276 40.644 24.3572 40.7736 24.3572 40.932V43.6536Z" fill="#3297D9"/>
<path opacity="0.3" d="M30.1397 43.5744L30.4133 43.1856V37.9656L26.4893 43.5744H30.1397Z" fill="white"/>
<path opacity="0.3" d="M25.9917 43.5744L30.4125 37.2672V36.0864L25.1709 43.5744H25.9917Z" fill="white"/>
<path opacity="0.3" d="M24.5237 43.5744L30.4133 35.1648V34.5744L24.1133 43.5744H24.5237Z" fill="white"/>
<path d="M30.4128 31.1904H22.9248V43.5744H30.4128V31.1904Z" stroke="#2D255E" stroke-width="0.744" stroke-miterlimit="10" stroke-linecap="round" stroke-linejoin="round"/>
<path d="M30.8452 43.5744H22.4932V44.4384H30.8452V43.5744Z" fill="#D49D7F"/>
<path d="M30.8452 43.5744H22.4932V44.4384H30.8452V43.5744Z" stroke="#2D255E" stroke-width="0.744" stroke-miterlimit="10" stroke-linecap="round" stroke-linejoin="round"/>
<path d="M42.7583 51.929V30.8618H32.8223V51.929H42.7583Z" fill="#D49D7F"/>
<path d="M42.7583 51.929V30.8618H32.8223V51.929H42.7583Z" stroke="#2D255E" stroke-width="0.744" stroke-miterlimit="10" stroke-linecap="round" stroke-linejoin="round"/>
<path d="M41.6813 32.04H33.9053V46.6344H41.6813V32.04Z" fill="#66CDFD"/>
<path opacity="0.3" d="M41.7532 46.7064V39.7656L37.75 46.7064H41.7532Z" fill="white"/>
<path opacity="0.3" d="M37.2746 46.6344L41.681 39.0024V36.612L35.8994 46.6344H37.2746Z" fill="white"/>
<path opacity="0.3" d="M35.2579 46.6344L41.6803 35.5032V34.7256L34.8115 46.6344H35.2579Z" fill="white"/>
<path d="M41.6813 32.04H33.9053V46.6344H41.6813V32.04Z" stroke="#2D255E" stroke-width="0.744" stroke-miterlimit="10" stroke-linecap="round" stroke-linejoin="round"/>
<path d="M33.3864 47.6064H19.2168V51.9264H33.3864V47.6064Z" fill="#DB6B7B"/>
<path d="M19.8216 47.6064H19.2168V51.9264H19.8216V47.6064Z" fill="#CE5569"/>
<path d="M33.2571 47.6064H32.9043V51.9264H33.2571V47.6064Z" fill="#CE5569"/>
<path d="M33.3864 47.6064H19.2168V51.9264H33.3864V47.6064Z" stroke="#2D255E" stroke-width="0.744" stroke-miterlimit="10" stroke-linecap="round" stroke-linejoin="round"/>
<path d="M42.7939 47.6125H54.9619V30.6205H42.7939V47.6125Z" fill="#F5969C"/>
<path d="M53.9642 45.936H52.1426V46.7784H53.9642V45.936Z" fill="#DF747C"/>
<path d="M44.6116 45.936H42.79V46.7784H44.6116V45.936Z" fill="#DF747C"/>
<path d="M52.8695 44.8776H51.0479V45.72H52.8695V44.8776Z" fill="#DF747C"/>
<path d="M45.1726 33.0336H44.0566V33.876H45.1726V33.0336Z" fill="#DF747C"/>
<path d="M43.8338 41.1984H42.7178V42.0408H43.8338V41.1984Z" fill="#DF747C"/>
<path d="M42.7227 47.6125H54.9627V30.6205H42.7227V47.6125Z" stroke="#2D255E" stroke-width="0.744" stroke-miterlimit="10" stroke-linecap="round" stroke-linejoin="round"/>
<path d="M52.6179 31.1904H45.1299V43.5744H52.6179V31.1904Z" fill="#66CDFD"/>
<path d="M47.794 42.8688H50.5516C50.6596 42.8688 50.746 42.7824 50.746 42.6744V42.588C50.746 42.48 50.6596 42.3936 50.5516 42.3936H47.794C47.686 42.3936 47.5996 42.48 47.5996 42.588V42.6744C47.5996 42.7824 47.686 42.8688 47.794 42.8688Z" fill="#3297D9"/>
<path d="M48.5879 43.6337H49.7615V42.7841H48.5879V43.6337Z" fill="#3297D9"/>
<path d="M46.5049 43.6536H47.0809V40.932C47.0809 40.7736 46.9513 40.644 46.7929 40.644C46.6345 40.644 46.5049 40.7736 46.5049 40.932V43.6536Z" fill="#3297D9"/>
<path d="M51.1846 43.6536H51.7606V40.932C51.7606 40.7736 51.631 40.644 51.4726 40.644C51.3142 40.644 51.1846 40.7736 51.1846 40.932V43.6536Z" fill="#3297D9"/>
<path opacity="0.3" d="M52.351 43.5744L52.6174 43.1856V37.9656L48.6934 43.5744H52.351Z" fill="white"/>
<path opacity="0.3" d="M48.204 43.5744L52.6176 37.2672V36.0864L47.376 43.5744H48.204Z" fill="white"/>
<path opacity="0.3" d="M46.7278 43.5744L52.6174 35.1648V34.5744L46.3174 43.5744H46.7278Z" fill="white"/>
<path d="M52.6179 31.1904H45.1299V43.5744H52.6179V31.1904Z" stroke="#2D255E" stroke-width="0.744" stroke-miterlimit="10" stroke-linecap="round" stroke-linejoin="round"/>
<path opacity="0.18" d="M53.0493 44.1504H44.6973V44.5896H53.0493V44.1504Z" fill="#282828" stroke="#282828" stroke-width="0.744" stroke-miterlimit="10" stroke-linecap="round" stroke-linejoin="round"/>
<path d="M44.7021 44.4395H53.0541V43.5755H44.7021V44.4395Z" fill="#D49D7F"/>
<path d="M44.7021 44.4395H53.0541V43.5755H44.7021V44.4395Z" stroke="#2D255E" stroke-width="0.744" stroke-miterlimit="10" stroke-linecap="round" stroke-linejoin="round"/>
<path d="M42.2705 51.9325H56.3249V47.6125H42.2705V51.9325Z" fill="#DB6B7B"/>
<path d="M42.7967 47.6064H42.2783V51.9264H42.7967V47.6064Z" fill="#CE5569"/>
<path d="M42.2705 51.9325H56.3249V47.6125H42.2705V51.9325Z" stroke="#2D255E" stroke-width="0.744" stroke-miterlimit="10" stroke-linecap="round" stroke-linejoin="round"/>
<path d="M35.3015 42.264C35.1215 42.264 34.9775 42.12 34.9775 41.94V38.4624C34.9775 38.2824 35.1215 38.1384 35.3015 38.1384C35.4815 38.1384 35.6255 38.2824 35.6255 38.4624V41.94C35.6255 42.12 35.4815 42.264 35.3015 42.264Z" fill="#2D255E"/>
<path opacity="0.18" d="M52.409 28.4256H48.233H44.057H39.881H35.705H31.529H27.353H23.177H20.585V32.8248C20.7434 32.868 20.9162 32.8896 21.089 32.8896C22.241 32.8896 23.177 31.9536 23.177 30.8016C23.177 31.9536 24.113 32.8896 25.265 32.8896C26.417 32.8896 27.353 31.9536 27.353 30.8016C27.353 31.9536 28.289 32.8896 29.441 32.8896C30.593 32.8896 31.529 31.9536 31.529 30.8016C31.529 31.9536 32.465 32.8896 33.617 32.8896C34.769 32.8896 35.705 31.9536 35.705 30.8016C35.705 31.9536 36.641 32.8896 37.793 32.8896C38.945 32.8896 39.881 31.9536 39.881 30.8016C39.881 31.9536 40.817 32.8896 41.969 32.8896C43.121 32.8896 44.057 31.9536 44.057 30.8016C44.057 31.9536 44.993 32.8896 46.145 32.8896C47.297 32.8896 48.233 31.9536 48.233 30.8016C48.233 31.9536 49.169 32.8896 50.321 32.8896C51.473 32.8896 52.409 31.9536 52.409 30.8016C52.409 31.9536 53.345 32.8896 54.497 32.8896C54.6554 32.8896 54.8138 32.868 54.9578 32.8392V28.4256H52.409Z" fill="#282828" stroke="#282828" stroke-width="0.744" stroke-miterlimit="10" stroke-linecap="round" stroke-linejoin="round"/>
<path d="M50.3214 32.4576C49.1694 32.4576 48.2334 31.5216 48.2334 30.3696V27.9936H52.4094V30.3696C52.4094 31.5216 51.4734 32.4576 50.3214 32.4576Z" fill="#D68821"/>
<path d="M46.1446 32.4576C44.9926 32.4576 44.0566 31.5216 44.0566 30.3696V27.9936H48.2326V30.3696C48.2326 31.5216 47.2966 32.4576 46.1446 32.4576Z" fill="#D6D6D6"/>
<path d="M41.9689 32.4576C40.8169 32.4576 39.8809 31.5216 39.8809 30.3696V27.9936H44.0569V30.3696C44.0569 31.5216 43.1209 32.4576 41.9689 32.4576Z" fill="#D68821"/>
<path d="M37.7931 32.4576C36.6411 32.4576 35.7051 31.5216 35.7051 30.3696V27.9936H39.8811V30.3696C39.8811 31.5216 38.9451 32.4576 37.7931 32.4576Z" fill="#D6D6D6"/>
<path d="M33.6173 32.4576C32.4653 32.4576 31.5293 31.5216 31.5293 30.3696V27.9936H35.7053V30.3696C35.7053 31.5216 34.7693 32.4576 33.6173 32.4576Z" fill="#D68821"/>
<path d="M29.4405 32.4576C28.2885 32.4576 27.3525 31.5216 27.3525 30.3696V27.9936H31.5285V30.3696C31.5285 31.5216 30.5925 32.4576 29.4405 32.4576Z" fill="#D6D6D6"/>
<path d="M25.2648 32.4576C24.1128 32.4576 23.1768 31.5216 23.1768 30.3696V27.9936H27.3528V30.3696C27.3528 31.5216 26.4168 32.4576 25.2648 32.4576Z" fill="#D68821"/>
<path d="M21.089 32.4576C19.937 32.4576 19.001 31.5216 19.001 30.3696V27.9936H23.177V30.3696C23.177 31.5216 22.241 32.4576 21.089 32.4576Z" fill="#D6D6D6"/>
<path d="M50.3214 32.4576C49.1694 32.4576 48.2334 31.5216 48.2334 30.3696V27.9936H52.4094V30.3696C52.4094 31.5216 51.4734 32.4576 50.3214 32.4576Z" stroke="#2D255E" stroke-width="0.744" stroke-miterlimit="10" stroke-linecap="round" stroke-linejoin="round"/>
<path d="M46.1446 32.4576C44.9926 32.4576 44.0566 31.5216 44.0566 30.3696V27.9936H48.2326V30.3696C48.2326 31.5216 47.2966 32.4576 46.1446 32.4576Z" stroke="#2D255E" stroke-width="0.744" stroke-miterlimit="10" stroke-linecap="round" stroke-linejoin="round"/>
<path d="M41.9689 32.4576C40.8169 32.4576 39.8809 31.5216 39.8809 30.3696V27.9936H44.0569V30.3696C44.0569 31.5216 43.1209 32.4576 41.9689 32.4576Z" stroke="#2D255E" stroke-width="0.744" stroke-miterlimit="10" stroke-linecap="round" stroke-linejoin="round"/>
<path d="M37.7931 32.4576C36.6411 32.4576 35.7051 31.5216 35.7051 30.3696V27.9936H39.8811V30.3696C39.8811 31.5216 38.9451 32.4576 37.7931 32.4576Z" stroke="#2D255E" stroke-width="0.744" stroke-miterlimit="10" stroke-linecap="round" stroke-linejoin="round"/>
<path d="M33.6173 32.4576C32.4653 32.4576 31.5293 31.5216 31.5293 30.3696V27.9936H35.7053V30.3696C35.7053 31.5216 34.7693 32.4576 33.6173 32.4576Z" stroke="#2D255E" stroke-width="0.744" stroke-miterlimit="10" stroke-linecap="round" stroke-linejoin="round"/>
<path d="M29.4405 32.4576C28.2885 32.4576 27.3525 31.5216 27.3525 30.3696V27.9936H31.5285V30.3696C31.5285 31.5216 30.5925 32.4576 29.4405 32.4576Z" stroke="#2D255E" stroke-width="0.744" stroke-miterlimit="10" stroke-linecap="round" stroke-linejoin="round"/>
<path d="M25.2648 32.4576C24.1128 32.4576 23.1768 31.5216 23.1768 30.3696V27.9936H27.3528V30.3696C27.3528 31.5216 26.4168 32.4576 25.2648 32.4576Z" stroke="#2D255E" stroke-width="0.744" stroke-miterlimit="10" stroke-linecap="round" stroke-linejoin="round"/>
<path d="M21.089 32.4576C19.937 32.4576 19.001 31.5216 19.001 30.3696V27.9936H23.177V30.3696C23.177 31.5216 22.241 32.4576 21.089 32.4576Z" stroke="#2D255E" stroke-width="0.744" stroke-miterlimit="10" stroke-linecap="round" stroke-linejoin="round"/>
<path d="M56.5849 27.9936H52.4089L51.1777 21.0816H55.0009L56.5849 27.9936Z" stroke="#2D255E" stroke-width="0.744" stroke-miterlimit="10" stroke-linecap="round" stroke-linejoin="round"/>
<path d="M52.4089 27.9936H48.2329L47.3545 21.0816H51.1777L52.4089 27.9936Z" stroke="#2D255E" stroke-width="0.744" stroke-miterlimit="10" stroke-linecap="round" stroke-linejoin="round"/>
<path d="M48.2329 27.9936H44.0569L43.5312 21.0816H47.3545L48.2329 27.9936Z" stroke="#2D255E" stroke-width="0.744" stroke-miterlimit="10" stroke-linecap="round" stroke-linejoin="round"/>
<path d="M44.0568 27.9936H39.8808L39.708 21.0816H43.5312L44.0568 27.9936Z" stroke="#2D255E" stroke-width="0.744" stroke-miterlimit="10" stroke-linecap="round" stroke-linejoin="round"/>
<path d="M39.8811 27.9936H35.7051L35.8851 21.0816H39.7083L39.8811 27.9936Z" stroke="#2D255E" stroke-width="0.744" stroke-miterlimit="10" stroke-linecap="round" stroke-linejoin="round"/>
<path d="M35.7053 27.9936H31.5293L32.0621 21.0816H35.8853L35.7053 27.9936Z" stroke="#2D255E" stroke-width="0.744" stroke-miterlimit="10" stroke-linecap="round" stroke-linejoin="round"/>
<path d="M31.5285 27.9936H27.3525L28.2309 21.0816H32.0613L31.5285 27.9936Z" stroke="#2D255E" stroke-width="0.744" stroke-miterlimit="10" stroke-linecap="round" stroke-linejoin="round"/>
<path d="M27.3528 27.9936H23.1768L24.408 21.0816H28.2312L27.3528 27.9936Z" stroke="#2D255E" stroke-width="0.744" stroke-miterlimit="10" stroke-linecap="round" stroke-linejoin="round"/>
<path d="M23.177 27.9936H19.001L20.585 21.0816H24.4082L23.177 27.9936Z" stroke="#2D255E" stroke-width="0.744" stroke-miterlimit="10" stroke-linecap="round" stroke-linejoin="round"/>
<path d="M55.001 19.7856H20.585V21.0816H55.001V19.7856Z" fill="#DB6B7B"/>
<path d="M55.001 19.7856H20.585V20.232H55.001V19.7856Z" fill="#F5969C"/>
<path d="M55.001 19.7856H20.585V21.0816H55.001V19.7856Z" stroke="#2D255E" stroke-width="0.744" stroke-miterlimit="10" stroke-linecap="round" stroke-linejoin="round"/>
<path d="M39.9708 36.6945L36.168 37.5028L36.5467 39.2845L40.3495 38.4762L39.9708 36.6945Z" fill="#E8E8E8"/>
<path d="M39.9708 36.6945L36.168 37.5028L36.5467 39.2845L40.3495 38.4762L39.9708 36.6945Z" stroke="#2D255E" stroke-width="0.372" stroke-miterlimit="10" stroke-linecap="round" stroke-linejoin="round"/>
<path d="M37.0228 37.908L39.3628 37.4112C39.4564 37.3896 39.5428 37.4472 39.5644 37.5408L39.6364 37.8648C39.658 37.9584 39.6004 38.0448 39.5068 38.0664L37.1668 38.5632C37.0732 38.5848 36.9868 38.5272 36.9652 38.4336L36.8932 38.1096C36.8716 38.016 36.9292 37.9296 37.0228 37.908Z" fill="#D3D3D3"/>
<path d="M37.3535 37.1736L37.9511 35.424L38.6783 36.8424" stroke="#2D255E" stroke-width="0.248" stroke-miterlimit="10" stroke-linecap="round" stroke-linejoin="round"/>
<path d="M37.9514 35.7336C38.0706 35.7336 38.1674 35.6369 38.1674 35.5176C38.1674 35.3983 38.0706 35.3016 37.9514 35.3016C37.832 35.3016 37.7354 35.3983 37.7354 35.5176C37.7354 35.6369 37.832 35.7336 37.9514 35.7336Z" fill="#2D255E"/>
<path d="M26.6468 45.936H24.8252V46.7784H26.6468V45.936Z" fill="#DF747C"/>
<path d="M54.4972 32.4576C53.3452 32.4576 52.4092 31.5216 52.4092 30.3696V27.9936H56.5852V30.3696C56.5852 31.5216 55.6492 32.4576 54.4972 32.4576Z" fill="#D6D6D6"/>
<path d="M54.4972 32.4576C53.3452 32.4576 52.4092 31.5216 52.4092 30.3696V27.9936H56.5852V30.3696C56.5852 31.5216 55.6492 32.4576 54.4972 32.4576Z" stroke="#2D255E" stroke-width="0.744" stroke-miterlimit="10" stroke-linecap="round" stroke-linejoin="round"/>
<path d="M57.2253 40.7736H54.4893V51.9336H57.2253V40.7736Z" fill="#D6D6D6"/>
<path d="M56.4843 40.7736H55.0947V51.9336H56.4843V40.7736Z" fill="white"/>
<path d="M57.2253 40.7736H54.4893V51.9336H57.2253V40.7736Z" stroke="#2D255E" stroke-width="0.744" stroke-miterlimit="10" stroke-linecap="round" stroke-linejoin="round"/>
<path d="M56.0087 42.2784H55.6415C55.4471 42.2784 55.2959 42.1272 55.2959 41.9328V40.932H56.3543V41.9328C56.3543 42.12 56.1959 42.2784 56.0087 42.2784Z" fill="#2D255E"/>
<path d="M10.2812 51.9264H60.5516" stroke="#2D255E" stroke-width="0.992" stroke-miterlimit="10" stroke-linecap="round" stroke-linejoin="round"/>
<path d="M61.2218 16.7256C60.8834 16.7256 60.5738 16.848 60.3362 17.0424C59.9186 16.0416 58.9322 15.336 57.773 15.336C56.2394 15.336 55.001 16.5816 55.001 18.108H59.8394H60.5522H62.6114C62.6114 17.3448 61.9922 16.7256 61.2218 16.7256Z" fill="#ECF9FF"/>
<path d="M41.2419 15.336C41.2275 14.2776 40.3635 13.428 39.3051 13.428C38.9595 13.428 38.6355 13.5216 38.3547 13.6728C38.0523 13.1616 37.5123 12.8016 36.8931 12.7368C36.6843 11.8872 35.9211 11.2608 35.0067 11.2608C34.7547 11.2608 34.5243 11.3112 34.3011 11.3904C33.6243 10.3032 32.4147 9.576 31.0323 9.576C29.2107 9.576 27.6843 10.8432 27.2811 12.5352C26.9931 12.4056 26.6763 12.3408 26.3451 12.3408C25.0563 12.3408 24.0195 13.3848 24.0195 14.6664C24.0195 14.8968 24.0555 15.1272 24.1203 15.336H41.2419Z" fill="#ECF9FF"/>
</svg>
