<svg width="56" height="56" viewBox="0 0 56 56" fill="none" xmlns="http://www.w3.org/2000/svg">
<g clip-path="url(#clip0_9875_47967)">
<path d="M28 56C43.464 56 56 43.464 56 28C56 12.536 43.464 0 28 0C12.536 0 0 12.536 0 28C0 43.464 12.536 56 28 56Z" fill="#211E8A" fill-opacity="0.05"/>
<path d="M28.0003 47.8332C38.954 47.8332 47.8337 38.9535 47.8337 27.9998C47.8337 17.0462 38.954 8.1665 28.0003 8.1665C17.0467 8.1665 8.16699 17.0462 8.16699 27.9998C8.16699 38.9535 17.0467 47.8332 28.0003 47.8332Z" fill="#211E8A" fill-opacity="0.08"/>
<path d="M33 30C33.5523 30 34 29.5523 34 29C34 28.4477 33.5523 28 33 28C32.4477 28 32 28.4477 32 29C32 29.5523 32.4477 30 33 30Z" fill="#211E8A"/>
<path d="M33 34C33.5523 34 34 33.5523 34 33C34 32.4477 33.5523 32 33 32C32.4477 32 32 32.4477 32 33C32 33.5523 32.4477 34 33 34Z" fill="#211E8A"/>
<path d="M29 29C29 29.5523 28.5523 30 28 30C27.4477 30 27 29.5523 27 29C27 28.4477 27.4477 28 28 28C28.5523 28 29 28.4477 29 29Z" fill="#211E8A"/>
<path d="M29 33C29 33.5523 28.5523 34 28 34C27.4477 34 27 33.5523 27 33C27 32.4477 27.4477 32 28 32C28.5523 32 29 32.4477 29 33Z" fill="#211E8A"/>
<path d="M23 30C23.5523 30 24 29.5523 24 29C24 28.4477 23.5523 28 23 28C22.4477 28 22 28.4477 22 29C22 29.5523 22.4477 30 23 30Z" fill="#211E8A"/>
<path d="M23 34C23.5523 34 24 33.5523 24 33C24 32.4477 23.5523 32 23 32C22.4477 32 22 32.4477 22 33C22 33.5523 22.4477 34 23 34Z" fill="#211E8A"/>
<path fill-rule="evenodd" clip-rule="evenodd" d="M23 17.75C23.4142 17.75 23.75 18.0858 23.75 18.5V19.2627C24.412 19.25 25.1413 19.25 25.9435 19.25H30.0564C30.8586 19.25 31.588 19.25 32.25 19.2627V18.5C32.25 18.0858 32.5858 17.75 33 17.75C33.4142 17.75 33.75 18.0858 33.75 18.5V19.3271C34.0099 19.3469 34.2561 19.3718 34.489 19.4031C35.6614 19.5608 36.6104 19.8929 37.3588 20.6412C38.1071 21.3896 38.4392 22.3386 38.5969 23.511C38.75 24.6502 38.75 26.1058 38.75 27.9435V30.0564C38.75 31.8941 38.75 33.3498 38.5969 34.489C38.4392 35.6614 38.1071 36.6104 37.3588 37.3588C36.6104 38.1071 35.6614 38.4392 34.489 38.5969C33.3498 38.75 31.8942 38.75 30.0565 38.75H25.9436C24.1058 38.75 22.6502 38.75 21.511 38.5969C20.3386 38.4392 19.3896 38.1071 18.6412 37.3588C17.8929 36.6104 17.5608 35.6614 17.4031 34.489C17.25 33.3498 17.25 31.8942 17.25 30.0564V27.9436C17.25 26.1058 17.25 24.6502 17.4031 23.511C17.5608 22.3386 17.8929 21.3896 18.6412 20.6412C19.3896 19.8929 20.3386 19.5608 21.511 19.4031C21.7439 19.3718 21.9901 19.3469 22.25 19.3271V18.5C22.25 18.0858 22.5858 17.75 23 17.75ZM21.7108 20.8898C20.7048 21.025 20.1251 21.2787 19.7019 21.7019C19.2787 22.1251 19.025 22.7048 18.8898 23.7108C18.8669 23.8812 18.8477 24.0606 18.8317 24.25H37.1683C37.1523 24.0606 37.1331 23.8812 37.1102 23.7108C36.975 22.7048 36.7213 22.1251 36.2981 21.7019C35.8749 21.2787 35.2952 21.025 34.2892 20.8898C33.2615 20.7516 31.9068 20.75 30 20.75H26C24.0932 20.75 22.7385 20.7516 21.7108 20.8898ZM18.75 28C18.75 27.146 18.7503 26.4027 18.7631 25.75H37.2369C37.2497 26.4027 37.25 27.146 37.25 28V30C37.25 31.9068 37.2484 33.2615 37.1102 34.2892C36.975 35.2952 36.7213 35.8749 36.2981 36.2981C35.8749 36.7213 35.2952 36.975 34.2892 37.1102C33.2615 37.2484 31.9068 37.25 30 37.25H26C24.0932 37.25 22.7385 37.2484 21.7108 37.1102C20.7048 36.975 20.1251 36.7213 19.7019 36.2981C19.2787 35.8749 19.025 35.2952 18.8898 34.2892C18.7516 33.2615 18.75 31.9068 18.75 30V28Z" fill="#211E8A"/>
</g>
<defs>
<clipPath id="clip0_9875_47967">
<rect width="56" height="56" fill="white"/>
</clipPath>
</defs>
</svg>
