<svg width="266" height="240" viewBox="0 0 266 240" fill="none" xmlns="http://www.w3.org/2000/svg">
<rect x="0.800049" width="264.8" height="240" rx="8" fill="white"/>
<path d="M25.4329 121.681C25.4329 120.491 25.72 119.401 26.2942 118.411C26.8684 117.415 27.6682 116.627 28.6936 116.047C29.7249 115.461 30.8762 115.168 32.1477 115.168C33.2493 115.168 34.2659 115.411 35.1975 115.897C36.1292 116.384 36.9172 117.046 37.5618 117.884L35.6721 119.272C35.2678 118.692 34.7522 118.232 34.1252 117.893C33.5042 117.553 32.8567 117.383 32.1829 117.383C30.97 117.383 29.9504 117.784 29.1243 118.587C28.304 119.39 27.8938 120.421 27.8938 121.681C27.8938 122.524 28.0872 123.28 28.4739 123.948C28.8606 124.61 29.3792 125.12 30.0295 125.478C30.6799 125.829 31.3977 126.005 32.1829 126.005C32.9094 126.005 33.5833 125.841 34.2043 125.513C34.8313 125.179 35.3381 124.719 35.7249 124.133L37.6145 125.513C36.9993 126.351 36.2229 127.016 35.2854 127.508C34.3538 127.994 33.3254 128.237 32.2004 128.237C31.2278 128.237 30.3196 128.067 29.4758 127.728C28.6321 127.388 27.9143 126.928 27.3225 126.348C26.7366 125.762 26.2737 125.067 25.9338 124.265C25.5999 123.456 25.4329 122.595 25.4329 121.681ZM39.0992 125.39C39.0992 124.563 39.3687 123.913 39.9077 123.438C40.4468 122.964 41.2144 122.691 42.2105 122.621L44.9527 122.419V122.059C44.9527 121.596 44.8033 121.235 44.5044 120.978C44.2056 120.714 43.7837 120.582 43.2388 120.582C42.4185 120.582 41.5982 120.857 40.7779 121.408L39.7847 119.738C40.9156 118.912 42.1636 118.499 43.5288 118.499C44.648 118.499 45.5445 118.798 46.2183 119.396C46.898 119.987 47.2378 120.778 47.2378 121.769V125.425C47.2378 125.788 47.4107 125.97 47.7564 125.97H48.2398V128H47.1499C46.7046 128 46.315 127.903 45.981 127.71C45.647 127.517 45.398 127.247 45.2339 126.901C44.8999 127.323 44.4839 127.651 43.9859 127.886C43.4878 128.12 42.9341 128.237 42.3247 128.237C41.399 128.237 40.6284 127.968 40.0132 127.429C39.4038 126.89 39.0992 126.21 39.0992 125.39ZM41.3492 125.372C41.3492 125.694 41.4868 125.952 41.7622 126.146C42.0376 126.339 42.398 126.436 42.8433 126.436C43.4292 126.436 43.9273 126.271 44.3374 125.943C44.7476 125.609 44.9527 125.208 44.9527 124.739V124.15L42.5357 124.361C41.7447 124.432 41.3492 124.769 41.3492 125.372ZM50.0408 118.692H52.3787V119.58C53.2518 118.836 54.2537 118.464 55.3846 118.464C56.0643 118.464 56.7117 118.596 57.327 118.859C57.9422 119.117 58.4695 119.466 58.909 119.905C59.3543 120.345 59.7059 120.866 59.9637 121.47C60.2274 122.067 60.3592 122.697 60.3592 123.359C60.3592 124.021 60.2274 124.654 59.9637 125.258C59.7059 125.861 59.3543 126.383 58.909 126.822C58.4695 127.262 57.9422 127.61 57.327 127.868C56.7117 128.126 56.0643 128.255 55.3846 128.255C54.2772 128.255 53.2811 127.889 52.3963 127.156V131.779H50.0408V118.692ZM52.3611 123.359C52.3611 124.15 52.6365 124.818 53.1873 125.363C53.7381 125.908 54.4061 126.181 55.1912 126.181C55.9705 126.181 56.6356 125.908 57.1863 125.363C57.7371 124.812 58.0125 124.145 58.0125 123.359C58.0125 122.58 57.7342 121.912 57.1775 121.355C56.6268 120.793 55.9647 120.512 55.1912 120.512C54.4119 120.512 53.744 120.79 53.1873 121.347C52.6365 121.903 52.3611 122.574 52.3611 123.359ZM65.9308 128C65.1104 128 64.4776 127.786 64.0323 127.358C63.5929 126.925 63.3731 126.359 63.3731 125.662V120.731H61.5538V118.692H63.3731V115.994H65.7198V118.692H67.7677V120.731H65.7198V125.249C65.7198 125.483 65.796 125.662 65.9483 125.785C66.1065 125.908 66.3233 125.97 66.5987 125.97H67.7677V128H65.9308ZM69.1732 125.39C69.1732 124.563 69.4427 123.913 69.9818 123.438C70.5209 122.964 71.2884 122.691 72.2845 122.621L75.0267 122.419V122.059C75.0267 121.596 74.8773 121.235 74.5785 120.978C74.2797 120.714 73.8578 120.582 73.3129 120.582C72.4925 120.582 71.6722 120.857 70.8519 121.408L69.8588 119.738C70.9896 118.912 72.2377 118.499 73.6029 118.499C74.722 118.499 75.6185 118.798 76.2924 119.396C76.972 119.987 77.3119 120.778 77.3119 121.769V125.425C77.3119 125.788 77.4847 125.97 77.8304 125.97H78.3138V128H77.224C76.7787 128 76.389 127.903 76.055 127.71C75.7211 127.517 75.472 127.247 75.308 126.901C74.974 127.323 74.558 127.651 74.0599 127.886C73.5619 128.12 73.0082 128.237 72.3988 128.237C71.473 128.237 70.7025 127.968 70.0873 127.429C69.4779 126.89 69.1732 126.21 69.1732 125.39ZM71.4232 125.372C71.4232 125.694 71.5609 125.952 71.8363 126.146C72.1117 126.339 72.472 126.436 72.9174 126.436C73.5033 126.436 74.0013 126.271 74.4115 125.943C74.8217 125.609 75.0267 125.208 75.0267 124.739V124.15L72.6097 124.361C71.8187 124.432 71.4232 124.769 71.4232 125.372ZM82.2243 117.33C81.9782 117.582 81.6706 117.708 81.3014 117.708C80.9323 117.708 80.6188 117.582 80.361 117.33C80.1032 117.072 79.9743 116.759 79.9743 116.39C79.9743 116.021 80.1032 115.713 80.361 115.467C80.6188 115.221 80.9323 115.098 81.3014 115.098C81.6706 115.098 81.9782 115.221 82.2243 115.467C82.4762 115.713 82.6022 116.021 82.6022 116.39C82.6022 116.759 82.4762 117.072 82.2243 117.33ZM82.4704 118.692V128H80.1149V118.692H82.4704ZM93.3945 122.076V128H91.039V122.542C91.039 121.938 90.8603 121.455 90.5029 121.092C90.1513 120.729 89.6884 120.547 89.1142 120.547C88.54 120.547 88.0712 120.729 87.7079 121.092C87.3447 121.449 87.163 121.933 87.163 122.542V128H84.8075V118.692H87.163V119.483C87.8368 118.792 88.6894 118.446 89.7206 118.446C90.7988 118.446 91.6806 118.795 92.3661 119.492C93.0517 120.184 93.3945 121.045 93.3945 122.076ZM99.5022 128.22C98.3186 128.22 97.3518 127.927 96.6018 127.341C95.8576 126.755 95.3918 125.996 95.2043 125.064H97.4367C97.5481 125.516 97.7883 125.853 98.1574 126.075C98.5266 126.292 98.9748 126.4 99.5022 126.4C99.924 126.4 100.252 126.312 100.487 126.137C100.721 125.961 100.838 125.729 100.838 125.442C100.838 125.249 100.759 125.076 100.601 124.924C100.443 124.771 100.208 124.657 99.8977 124.581L97.9729 124.133C96.2326 123.717 95.3625 122.803 95.3625 121.391C95.3625 120.512 95.6877 119.806 96.3381 119.272C96.9885 118.733 97.8205 118.464 98.8342 118.464C99.9826 118.464 100.914 118.763 101.629 119.36C102.35 119.952 102.78 120.714 102.921 121.646H100.706C100.589 121.188 100.352 120.846 99.9943 120.617C99.6369 120.389 99.2443 120.274 98.8166 120.274C98.4533 120.274 98.1692 120.356 97.9641 120.521C97.7649 120.685 97.6652 120.893 97.6652 121.145C97.6652 121.625 98.0373 121.953 98.7815 122.129L100.566 122.568C102.271 122.979 103.123 123.878 103.123 125.267C103.123 126.122 102.795 126.828 102.139 127.385C101.483 127.941 100.604 128.22 99.5022 128.22Z" fill="black"/>
<path d="M26.7313 156.789C26.7313 157.768 27.0178 158.56 27.5907 159.164C28.1636 159.768 28.885 160.07 29.7548 160.07C30.6246 160.07 31.3537 159.766 31.9423 159.156C32.5308 158.547 32.8251 157.758 32.8251 156.789V149.797H34.0282V161H32.8251V159.641C32.4553 160.125 31.9996 160.5 31.4579 160.766C30.9162 161.026 30.3225 161.156 29.6766 161.156C28.9058 161.156 28.2053 160.982 27.5751 160.633C26.9501 160.279 26.4527 159.771 26.0829 159.109C25.7131 158.448 25.5282 157.693 25.5282 156.844V149.797H26.7313V156.789ZM43.0979 155.852V161H41.9416V156.039C41.9416 155.398 41.7489 154.878 41.3635 154.477C40.9781 154.07 40.4729 153.867 39.8479 153.867C39.1812 153.867 38.6317 154.083 38.1994 154.516C37.7724 154.943 37.5588 155.487 37.5588 156.148V161H36.4026V152.969H37.5588V154.07C37.8297 153.674 38.1812 153.365 38.6135 153.141C39.051 152.917 39.5354 152.805 40.0666 152.805C40.9573 152.805 41.6838 153.099 42.2463 153.688C42.814 154.271 43.0979 154.992 43.0979 155.852ZM46.5738 161H45.4176V149.797H46.5738V161ZM56.4716 154.891C56.8466 155.531 57.0341 156.229 57.0341 156.984C57.0341 157.74 56.8466 158.438 56.4716 159.078C56.0966 159.719 55.5836 160.227 54.9326 160.602C54.2867 160.971 53.5784 161.156 52.8076 161.156C52.2242 161.156 51.6722 161.047 51.1513 160.828C50.6305 160.609 50.1826 160.312 49.8076 159.938C49.4326 159.562 49.1357 159.12 48.9169 158.609C48.6982 158.094 48.5888 157.552 48.5888 156.984C48.5888 156.229 48.7737 155.534 49.1435 154.898C49.5133 154.258 50.0211 153.753 50.6669 153.383C51.318 153.008 52.0315 152.82 52.8076 152.82C53.5784 152.82 54.2867 153.005 54.9326 153.375C55.5836 153.745 56.0966 154.25 56.4716 154.891ZM55.8779 156.984C55.8779 156.109 55.5758 155.37 54.9716 154.766C54.3727 154.156 53.6513 153.852 52.8076 153.852C51.9586 153.852 51.2347 154.156 50.6357 154.766C50.0367 155.37 49.7373 156.109 49.7373 156.984C49.7373 157.854 50.0367 158.594 50.6357 159.203C51.2347 159.812 51.9586 160.117 52.8076 160.117C53.6513 160.117 54.3727 159.812 54.9716 159.203C55.5758 158.594 55.8779 157.854 55.8779 156.984ZM60.7601 154.766C60.1611 155.37 59.8616 156.109 59.8616 156.984C59.8616 157.859 60.1611 158.604 60.7601 159.219C61.359 159.828 62.083 160.133 62.9319 160.133C63.4372 160.133 63.9085 160.016 64.346 159.781C64.7835 159.547 65.1507 159.227 65.4476 158.82L66.3069 159.43C65.9111 159.971 65.4241 160.396 64.846 160.703C64.2731 161.005 63.6351 161.156 62.9319 161.156C62.1507 161.156 61.4372 160.971 60.7913 160.602C60.1455 160.227 59.6377 159.721 59.2679 159.086C58.8981 158.445 58.7132 157.745 58.7132 156.984C58.7132 156.224 58.8981 155.526 59.2679 154.891C59.6377 154.255 60.1455 153.753 60.7913 153.383C61.4372 153.008 62.1507 152.82 62.9319 152.82C63.6299 152.82 64.2679 152.974 64.846 153.281C65.4241 153.583 65.9111 154.003 66.3069 154.539L65.4476 155.156C65.1559 154.75 64.7887 154.432 64.346 154.203C63.9085 153.969 63.4372 153.852 62.9319 153.852C62.083 153.852 61.359 154.156 60.7601 154.766ZM68.0407 149.797H69.1969V156.57L72.8923 152.969H74.3454L70.2516 156.859L74.5094 161H72.986L69.1969 157.227V161H68.0407V149.797ZM83.9848 152.969H84.9769L87.1098 159.211L88.9301 152.969H90.1176L87.6644 161H86.6566L84.4848 154.586L82.2894 161H81.2816L78.8363 152.969H80.0394L81.8754 159.227L83.9848 152.969ZM91.1326 156.984C91.1326 156.229 91.3097 155.534 91.6638 154.898C92.0232 154.263 92.5154 153.758 93.1404 153.383C93.7654 153.008 94.4555 152.82 95.2107 152.82C95.7628 152.82 96.281 152.927 96.7654 153.141C97.255 153.349 97.6742 153.635 98.0232 154C98.3722 154.359 98.6456 154.792 98.8435 155.297C99.0466 155.797 99.1482 156.328 99.1482 156.891V157.336H92.281C92.3696 158.133 92.7003 158.799 93.2732 159.336C93.8513 159.867 94.5336 160.133 95.3201 160.133C95.8357 160.133 96.3123 160.018 96.7498 159.789C97.1873 159.56 97.5597 159.237 97.867 158.82L98.7263 159.43C98.3357 159.966 97.8461 160.385 97.2576 160.688C96.669 160.99 96.0284 161.141 95.3357 161.141C94.1534 161.141 93.156 160.74 92.3435 159.938C91.5362 159.135 91.1326 158.151 91.1326 156.984ZM95.2107 153.828C94.492 153.828 93.8617 154.068 93.3201 154.547C92.7784 155.021 92.4425 155.63 92.3123 156.375H97.992C97.8878 155.635 97.5727 155.026 97.0466 154.547C96.5206 154.068 95.9086 153.828 95.2107 153.828ZM100.687 158.789C100.687 158.117 100.911 157.578 101.359 157.172C101.812 156.766 102.447 156.536 103.265 156.484L105.905 156.312V155.562C105.905 155.031 105.744 154.62 105.421 154.328C105.098 154.031 104.645 153.883 104.062 153.883C103.249 153.883 102.53 154.164 101.905 154.727L101.296 153.898C102.093 153.195 103.064 152.844 104.21 152.844C105.075 152.844 105.762 153.073 106.273 153.531C106.783 153.99 107.038 154.612 107.038 155.398V159.492C107.038 159.643 107.082 159.763 107.171 159.852C107.265 159.935 107.392 159.977 107.554 159.977H107.952V161H107.327C106.942 161 106.622 160.901 106.366 160.703C106.116 160.5 105.973 160.232 105.937 159.898C105.666 160.289 105.306 160.596 104.859 160.82C104.416 161.044 103.926 161.156 103.39 161.156C102.609 161.156 101.963 160.938 101.452 160.5C100.942 160.057 100.687 159.487 100.687 158.789ZM101.812 158.789C101.812 159.195 101.976 159.534 102.304 159.805C102.637 160.07 103.059 160.203 103.569 160.203C104.226 160.203 104.778 159.995 105.226 159.578C105.679 159.156 105.905 158.648 105.905 158.055V157.242L103.444 157.414C102.918 157.451 102.515 157.589 102.234 157.828C101.952 158.068 101.812 158.388 101.812 158.789ZM110.788 161H109.631V149.797H110.788V161ZM115.724 161C115.188 161 114.766 160.857 114.459 160.57C114.152 160.279 113.998 159.893 113.998 159.414V153.992H112.498V152.969H113.998V150.555H115.154V152.969H117.053V153.992H115.154V159.242C115.154 159.471 115.224 159.651 115.365 159.781C115.511 159.911 115.717 159.977 115.982 159.977H117.053V161H115.724ZM119.911 156.148V161H118.755V149.797H119.911V154.086C120.177 153.685 120.531 153.372 120.974 153.148C121.422 152.919 121.911 152.805 122.443 152.805C123.323 152.805 124.044 153.099 124.607 153.688C125.169 154.271 125.45 154.992 125.45 155.852V161H124.294V156.039C124.294 155.398 124.101 154.878 123.716 154.477C123.331 154.07 122.825 153.867 122.2 153.867C121.534 153.867 120.984 154.083 120.552 154.516C120.125 154.943 119.911 155.487 119.911 156.148ZM139.762 161H138.605V159.688C138.23 160.151 137.775 160.513 137.238 160.773C136.702 161.029 136.118 161.156 135.488 161.156C134.322 161.156 133.335 160.753 132.527 159.945C131.72 159.138 131.316 158.151 131.316 156.984C131.316 156.224 131.499 155.526 131.863 154.891C132.233 154.25 132.738 153.745 133.379 153.375C134.019 153.005 134.723 152.82 135.488 152.82C136.118 152.82 136.702 152.953 137.238 153.219C137.775 153.479 138.23 153.844 138.605 154.312V149.797H139.762V161ZM137.73 159.211C138.329 158.596 138.629 157.854 138.629 156.984C138.629 156.115 138.327 155.375 137.723 154.766C137.124 154.156 136.4 153.852 135.551 153.852C134.697 153.852 133.967 154.156 133.363 154.766C132.764 155.375 132.465 156.115 132.465 156.984C132.465 157.859 132.764 158.604 133.363 159.219C133.962 159.828 134.691 160.133 135.551 160.133C136.405 160.133 137.131 159.826 137.73 159.211ZM141.784 156.984C141.784 156.229 141.962 155.534 142.316 154.898C142.675 154.263 143.167 153.758 143.792 153.383C144.417 153.008 145.107 152.82 145.863 152.82C146.415 152.82 146.933 152.927 147.417 153.141C147.907 153.349 148.326 153.635 148.675 154C149.024 154.359 149.297 154.792 149.495 155.297C149.699 155.797 149.8 156.328 149.8 156.891V157.336H142.933C143.021 158.133 143.352 158.799 143.925 159.336C144.503 159.867 145.185 160.133 145.972 160.133C146.488 160.133 146.964 160.018 147.402 159.789C147.839 159.56 148.212 159.237 148.519 158.82L149.378 159.43C148.988 159.966 148.498 160.385 147.909 160.688C147.321 160.99 146.68 161.141 145.988 161.141C144.805 161.141 143.808 160.74 142.995 159.938C142.188 159.135 141.784 158.151 141.784 156.984ZM145.863 153.828C145.144 153.828 144.514 154.068 143.972 154.547C143.43 155.021 143.094 155.63 142.964 156.375H148.644C148.54 155.635 148.225 155.026 147.699 154.547C147.172 154.068 146.56 153.828 145.863 153.828ZM151.339 158.789C151.339 158.117 151.562 157.578 152.01 157.172C152.464 156.766 153.099 156.536 153.917 156.484L156.557 156.312V155.562C156.557 155.031 156.396 154.62 156.073 154.328C155.75 154.031 155.297 153.883 154.714 153.883C153.901 153.883 153.182 154.164 152.557 154.727L151.948 153.898C152.745 153.195 153.716 152.844 154.862 152.844C155.727 152.844 156.414 153.073 156.924 153.531C157.435 153.99 157.69 154.612 157.69 155.398V159.492C157.69 159.643 157.734 159.763 157.823 159.852C157.917 159.935 158.044 159.977 158.206 159.977H158.604V161H157.979C157.594 161 157.273 160.901 157.018 160.703C156.768 160.5 156.625 160.232 156.589 159.898C156.318 160.289 155.958 160.596 155.51 160.82C155.068 161.044 154.578 161.156 154.042 161.156C153.26 161.156 152.615 160.938 152.104 160.5C151.594 160.057 151.339 159.487 151.339 158.789ZM152.464 158.789C152.464 159.195 152.628 159.534 152.956 159.805C153.289 160.07 153.711 160.203 154.221 160.203C154.878 160.203 155.43 159.995 155.878 159.578C156.331 159.156 156.557 158.648 156.557 158.055V157.242L154.096 157.414C153.57 157.451 153.167 157.589 152.885 157.828C152.604 158.068 152.464 158.388 152.464 158.789ZM161.439 161H160.283V149.797H161.439V161ZM166.977 153.992V152.969H168.493V151.336C168.493 150.815 168.639 150.401 168.93 150.094C169.227 149.781 169.636 149.625 170.157 149.625H171.36V150.648H170.352C170.128 150.648 169.954 150.719 169.829 150.859C169.709 150.995 169.649 151.185 169.649 151.43V152.969H171.36V153.992H169.649V161H168.493V153.992H166.977ZM180.258 154.891C180.633 155.531 180.82 156.229 180.82 156.984C180.82 157.74 180.633 158.438 180.258 159.078C179.883 159.719 179.37 160.227 178.719 160.602C178.073 160.971 177.365 161.156 176.594 161.156C176.01 161.156 175.458 161.047 174.938 160.828C174.417 160.609 173.969 160.312 173.594 159.938C173.219 159.562 172.922 159.12 172.703 158.609C172.484 158.094 172.375 157.552 172.375 156.984C172.375 156.229 172.56 155.534 172.93 154.898C173.3 154.258 173.807 153.753 174.453 153.383C175.104 153.008 175.818 152.82 176.594 152.82C177.365 152.82 178.073 153.005 178.719 153.375C179.37 153.745 179.883 154.25 180.258 154.891ZM179.664 156.984C179.664 156.109 179.362 155.37 178.758 154.766C178.159 154.156 177.438 153.852 176.594 153.852C175.745 153.852 175.021 154.156 174.422 154.766C173.823 155.37 173.524 156.109 173.524 156.984C173.524 157.854 173.823 158.594 174.422 159.203C175.021 159.812 175.745 160.117 176.594 160.117C177.438 160.117 178.159 159.812 178.758 159.203C179.362 158.594 179.664 157.854 179.664 156.984ZM186.445 153.977H185.843C185.291 153.977 184.838 154.185 184.484 154.602C184.13 155.018 183.953 155.542 183.953 156.172V161H182.796V152.969H183.953V154.023C184.15 153.674 184.414 153.401 184.742 153.203C185.075 153.005 185.458 152.906 185.89 152.906H186.445V153.977ZM35.4188 179.414C35.4188 180.174 35.2678 180.901 34.9657 181.594C34.6688 182.281 34.2678 182.875 33.7626 183.375C33.2574 183.87 32.6532 184.266 31.9501 184.562C31.2522 184.854 30.5152 185 29.7391 185H25.6141V173.797H29.7391C30.7704 173.797 31.7209 174.047 32.5907 174.547C33.4657 175.047 34.1558 175.729 34.661 176.594C35.1662 177.453 35.4188 178.393 35.4188 179.414ZM29.6766 174.859H26.8094V183.945H29.6766C30.51 183.945 31.273 183.745 31.9657 183.344C32.6636 182.943 33.2131 182.396 33.6141 181.703C34.0204 181.005 34.2235 180.242 34.2235 179.414C34.2235 178.586 34.0204 177.823 33.6141 177.125C33.2131 176.422 32.6636 175.87 31.9657 175.469C31.2678 175.062 30.5048 174.859 29.6766 174.859ZM41.1604 177.977H40.5588C40.0067 177.977 39.5536 178.185 39.1994 178.602C38.8453 179.018 38.6682 179.542 38.6682 180.172V185H37.5119V176.969H38.6682V178.023C38.8661 177.674 39.1291 177.401 39.4573 177.203C39.7906 177.005 40.1734 176.906 40.6057 176.906H41.1604V177.977ZM44.0113 175.328C43.8655 175.474 43.6884 175.547 43.4801 175.547C43.2717 175.547 43.0921 175.474 42.941 175.328C42.79 175.177 42.7144 174.997 42.7144 174.789C42.7144 174.576 42.79 174.396 42.941 174.25C43.0921 174.099 43.2717 174.023 43.4801 174.023C43.6884 174.023 43.8655 174.099 44.0113 174.25C44.1624 174.396 44.2379 174.576 44.2379 174.789C44.2379 174.997 44.1624 175.177 44.0113 175.328ZM44.0426 176.969V185H42.8863V176.969H44.0426ZM48.8076 185L45.4482 176.969H46.6748L49.2841 183.383L51.8779 176.969H53.0966L49.7373 185H48.8076ZM53.8069 180.984C53.8069 180.229 53.984 179.534 54.3382 178.898C54.6976 178.263 55.1898 177.758 55.8148 177.383C56.4398 177.008 57.1299 176.82 57.8851 176.82C58.4372 176.82 58.9554 176.927 59.4398 177.141C59.9293 177.349 60.3486 177.635 60.6976 178C61.0465 178.359 61.32 178.792 61.5179 179.297C61.721 179.797 61.8226 180.328 61.8226 180.891V181.336H54.9554C55.0439 182.133 55.3747 182.799 55.9476 183.336C56.5257 183.867 57.208 184.133 57.9944 184.133C58.5101 184.133 58.9866 184.018 59.4241 183.789C59.8616 183.56 60.234 183.237 60.5413 182.82L61.4007 183.43C61.0101 183.966 60.5205 184.385 59.9319 184.688C59.3434 184.99 58.7028 185.141 58.0101 185.141C56.8278 185.141 55.8304 184.74 55.0179 183.938C54.2106 183.135 53.8069 182.151 53.8069 180.984ZM57.8851 177.828C57.1663 177.828 56.5361 178.068 55.9944 178.547C55.4528 179.021 55.1168 179.63 54.9866 180.375H60.6663C60.5622 179.635 60.2471 179.026 59.721 178.547C59.195 178.068 58.583 177.828 57.8851 177.828ZM67.4704 177.977H66.8688C66.3167 177.977 65.8636 178.185 65.5094 178.602C65.1553 179.018 64.9782 179.542 64.9782 180.172V185H63.8219V176.969H64.9782V178.023C65.1761 177.674 65.4391 177.401 65.7673 177.203C66.1006 177.005 66.4834 176.906 66.9157 176.906H67.4704V177.977ZM72.001 185.156C71.1208 185.156 70.3812 184.919 69.7823 184.445C69.1833 183.966 68.8239 183.341 68.7041 182.57H69.8057C69.9099 183.076 70.1573 183.474 70.5479 183.766C70.9437 184.057 71.4177 184.203 71.9698 184.203C72.4698 184.203 72.8708 184.089 73.1729 183.859C73.4802 183.625 73.6338 183.323 73.6338 182.953C73.6338 182.63 73.5218 182.359 73.2979 182.141C73.0791 181.922 72.7276 181.745 72.2432 181.609L70.9463 181.258C69.5557 180.888 68.8604 180.167 68.8604 179.094C68.8604 178.411 69.1 177.862 69.5791 177.445C70.0583 177.029 70.6781 176.82 71.4385 176.82C72.2823 176.82 72.988 177.06 73.5557 177.539C74.1286 178.013 74.4698 178.628 74.5791 179.383H73.4541C73.3604 178.888 73.126 178.495 72.751 178.203C72.3812 177.911 71.9489 177.766 71.4541 177.766C71.0062 177.766 70.6494 177.878 70.3838 178.102C70.1182 178.326 69.9854 178.62 69.9854 178.984C69.9854 179.573 70.4229 179.995 71.2979 180.25L72.5635 180.586C73.2875 180.779 73.8343 181.068 74.2041 181.453C74.5791 181.833 74.7666 182.297 74.7666 182.844C74.7666 183.526 74.5114 184.083 74.001 184.516C73.4958 184.943 72.8291 185.156 72.001 185.156ZM81.6169 185H80.4607V173.797H81.6169V185ZM91.5148 178.891C91.8898 179.531 92.0773 180.229 92.0773 180.984C92.0773 181.74 91.8898 182.438 91.5148 183.078C91.1398 183.719 90.6267 184.227 89.9757 184.602C89.3299 184.971 88.6215 185.156 87.8507 185.156C87.2674 185.156 86.7153 185.047 86.1944 184.828C85.6736 184.609 85.2257 184.312 84.8507 183.938C84.4757 183.562 84.1788 183.12 83.9601 182.609C83.7413 182.094 83.6319 181.552 83.6319 180.984C83.6319 180.229 83.8168 179.534 84.1866 178.898C84.5564 178.258 85.0642 177.753 85.7101 177.383C86.3611 177.008 87.0747 176.82 87.8507 176.82C88.6215 176.82 89.3299 177.005 89.9757 177.375C90.6267 177.745 91.1398 178.25 91.5148 178.891ZM90.921 180.984C90.921 180.109 90.6189 179.37 90.0148 178.766C89.4158 178.156 88.6944 177.852 87.8507 177.852C87.0017 177.852 86.2778 178.156 85.6788 178.766C85.0799 179.37 84.7804 180.109 84.7804 180.984C84.7804 181.854 85.0799 182.594 85.6788 183.203C86.2778 183.812 87.0017 184.117 87.8507 184.117C88.6944 184.117 89.4158 183.812 90.0148 183.203C90.6189 182.594 90.921 181.854 90.921 180.984ZM101.639 178.891C102.014 179.531 102.202 180.229 102.202 180.984C102.202 181.74 102.014 182.438 101.639 183.078C101.264 183.719 100.751 184.227 100.1 184.602C99.4542 184.971 98.7459 185.156 97.9751 185.156C97.3917 185.156 96.8397 185.047 96.3188 184.828C95.798 184.609 95.3501 184.312 94.9751 183.938C94.6001 183.562 94.3032 183.12 94.0844 182.609C93.8657 182.094 93.7563 181.552 93.7563 180.984C93.7563 180.229 93.9412 179.534 94.311 178.898C94.6808 178.258 95.1886 177.753 95.8344 177.383C96.4855 177.008 97.199 176.82 97.9751 176.82C98.7459 176.82 99.4542 177.005 100.1 177.375C100.751 177.745 101.264 178.25 101.639 178.891ZM101.045 180.984C101.045 180.109 100.743 179.37 100.139 178.766C99.5402 178.156 98.8188 177.852 97.9751 177.852C97.1261 177.852 96.4022 178.156 95.8032 178.766C95.2042 179.37 94.9048 180.109 94.9048 180.984C94.9048 181.854 95.2042 182.594 95.8032 183.203C96.4022 183.812 97.1261 184.117 97.9751 184.117C98.8188 184.117 99.5402 183.812 100.139 183.203C100.743 182.594 101.045 181.854 101.045 180.984ZM104.178 173.797H105.334V180.57L109.029 176.969H110.482L106.389 180.859L110.646 185H109.123L105.334 181.227V185H104.178V173.797ZM112.974 175.328C112.828 175.474 112.651 175.547 112.443 175.547C112.234 175.547 112.055 175.474 111.904 175.328C111.752 175.177 111.677 174.997 111.677 174.789C111.677 174.576 111.752 174.396 111.904 174.25C112.055 174.099 112.234 174.023 112.443 174.023C112.651 174.023 112.828 174.099 112.974 174.25C113.125 174.396 113.2 174.576 113.2 174.789C113.2 174.997 113.125 175.177 112.974 175.328ZM113.005 176.969V185H111.849V176.969H113.005ZM122.012 179.852V185H120.856V180.039C120.856 179.398 120.663 178.878 120.278 178.477C119.892 178.07 119.387 177.867 118.762 177.867C118.096 177.867 117.546 178.083 117.114 178.516C116.687 178.943 116.473 179.487 116.473 180.148V185H115.317V176.969H116.473V178.07C116.744 177.674 117.096 177.365 117.528 177.141C117.965 176.917 118.45 176.805 118.981 176.805C119.872 176.805 120.598 177.099 121.161 177.688C121.728 178.271 122.012 178.992 122.012 179.852ZM132.387 176.969V185.195C132.387 186.096 132.129 186.802 131.613 187.312C131.098 187.828 130.389 188.086 129.488 188.086H127.715V187.062H129.246C130.569 187.062 131.23 186.406 131.23 185.094V183.625C130.866 184.083 130.418 184.44 129.887 184.695C129.361 184.951 128.785 185.078 128.16 185.078C127.4 185.078 126.702 184.896 126.066 184.531C125.431 184.167 124.931 183.667 124.566 183.031C124.202 182.396 124.019 181.698 124.019 180.938C124.019 180.182 124.202 179.487 124.566 178.852C124.936 178.216 125.439 177.716 126.074 177.352C126.71 176.987 127.405 176.805 128.16 176.805C128.78 176.805 129.358 176.938 129.894 177.203C130.431 177.464 130.881 177.828 131.246 178.297V176.969H132.387ZM125.168 180.938C125.168 181.807 125.462 182.544 126.051 183.148C126.639 183.753 127.358 184.055 128.207 184.055C129.056 184.055 129.777 183.753 130.371 183.148C130.965 182.539 131.262 181.802 131.262 180.938C131.262 180.083 130.962 179.352 130.363 178.742C129.764 178.133 129.045 177.828 128.207 177.828C127.368 177.828 126.652 178.133 126.059 178.742C125.465 179.352 125.168 180.083 125.168 180.938ZM141.174 185C140.638 185 140.216 184.857 139.909 184.57C139.602 184.279 139.448 183.893 139.448 183.414V177.992H137.948V176.969H139.448V174.555H140.604V176.969H142.503V177.992H140.604V183.242C140.604 183.471 140.674 183.651 140.815 183.781C140.961 183.911 141.167 183.977 141.432 183.977H142.503V185H141.174ZM151.557 178.891C151.932 179.531 152.119 180.229 152.119 180.984C152.119 181.74 151.932 182.438 151.557 183.078C151.182 183.719 150.669 184.227 150.018 184.602C149.372 184.971 148.663 185.156 147.893 185.156C147.309 185.156 146.757 185.047 146.236 184.828C145.715 184.609 145.268 184.312 144.893 183.938C144.518 183.562 144.221 183.12 144.002 182.609C143.783 182.094 143.674 181.552 143.674 180.984C143.674 180.229 143.859 179.534 144.229 178.898C144.598 178.258 145.106 177.753 145.752 177.383C146.403 177.008 147.117 176.82 147.893 176.82C148.663 176.82 149.372 177.005 150.018 177.375C150.669 177.745 151.182 178.25 151.557 178.891ZM150.963 180.984C150.963 180.109 150.661 179.37 150.057 178.766C149.458 178.156 148.736 177.852 147.893 177.852C147.044 177.852 146.32 178.156 145.721 178.766C145.122 179.37 144.822 180.109 144.822 180.984C144.822 181.854 145.122 182.594 145.721 183.203C146.32 183.812 147.044 184.117 147.893 184.117C148.736 184.117 149.458 183.812 150.057 183.203C150.661 182.594 150.963 181.854 150.963 180.984ZM157.641 180.984C157.641 180.229 157.818 179.534 158.173 178.898C158.532 178.263 159.024 177.758 159.649 177.383C160.274 177.008 160.964 176.82 161.719 176.82C162.272 176.82 162.79 176.927 163.274 177.141C163.764 177.349 164.183 177.635 164.532 178C164.881 178.359 165.154 178.792 165.352 179.297C165.555 179.797 165.657 180.328 165.657 180.891V181.336H158.79C158.878 182.133 159.209 182.799 159.782 183.336C160.36 183.867 161.042 184.133 161.829 184.133C162.344 184.133 162.821 184.018 163.259 183.789C163.696 183.56 164.068 183.237 164.376 182.82L165.235 183.43C164.844 183.966 164.355 184.385 163.766 184.688C163.178 184.99 162.537 185.141 161.844 185.141C160.662 185.141 159.665 184.74 158.852 183.938C158.045 183.135 157.641 182.151 157.641 180.984ZM161.719 177.828C161.001 177.828 160.37 178.068 159.829 178.547C159.287 179.021 158.951 179.63 158.821 180.375H164.501C164.397 179.635 164.081 179.026 163.555 178.547C163.029 178.068 162.417 177.828 161.719 177.828ZM167.195 182.789C167.195 182.117 167.419 181.578 167.867 181.172C168.32 180.766 168.956 180.536 169.774 180.484L172.414 180.312V179.562C172.414 179.031 172.253 178.62 171.93 178.328C171.607 178.031 171.154 177.883 170.57 177.883C169.758 177.883 169.039 178.164 168.414 178.727L167.805 177.898C168.602 177.195 169.573 176.844 170.719 176.844C171.583 176.844 172.271 177.073 172.781 177.531C173.292 177.99 173.547 178.612 173.547 179.398V183.492C173.547 183.643 173.591 183.763 173.68 183.852C173.774 183.935 173.901 183.977 174.063 183.977H174.461V185H173.836C173.451 185 173.13 184.901 172.875 184.703C172.625 184.5 172.482 184.232 172.445 183.898C172.175 184.289 171.815 184.596 171.367 184.82C170.925 185.044 170.435 185.156 169.899 185.156C169.117 185.156 168.471 184.938 167.961 184.5C167.451 184.057 167.195 183.487 167.195 182.789ZM168.32 182.789C168.32 183.195 168.484 183.534 168.813 183.805C169.146 184.07 169.568 184.203 170.078 184.203C170.734 184.203 171.287 183.995 171.734 183.578C172.188 183.156 172.414 182.648 172.414 182.055V181.242L169.953 181.414C169.427 181.451 169.024 181.589 168.742 181.828C168.461 182.068 168.32 182.388 168.32 182.789ZM179.789 177.977H179.187C178.635 177.977 178.182 178.185 177.828 178.602C177.473 179.018 177.296 179.542 177.296 180.172V185H176.14V176.969H177.296V178.023C177.494 177.674 177.757 177.401 178.085 177.203C178.419 177.005 178.802 176.906 179.234 176.906H179.789V177.977ZM188.21 179.852V185H187.054V180.039C187.054 179.398 186.861 178.878 186.475 178.477C186.09 178.07 185.585 177.867 184.96 177.867C184.293 177.867 183.744 178.083 183.311 178.516C182.884 178.943 182.671 179.487 182.671 180.148V185H181.514V176.969H182.671V178.07C182.942 177.674 183.293 177.365 183.725 177.141C184.163 176.917 184.647 176.805 185.179 176.805C186.069 176.805 186.796 177.099 187.358 177.688C187.926 178.271 188.21 178.992 188.21 179.852ZM195.529 180.133V185H194.373V176.969H195.529V178.039C195.789 177.654 196.128 177.352 196.544 177.133C196.966 176.914 197.427 176.805 197.927 176.805C198.526 176.805 199.055 176.956 199.513 177.258C199.977 177.555 200.323 177.953 200.552 178.453C200.787 177.953 201.141 177.555 201.615 177.258C202.094 176.956 202.636 176.805 203.24 176.805C204.099 176.805 204.802 177.094 205.349 177.672C205.896 178.245 206.169 178.958 206.169 179.812V185H205.013V180.039C205.013 179.398 204.828 178.878 204.459 178.477C204.089 178.07 203.602 177.867 202.998 177.867C202.373 177.867 201.86 178.081 201.459 178.508C201.057 178.935 200.857 179.477 200.857 180.133V185H199.701V180.039C199.701 179.404 199.513 178.883 199.138 178.477C198.768 178.07 198.284 177.867 197.685 177.867C197.055 177.867 196.537 178.081 196.13 178.508C195.729 178.935 195.529 179.477 195.529 180.133ZM216.052 178.891C216.427 179.531 216.614 180.229 216.614 180.984C216.614 181.74 216.427 182.438 216.052 183.078C215.677 183.719 215.164 184.227 214.513 184.602C213.867 184.971 213.158 185.156 212.388 185.156C211.804 185.156 211.252 185.047 210.731 184.828C210.21 184.609 209.763 184.312 209.388 183.938C209.013 183.562 208.716 183.12 208.497 182.609C208.278 182.094 208.169 181.552 208.169 180.984C208.169 180.229 208.354 179.534 208.724 178.898C209.093 178.258 209.601 177.753 210.247 177.383C210.898 177.008 211.612 176.82 212.388 176.82C213.158 176.82 213.867 177.005 214.513 177.375C215.164 177.745 215.677 178.25 216.052 178.891ZM215.458 180.984C215.458 180.109 215.156 179.37 214.552 178.766C213.953 178.156 213.231 177.852 212.388 177.852C211.539 177.852 210.815 178.156 210.216 178.766C209.617 179.37 209.317 180.109 209.317 180.984C209.317 181.854 209.617 182.594 210.216 183.203C210.815 183.812 211.539 184.117 212.388 184.117C213.231 184.117 213.953 183.812 214.552 183.203C215.156 182.594 215.458 181.854 215.458 180.984ZM222.239 177.977H221.637C221.085 177.977 220.632 178.185 220.278 178.602C219.923 179.018 219.746 179.542 219.746 180.172V185H218.59V176.969H219.746V178.023C219.944 177.674 220.207 177.401 220.535 177.203C220.869 177.005 221.252 176.906 221.684 176.906H222.239V177.977ZM223.293 180.984C223.293 180.229 223.47 179.534 223.824 178.898C224.183 178.263 224.675 177.758 225.3 177.383C225.925 177.008 226.615 176.82 227.371 176.82C227.923 176.82 228.441 176.927 228.925 177.141C229.415 177.349 229.834 177.635 230.183 178C230.532 178.359 230.806 178.792 231.004 179.297C231.207 179.797 231.308 180.328 231.308 180.891V181.336H224.441C224.53 182.133 224.86 182.799 225.433 183.336C226.011 183.867 226.694 184.133 227.48 184.133C227.996 184.133 228.472 184.018 228.91 183.789C229.347 183.56 229.72 183.237 230.027 182.82L230.886 183.43C230.496 183.966 230.006 184.385 229.418 184.688C228.829 184.99 228.188 185.141 227.496 185.141C226.313 185.141 225.316 184.74 224.504 183.938C223.696 183.135 223.293 182.151 223.293 180.984ZM227.371 177.828C226.652 177.828 226.022 178.068 225.48 178.547C224.938 179.021 224.602 179.63 224.472 180.375H230.152C230.048 179.635 229.733 179.026 229.207 178.547C228.681 178.068 228.069 177.828 227.371 177.828Z" fill="#52525B"/>
<g clip-path="url(#clip0_8350_51914)">
<path d="M44.8 80C60.264 80 72.8 67.464 72.8 52C72.8 36.536 60.264 24 44.8 24C29.3361 24 16.8 36.536 16.8 52C16.8 67.464 29.3361 80 44.8 80Z" fill="#E5FDF3"/>
<path d="M44.8004 71.8332C55.754 71.8332 64.6337 62.9535 64.6337 51.9998C64.6337 41.0462 55.754 32.1665 44.8004 32.1665C33.8467 32.1665 24.967 41.0462 24.967 51.9998C24.967 62.9535 33.8467 71.8332 44.8004 71.8332Z" fill="#BCF2DD"/>
<path d="M52.9999 51.7501H36.9999C36.7699 51.7501 36.5599 51.6501 36.4199 51.4701C36.2799 51.3001 36.2199 51.0601 36.2699 50.8401L37.3999 45.4401C37.7699 43.6901 38.5199 42.0801 41.4899 42.0801H48.5199C51.4899 42.0801 52.2399 43.7001 52.6099 45.4401L53.7399 50.8501C53.7899 51.0701 53.7299 51.3001 53.5899 51.4801C53.4399 51.6501 53.2299 51.7501 52.9999 51.7501ZM37.9199 50.2501H52.0699L51.1299 45.7501C50.8499 44.4401 50.5199 43.5801 48.5099 43.5801H41.4899C39.4799 43.5801 39.1499 44.4401 38.8699 45.7501L37.9199 50.2501Z" fill="#2D7156"/>
<path d="M52.9598 62.7501H51.0798C49.4598 62.7501 49.1498 61.8201 48.9498 61.2101L48.7498 60.6101C48.4898 59.8501 48.4598 59.7501 47.5598 59.7501H42.4398C41.5398 59.7501 41.4798 59.9201 41.2498 60.6101L41.0498 61.2101C40.8398 61.8301 40.5398 62.7501 38.9198 62.7501H37.0398C36.2498 62.7501 35.4898 62.4201 34.9598 61.8401C34.4398 61.2701 34.1898 60.5101 34.2598 59.7501L34.8198 53.6601C34.9698 52.0101 35.4098 50.2501 38.6198 50.2501H51.3798C54.5898 50.2501 55.0198 52.0101 55.1798 53.6601L55.7398 59.7501C55.8098 60.5101 55.5598 61.2701 55.0398 61.8401C54.5098 62.4201 53.7498 62.7501 52.9598 62.7501ZM42.4398 58.2501H47.5598C49.3798 58.2501 49.8098 59.0601 50.1698 60.1201L50.3798 60.7401C50.5498 61.2501 50.5498 61.2601 51.0898 61.2601H52.9698C53.3398 61.2601 53.6898 61.1101 53.9398 60.8401C54.1798 60.5801 54.2898 60.2501 54.2598 59.9001L53.6998 53.8101C53.5698 52.4601 53.4098 51.7601 51.3998 51.7601H38.6198C36.5998 51.7601 36.4398 52.4601 36.3198 53.8101L35.7598 59.9001C35.7298 60.2501 35.8398 60.5801 36.0798 60.8401C36.3198 61.1101 36.6798 61.2601 37.0498 61.2601H38.9298C39.4698 61.2601 39.4698 61.2501 39.6398 60.7501L39.8398 60.1401C40.0898 59.3401 40.4598 58.2501 42.4398 58.2501Z" fill="#2D7156"/>
<path d="M36.9999 48.7501H35.9999C35.5899 48.7501 35.2499 48.4101 35.2499 48.0001C35.2499 47.5901 35.5899 47.2501 35.9999 47.2501H36.9999C37.4099 47.2501 37.7499 47.5901 37.7499 48.0001C37.7499 48.4101 37.4099 48.7501 36.9999 48.7501Z" fill="#2D7156"/>
<path d="M53.9999 48.7501H52.9999C52.5899 48.7501 52.2499 48.4101 52.2499 48.0001C52.2499 47.5901 52.5899 47.2501 52.9999 47.2501H53.9999C54.4099 47.2501 54.7499 47.5901 54.7499 48.0001C54.7499 48.4101 54.4099 48.7501 53.9999 48.7501Z" fill="#2D7156"/>
<path d="M44.9999 45.7501C44.5899 45.7501 44.2499 45.4101 44.2499 45.0001V43.0001C44.2499 42.5901 44.5899 42.2501 44.9999 42.2501C45.4099 42.2501 45.7499 42.5901 45.7499 43.0001V45.0001C45.7499 45.4101 45.4099 45.7501 44.9999 45.7501Z" fill="#2D7156"/>
<path d="M46.4999 45.7501H43.4999C43.0899 45.7501 42.7499 45.4101 42.7499 45.0001C42.7499 44.5901 43.0899 44.2501 43.4999 44.2501H46.4999C46.9099 44.2501 47.2499 44.5901 47.2499 45.0001C47.2499 45.4101 46.9099 45.7501 46.4999 45.7501Z" fill="#2D7156"/>
<path d="M41.9999 55.7501H38.9999C38.5899 55.7501 38.2499 55.4101 38.2499 55.0001C38.2499 54.5901 38.5899 54.2501 38.9999 54.2501H41.9999C42.4099 54.2501 42.7499 54.5901 42.7499 55.0001C42.7499 55.4101 42.4099 55.7501 41.9999 55.7501Z" fill="#2D7156"/>
<path d="M50.9999 55.7501H47.9999C47.5899 55.7501 47.2499 55.4101 47.2499 55.0001C47.2499 54.5901 47.5899 54.2501 47.9999 54.2501H50.9999C51.4099 54.2501 51.7499 54.5901 51.7499 55.0001C51.7499 55.4101 51.4099 55.7501 50.9999 55.7501Z" fill="#2D7156"/>
</g>
<defs>
<clipPath id="clip0_8350_51914">
<rect width="56" height="56" fill="white" transform="translate(16.8 24)"/>
</clipPath>
</defs>
</svg>
