<svg width="57" height="56" viewBox="0 0 57 56" fill="none" xmlns="http://www.w3.org/2000/svg">
<g clip-path="url(#clip0_8350_51919)">
<path d="M28.8 56C44.264 56 56.8 43.464 56.8 28C56.8 12.536 44.264 0 28.8 0C13.3361 0 0.800049 12.536 0.800049 28C0.800049 43.464 13.3361 56 28.8 56Z" fill="#E5FDF3"/>
<path d="M28.8004 47.8332C39.754 47.8332 48.6337 38.9535 48.6337 27.9998C48.6337 17.0462 39.754 8.1665 28.8004 8.1665C17.8467 8.1665 8.96704 17.0462 8.96704 27.9998C8.96704 38.9535 17.8467 47.8332 28.8004 47.8332Z" fill="#BCF2DD"/>
<path d="M36.9999 27.7501H20.9999C20.7699 27.7501 20.5599 27.6501 20.4199 27.4701C20.2799 27.3001 20.2199 27.0601 20.2699 26.8401L21.3999 21.4401C21.7699 19.6901 22.5199 18.0801 25.4899 18.0801H32.5199C35.4899 18.0801 36.2399 19.7001 36.6099 21.4401L37.7399 26.8501C37.7899 27.0701 37.7299 27.3001 37.5899 27.4801C37.4399 27.6501 37.2299 27.7501 36.9999 27.7501ZM21.9199 26.2501H36.0699L35.1299 21.7501C34.8499 20.4401 34.5199 19.5801 32.5099 19.5801H25.4899C23.4799 19.5801 23.1499 20.4401 22.8699 21.7501L21.9199 26.2501Z" fill="#2D7156"/>
<path d="M36.9598 38.7501H35.0798C33.4598 38.7501 33.1498 37.8201 32.9498 37.2101L32.7498 36.6101C32.4898 35.8501 32.4598 35.7501 31.5598 35.7501H26.4398C25.5398 35.7501 25.4798 35.9201 25.2498 36.6101L25.0498 37.2101C24.8398 37.8301 24.5398 38.7501 22.9198 38.7501H21.0398C20.2498 38.7501 19.4898 38.4201 18.9598 37.8401C18.4398 37.2701 18.1898 36.5101 18.2598 35.7501L18.8198 29.6601C18.9698 28.0101 19.4098 26.2501 22.6198 26.2501H35.3798C38.5898 26.2501 39.0198 28.0101 39.1798 29.6601L39.7398 35.7501C39.8098 36.5101 39.5598 37.2701 39.0398 37.8401C38.5098 38.4201 37.7498 38.7501 36.9598 38.7501ZM26.4398 34.2501H31.5598C33.3798 34.2501 33.8098 35.0601 34.1698 36.1201L34.3798 36.7401C34.5498 37.2501 34.5498 37.2601 35.0898 37.2601H36.9698C37.3398 37.2601 37.6898 37.1101 37.9398 36.8401C38.1798 36.5801 38.2898 36.2501 38.2598 35.9001L37.6998 29.8101C37.5698 28.4601 37.4098 27.7601 35.3998 27.7601H22.6198C20.5998 27.7601 20.4398 28.4601 20.3198 29.8101L19.7598 35.9001C19.7298 36.2501 19.8398 36.5801 20.0798 36.8401C20.3198 37.1101 20.6798 37.2601 21.0498 37.2601H22.9298C23.4698 37.2601 23.4698 37.2501 23.6398 36.7501L23.8398 36.1401C24.0898 35.3401 24.4598 34.2501 26.4398 34.2501Z" fill="#2D7156"/>
<path d="M20.9999 24.7501H19.9999C19.5899 24.7501 19.2499 24.4101 19.2499 24.0001C19.2499 23.5901 19.5899 23.2501 19.9999 23.2501H20.9999C21.4099 23.2501 21.7499 23.5901 21.7499 24.0001C21.7499 24.4101 21.4099 24.7501 20.9999 24.7501Z" fill="#2D7156"/>
<path d="M37.9999 24.7501H36.9999C36.5899 24.7501 36.2499 24.4101 36.2499 24.0001C36.2499 23.5901 36.5899 23.2501 36.9999 23.2501H37.9999C38.4099 23.2501 38.7499 23.5901 38.7499 24.0001C38.7499 24.4101 38.4099 24.7501 37.9999 24.7501Z" fill="#2D7156"/>
<path d="M28.9999 21.7501C28.5899 21.7501 28.2499 21.4101 28.2499 21.0001V19.0001C28.2499 18.5901 28.5899 18.2501 28.9999 18.2501C29.4099 18.2501 29.7499 18.5901 29.7499 19.0001V21.0001C29.7499 21.4101 29.4099 21.7501 28.9999 21.7501Z" fill="#2D7156"/>
<path d="M30.4999 21.7501H27.4999C27.0899 21.7501 26.7499 21.4101 26.7499 21.0001C26.7499 20.5901 27.0899 20.2501 27.4999 20.2501H30.4999C30.9099 20.2501 31.2499 20.5901 31.2499 21.0001C31.2499 21.4101 30.9099 21.7501 30.4999 21.7501Z" fill="#2D7156"/>
<path d="M25.9999 31.7501H22.9999C22.5899 31.7501 22.2499 31.4101 22.2499 31.0001C22.2499 30.5901 22.5899 30.2501 22.9999 30.2501H25.9999C26.4099 30.2501 26.7499 30.5901 26.7499 31.0001C26.7499 31.4101 26.4099 31.7501 25.9999 31.7501Z" fill="#2D7156"/>
<path d="M34.9999 31.7501H31.9999C31.5899 31.7501 31.2499 31.4101 31.2499 31.0001C31.2499 30.5901 31.5899 30.2501 31.9999 30.2501H34.9999C35.4099 30.2501 35.7499 30.5901 35.7499 31.0001C35.7499 31.4101 35.4099 31.7501 34.9999 31.7501Z" fill="#2D7156"/>
</g>
<defs>
<clipPath id="clip0_8350_51919">
<rect width="56" height="56" fill="white" transform="translate(0.800049)"/>
</clipPath>
</defs>
</svg>
