<svg width="56" height="56" viewBox="0 0 56 56" fill="none" xmlns="http://www.w3.org/2000/svg">
<g clip-path="url(#clip0_8691_28534)">
<path d="M28 56C43.464 56 56 43.464 56 28C56 12.536 43.464 0 28 0C12.536 0 0 12.536 0 28C0 43.464 12.536 56 28 56Z" fill="#211E8A" fill-opacity="0.05"/>
<path d="M28.0013 47.8332C38.955 47.8332 47.8346 38.9535 47.8346 27.9998C47.8346 17.0462 38.955 8.1665 28.0013 8.1665C17.0477 8.1665 8.16797 17.0462 8.16797 27.9998C8.16797 38.9535 17.0477 47.8332 28.0013 47.8332Z" fill="#211E8A" fill-opacity="0.08"/>
<path d="M26.3452 20.2776C26.3452 20.1302 26.4037 19.9889 26.5079 19.8848C26.6121 19.7806 26.7534 19.722 26.9007 19.722H29.1228C29.2702 19.722 29.4115 19.7806 29.5156 19.8848C29.6198 19.9889 29.6783 20.1302 29.6783 20.2776C29.6783 20.4249 29.6198 20.5662 29.5156 20.6704C29.4115 20.7746 29.2702 20.8331 29.1228 20.8331H26.9007C26.7534 20.8331 26.6121 20.7746 26.5079 20.6704C26.4037 20.5662 26.3452 20.4249 26.3452 20.2776Z" fill="#211E8A"/>
<path fill-rule="evenodd" clip-rule="evenodd" d="M33.2134 24.4551C33.0118 24.6135 32.7501 24.7401 32.4346 24.8429C32.4949 25.46 32.4255 26.083 32.2307 26.6717C32.0359 27.2604 31.72 27.8018 31.3034 28.2612C30.8868 28.7205 30.3787 29.0876 29.8118 29.3388C29.2449 29.5899 28.6316 29.7197 28.0115 29.7197C27.3914 29.7197 26.7782 29.5899 26.2112 29.3388C25.6443 29.0876 25.1362 28.7205 24.7196 28.2612C24.303 27.8018 23.9872 27.2604 23.7923 26.6717C23.5975 26.083 23.5281 25.46 23.5884 24.8429C23.2729 24.7401 23.0113 24.6135 22.8102 24.4551C22.5491 24.2496 22.3741 23.9752 22.3535 23.6452C22.3341 23.3391 22.4552 23.0791 22.5763 22.8958C22.6958 22.7221 22.8378 22.5651 22.9985 22.4286C23.0763 22.3603 23.1529 22.2997 23.224 22.2469C23.2029 22.1331 23.1796 21.9953 23.1562 21.8359C23.0578 21.1356 23.0096 20.4292 23.0118 19.7221C23.0118 19.5477 23.0863 19.4177 23.1207 19.3627C23.164 19.2932 23.2151 19.2338 23.2618 19.186C23.3546 19.0888 23.4746 18.9899 23.6062 18.8949C23.8729 18.7016 24.2395 18.4844 24.675 18.2811C25.5433 17.8755 26.736 17.5 28.0115 17.5C29.2875 17.5 30.4797 17.8761 31.348 18.2811C31.7224 18.4523 32.0802 18.6578 32.4168 18.8949C32.5485 18.9899 32.6685 19.0893 32.7612 19.186C32.8079 19.2338 32.859 19.2932 32.9023 19.3627C32.9368 19.4177 33.0112 19.5477 33.0112 19.7221C33.0112 20.612 32.939 21.3331 32.8668 21.8359C32.8434 21.9953 32.8201 22.1331 32.799 22.2469C32.8701 22.2997 32.9473 22.3603 33.0251 22.4286C33.164 22.5503 33.3229 22.7086 33.4467 22.8958C33.5684 23.0791 33.689 23.3391 33.6701 23.6457C33.6495 23.9752 33.4745 24.2496 33.2134 24.4551ZM24.124 19.8987C24.1323 20.6476 24.1945 21.2531 24.2562 21.6764C24.2706 21.7764 24.2851 21.8653 24.2984 21.9442H31.7246C31.7385 21.8653 31.7524 21.7759 31.7668 21.6764C31.828 21.2531 31.8907 20.6476 31.8991 19.8987C31.8558 19.8622 31.8112 19.8273 31.7652 19.7943C31.5646 19.6493 31.2602 19.4665 30.878 19.2882C30.1097 18.9294 29.0803 18.611 28.0115 18.611C26.9427 18.611 25.9133 18.9294 25.145 19.2882C24.7628 19.4665 24.4584 19.6493 24.2584 19.7938C24.2122 19.8271 24.1674 19.8624 24.124 19.8993V19.8987ZM24.0051 23.0552L24.0034 23.0563C23.9075 23.1202 23.8157 23.19 23.7284 23.2652C23.6296 23.3519 23.5507 23.4363 23.5029 23.5096C23.4915 23.5261 23.4813 23.5434 23.4723 23.5613C23.4802 23.5685 23.4884 23.5753 23.4968 23.5819C23.5801 23.6474 23.759 23.7435 24.1079 23.8385C24.1767 23.8574 24.2506 23.8752 24.3295 23.8929L24.3345 23.8941C24.6134 23.9557 24.9567 24.0107 25.375 24.0541C25.9677 24.1157 26.7138 24.1563 27.646 24.1652L28.0115 24.1663C29.8042 24.1663 30.9636 24.0546 31.6891 23.8941L31.6935 23.8929C31.773 23.8752 31.8468 23.8574 31.9157 23.8385C32.264 23.7441 32.4435 23.6474 32.5262 23.5819C32.5347 23.5753 32.5428 23.5685 32.5507 23.5613C32.5419 23.5434 32.5319 23.5262 32.5207 23.5096C32.4561 23.4188 32.3801 23.3367 32.2946 23.2652C32.2075 23.19 32.1159 23.1202 32.0202 23.0563L32.0179 23.0552H24.0051ZM27.8604 25.2773C29.3281 25.2773 30.4658 25.1995 31.338 25.064C31.3667 25.5169 31.3025 25.9709 31.1495 26.3982C30.9965 26.8255 30.7579 27.217 30.4483 27.5488C30.1386 27.8805 29.7645 28.1456 29.3487 28.3277C28.933 28.5098 28.4845 28.605 28.0307 28.6076C27.5769 28.6102 27.1273 28.5202 26.7095 28.3429C26.2917 28.1656 25.9146 27.9049 25.6011 27.5767C25.2877 27.2485 25.0445 26.8597 24.8866 26.4343C24.7287 26.0088 24.6594 25.5555 24.6828 25.1023C25.4956 25.2145 26.5372 25.2773 27.8604 25.2773ZM23.6107 35.7639C23.5817 35.9706 23.5672 36.179 23.5673 36.3878V36.9433C23.5674 37.0654 23.5272 37.1841 23.453 37.2811C23.3788 37.3781 23.2747 37.4479 23.1568 37.4798C23.0389 37.5117 22.9138 37.5038 22.8008 37.4575C22.6879 37.4111 22.5933 37.3288 22.5318 37.2233C22.1574 37.4264 21.7193 37.4779 21.308 37.3671L20.2348 37.0794C19.808 36.9648 19.4442 36.6855 19.2233 36.3027C19.0025 35.92 18.9427 35.4652 19.0571 35.0384L19.4881 33.4285C19.6026 33.0016 19.8819 32.6377 20.2646 32.4167C20.6474 32.1957 21.1022 32.1359 21.5291 32.2502L22.6024 32.5374C22.9757 32.6374 23.2857 32.8569 23.5012 33.1435C24.0155 32.4277 24.6929 31.8447 25.4773 31.4428C26.2618 31.0409 27.1307 30.8317 28.0121 30.8325C28.893 30.832 29.7614 31.0412 30.5454 31.4428C31.3294 31.8445 32.0065 32.4271 32.5207 33.1424C32.744 32.8463 33.06 32.6335 33.4184 32.538L34.4917 32.2508C34.9185 32.1364 35.3733 32.1962 35.756 32.4171C36.1388 32.6379 36.4181 33.0017 36.5327 33.4285L36.9643 35.0389C37.0209 35.2504 37.0353 35.4709 37.0067 35.6878C36.9781 35.9048 36.9071 36.1141 36.7976 36.3036C36.6882 36.4931 36.5424 36.6592 36.3688 36.7924C36.1951 36.9256 35.9969 37.0233 35.7855 37.0799L34.7128 37.3671C34.3022 37.4779 33.8648 37.427 33.4906 37.2249C33.4289 37.3303 33.3343 37.4124 33.2213 37.4586C33.1082 37.5047 32.9831 37.5124 32.8653 37.4803C32.7475 37.4482 32.6436 37.3783 32.5695 37.2812C32.4955 37.1841 32.4555 37.0654 32.4557 36.9433V36.3878C32.4558 36.179 32.4413 35.9706 32.4124 35.7639L29.5214 36.5389C29.3872 36.8261 29.1739 37.0691 28.9064 37.2393C28.639 37.4096 28.3285 37.5 28.0115 37.5C27.6945 37.5 27.384 37.4096 27.1166 37.2393C26.8491 37.0691 26.6358 36.8261 26.5016 36.5389L23.6107 35.7639ZM26.4116 35.3639C26.4862 35.1107 26.6197 34.8787 26.8012 34.687C26.9828 34.4953 27.2072 34.3494 27.456 34.2612V31.978C26.6768 32.0765 25.9375 32.3795 25.3134 32.8563C24.6892 33.333 24.2024 33.9665 23.9023 34.6923L26.4116 35.3639ZM32.1207 34.6917C31.8206 33.966 31.3337 33.3327 30.7095 32.856C30.0854 32.3794 29.3462 32.0765 28.567 31.978V34.2607C29.0692 34.4384 29.4614 34.8495 29.6114 35.3645L32.1207 34.6923V34.6917ZM33.3134 34.2918C33.2945 34.2213 33.2897 34.1478 33.2992 34.0755C33.3087 34.0031 33.3324 33.9333 33.3688 33.8702C33.4053 33.807 33.4539 33.7516 33.5117 33.7071C33.5696 33.6627 33.6357 33.6301 33.7062 33.6113L34.7794 33.3235C34.9217 33.2855 35.0732 33.3055 35.2007 33.3791C35.3282 33.4528 35.4212 33.574 35.4594 33.7162L35.891 35.3262C35.9099 35.3966 35.9148 35.4701 35.9053 35.5425C35.8958 35.6148 35.8721 35.6846 35.8356 35.7478C35.7992 35.811 35.7506 35.8663 35.6927 35.9108C35.6348 35.9552 35.5688 35.9878 35.4983 36.0067L34.425 36.2944C34.3545 36.3133 34.281 36.3181 34.2086 36.3086C34.1362 36.299 34.0664 36.2753 34.0032 36.2388C33.94 36.2023 33.8847 36.1537 33.8403 36.0957C33.7959 36.0378 33.7633 35.9716 33.7445 35.9011L33.3134 34.2918ZM21.2419 33.3235C21.1714 33.3045 21.0979 33.2996 21.0254 33.3091C20.953 33.3185 20.8832 33.3422 20.82 33.3787C20.7567 33.4151 20.7013 33.4637 20.6568 33.5217C20.6123 33.5796 20.5797 33.6457 20.5609 33.7162L20.1298 35.3256C20.1109 35.3961 20.106 35.4696 20.1155 35.5419C20.125 35.6143 20.1487 35.684 20.1852 35.7472C20.2217 35.8104 20.2702 35.8658 20.3281 35.9102C20.386 35.9546 20.452 35.9872 20.5225 36.0061L21.5958 36.2939C21.6663 36.3128 21.7398 36.3176 21.8121 36.3081C21.8844 36.2986 21.9542 36.2749 22.0174 36.2385C22.0806 36.202 22.136 36.1534 22.1804 36.0955C22.2248 36.0377 22.2574 35.9716 22.2763 35.9011L22.7074 34.2912C22.7264 34.2207 22.7313 34.1471 22.7218 34.0747C22.7123 34.0023 22.6887 33.9325 22.6522 33.8693C22.6157 33.806 22.5671 33.7506 22.5092 33.7061C22.4513 33.6616 22.3852 33.629 22.3146 33.6101L21.2414 33.3229L21.2419 33.3235ZM28.567 35.8322C28.567 35.9796 28.5085 36.1209 28.4043 36.225C28.3001 36.3292 28.1588 36.3878 28.0115 36.3878C27.8642 36.3878 27.7229 36.3292 27.6187 36.225C27.5145 36.1209 27.456 35.9796 27.456 35.8322C27.456 35.6849 27.5145 35.5436 27.6187 35.4394C27.7229 35.3352 27.8642 35.2767 28.0115 35.2767C28.1588 35.2767 28.3001 35.3352 28.4043 35.4394C28.5085 35.5436 28.567 35.6849 28.567 35.8322Z" fill="#211E8A"/>
</g>
<defs>
<clipPath id="clip0_8691_28534">
<rect width="56" height="56" fill="white"/>
</clipPath>
</defs>
</svg>
