<svg width="56" height="56" viewBox="0 0 56 56" fill="none" xmlns="http://www.w3.org/2000/svg">
<g clip-path="url(#clip0_8350_51909)">
<path d="M28 56C43.464 56 56 43.464 56 28C56 12.536 43.464 0 28 0C12.536 0 0 12.536 0 28C0 43.464 12.536 56 28 56Z" fill="#F4FAFE"/>
<path d="M28.0003 47.8332C38.954 47.8332 47.8337 38.9535 47.8337 27.9998C47.8337 17.0462 38.954 8.1665 28.0003 8.1665C17.0467 8.1665 8.16699 17.0462 8.16699 27.9998C8.16699 38.9535 17.0467 47.8332 28.0003 47.8332Z" fill="#DBEDFF"/>
<path fill-rule="evenodd" clip-rule="evenodd" d="M28 17.25C25.3766 17.25 23.25 19.3766 23.25 22C23.25 24.6234 25.3766 26.75 28 26.75C30.6234 26.75 32.75 24.6234 32.75 22C32.75 19.3766 30.6234 17.25 28 17.25ZM24.75 22C24.75 20.2051 26.2051 18.75 28 18.75C29.7949 18.75 31.25 20.2051 31.25 22C31.25 23.7949 29.7949 25.25 28 25.25C26.2051 25.25 24.75 23.7949 24.75 22Z" fill="#2168F2"/>
<path d="M34 19.25C33.5858 19.25 33.25 19.5858 33.25 20C33.25 20.4142 33.5858 20.75 34 20.75C35.3765 20.75 36.25 21.6557 36.25 22.5C36.25 23.3443 35.3765 24.25 34 24.25C33.5858 24.25 33.25 24.5858 33.25 25C33.25 25.4142 33.5858 25.75 34 25.75C35.9372 25.75 37.75 24.4172 37.75 22.5C37.75 20.5828 35.9372 19.25 34 19.25Z" fill="#2168F2"/>
<path d="M22.75 20C22.75 19.5858 22.4142 19.25 22 19.25C20.0628 19.25 18.25 20.5828 18.25 22.5C18.25 24.4172 20.0628 25.75 22 25.75C22.4142 25.75 22.75 25.4142 22.75 25C22.75 24.5858 22.4142 24.25 22 24.25C20.6235 24.25 19.75 23.3443 19.75 22.5C19.75 21.6557 20.6235 20.75 22 20.75C22.4142 20.75 22.75 20.4142 22.75 20Z" fill="#2168F2"/>
<path fill-rule="evenodd" clip-rule="evenodd" d="M28 28.25C26.2157 28.25 24.5665 28.7308 23.3413 29.5475C22.1215 30.3608 21.25 31.5666 21.25 33C21.25 34.4334 22.1215 35.6392 23.3413 36.4525C24.5665 37.2692 26.2157 37.75 28 37.75C29.7843 37.75 31.4335 37.2692 32.6587 36.4525C33.8785 35.6392 34.75 34.4334 34.75 33C34.75 31.5666 33.8785 30.3608 32.6587 29.5475C31.4335 28.7308 29.7843 28.25 28 28.25ZM22.75 33C22.75 32.2242 23.2217 31.4301 24.1734 30.7956C25.1198 30.1646 26.4706 29.75 28 29.75C29.5294 29.75 30.8802 30.1646 31.8266 30.7956C32.7783 31.4301 33.25 32.2242 33.25 33C33.25 33.7758 32.7783 34.5699 31.8266 35.2044C30.8802 35.8354 29.5294 36.25 28 36.25C26.4706 36.25 25.1198 35.8354 24.1734 35.2044C23.2217 34.5699 22.75 33.7758 22.75 33Z" fill="#2168F2"/>
<path d="M35.2674 29.8393C35.3561 29.4347 35.7561 29.1787 36.1607 29.2674C37.1225 29.4783 37.9893 29.8593 38.6328 30.3859C39.2758 30.912 39.75 31.6352 39.75 32.5C39.75 33.3648 39.2758 34.088 38.6328 34.6141C37.9893 35.1407 37.1225 35.5217 36.1607 35.7326C35.7561 35.8213 35.3561 35.5653 35.2674 35.1607C35.1787 34.7561 35.4347 34.3561 35.8393 34.2674C36.6317 34.0936 37.2649 33.7952 37.6829 33.4532C38.1014 33.1108 38.25 32.7763 38.25 32.5C38.25 32.2237 38.1014 31.8892 37.6829 31.5468C37.2649 31.2048 36.6317 30.9064 35.8393 30.7326C35.4347 30.6439 35.1787 30.2439 35.2674 29.8393Z" fill="#2168F2"/>
<path d="M19.8393 29.2674C20.2439 29.1787 20.6439 29.4347 20.7326 29.8393C20.8213 30.2439 20.5653 30.6439 20.1607 30.7326C19.3683 30.9064 18.7351 31.2048 18.3171 31.5468C17.8986 31.8892 17.75 32.2237 17.75 32.5C17.75 32.7763 17.8986 33.1108 18.3171 33.4532C18.7351 33.7952 19.3683 34.0936 20.1607 34.2674C20.5653 34.3561 20.8213 34.7561 20.7326 35.1607C20.6439 35.5653 20.2439 35.8213 19.8393 35.7326C18.8775 35.5217 18.0107 35.1407 17.3672 34.6141C16.7242 34.088 16.25 33.3648 16.25 32.5C16.25 31.6352 16.7242 30.912 17.3672 30.3859C18.0107 29.8593 18.8775 29.4783 19.8393 29.2674Z" fill="#2168F2"/>
</g>
<defs>
<clipPath id="clip0_8350_51909">
<rect width="56" height="56" fill="white"/>
</clipPath>
</defs>
</svg>
