<svg width="265" height="240" viewBox="0 0 265 240" fill="none" xmlns="http://www.w3.org/2000/svg">
<rect width="264.8" height="240" rx="8" fill="white"/>
<path d="M24.6328 121.681C24.6328 120.491 24.9199 119.401 25.4941 118.411C26.0684 117.415 26.8682 116.627 27.8936 116.047C28.9248 115.461 30.0762 115.168 31.3477 115.168C32.4492 115.168 33.4658 115.411 34.3975 115.897C35.3291 116.384 36.1172 117.046 36.7617 117.884L34.8721 119.272C34.4678 118.692 33.9521 118.232 33.3252 117.893C32.7041 117.553 32.0566 117.383 31.3828 117.383C30.1699 117.383 29.1504 117.784 28.3242 118.587C27.5039 119.39 27.0938 120.421 27.0938 121.681C27.0938 122.524 27.2871 123.28 27.6738 123.948C28.0605 124.61 28.5791 125.12 29.2295 125.478C29.8799 125.829 30.5977 126.005 31.3828 126.005C32.1094 126.005 32.7832 125.841 33.4043 125.513C34.0312 125.179 34.5381 124.719 34.9248 124.133L36.8145 125.513C36.1992 126.351 35.4229 127.016 34.4854 127.508C33.5537 127.994 32.5254 128.237 31.4004 128.237C30.4277 128.237 29.5195 128.067 28.6758 127.728C27.832 127.388 27.1143 126.928 26.5225 126.348C25.9365 125.762 25.4736 125.067 25.1338 124.265C24.7998 123.456 24.6328 122.595 24.6328 121.681ZM48.2659 123.359C48.2659 124.021 48.1311 124.654 47.8616 125.258C47.5921 125.861 47.2288 126.383 46.7718 126.822C46.3147 127.262 45.7698 127.61 45.137 127.868C44.51 128.126 43.8479 128.255 43.1507 128.255C42.2307 128.255 41.3782 128.038 40.593 127.604C39.8079 127.165 39.1839 126.57 38.721 125.82C38.2639 125.064 38.0354 124.244 38.0354 123.359C38.0354 122.475 38.2639 121.657 38.721 120.907C39.1839 120.151 39.8079 119.557 40.593 119.123C41.3782 118.684 42.2307 118.464 43.1507 118.464C44.0764 118.464 44.9319 118.681 45.7171 119.114C46.5022 119.548 47.1233 120.143 47.5804 120.898C48.0374 121.648 48.2659 122.469 48.2659 123.359ZM45.1106 125.354C45.6497 124.81 45.9192 124.145 45.9192 123.359C45.9192 122.574 45.6497 121.909 45.1106 121.364C44.5774 120.819 43.9241 120.547 43.1507 120.547C42.3831 120.547 41.7298 120.822 41.1907 121.373C40.6516 121.918 40.3821 122.58 40.3821 123.359C40.3821 124.139 40.6516 124.801 41.1907 125.346C41.7298 125.891 42.3831 126.163 43.1507 126.163C43.9241 126.163 44.5774 125.894 45.1106 125.354ZM58.8648 122.076V128H56.5093V122.542C56.5093 121.938 56.3306 121.455 55.9732 121.092C55.6216 120.729 55.1588 120.547 54.5845 120.547C54.0103 120.547 53.5416 120.729 53.1783 121.092C52.815 121.449 52.6334 121.933 52.6334 122.542V128H50.2779V118.692H52.6334V119.483C53.3072 118.792 54.1597 118.446 55.191 118.446C56.2691 118.446 57.1509 118.795 57.8365 119.492C58.522 120.184 58.8648 121.045 58.8648 122.076ZM64.9725 128.22C63.7889 128.22 62.8221 127.927 62.0721 127.341C61.328 126.755 60.8621 125.996 60.6746 125.064H62.9071C63.0184 125.516 63.2586 125.853 63.6278 126.075C63.9969 126.292 64.4452 126.4 64.9725 126.4C65.3944 126.4 65.7225 126.312 65.9569 126.137C66.1912 125.961 66.3084 125.729 66.3084 125.442C66.3084 125.249 66.2293 125.076 66.0711 124.924C65.9129 124.771 65.6786 124.657 65.368 124.581L63.4432 124.133C61.703 123.717 60.8329 122.803 60.8329 121.391C60.8329 120.512 61.158 119.806 61.8084 119.272C62.4588 118.733 63.2909 118.464 64.3045 118.464C65.453 118.464 66.3846 118.763 67.0995 119.36C67.8202 119.952 68.2508 120.714 68.3914 121.646H66.1766C66.0594 121.188 65.8221 120.846 65.4647 120.617C65.1073 120.389 64.7147 120.274 64.287 120.274C63.9237 120.274 63.6395 120.356 63.4344 120.521C63.2352 120.685 63.1356 120.893 63.1356 121.145C63.1356 121.625 63.5077 121.953 64.2518 122.129L66.036 122.568C67.7411 122.979 68.5936 123.878 68.5936 125.267C68.5936 126.122 68.2655 126.828 67.6092 127.385C66.953 127.941 66.0741 128.22 64.9725 128.22ZM70.4562 124.616V118.692H72.8116V124.15C72.8116 124.73 72.9904 125.208 73.3478 125.583C73.7052 125.958 74.171 126.146 74.7452 126.146C75.3195 126.146 75.7853 125.961 76.1427 125.592C76.506 125.223 76.6876 124.742 76.6876 124.15V118.692H79.0431V128H76.6876V127.174C76.0079 127.871 75.1554 128.22 74.13 128.22C73.0577 128.22 72.1759 127.874 71.4845 127.183C70.7989 126.491 70.4562 125.636 70.4562 124.616ZM83.727 122.489V128H81.3891V118.692H83.727V119.448C84.3949 118.78 85.2299 118.446 86.2318 118.446C86.9057 118.446 87.5062 118.593 88.0336 118.886C88.5668 119.173 88.9857 119.571 89.2904 120.081C89.6068 119.565 90.0258 119.164 90.5473 118.877C91.0746 118.59 91.6518 118.446 92.2787 118.446C93.3275 118.446 94.1801 118.786 94.8363 119.466C95.4984 120.146 95.8295 120.992 95.8295 122.006V128H93.4828V122.489C93.4828 121.915 93.31 121.449 92.9643 121.092C92.6244 120.729 92.1791 120.547 91.6283 120.547C91.0834 120.547 90.6381 120.726 90.2924 121.083C89.9525 121.435 89.7826 121.903 89.7826 122.489V128H87.4359V122.489C87.4359 121.915 87.2631 121.449 86.9174 121.092C86.5775 120.729 86.1322 120.547 85.5814 120.547C85.0307 120.547 84.5824 120.723 84.2367 121.074C83.8969 121.426 83.727 121.897 83.727 122.489ZM97.8503 123.342C97.8503 122.486 98.0583 121.687 98.4743 120.942C98.8903 120.198 99.4704 119.604 100.215 119.158C100.959 118.707 101.779 118.481 102.675 118.481C104.07 118.481 105.213 118.947 106.103 119.879C107 120.811 107.448 122 107.448 123.447V124.133H100.267C100.425 124.748 100.742 125.249 101.216 125.636C101.691 126.022 102.245 126.216 102.878 126.216C103.387 126.216 103.839 126.122 104.231 125.935C104.624 125.741 104.987 125.428 105.321 124.994L106.965 126.216C106.49 126.86 105.907 127.358 105.216 127.71C104.524 128.062 103.751 128.237 102.895 128.237C101.958 128.237 101.102 128.029 100.329 127.613C99.5612 127.197 98.9548 126.614 98.5095 125.864C98.07 125.114 97.8503 124.273 97.8503 123.342ZM102.623 120.494C102.072 120.494 101.589 120.658 101.173 120.986C100.757 121.314 100.466 121.763 100.302 122.331H105.075C104.905 121.763 104.597 121.314 104.152 120.986C103.707 120.658 103.197 120.494 102.623 120.494ZM114.663 120.767H113.819C113.245 120.767 112.77 120.966 112.395 121.364C112.02 121.763 111.833 122.308 111.833 122.999V128H109.478V118.692H111.815V119.703C112.313 118.971 113.052 118.604 114.03 118.604H114.663V120.767ZM120.287 128.22C119.104 128.22 118.137 127.927 117.387 127.341C116.643 126.755 116.177 125.996 115.989 125.064H118.222C118.333 125.516 118.573 125.853 118.943 126.075C119.312 126.292 119.76 126.4 120.287 126.4C120.709 126.4 121.037 126.312 121.272 126.137C121.506 125.961 121.623 125.729 121.623 125.442C121.623 125.249 121.544 125.076 121.386 124.924C121.228 124.771 120.993 124.657 120.683 124.581L118.758 124.133C117.018 123.717 116.148 122.803 116.148 121.391C116.148 120.512 116.473 119.806 117.123 119.272C117.774 118.733 118.606 118.464 119.619 118.464C120.768 118.464 121.699 118.763 122.414 119.36C123.135 119.952 123.566 120.714 123.706 121.646H121.491C121.374 121.188 121.137 120.846 120.78 120.617C120.422 120.389 120.03 120.274 119.602 120.274C119.239 120.274 118.954 120.356 118.749 120.521C118.55 120.685 118.45 120.893 118.45 121.145C118.45 121.625 118.823 121.953 119.567 122.129L121.351 122.568C123.056 122.979 123.908 123.878 123.908 125.267C123.908 126.122 123.58 126.828 122.924 127.385C122.268 127.941 121.389 128.22 120.287 128.22Z" fill="black"/>
<path d="M29.7749 149.797L34.5562 161H33.2593L31.9312 157.852H26.3921L25.0874 161H23.8218L28.603 149.797H29.7749ZM26.8452 156.773H31.4858L29.1655 151.211L26.8452 156.773ZM37.3837 154.766C36.7847 155.37 36.4852 156.109 36.4852 156.984C36.4852 157.859 36.7847 158.604 37.3837 159.219C37.9826 159.828 38.7066 160.133 39.5555 160.133C40.0607 160.133 40.5321 160.016 40.9696 159.781C41.4071 159.547 41.7743 159.227 42.0712 158.82L42.9305 159.43C42.5347 159.971 42.0477 160.396 41.4696 160.703C40.8967 161.005 40.2587 161.156 39.5555 161.156C38.7743 161.156 38.0607 160.971 37.4149 160.602C36.7691 160.227 36.2613 159.721 35.8915 159.086C35.5217 158.445 35.3368 157.745 35.3368 156.984C35.3368 156.224 35.5217 155.526 35.8915 154.891C36.2613 154.255 36.7691 153.753 37.4149 153.383C38.0607 153.008 38.7743 152.82 39.5555 152.82C40.2534 152.82 40.8915 152.974 41.4696 153.281C42.0477 153.583 42.5347 154.003 42.9305 154.539L42.0712 155.156C41.7795 154.75 41.4123 154.432 40.9696 154.203C40.5321 153.969 40.0607 153.852 39.5555 153.852C38.7066 153.852 37.9826 154.156 37.3837 154.766ZM46.133 154.766C45.5341 155.37 45.2346 156.109 45.2346 156.984C45.2346 157.859 45.5341 158.604 46.133 159.219C46.732 159.828 47.4559 160.133 48.3049 160.133C48.8101 160.133 49.2815 160.016 49.719 159.781C50.1565 159.547 50.5237 159.227 50.8205 158.82L51.6799 159.43C51.2841 159.971 50.7971 160.396 50.219 160.703C49.646 161.005 49.008 161.156 48.3049 161.156C47.5237 161.156 46.8101 160.971 46.1643 160.602C45.5184 160.227 45.0106 159.721 44.6408 159.086C44.271 158.445 44.0862 157.745 44.0862 156.984C44.0862 156.224 44.271 155.526 44.6408 154.891C45.0106 154.255 45.5184 153.753 46.1643 153.383C46.8101 153.008 47.5237 152.82 48.3049 152.82C49.0028 152.82 49.6408 152.974 50.219 153.281C50.7971 153.583 51.2841 154.003 51.6799 154.539L50.8205 155.156C50.5289 154.75 50.1617 154.432 49.719 154.203C49.2815 153.969 48.8101 153.852 48.3049 153.852C47.4559 153.852 46.732 154.156 46.133 154.766ZM52.8355 156.984C52.8355 156.229 53.0126 155.534 53.3668 154.898C53.7262 154.263 54.2183 153.758 54.8433 153.383C55.4683 153.008 56.1584 152.82 56.9137 152.82C57.4657 152.82 57.984 152.927 58.4683 153.141C58.9579 153.349 59.3772 153.635 59.7262 154C60.0751 154.359 60.3485 154.792 60.5465 155.297C60.7496 155.797 60.8512 156.328 60.8512 156.891V157.336H53.984C54.0725 158.133 54.4032 158.799 54.9762 159.336C55.5543 159.867 56.2366 160.133 57.023 160.133C57.5387 160.133 58.0152 160.018 58.4527 159.789C58.8902 159.56 59.2626 159.237 59.5699 158.82L60.4293 159.43C60.0387 159.966 59.5491 160.385 58.9605 160.688C58.372 160.99 57.7314 161.141 57.0387 161.141C55.8564 161.141 54.859 160.74 54.0465 159.938C53.2392 159.135 52.8355 158.151 52.8355 156.984ZM56.9137 153.828C56.1949 153.828 55.5647 154.068 55.023 154.547C54.4814 155.021 54.1454 155.63 54.0152 156.375H59.6949C59.5907 155.635 59.2756 155.026 58.7496 154.547C58.2235 154.068 57.6116 153.828 56.9137 153.828ZM65.6552 161.156C64.775 161.156 64.0354 160.919 63.4365 160.445C62.8375 159.966 62.4781 159.341 62.3583 158.57H63.4599C63.5641 159.076 63.8115 159.474 64.2021 159.766C64.5979 160.057 65.0719 160.203 65.624 160.203C66.124 160.203 66.525 160.089 66.8271 159.859C67.1344 159.625 67.288 159.323 67.288 158.953C67.288 158.63 67.176 158.359 66.9521 158.141C66.7333 157.922 66.3818 157.745 65.8974 157.609L64.6005 157.258C63.2099 156.888 62.5146 156.167 62.5146 155.094C62.5146 154.411 62.7542 153.862 63.2333 153.445C63.7125 153.029 64.3323 152.82 65.0927 152.82C65.9365 152.82 66.6422 153.06 67.2099 153.539C67.7828 154.013 68.124 154.628 68.2333 155.383H67.1083C67.0146 154.888 66.7802 154.495 66.4052 154.203C66.0354 153.911 65.6031 153.766 65.1083 153.766C64.6604 153.766 64.3037 153.878 64.038 154.102C63.7724 154.326 63.6396 154.62 63.6396 154.984C63.6396 155.573 64.0771 155.995 64.9521 156.25L66.2177 156.586C66.9417 156.779 67.4885 157.068 67.8583 157.453C68.2333 157.833 68.4208 158.297 68.4208 158.844C68.4208 159.526 68.1656 160.083 67.6552 160.516C67.15 160.943 66.4833 161.156 65.6552 161.156ZM73.1233 161.156C72.2431 161.156 71.5035 160.919 70.9046 160.445C70.3056 159.966 69.9463 159.341 69.8265 158.57H70.928C71.0322 159.076 71.2796 159.474 71.6702 159.766C72.066 160.057 72.54 160.203 73.0921 160.203C73.5921 160.203 73.9931 160.089 74.2952 159.859C74.6025 159.625 74.7562 159.323 74.7562 158.953C74.7562 158.63 74.6442 158.359 74.4202 158.141C74.2015 157.922 73.8499 157.745 73.3655 157.609L72.0687 157.258C70.678 156.888 69.9827 156.167 69.9827 155.094C69.9827 154.411 70.2223 153.862 70.7015 153.445C71.1806 153.029 71.8004 152.82 72.5608 152.82C73.4046 152.82 74.1103 153.06 74.678 153.539C75.2509 154.013 75.5921 154.628 75.7015 155.383H74.5765C74.4827 154.888 74.2483 154.495 73.8733 154.203C73.5035 153.911 73.0713 153.766 72.5765 153.766C72.1285 153.766 71.7718 153.878 71.5062 154.102C71.2405 154.326 71.1077 154.62 71.1077 154.984C71.1077 155.573 71.5452 155.995 72.4202 156.25L73.6858 156.586C74.4098 156.779 74.9567 157.068 75.3265 157.453C75.7015 157.833 75.889 158.297 75.889 158.844C75.889 159.526 75.6338 160.083 75.1233 160.516C74.6181 160.943 73.9515 161.156 73.1233 161.156ZM81.583 152.969H82.7393V154.297C83.1143 153.828 83.57 153.464 84.1065 153.203C84.6481 152.938 85.2367 152.805 85.8721 152.805C87.0388 152.805 88.0257 153.211 88.833 154.023C89.6455 154.831 90.0518 155.818 90.0518 156.984C90.0518 157.745 89.8643 158.445 89.4893 159.086C89.1195 159.721 88.6143 160.224 87.9737 160.594C87.333 160.958 86.6325 161.141 85.8721 161.141C85.2419 161.141 84.6559 161.01 84.1143 160.75C83.5726 160.484 83.1143 160.115 82.7393 159.641V164.086H81.583V152.969ZM83.6221 154.758C83.0231 155.372 82.7237 156.115 82.7237 156.984C82.7237 157.854 83.0257 158.594 83.6299 159.203C84.2341 159.812 84.9606 160.117 85.8096 160.117C86.6638 160.117 87.3903 159.812 87.9893 159.203C88.5934 158.594 88.8955 157.854 88.8955 156.984C88.8955 156.115 88.5934 155.372 87.9893 154.758C87.3903 154.138 86.6638 153.828 85.8096 153.828C84.9554 153.828 84.2263 154.138 83.6221 154.758ZM91.6371 158.789C91.6371 158.117 91.8611 157.578 92.309 157.172C92.7621 156.766 93.3975 156.536 94.2152 156.484L96.8558 156.312V155.562C96.8558 155.031 96.6944 154.62 96.3715 154.328C96.0486 154.031 95.5954 153.883 95.0121 153.883C94.1996 153.883 93.4808 154.164 92.8558 154.727L92.2465 153.898C93.0433 153.195 94.0147 152.844 95.1605 152.844C96.0251 152.844 96.7126 153.073 97.223 153.531C97.7334 153.99 97.9887 154.612 97.9887 155.398V159.492C97.9887 159.643 98.0329 159.763 98.1215 159.852C98.2152 159.935 98.3428 159.977 98.5043 159.977H98.9027V161H98.2777C97.8923 161 97.572 160.901 97.3168 160.703C97.0668 160.5 96.9236 160.232 96.8871 159.898C96.6163 160.289 96.2569 160.596 95.809 160.82C95.3663 161.044 94.8767 161.156 94.3402 161.156C93.559 161.156 92.9131 160.938 92.4027 160.5C91.8923 160.057 91.6371 159.487 91.6371 158.789ZM92.7621 158.789C92.7621 159.195 92.9262 159.534 93.2543 159.805C93.5876 160.07 94.0095 160.203 94.5199 160.203C95.1762 160.203 95.7282 159.995 96.1762 159.578C96.6293 159.156 96.8558 158.648 96.8558 158.055V157.242L94.3949 157.414C93.8689 157.451 93.4652 157.589 93.184 157.828C92.9027 158.068 92.7621 158.388 92.7621 158.789ZM101.988 162.133L102.535 160.805L99.2537 152.969H100.48L103.105 159.383L105.699 152.969H106.902L103.043 162.422C102.808 162.995 102.53 163.414 102.207 163.68C101.884 163.951 101.454 164.086 100.918 164.086H99.988V163.062H100.707C101.03 163.062 101.29 162.987 101.488 162.836C101.691 162.69 101.858 162.456 101.988 162.133ZM109.441 156.133V161H108.284V152.969H109.441V154.039C109.701 153.654 110.039 153.352 110.456 153.133C110.878 152.914 111.339 152.805 111.839 152.805C112.438 152.805 112.967 152.956 113.425 153.258C113.888 153.555 114.235 153.953 114.464 154.453C114.698 153.953 115.053 153.555 115.526 153.258C116.006 152.956 116.547 152.805 117.151 152.805C118.011 152.805 118.714 153.094 119.261 153.672C119.808 154.245 120.081 154.958 120.081 155.812V161H118.925V156.039C118.925 155.398 118.74 154.878 118.37 154.477C118 154.07 117.513 153.867 116.909 153.867C116.284 153.867 115.771 154.081 115.37 154.508C114.969 154.935 114.769 155.477 114.769 156.133V161H113.612V156.039C113.612 155.404 113.425 154.883 113.05 154.477C112.68 154.07 112.196 153.867 111.597 153.867C110.967 153.867 110.448 154.081 110.042 154.508C109.641 154.935 109.441 155.477 109.441 156.133ZM122.081 156.984C122.081 156.229 122.258 155.534 122.612 154.898C122.971 154.263 123.463 153.758 124.088 153.383C124.713 153.008 125.403 152.82 126.159 152.82C126.711 152.82 127.229 152.927 127.713 153.141C128.203 153.349 128.622 153.635 128.971 154C129.32 154.359 129.594 154.792 129.791 155.297C129.995 155.797 130.096 156.328 130.096 156.891V157.336H123.229C123.318 158.133 123.648 158.799 124.221 159.336C124.799 159.867 125.482 160.133 126.268 160.133C126.784 160.133 127.26 160.018 127.698 159.789C128.135 159.56 128.508 159.237 128.815 158.82L129.674 159.43C129.284 159.966 128.794 160.385 128.206 160.688C127.617 160.99 126.976 161.141 126.284 161.141C125.101 161.141 124.104 160.74 123.291 159.938C122.484 159.135 122.081 158.151 122.081 156.984ZM126.159 153.828C125.44 153.828 124.81 154.068 124.268 154.547C123.726 155.021 123.39 155.63 123.26 156.375H128.94C128.836 155.635 128.521 155.026 127.995 154.547C127.469 154.068 126.857 153.828 126.159 153.828ZM138.791 155.852V161H137.635V156.039C137.635 155.398 137.442 154.878 137.056 154.477C136.671 154.07 136.166 153.867 135.541 153.867C134.874 153.867 134.325 154.083 133.892 154.516C133.465 154.943 133.252 155.487 133.252 156.148V161H132.096V152.969H133.252V154.07C133.523 153.674 133.874 153.365 134.306 153.141C134.744 152.917 135.228 152.805 135.76 152.805C136.65 152.805 137.377 153.099 137.939 153.688C138.507 154.271 138.791 154.992 138.791 155.852ZM143.579 161C143.043 161 142.621 160.857 142.314 160.57C142.006 160.279 141.853 159.893 141.853 159.414V153.992H140.353V152.969H141.853V150.555H143.009V152.969H144.907V153.992H143.009V159.242C143.009 159.471 143.079 159.651 143.22 159.781C143.366 159.911 143.571 159.977 143.837 159.977H144.907V161H143.579ZM149.305 161.156C148.425 161.156 147.685 160.919 147.086 160.445C146.488 159.966 146.128 159.341 146.008 158.57H147.11C147.214 159.076 147.461 159.474 147.852 159.766C148.248 160.057 148.722 160.203 149.274 160.203C149.774 160.203 150.175 160.089 150.477 159.859C150.784 159.625 150.938 159.323 150.938 158.953C150.938 158.63 150.826 158.359 150.602 158.141C150.383 157.922 150.032 157.745 149.547 157.609L148.251 157.258C146.86 156.888 146.165 156.167 146.165 155.094C146.165 154.411 146.404 153.862 146.883 153.445C147.363 153.029 147.982 152.82 148.743 152.82C149.586 152.82 150.292 153.06 150.86 153.539C151.433 154.013 151.774 154.628 151.883 155.383H150.758C150.665 154.888 150.43 154.495 150.055 154.203C149.685 153.911 149.253 153.766 148.758 153.766C148.31 153.766 147.954 153.878 147.688 154.102C147.422 154.326 147.29 154.62 147.29 154.984C147.29 155.573 147.727 155.995 148.602 156.25L149.868 156.586C150.592 156.779 151.139 157.068 151.508 157.453C151.883 157.833 152.071 158.297 152.071 158.844C152.071 159.526 151.816 160.083 151.305 160.516C150.8 160.943 150.133 161.156 149.305 161.156ZM153.484 162.312C153.724 162.266 153.93 162.146 154.101 161.953C154.273 161.76 154.359 161.565 154.359 161.367C154.359 161.289 154.318 161.216 154.234 161.148C154.151 161.086 154.06 161.029 153.961 160.977C153.862 160.924 153.771 160.844 153.687 160.734C153.604 160.625 153.562 160.495 153.562 160.344C153.562 160.146 153.633 159.977 153.773 159.836C153.919 159.695 154.088 159.625 154.281 159.625C154.547 159.625 154.76 159.729 154.922 159.938C155.083 160.146 155.164 160.43 155.164 160.789C155.164 161.326 155.01 161.792 154.703 162.188C154.401 162.589 153.995 162.833 153.484 162.922V162.312ZM164.6 153.977H163.999C163.447 153.977 162.993 154.185 162.639 154.602C162.285 155.018 162.108 155.542 162.108 156.172V161H160.952V152.969H162.108V154.023C162.306 153.674 162.569 153.401 162.897 153.203C163.23 153.005 163.613 152.906 164.046 152.906H164.6V153.977ZM167.451 151.328C167.305 151.474 167.128 151.547 166.92 151.547C166.712 151.547 166.532 151.474 166.381 151.328C166.23 151.177 166.154 150.997 166.154 150.789C166.154 150.576 166.23 150.396 166.381 150.25C166.532 150.099 166.712 150.023 166.92 150.023C167.128 150.023 167.305 150.099 167.451 150.25C167.602 150.396 167.678 150.576 167.678 150.789C167.678 150.997 167.602 151.177 167.451 151.328ZM167.482 152.969V161H166.326V152.969H167.482ZM177.943 161H176.786V159.688C176.411 160.151 175.956 160.513 175.419 160.773C174.883 161.029 174.299 161.156 173.669 161.156C172.503 161.156 171.516 160.753 170.708 159.945C169.901 159.138 169.497 158.151 169.497 156.984C169.497 156.224 169.68 155.526 170.044 154.891C170.414 154.25 170.919 153.745 171.56 153.375C172.201 153.005 172.904 152.82 173.669 152.82C174.299 152.82 174.883 152.953 175.419 153.219C175.956 153.479 176.411 153.844 176.786 154.312V149.797H177.943V161ZM175.911 159.211C176.51 158.596 176.81 157.854 176.81 156.984C176.81 156.115 176.508 155.375 175.904 154.766C175.305 154.156 174.581 153.852 173.732 153.852C172.878 153.852 172.148 154.156 171.544 154.766C170.945 155.375 170.646 156.115 170.646 156.984C170.646 157.859 170.945 158.604 171.544 159.219C172.143 159.828 172.872 160.133 173.732 160.133C174.586 160.133 175.313 159.826 175.911 159.211ZM179.966 156.984C179.966 156.229 180.143 155.534 180.497 154.898C180.856 154.263 181.348 153.758 181.973 153.383C182.598 153.008 183.288 152.82 184.044 152.82C184.596 152.82 185.114 152.927 185.598 153.141C186.088 153.349 186.507 153.635 186.856 154C187.205 154.359 187.479 154.792 187.676 155.297C187.88 155.797 187.981 156.328 187.981 156.891V157.336H181.114C181.203 158.133 181.533 158.799 182.106 159.336C182.684 159.867 183.367 160.133 184.153 160.133C184.669 160.133 185.145 160.018 185.583 159.789C186.02 159.56 186.393 159.237 186.7 158.82L187.559 159.43C187.169 159.966 186.679 160.385 186.091 160.688C185.502 160.99 184.861 161.141 184.169 161.141C182.986 161.141 181.989 160.74 181.176 159.938C180.369 159.135 179.966 158.151 179.966 156.984ZM184.044 153.828C183.325 153.828 182.695 154.068 182.153 154.547C181.611 155.021 181.275 155.63 181.145 156.375H186.825C186.721 155.635 186.406 155.026 185.88 154.547C185.354 154.068 184.742 153.828 184.044 153.828ZM192.785 161.156C191.905 161.156 191.165 160.919 190.566 160.445C189.968 159.966 189.608 159.341 189.488 158.57H190.59C190.694 159.076 190.941 159.474 191.332 159.766C191.728 160.057 192.202 160.203 192.754 160.203C193.254 160.203 193.655 160.089 193.957 159.859C194.264 159.625 194.418 159.323 194.418 158.953C194.418 158.63 194.306 158.359 194.082 158.141C193.863 157.922 193.512 157.745 193.027 157.609L191.731 157.258C190.34 156.888 189.645 156.167 189.645 155.094C189.645 154.411 189.884 153.862 190.363 153.445C190.843 153.029 191.462 152.82 192.223 152.82C193.066 152.82 193.772 153.06 194.34 153.539C194.913 154.013 195.254 154.628 195.363 155.383H194.238C194.145 154.888 193.91 154.495 193.535 154.203C193.165 153.911 192.733 153.766 192.238 153.766C191.79 153.766 191.434 153.878 191.168 154.102C190.902 154.326 190.77 154.62 190.77 154.984C190.77 155.573 191.207 155.995 192.082 156.25L193.348 156.586C194.072 156.779 194.619 157.068 194.988 157.453C195.363 157.833 195.551 158.297 195.551 158.844C195.551 159.526 195.296 160.083 194.785 160.516C194.28 160.943 193.613 161.156 192.785 161.156ZM200.831 158.789C200.831 158.117 201.055 157.578 201.503 157.172C201.956 156.766 202.591 156.536 203.409 156.484L206.05 156.312V155.562C206.05 155.031 205.888 154.62 205.565 154.328C205.242 154.031 204.789 153.883 204.206 153.883C203.393 153.883 202.675 154.164 202.05 154.727L201.44 153.898C202.237 153.195 203.208 152.844 204.354 152.844C205.219 152.844 205.906 153.073 206.417 153.531C206.927 153.99 207.182 154.612 207.182 155.398V159.492C207.182 159.643 207.227 159.763 207.315 159.852C207.409 159.935 207.537 159.977 207.698 159.977H208.096V161H207.471C207.086 161 206.766 160.901 206.511 160.703C206.261 160.5 206.117 160.232 206.081 159.898C205.81 160.289 205.451 160.596 205.003 160.82C204.56 161.044 204.07 161.156 203.534 161.156C202.753 161.156 202.107 160.938 201.596 160.5C201.086 160.057 200.831 159.487 200.831 158.789ZM201.956 158.789C201.956 159.195 202.12 159.534 202.448 159.805C202.781 160.07 203.203 160.203 203.714 160.203C204.37 160.203 204.922 159.995 205.37 159.578C205.823 159.156 206.05 158.648 206.05 158.055V157.242L203.589 157.414C203.063 157.451 202.659 157.589 202.378 157.828C202.096 158.068 201.956 158.388 201.956 158.789ZM216.471 155.852V161H215.315V156.039C215.315 155.398 215.122 154.878 214.736 154.477C214.351 154.07 213.846 153.867 213.221 153.867C212.554 153.867 212.005 154.083 211.572 154.516C211.145 154.943 210.932 155.487 210.932 156.148V161H209.776V152.969H210.932V154.07C211.203 153.674 211.554 153.365 211.986 153.141C212.424 152.917 212.908 152.805 213.44 152.805C214.33 152.805 215.057 153.099 215.619 153.688C216.187 154.271 216.471 154.992 216.471 155.852ZM226.939 161H225.783V159.688C225.408 160.151 224.952 160.513 224.416 160.773C223.879 161.029 223.296 161.156 222.666 161.156C221.499 161.156 220.512 160.753 219.705 159.945C218.897 159.138 218.494 158.151 218.494 156.984C218.494 156.224 218.676 155.526 219.041 154.891C219.41 154.25 219.916 153.745 220.556 153.375C221.197 153.005 221.9 152.82 222.666 152.82C223.296 152.82 223.879 152.953 224.416 153.219C224.952 153.479 225.408 153.844 225.783 154.312V149.797H226.939V161ZM224.908 159.211C225.507 158.596 225.806 157.854 225.806 156.984C225.806 156.115 225.504 155.375 224.9 154.766C224.301 154.156 223.577 153.852 222.728 153.852C221.874 153.852 221.145 154.156 220.541 154.766C219.942 155.375 219.642 156.115 219.642 156.984C219.642 157.859 219.942 158.604 220.541 159.219C221.139 159.828 221.869 160.133 222.728 160.133C223.582 160.133 224.309 159.826 224.908 159.211ZM25.8843 185H24.728V173.797H25.8843V185ZM29.3212 175.328C29.1753 175.474 28.9982 175.547 28.7899 175.547C28.5816 175.547 28.4019 175.474 28.2508 175.328C28.0998 175.177 28.0243 174.997 28.0243 174.789C28.0243 174.576 28.0998 174.396 28.2508 174.25C28.4019 174.099 28.5816 174.023 28.7899 174.023C28.9982 174.023 29.1753 174.099 29.3212 174.25C29.4722 174.396 29.5477 174.576 29.5477 174.789C29.5477 174.997 29.4722 175.177 29.3212 175.328ZM29.3524 176.969V185H28.1962V176.969H29.3524ZM31.0471 177.992V176.969H32.5627V175.336C32.5627 174.815 32.7085 174.401 33.0002 174.094C33.2971 173.781 33.7059 173.625 34.2268 173.625H35.4299V174.648H34.4221C34.1981 174.648 34.0237 174.719 33.8987 174.859C33.7789 174.995 33.719 175.185 33.719 175.43V176.969H35.4299V177.992H33.719V185H32.5627V177.992H31.0471ZM36.4449 180.984C36.4449 180.229 36.622 179.534 36.9762 178.898C37.3355 178.263 37.8277 177.758 38.4527 177.383C39.0777 177.008 39.7678 176.82 40.523 176.82C41.0751 176.82 41.5933 176.927 42.0777 177.141C42.5673 177.349 42.9866 177.635 43.3355 178C43.6845 178.359 43.9579 178.792 44.1558 179.297C44.359 179.797 44.4605 180.328 44.4605 180.891V181.336H37.5933C37.6819 182.133 38.0126 182.799 38.5855 183.336C39.1637 183.867 39.8459 184.133 40.6324 184.133C41.148 184.133 41.6246 184.018 42.0621 183.789C42.4996 183.56 42.872 183.237 43.1793 182.82L44.0387 183.43C43.648 183.966 43.1584 184.385 42.5699 184.688C41.9814 184.99 41.3407 185.141 40.648 185.141C39.4657 185.141 38.4683 184.74 37.6558 183.938C36.8485 183.135 36.4449 182.151 36.4449 180.984ZM40.523 177.828C39.8043 177.828 39.1741 178.068 38.6324 178.547C38.0907 179.021 37.7548 179.63 37.6246 180.375H43.3043C43.2001 179.635 42.885 179.026 42.359 178.547C41.8329 178.068 41.2209 177.828 40.523 177.828ZM49.2646 185.156C48.3844 185.156 47.6448 184.919 47.0458 184.445C46.4469 183.966 46.0875 183.341 45.9677 182.57H47.0693C47.1734 183.076 47.4208 183.474 47.8115 183.766C48.2073 184.057 48.6813 184.203 49.2333 184.203C49.7333 184.203 50.1344 184.089 50.4365 183.859C50.7438 183.625 50.8974 183.323 50.8974 182.953C50.8974 182.63 50.7854 182.359 50.5615 182.141C50.3427 181.922 49.9912 181.745 49.5068 181.609L48.2099 181.258C46.8193 180.888 46.124 180.167 46.124 179.094C46.124 178.411 46.3635 177.862 46.8427 177.445C47.3219 177.029 47.9417 176.82 48.7021 176.82C49.5458 176.82 50.2516 177.06 50.8193 177.539C51.3922 178.013 51.7333 178.628 51.8427 179.383H50.7177C50.624 178.888 50.3896 178.495 50.0146 178.203C49.6448 177.911 49.2125 177.766 48.7177 177.766C48.2698 177.766 47.913 177.878 47.6474 178.102C47.3818 178.326 47.249 178.62 47.249 178.984C47.249 179.573 47.6865 179.995 48.5615 180.25L49.8271 180.586C50.551 180.779 51.0979 181.068 51.4677 181.453C51.8427 181.833 52.0302 182.297 52.0302 182.844C52.0302 183.526 51.775 184.083 51.2646 184.516C50.7594 184.943 50.0927 185.156 49.2646 185.156ZM56.178 185C55.6416 185 55.2197 184.857 54.9124 184.57C54.6051 184.279 54.4515 183.893 54.4515 183.414V177.992H52.9515V176.969H54.4515V174.555H55.6077V176.969H57.5062V177.992H55.6077V183.242C55.6077 183.471 55.678 183.651 55.8187 183.781C55.9645 183.911 56.1702 183.977 56.4358 183.977H57.5062V185H56.178ZM61.0837 186.133L61.6305 184.805L58.3493 176.969H59.5758L62.2008 183.383L64.7946 176.969H65.9977L62.1383 186.422C61.904 186.995 61.6253 187.414 61.3024 187.68C60.9795 187.951 60.5498 188.086 60.0133 188.086H59.0837V187.062H59.8024C60.1253 187.062 60.3857 186.987 60.5837 186.836C60.7868 186.69 60.9534 186.456 61.0837 186.133ZM68.5362 185H67.3799V173.797H68.5362V185ZM70.5512 180.984C70.5512 180.229 70.7282 179.534 71.0824 178.898C71.4418 178.263 71.934 177.758 72.559 177.383C73.184 177.008 73.8741 176.82 74.6293 176.82C75.1814 176.82 75.6996 176.927 76.184 177.141C76.6735 177.349 77.0928 177.635 77.4418 178C77.7907 178.359 78.0642 178.792 78.2621 179.297C78.4652 179.797 78.5668 180.328 78.5668 180.891V181.336H71.6996C71.7881 182.133 72.1189 182.799 72.6918 183.336C73.2699 183.867 73.9522 184.133 74.7387 184.133C75.2543 184.133 75.7308 184.018 76.1683 183.789C76.6058 183.56 76.9782 183.237 77.2855 182.82L78.1449 183.43C77.7543 183.966 77.2647 184.385 76.6762 184.688C76.0876 184.99 75.447 185.141 74.7543 185.141C73.572 185.141 72.5746 184.74 71.7621 183.938C70.9548 183.135 70.5512 182.151 70.5512 180.984ZM74.6293 177.828C73.9105 177.828 73.2803 178.068 72.7387 178.547C72.197 179.021 71.861 179.63 71.7308 180.375H77.4105C77.3064 179.635 76.9913 179.026 76.4652 178.547C75.9392 178.068 75.3272 177.828 74.6293 177.828ZM87.214 185.156C86.3338 185.156 85.5942 184.919 84.9952 184.445C84.3963 183.966 84.0369 183.341 83.9171 182.57H85.0187C85.1228 183.076 85.3702 183.474 85.7608 183.766C86.1567 184.057 86.6306 184.203 87.1827 184.203C87.6827 184.203 88.0838 184.089 88.3858 183.859C88.6931 183.625 88.8468 183.323 88.8468 182.953C88.8468 182.63 88.7348 182.359 88.5108 182.141C88.2921 181.922 87.9405 181.745 87.4562 181.609L86.1593 181.258C84.7687 180.888 84.0733 180.167 84.0733 179.094C84.0733 178.411 84.3129 177.862 84.7921 177.445C85.2713 177.029 85.891 176.82 86.6515 176.82C87.4952 176.82 88.2009 177.06 88.7687 177.539C89.3416 178.013 89.6827 178.628 89.7921 179.383H88.6671C88.5733 178.888 88.339 178.495 87.964 178.203C87.5942 177.911 87.1619 177.766 86.6671 177.766C86.2192 177.766 85.8624 177.878 85.5968 178.102C85.3312 178.326 85.1983 178.62 85.1983 178.984C85.1983 179.573 85.6358 179.995 86.5108 180.25L87.7765 180.586C88.5004 180.779 89.0473 181.068 89.4171 181.453C89.7921 181.833 89.9796 182.297 89.9796 182.844C89.9796 183.526 89.7244 184.083 89.214 184.516C88.7088 184.943 88.0421 185.156 87.214 185.156ZM91.5337 180.984C91.5337 180.229 91.7107 179.534 92.0649 178.898C92.4243 178.263 92.9165 177.758 93.5415 177.383C94.1665 177.008 94.8566 176.82 95.6118 176.82C96.1639 176.82 96.6821 176.927 97.1665 177.141C97.656 177.349 98.0753 177.635 98.4243 178C98.7732 178.359 99.0467 178.792 99.2446 179.297C99.4477 179.797 99.5493 180.328 99.5493 180.891V181.336H92.6821C92.7706 182.133 93.1014 182.799 93.6743 183.336C94.2524 183.867 94.9347 184.133 95.7212 184.133C96.2368 184.133 96.7133 184.018 97.1508 183.789C97.5883 183.56 97.9607 183.237 98.268 182.82L99.1274 183.43C98.7368 183.966 98.2472 184.385 97.6587 184.688C97.0701 184.99 96.4295 185.141 95.7368 185.141C94.5545 185.141 93.5571 184.74 92.7446 183.938C91.9373 183.135 91.5337 182.151 91.5337 180.984ZM95.6118 177.828C94.893 177.828 94.2628 178.068 93.7212 178.547C93.1795 179.021 92.8435 179.63 92.7133 180.375H98.393C98.2889 179.635 97.9738 179.026 97.4477 178.547C96.9217 178.068 96.3097 177.828 95.6118 177.828ZM105.197 177.977H104.596C104.043 177.977 103.59 178.185 103.236 178.602C102.882 179.018 102.705 179.542 102.705 180.172V185H101.549V176.969H102.705V178.023C102.903 177.674 103.166 177.401 103.494 177.203C103.827 177.005 104.21 176.906 104.642 176.906H105.197V177.977ZM109.532 185L106.173 176.969H107.4L110.009 183.383L112.603 176.969H113.821L110.462 185H109.532ZM116.329 175.328C116.183 175.474 116.006 175.547 115.797 175.547C115.589 175.547 115.409 175.474 115.258 175.328C115.107 175.177 115.032 174.997 115.032 174.789C115.032 174.576 115.107 174.396 115.258 174.25C115.409 174.099 115.589 174.023 115.797 174.023C116.006 174.023 116.183 174.099 116.329 174.25C116.48 174.396 116.555 174.576 116.555 174.789C116.555 174.997 116.48 175.177 116.329 175.328ZM116.36 176.969V185H115.204V176.969H116.36ZM120.422 178.766C119.823 179.37 119.523 180.109 119.523 180.984C119.523 181.859 119.823 182.604 120.422 183.219C121.021 183.828 121.745 184.133 122.594 184.133C123.099 184.133 123.57 184.016 124.008 183.781C124.445 183.547 124.812 183.227 125.109 182.82L125.969 183.43C125.573 183.971 125.086 184.396 124.508 184.703C123.935 185.005 123.297 185.156 122.594 185.156C121.812 185.156 121.099 184.971 120.453 184.602C119.807 184.227 119.299 183.721 118.93 183.086C118.56 182.445 118.375 181.745 118.375 180.984C118.375 180.224 118.56 179.526 118.93 178.891C119.299 178.255 119.807 177.753 120.453 177.383C121.099 177.008 121.812 176.82 122.594 176.82C123.292 176.82 123.93 176.974 124.508 177.281C125.086 177.583 125.573 178.003 125.969 178.539L125.109 179.156C124.818 178.75 124.45 178.432 124.008 178.203C123.57 177.969 123.099 177.852 122.594 177.852C121.745 177.852 121.021 178.156 120.422 178.766ZM127.124 180.984C127.124 180.229 127.301 179.534 127.656 178.898C128.015 178.263 128.507 177.758 129.132 177.383C129.757 177.008 130.447 176.82 131.202 176.82C131.754 176.82 132.273 176.927 132.757 177.141C133.247 177.349 133.666 177.635 134.015 178C134.364 178.359 134.637 178.792 134.835 179.297C135.038 179.797 135.14 180.328 135.14 180.891V181.336H128.273C128.361 182.133 128.692 182.799 129.265 183.336C129.843 183.867 130.525 184.133 131.312 184.133C131.827 184.133 132.304 184.018 132.741 183.789C133.179 183.56 133.551 183.237 133.859 182.82L134.718 183.43C134.327 183.966 133.838 184.385 133.249 184.688C132.661 184.99 132.02 185.141 131.327 185.141C130.145 185.141 129.148 184.74 128.335 183.938C127.528 183.135 127.124 182.151 127.124 180.984ZM131.202 177.828C130.484 177.828 129.853 178.068 129.312 178.547C128.77 179.021 128.434 179.63 128.304 180.375H133.984C133.879 179.635 133.564 179.026 133.038 178.547C132.512 178.068 131.9 177.828 131.202 177.828ZM139.944 185.156C139.064 185.156 138.324 184.919 137.725 184.445C137.126 183.966 136.767 183.341 136.647 182.57H137.749C137.853 183.076 138.1 183.474 138.491 183.766C138.887 184.057 139.361 184.203 139.913 184.203C140.413 184.203 140.814 184.089 141.116 183.859C141.423 183.625 141.577 183.323 141.577 182.953C141.577 182.63 141.465 182.359 141.241 182.141C141.022 181.922 140.671 181.745 140.186 181.609L138.889 181.258C137.499 180.888 136.803 180.167 136.803 179.094C136.803 178.411 137.043 177.862 137.522 177.445C138.001 177.029 138.621 176.82 139.381 176.82C140.225 176.82 140.931 177.06 141.499 177.539C142.072 178.013 142.413 178.628 142.522 179.383H141.397C141.303 178.888 141.069 178.495 140.694 178.203C140.324 177.911 139.892 177.766 139.397 177.766C138.949 177.766 138.592 177.878 138.327 178.102C138.061 178.326 137.928 178.62 137.928 178.984C137.928 179.573 138.366 179.995 139.241 180.25L140.506 180.586C141.23 180.779 141.777 181.068 142.147 181.453C142.522 181.833 142.71 182.297 142.71 182.844C142.71 183.526 142.454 184.083 141.944 184.516C141.439 184.943 140.772 185.156 139.944 185.156ZM148.107 180.984C148.107 180.229 148.284 179.534 148.638 178.898C148.997 178.263 149.49 177.758 150.115 177.383C150.74 177.008 151.43 176.82 152.185 176.82C152.737 176.82 153.255 176.927 153.74 177.141C154.229 177.349 154.648 177.635 154.997 178C155.346 178.359 155.62 178.792 155.818 179.297C156.021 179.797 156.122 180.328 156.122 180.891V181.336H149.255C149.344 182.133 149.674 182.799 150.247 183.336C150.826 183.867 151.508 184.133 152.294 184.133C152.81 184.133 153.286 184.018 153.724 183.789C154.161 183.56 154.534 183.237 154.841 182.82L155.701 183.43C155.31 183.966 154.82 184.385 154.232 184.688C153.643 184.99 153.003 185.141 152.31 185.141C151.128 185.141 150.13 184.74 149.318 183.938C148.51 183.135 148.107 182.151 148.107 180.984ZM152.185 177.828C151.466 177.828 150.836 178.068 150.294 178.547C149.753 179.021 149.417 179.63 149.286 180.375H154.966C154.862 179.635 154.547 179.026 154.021 178.547C153.495 178.068 152.883 177.828 152.185 177.828ZM157.661 182.789C157.661 182.117 157.885 181.578 158.333 181.172C158.786 180.766 159.421 180.536 160.239 180.484L162.88 180.312V179.562C162.88 179.031 162.718 178.62 162.395 178.328C162.072 178.031 161.619 177.883 161.036 177.883C160.223 177.883 159.505 178.164 158.88 178.727L158.27 177.898C159.067 177.195 160.038 176.844 161.184 176.844C162.049 176.844 162.736 177.073 163.247 177.531C163.757 177.99 164.012 178.612 164.012 179.398V183.492C164.012 183.643 164.057 183.763 164.145 183.852C164.239 183.935 164.367 183.977 164.528 183.977H164.926V185H164.301C163.916 185 163.596 184.901 163.341 184.703C163.091 184.5 162.947 184.232 162.911 183.898C162.64 184.289 162.281 184.596 161.833 184.82C161.39 185.044 160.9 185.156 160.364 185.156C159.583 185.156 158.937 184.938 158.426 184.5C157.916 184.057 157.661 183.487 157.661 182.789ZM158.786 182.789C158.786 183.195 158.95 183.534 159.278 183.805C159.611 184.07 160.033 184.203 160.544 184.203C161.2 184.203 161.752 183.995 162.2 183.578C162.653 183.156 162.88 182.648 162.88 182.055V181.242L160.419 181.414C159.893 181.451 159.489 181.589 159.208 181.828C158.926 182.068 158.786 182.388 158.786 182.789ZM169.457 185.156C168.577 185.156 167.837 184.919 167.238 184.445C166.639 183.966 166.28 183.341 166.16 182.57H167.262C167.366 183.076 167.613 183.474 168.004 183.766C168.4 184.057 168.874 184.203 169.426 184.203C169.926 184.203 170.327 184.089 170.629 183.859C170.936 183.625 171.09 183.323 171.09 182.953C171.09 182.63 170.978 182.359 170.754 182.141C170.535 181.922 170.184 181.745 169.699 181.609L168.402 181.258C167.012 180.888 166.316 180.167 166.316 179.094C166.316 178.411 166.556 177.862 167.035 177.445C167.514 177.029 168.134 176.82 168.895 176.82C169.738 176.82 170.444 177.06 171.012 177.539C171.585 178.013 171.926 178.628 172.035 179.383H170.91C170.816 178.888 170.582 178.495 170.207 178.203C169.837 177.911 169.405 177.766 168.91 177.766C168.462 177.766 168.106 177.878 167.84 178.102C167.574 178.326 167.441 178.62 167.441 178.984C167.441 179.573 167.879 179.995 168.754 180.25L170.02 180.586C170.744 180.779 171.29 181.068 171.66 181.453C172.035 181.833 172.223 182.297 172.223 182.844C172.223 183.526 171.968 184.083 171.457 184.516C170.952 184.943 170.285 185.156 169.457 185.156ZM175.199 175.328C175.053 175.474 174.876 175.547 174.667 175.547C174.459 175.547 174.279 175.474 174.128 175.328C173.977 175.177 173.902 174.997 173.902 174.789C173.902 174.576 173.977 174.396 174.128 174.25C174.279 174.099 174.459 174.023 174.667 174.023C174.876 174.023 175.053 174.099 175.199 174.25C175.35 174.396 175.425 174.576 175.425 174.789C175.425 174.997 175.35 175.177 175.199 175.328ZM175.23 176.969V185H174.074V176.969H175.23ZM178.698 185H177.542V173.797H178.698V185ZM182.838 186.133L183.385 184.805L180.104 176.969H181.33L183.955 183.383L186.549 176.969H187.752L183.893 186.422C183.658 186.995 183.38 187.414 183.057 187.68C182.734 187.951 182.304 188.086 181.768 188.086H180.838V187.062H181.557C181.88 187.062 182.14 186.987 182.338 186.836C182.541 186.69 182.708 186.456 182.838 186.133Z" fill="#52525B"/>
<g clip-path="url(#clip0_8350_51904)">
<path d="M44 80C59.464 80 72 67.464 72 52C72 36.536 59.464 24 44 24C28.536 24 16 36.536 16 52C16 67.464 28.536 80 44 80Z" fill="#F4FAFE"/>
<path d="M44.0003 71.8332C54.954 71.8332 63.8337 62.9535 63.8337 51.9998C63.8337 41.0462 54.954 32.1665 44.0003 32.1665C33.0467 32.1665 24.167 41.0462 24.167 51.9998C24.167 62.9535 33.0467 71.8332 44.0003 71.8332Z" fill="#DBEDFF"/>
<path fill-rule="evenodd" clip-rule="evenodd" d="M44 41.25C41.3766 41.25 39.25 43.3766 39.25 46C39.25 48.6234 41.3766 50.75 44 50.75C46.6234 50.75 48.75 48.6234 48.75 46C48.75 43.3766 46.6234 41.25 44 41.25ZM40.75 46C40.75 44.2051 42.2051 42.75 44 42.75C45.7949 42.75 47.25 44.2051 47.25 46C47.25 47.7949 45.7949 49.25 44 49.25C42.2051 49.25 40.75 47.7949 40.75 46Z" fill="#2168F2"/>
<path d="M50 43.25C49.5858 43.25 49.25 43.5858 49.25 44C49.25 44.4142 49.5858 44.75 50 44.75C51.3765 44.75 52.25 45.6557 52.25 46.5C52.25 47.3443 51.3765 48.25 50 48.25C49.5858 48.25 49.25 48.5858 49.25 49C49.25 49.4142 49.5858 49.75 50 49.75C51.9372 49.75 53.75 48.4172 53.75 46.5C53.75 44.5828 51.9372 43.25 50 43.25Z" fill="#2168F2"/>
<path d="M38.75 44C38.75 43.5858 38.4142 43.25 38 43.25C36.0628 43.25 34.25 44.5828 34.25 46.5C34.25 48.4172 36.0628 49.75 38 49.75C38.4142 49.75 38.75 49.4142 38.75 49C38.75 48.5858 38.4142 48.25 38 48.25C36.6235 48.25 35.75 47.3443 35.75 46.5C35.75 45.6557 36.6235 44.75 38 44.75C38.4142 44.75 38.75 44.4142 38.75 44Z" fill="#2168F2"/>
<path fill-rule="evenodd" clip-rule="evenodd" d="M44 52.25C42.2157 52.25 40.5665 52.7308 39.3413 53.5475C38.1215 54.3608 37.25 55.5666 37.25 57C37.25 58.4334 38.1215 59.6392 39.3413 60.4525C40.5665 61.2692 42.2157 61.75 44 61.75C45.7843 61.75 47.4335 61.2692 48.6587 60.4525C49.8785 59.6392 50.75 58.4334 50.75 57C50.75 55.5666 49.8785 54.3608 48.6587 53.5475C47.4335 52.7308 45.7843 52.25 44 52.25ZM38.75 57C38.75 56.2242 39.2217 55.4301 40.1734 54.7956C41.1198 54.1646 42.4706 53.75 44 53.75C45.5294 53.75 46.8802 54.1646 47.8266 54.7956C48.7783 55.4301 49.25 56.2242 49.25 57C49.25 57.7758 48.7783 58.5699 47.8266 59.2044C46.8802 59.8354 45.5294 60.25 44 60.25C42.4706 60.25 41.1198 59.8354 40.1734 59.2044C39.2217 58.5699 38.75 57.7758 38.75 57Z" fill="#2168F2"/>
<path d="M51.2674 53.8393C51.3561 53.4347 51.7561 53.1787 52.1607 53.2674C53.1225 53.4783 53.9893 53.8593 54.6328 54.3859C55.2758 54.912 55.75 55.6352 55.75 56.5C55.75 57.3648 55.2758 58.088 54.6328 58.6141C53.9893 59.1407 53.1225 59.5217 52.1607 59.7326C51.7561 59.8213 51.3561 59.5653 51.2674 59.1607C51.1787 58.7561 51.4347 58.3561 51.8393 58.2674C52.6317 58.0936 53.2649 57.7952 53.6829 57.4532C54.1014 57.1108 54.25 56.7763 54.25 56.5C54.25 56.2237 54.1014 55.8892 53.6829 55.5468C53.2649 55.2048 52.6317 54.9064 51.8393 54.7326C51.4347 54.6439 51.1787 54.2439 51.2674 53.8393Z" fill="#2168F2"/>
<path d="M35.8393 53.2674C36.2439 53.1787 36.6439 53.4347 36.7326 53.8393C36.8213 54.2439 36.5653 54.6439 36.1607 54.7326C35.3683 54.9064 34.7351 55.2048 34.3171 55.5468C33.8986 55.8892 33.75 56.2237 33.75 56.5C33.75 56.7763 33.8986 57.1108 34.3171 57.4532C34.7351 57.7952 35.3683 58.0936 36.1607 58.2674C36.5653 58.3561 36.8213 58.7561 36.7326 59.1607C36.6439 59.5653 36.2439 59.8213 35.8393 59.7326C34.8775 59.5217 34.0107 59.1407 33.3672 58.6141C32.7242 58.088 32.25 57.3648 32.25 56.5C32.25 55.6352 32.7242 54.912 33.3672 54.3859C34.0107 53.8593 34.8775 53.4783 35.8393 53.2674Z" fill="#2168F2"/>
</g>
<defs>
<clipPath id="clip0_8350_51904">
<rect width="56" height="56" fill="white" transform="translate(16 24)"/>
</clipPath>
</defs>
</svg>
