<svg width="56" height="56" viewBox="0 0 56 56" fill="none" xmlns="http://www.w3.org/2000/svg">
<g clip-path="url(#clip0_9875_47926)">
<path d="M28 56C43.464 56 56 43.464 56 28C56 12.536 43.464 0 28 0C12.536 0 0 12.536 0 28C0 43.464 12.536 56 28 56Z" fill="#211E8A" fill-opacity="0.05"/>
<path d="M28.0003 47.8332C38.954 47.8332 47.8337 38.9535 47.8337 27.9998C47.8337 17.0462 38.954 8.1665 28.0003 8.1665C17.0467 8.1665 8.16699 17.0462 8.16699 27.9998C8.16699 38.9535 17.0467 47.8332 28.0003 47.8332Z" fill="#211E8A" fill-opacity="0.08"/>
<path fill-rule="evenodd" clip-rule="evenodd" d="M25.9436 19.25H30.0564C31.8942 19.25 33.3498 19.25 34.489 19.4031C35.6614 19.5608 36.6104 19.8929 37.3588 20.6412C38.1071 21.3896 38.4392 22.3386 38.5969 23.511C38.6873 24.1838 38.7244 24.9671 38.7395 25.8743C38.7464 25.9152 38.75 25.9572 38.75 26C38.75 26.0353 38.7476 26.0699 38.7429 26.1039C38.75 26.6696 38.75 27.2818 38.75 27.9436V28.0564C38.75 29.8942 38.75 31.3498 38.5969 32.489C38.4392 33.6614 38.1071 34.6104 37.3588 35.3588C36.6104 36.1071 35.6614 36.4392 34.489 36.5969C33.3498 36.75 31.8942 36.75 30.0564 36.75H25.9436C24.1058 36.75 22.6502 36.75 21.511 36.5969C20.3386 36.4392 19.3896 36.1071 18.6412 35.3588C17.8929 34.6104 17.5608 33.6614 17.4031 32.489C17.25 31.3498 17.25 29.8942 17.25 28.0564V27.9436C17.25 27.2818 17.25 26.6696 17.2571 26.1039C17.2524 26.0699 17.25 26.0352 17.25 26C17.25 25.9572 17.2536 25.9152 17.2605 25.8743C17.2756 24.9671 17.3127 24.1838 17.4031 23.511C17.5608 22.3386 17.8929 21.3896 18.6412 20.6412C19.3896 19.8929 20.3386 19.5608 21.511 19.4031C22.6502 19.25 24.1058 19.25 25.9436 19.25ZM18.752 26.75C18.7501 27.1384 18.75 27.5541 18.75 28C18.75 29.9068 18.7516 31.2615 18.8898 32.2892C19.025 33.2952 19.2787 33.8749 19.7019 34.2981C20.1251 34.7213 20.7048 34.975 21.7108 35.1102C22.7385 35.2484 24.0932 35.25 26 35.25H30C31.9068 35.25 33.2615 35.2484 34.2892 35.1102C35.2952 34.975 35.8749 34.7213 36.2981 34.2981C36.7213 33.8749 36.975 33.2952 37.1102 32.2892C37.2484 31.2615 37.25 29.9068 37.25 28C37.25 27.5541 37.2499 27.1384 37.248 26.75H18.752ZM37.2239 25.25H18.7761C18.7956 24.6633 18.8299 24.1563 18.8898 23.7108C19.025 22.7048 19.2787 22.1251 19.7019 21.7019C20.1251 21.2787 20.7048 21.025 21.7108 20.8898C22.7385 20.7516 24.0932 20.75 26 20.75H30C31.9068 20.75 33.2615 20.7516 34.2892 20.8898C35.2952 21.025 35.8749 21.2787 36.2981 21.7019C36.7213 22.1251 36.975 22.7048 37.1102 23.7108C37.1701 24.1563 37.2044 24.6633 37.2239 25.25ZM21.25 32C21.25 31.5858 21.5858 31.25 22 31.25H26C26.4142 31.25 26.75 31.5858 26.75 32C26.75 32.4142 26.4142 32.75 26 32.75H22C21.5858 32.75 21.25 32.4142 21.25 32ZM27.75 32C27.75 31.5858 28.0858 31.25 28.5 31.25H30C30.4142 31.25 30.75 31.5858 30.75 32C30.75 32.4142 30.4142 32.75 30 32.75H28.5C28.0858 32.75 27.75 32.4142 27.75 32Z" fill="#211E8A"/>
</g>
<defs>
<clipPath id="clip0_9875_47926">
<rect width="56" height="56" fill="white"/>
</clipPath>
</defs>
</svg>
