<svg width="56" height="56" viewBox="0 0 56 56" fill="none" xmlns="http://www.w3.org/2000/svg">
<g clip-path="url(#clip0_9875_48030)">
<path d="M28 56C43.464 56 56 43.464 56 28C56 12.536 43.464 0 28 0C12.536 0 0 12.536 0 28C0 43.464 12.536 56 28 56Z" fill="#211E8A" fill-opacity="0.05"/>
<path d="M28.0003 47.8332C38.954 47.8332 47.8337 38.9535 47.8337 27.9998C47.8337 17.0462 38.954 8.1665 28.0003 8.1665C17.0467 8.1665 8.16699 17.0462 8.16699 27.9998C8.16699 38.9535 17.0467 47.8332 28.0003 47.8332Z" fill="#211E8A" fill-opacity="0.08"/>
<path fill-rule="evenodd" clip-rule="evenodd" d="M27.2383 18.7989C26.6243 18.88 25.866 19.0542 24.7874 19.3031L23.5592 19.5865C22.6482 19.7968 22.0208 19.9425 21.5416 20.107C21.079 20.2658 20.8173 20.4223 20.6198 20.6198C20.4223 20.8173 20.2658 21.079 20.107 21.5416C19.9425 22.0208 19.7968 22.6482 19.5865 23.5592L19.3031 24.7874C19.0542 25.866 18.88 26.6243 18.7989 27.2383C18.7198 27.8365 18.7381 28.2413 18.8436 28.6092C18.9491 28.9772 19.1482 29.3301 19.5323 29.7954C19.9265 30.2731 20.4761 30.8238 21.2588 31.6066L23.0885 33.4362C24.4479 34.7957 25.4153 35.7608 26.247 36.3954C27.0614 37.0167 27.6569 37.25 28.2623 37.25C28.8678 37.25 29.4633 37.0167 30.2776 36.3954C31.1093 35.7608 32.0767 34.7957 33.4362 33.4362C34.7957 32.0767 35.7608 31.1093 36.3954 30.2776C37.0167 29.4633 37.25 28.8678 37.25 28.2623C37.25 27.6569 37.0167 27.0614 36.3954 26.247C35.7608 25.4153 34.7957 24.4479 33.4362 23.0885L31.6066 21.2588C30.8238 20.4761 30.2731 19.9265 29.7954 19.5323C29.3301 19.1482 28.9772 18.9491 28.6092 18.8436C28.2413 18.7381 27.8365 18.7198 27.2383 18.7989ZM27.0418 17.3118C27.7591 17.217 28.3881 17.2197 29.0227 17.4017C29.6574 17.5837 30.1922 17.9148 30.7502 18.3754C31.2897 18.8206 31.8905 19.4214 32.641 20.172L34.5368 22.0677C35.8474 23.3783 36.8851 24.416 37.5879 25.3371C38.311 26.2849 38.75 27.197 38.75 28.2623C38.75 29.3276 38.311 30.2397 37.5879 31.1875C36.8851 32.1087 35.8474 33.1463 34.5368 34.4569L34.4569 34.5368C33.1463 35.8474 32.1087 36.8851 31.1875 37.5879C30.2397 38.311 29.3276 38.75 28.2623 38.75C27.197 38.75 26.2849 38.311 25.3371 37.5879C24.416 36.8851 23.3783 35.8474 22.0677 34.5368L20.172 32.641C19.4214 31.8905 18.8206 31.2897 18.3754 30.7502C17.9148 30.1922 17.5837 29.6574 17.4017 29.0227C17.2197 28.3881 17.217 27.7591 17.3118 27.0418C17.4034 26.3484 17.5945 25.5205 17.8332 24.4862L18.1339 23.1833C18.333 22.3202 18.4954 21.6164 18.6882 21.0547C18.8895 20.4681 19.1431 19.9751 19.5591 19.5591C19.9751 19.1431 20.4681 18.8895 21.0547 18.6882C21.6164 18.4954 22.3202 18.333 23.1833 18.1339L24.4862 17.8332C25.5205 17.5945 26.3484 17.4034 27.0418 17.3118ZM25.4909 23.9951C25.0028 23.507 24.2113 23.507 23.7232 23.9951C23.235 24.4833 23.235 25.2748 23.7232 25.7629C24.2113 26.2511 25.0028 26.2511 25.4909 25.7629C25.9791 25.2748 25.9791 24.4833 25.4909 23.9951ZM22.6625 22.9345C23.7365 21.8605 25.4777 21.8605 26.5516 22.9345C27.6255 24.0084 27.6255 25.7496 26.5516 26.8236C25.4777 27.8975 23.7365 27.8975 22.6625 26.8236C21.5886 25.7496 21.5886 24.0084 22.6625 22.9345ZM35.0511 26.9902C35.344 27.2831 35.344 27.7579 35.0511 28.0508L28.0721 35.0301C27.7792 35.323 27.3043 35.323 27.0114 35.0301C26.7185 34.7372 26.7185 34.2623 27.0114 33.9694L33.9904 26.9902C34.2833 26.6973 34.7582 26.6973 35.0511 26.9902Z" fill="#47449D"/>
</g>
<defs>
<clipPath id="clip0_9875_48030">
<rect width="56" height="56" fill="white"/>
</clipPath>
</defs>
</svg>
