<svg width="57" height="57" viewBox="0 0 57 57" fill="none" xmlns="http://www.w3.org/2000/svg">
<g clip-path="url(#clip0_8685_21099)">
<path d="M28.5 56.5C43.964 56.5 56.5 43.964 56.5 28.5C56.5 13.036 43.964 0.5 28.5 0.5C13.036 0.5 0.5 13.036 0.5 28.5C0.5 43.964 13.036 56.5 28.5 56.5Z" fill="#FEF6F4"/>
<path d="M28.5003 48.3332C39.454 48.3332 48.3337 39.4535 48.3337 28.4998C48.3337 17.5462 39.454 8.6665 28.5003 8.6665C17.5467 8.6665 8.66699 17.5462 8.66699 28.4998C8.66699 39.4535 17.5467 48.3332 28.5003 48.3332Z" fill="#FFE9E9"/>
<path fill-rule="evenodd" clip-rule="evenodd" d="M30.4247 20.2502C30.3205 20.25 30.2123 20.25 30.0997 20.25L26.0997 20.25C25.9871 20.25 25.8788 20.25 25.7746 20.2502C25.4763 21.7194 24.319 22.8767 22.8498 23.175C22.8497 23.2791 22.8497 23.3874 22.8497 23.5C22.8497 23.6126 22.8497 23.7209 22.8498 23.825C24.319 24.1234 25.4763 25.2806 25.7746 26.7498C25.8788 26.75 25.9871 26.75 26.0997 26.75H30.0997C30.2123 26.75 30.3205 26.75 30.4247 26.7498C30.723 25.2806 31.8803 24.1234 33.3495 23.8251C33.3496 23.7209 33.3497 23.6126 33.3497 23.5C33.3497 23.3874 33.3496 23.2792 33.3495 23.175C31.8803 22.8767 30.723 21.7194 30.4247 20.2502ZM31.0292 18.7533C30.7546 18.75 30.4621 18.75 30.1517 18.75L26.0477 18.75C25.7373 18.75 25.4447 18.75 25.1702 18.7533C25.1469 18.7511 25.1234 18.75 25.0997 18.75C25.0683 18.75 25.0373 18.7519 25.0069 18.7557C24.5542 18.7637 24.1532 18.7831 23.8052 18.8299C23.1774 18.9143 22.6106 19.1 22.1551 19.5555C21.6997 20.0109 21.514 20.5777 21.4296 21.2055C21.3828 21.5536 21.3634 21.9545 21.3553 22.4073C21.3516 22.4377 21.3497 22.4686 21.3497 22.5C21.3497 22.5238 21.3508 22.5473 21.3529 22.5705C21.3496 22.845 21.3497 23.1376 21.3497 23.448V23.552C21.3497 23.8624 21.3496 24.155 21.3529 24.4295C21.3508 24.4527 21.3497 24.4762 21.3497 24.5C21.3497 24.5314 21.3516 24.5623 21.3553 24.5927C21.3634 25.0455 21.3828 25.4464 21.4296 25.7945C21.514 26.4223 21.6997 26.9891 22.1551 27.4445C22.6106 27.9 23.1774 28.0857 23.8052 28.1701C24.1532 28.2169 24.5542 28.2363 25.007 28.2443C25.0373 28.2481 25.0683 28.25 25.0997 28.25C25.1234 28.25 25.1469 28.2489 25.1701 28.2467C25.4447 28.25 25.7373 28.25 26.0477 28.25H30.1517C30.4621 28.25 30.7547 28.25 31.0292 28.2467C31.0524 28.2489 31.0759 28.25 31.0997 28.25C31.1311 28.25 31.162 28.2481 31.1924 28.2443C31.6452 28.2363 32.0461 28.2169 32.3941 28.1701C33.0219 28.0857 33.5887 27.9 34.0442 27.4445C34.4997 26.9891 34.6854 26.4223 34.7698 25.7945C34.8166 25.4464 34.836 25.0455 34.844 24.5927C34.8477 24.5623 34.8497 24.5314 34.8497 24.5C34.8497 24.4762 34.8486 24.4527 34.8464 24.4295C34.8497 24.155 34.8497 23.8624 34.8497 23.552V23.448C34.8497 23.1376 34.8497 22.845 34.8464 22.5705C34.8486 22.5473 34.8497 22.5238 34.8497 22.5C34.8497 22.4686 34.8477 22.4377 34.844 22.4073C34.836 21.9545 34.8166 21.5536 34.7698 21.2055C34.6854 20.5777 34.4997 20.0109 34.0442 19.5555C33.5887 19.1 33.0219 18.9143 32.3941 18.8299C32.0461 18.7831 31.6452 18.7637 31.1924 18.7557C31.162 18.7519 31.1311 18.75 31.0997 18.75C31.0759 18.75 31.0524 18.7511 31.0292 18.7533ZM31.9938 20.294C32.2216 20.8979 32.7017 21.3781 33.3057 21.6059C33.2992 21.536 33.2917 21.4692 33.2831 21.4054C33.2211 20.9439 33.1139 20.7464 32.9836 20.6161C32.8532 20.4858 32.6557 20.3786 32.1943 20.3165C32.1304 20.308 32.0637 20.3005 31.9938 20.294ZM33.3057 25.3941C32.7018 25.6219 32.2216 26.1021 31.9938 26.706C32.0637 26.6995 32.1304 26.6921 32.1943 26.6835C32.6557 26.6214 32.8532 26.5142 32.9836 26.3839C33.1139 26.2536 33.2211 26.0561 33.2831 25.5946C33.2917 25.5308 33.2992 25.464 33.3057 25.3941ZM24.2056 26.706C23.9778 26.1021 23.4976 25.6219 22.8936 25.3941C22.9001 25.464 22.9076 25.5308 22.9162 25.5946C22.9782 26.0561 23.0855 26.2536 23.2158 26.3839C23.3461 26.5142 23.5436 26.6214 24.0051 26.6835C24.0689 26.6921 24.1356 26.6995 24.2056 26.706ZM22.8936 21.6059C23.4976 21.3781 23.9778 20.8979 24.2056 20.294C24.1356 20.3005 24.0689 20.308 24.0051 20.3165C23.5436 20.3786 23.3461 20.4858 23.2158 20.6161C23.0855 20.7464 22.9782 20.9439 22.9162 21.4054C22.9076 21.4692 22.9001 21.536 22.8936 21.6059ZM28.0997 23.25C27.9616 23.25 27.8497 23.3619 27.8497 23.5C27.8497 23.6381 27.9616 23.75 28.0997 23.75C28.2377 23.75 28.3497 23.6381 28.3497 23.5C28.3497 23.3619 28.2377 23.25 28.0997 23.25ZM26.3497 23.5C26.3497 22.5335 27.1332 21.75 28.0997 21.75C29.0662 21.75 29.8497 22.5335 29.8497 23.5C29.8497 24.4665 29.0662 25.25 28.0997 25.25C27.1332 25.25 26.3497 24.4665 26.3497 23.5ZM24.7836 30.9482C26.6494 30.5867 28.6467 30.6678 30.2629 31.6318C30.4899 31.7672 30.7027 31.9359 30.8884 32.1444C31.2642 32.5666 31.4584 33.0913 31.4675 33.6174C31.6588 33.494 31.8504 33.357 32.045 33.21L33.8522 31.8448C34.7568 31.1615 36.0714 31.1614 36.9761 31.8445C37.8121 32.4757 38.1453 33.6085 37.5469 34.5677C37.1216 35.2495 36.4811 36.1925 35.8292 36.7962C35.1703 37.4065 34.2326 37.9196 33.5232 38.262C32.6617 38.6778 31.7312 38.9077 30.8265 39.0541C28.9773 39.3535 27.0531 39.3077 25.2247 38.931C24.2903 38.7384 23.3192 38.6384 22.3596 38.6384H20.0997C19.6855 38.6384 19.3497 38.3026 19.3497 37.8884C19.3497 37.4742 19.6855 37.1384 20.0997 37.1384H22.3596C23.4217 37.1384 24.4941 37.249 25.5273 37.4618C27.1794 37.8022 28.9198 37.8432 30.5868 37.5734C31.4157 37.4392 32.1898 37.24 32.8711 36.9111C33.5546 36.5812 34.3229 36.1468 34.81 35.6957C35.3025 35.2395 35.8537 34.4479 36.2743 33.7738C36.4012 33.5703 36.3836 33.2767 36.0723 33.0416C35.7025 32.7624 35.126 32.7625 34.7564 33.0417L32.9492 34.4069C32.2277 34.9518 31.3398 35.5349 30.2384 35.7106C30.1272 35.7283 30.0115 35.7445 29.8914 35.7588C29.8341 35.7692 29.7745 35.776 29.7129 35.7783C29.1506 35.8342 28.4994 35.8472 27.7809 35.7793C27.3686 35.7404 27.0658 35.3745 27.1048 34.9621C27.1437 34.5497 27.5096 34.247 27.9219 34.286C28.5494 34.3452 29.1123 34.3321 29.5899 34.2831C29.5996 34.2821 29.6092 34.2811 29.6188 34.2801C29.6388 34.2685 29.6693 34.2474 29.7092 34.2125C30.0287 33.9336 30.0572 33.4667 29.768 33.1418C29.6947 33.0595 29.6045 32.9856 29.4945 32.92C28.3134 32.2155 26.7359 32.0978 25.0689 32.4208C23.4114 32.7419 21.7646 33.4817 20.5335 34.3547C20.1957 34.5943 19.7275 34.5146 19.4879 34.1768C19.2483 33.8389 19.3279 33.3708 19.6658 33.1311C21.0642 32.1395 22.9083 31.3115 24.7836 30.9482Z" fill="#D73E3E"/>
</g>
<defs>
<clipPath id="clip0_8685_21099">
<rect width="56" height="56" fill="white" transform="translate(0.5 0.5)"/>
</clipPath>
</defs>
</svg>
