<svg width="56" height="56" viewBox="0 0 56 56" fill="none" xmlns="http://www.w3.org/2000/svg">
<g clip-path="url(#clip0_9875_48008)">
<path d="M28 56C43.464 56 56 43.464 56 28C56 12.536 43.464 0 28 0C12.536 0 0 12.536 0 28C0 43.464 12.536 56 28 56Z" fill="#211E8A" fill-opacity="0.05"/>
<path d="M28.0003 47.8332C38.954 47.8332 47.8337 38.9535 47.8337 27.9998C47.8337 17.0462 38.954 8.1665 28.0003 8.1665C17.0467 8.1665 8.16699 17.0462 8.16699 27.9998C8.16699 38.9535 17.0467 47.8332 28.0003 47.8332Z" fill="#211E8A" fill-opacity="0.08"/>
<g opacity="0.8">
<path fill-rule="evenodd" clip-rule="evenodd" d="M27.9996 18.25C26.757 18.25 25.7496 19.2574 25.7496 20.5V20.7599C26.3067 20.75 26.918 20.75 27.5888 20.75H28.4105C29.0813 20.75 29.6926 20.75 30.2496 20.7599V20.5C30.2496 19.2574 29.2423 18.25 27.9996 18.25ZM31.7496 20.8279V20.5C31.7496 18.4289 30.0707 16.75 27.9996 16.75C25.9286 16.75 24.2496 18.4289 24.2496 20.5V20.8279C24.1069 20.8402 23.969 20.8544 23.8357 20.8709C22.8257 20.9957 21.9931 21.2578 21.2858 21.8448C20.5785 22.4318 20.1674 23.2019 19.8587 24.1716C19.5594 25.1113 19.3329 26.3194 19.0482 27.8381L19.0275 27.9484C18.6257 30.0912 18.309 31.7799 18.2509 33.1112C18.1914 34.4758 18.3944 35.606 19.1642 36.5335C19.9339 37.461 21.0074 37.8689 22.3596 38.0618C23.6788 38.25 25.3969 38.25 27.577 38.25H28.4222C30.6023 38.25 32.3205 38.25 33.6397 38.0618C34.9919 37.8689 36.0653 37.461 36.8351 36.5335C37.6049 35.606 37.8079 34.4758 37.7483 33.1112C37.6902 31.7799 37.3736 30.0912 36.9718 27.9484L36.9511 27.8381C36.6664 26.3194 36.4398 25.1113 36.1406 24.1716C35.8318 23.2019 35.4207 22.4318 34.7134 21.8448C34.0062 21.2578 33.1735 20.9957 32.1636 20.8709C32.0303 20.8544 31.8924 20.8402 31.7496 20.8279ZM24.0196 22.3596C23.1641 22.4653 22.6474 22.6641 22.2438 22.9991C21.8402 23.3341 21.5495 23.8053 21.2879 24.6267C21.0201 25.4679 20.8093 26.5846 20.5132 28.1639C20.0975 30.3811 19.8024 31.9647 19.7495 33.1766C19.6975 34.3679 19.8886 35.0576 20.3184 35.5756C20.7483 36.0935 21.391 36.4084 22.5714 36.5768C23.7723 36.7482 25.3832 36.75 27.639 36.75H28.3602C30.616 36.75 32.2269 36.7482 33.4278 36.5768C34.6082 36.4084 35.251 36.0935 35.6808 35.5756C36.1107 35.0576 36.3017 34.3679 36.2497 33.1766C36.1968 31.9647 35.9018 30.3811 35.486 28.1639C35.1899 26.5846 34.9792 25.4679 34.7113 24.6267C34.4498 23.8053 34.1591 23.3341 33.7555 22.9991C33.3519 22.6641 32.8352 22.4653 31.9796 22.3596C31.1035 22.2513 29.967 22.25 28.3602 22.25H27.639C26.0322 22.25 24.8958 22.2513 24.0196 22.3596ZM30.4979 27.4394C30.8075 27.7146 30.8354 28.1887 30.5602 28.4983L27.8935 31.4983C27.7608 31.6475 27.5741 31.7377 27.3747 31.7488C27.1753 31.76 26.9797 31.6911 26.8312 31.5575L25.4979 30.3575C25.19 30.0804 25.1651 29.6062 25.4422 29.2983C25.7193 28.9904 26.1935 28.9654 26.5014 29.2425L27.2738 29.9377L29.4391 27.5017C29.7143 27.1921 30.1883 27.1643 30.4979 27.4394Z" fill="#211E8A"/>
</g>
</g>
<defs>
<clipPath id="clip0_9875_48008">
<rect width="56" height="56" fill="white"/>
</clipPath>
</defs>
</svg>
