<svg width="266" height="240" viewBox="0 0 266 240" fill="none" xmlns="http://www.w3.org/2000/svg">
<rect x="0.599976" width="264.8" height="240" rx="8" fill="white"/>
<path d="M27.7579 128H25.4651V115.593H28.7961L32.499 125.024L36.1846 115.593H39.481V128H37.1623L37.1796 118.838L33.5632 128H31.3656L27.7319 118.838L27.7579 128ZM41.5307 123.415C41.5307 122.572 41.7355 121.785 42.145 121.053C42.5545 120.32 43.1255 119.735 43.858 119.296C44.5906 118.852 45.3981 118.63 46.2805 118.63C47.6533 118.63 48.778 119.089 49.6547 120.006C50.5372 120.923 50.9784 122.094 50.9784 123.518V124.193H43.91C44.0657 124.799 44.3771 125.292 44.8443 125.673C45.3115 126.053 45.8566 126.244 46.4795 126.244C46.9813 126.244 47.4254 126.151 47.8119 125.967C48.1983 125.777 48.5559 125.468 48.8847 125.041L50.5026 126.244C50.0354 126.878 49.4615 127.368 48.7809 127.714C48.1003 128.061 47.3389 128.234 46.4968 128.234C45.574 128.234 44.7319 128.029 43.9705 127.619C43.2149 127.21 42.618 126.636 42.1796 125.898C41.747 125.159 41.5307 124.332 41.5307 123.415ZM46.2286 120.611C45.6864 120.611 45.2106 120.773 44.8011 121.096C44.3916 121.419 44.1061 121.86 43.9446 122.42H48.6425C48.4752 121.86 48.1724 121.419 47.734 121.096C47.2957 120.773 46.7939 120.611 46.2286 120.611ZM58.0808 120.88H57.2502C56.685 120.88 56.2178 121.076 55.8487 121.468C55.4795 121.86 55.2949 122.397 55.2949 123.077V128H52.9763V118.838H55.2776V119.833C55.7679 119.112 56.4946 118.751 57.4579 118.751H58.0808V120.88ZM62.3368 121.459C61.8061 121.996 61.5408 122.647 61.5408 123.415C61.5408 124.182 61.8061 124.836 62.3368 125.379C62.8674 125.921 63.5105 126.192 64.2661 126.192C65.2293 126.192 65.9964 125.797 66.5675 125.007L68.2199 126.209C67.1933 127.559 65.8753 128.234 64.2661 128.234C63.3375 128.234 62.4867 128.017 61.7138 127.585C60.9409 127.152 60.3324 126.57 59.8883 125.837C59.45 125.099 59.2308 124.291 59.2308 123.415C59.2308 122.544 59.45 121.742 59.8883 121.009C60.3324 120.271 60.9409 119.689 61.7138 119.262C62.4867 118.829 63.3375 118.613 64.2661 118.613C65.8753 118.613 67.1933 119.285 68.2199 120.629L66.5675 121.831C65.9964 121.041 65.2293 120.646 64.2661 120.646C63.5105 120.646 62.8674 120.917 62.3368 121.459ZM72.199 122.627V128H69.8804V115.593H72.199V119.634C72.8566 118.942 73.7073 118.596 74.7513 118.596C75.801 118.596 76.6605 118.939 77.3295 119.625C77.9986 120.306 78.3331 121.154 78.3331 122.169V128H76.0145V122.627C76.0145 122.033 75.8385 121.557 75.4867 121.2C75.1406 120.842 74.685 120.663 74.1197 120.663C73.5545 120.663 73.0931 120.842 72.7355 121.2C72.3778 121.552 72.199 122.027 72.199 122.627ZM80.2358 125.43C80.2358 124.617 80.5011 123.977 81.0318 123.51C81.5624 123.043 82.318 122.774 83.2985 122.705L85.9979 122.506V122.151C85.9979 121.696 85.8508 121.341 85.5566 121.087C85.2625 120.828 84.8472 120.698 84.3108 120.698C83.5033 120.698 82.6958 120.969 81.8883 121.511L80.9106 119.867C82.0238 119.054 83.2524 118.647 84.5963 118.647C85.6979 118.647 86.5804 118.942 87.2437 119.53C87.9128 120.113 88.2473 120.891 88.2473 121.866V125.465C88.2473 125.823 88.4175 126.001 88.7578 126.001H89.2336V128H88.1608C87.7224 128 87.3389 127.905 87.0101 127.714C86.6814 127.524 86.4362 127.259 86.2747 126.919C85.946 127.334 85.5364 127.657 85.0462 127.888C84.5559 128.118 84.0109 128.234 83.411 128.234C82.4997 128.234 81.7412 127.968 81.1356 127.438C80.5357 126.907 80.2358 126.238 80.2358 125.43ZM82.4507 125.413C82.4507 125.73 82.5862 125.984 82.8573 126.174C83.1284 126.365 83.4831 126.46 83.9215 126.46C84.4982 126.46 84.9885 126.298 85.3922 125.975C85.796 125.647 85.9979 125.252 85.9979 124.79V124.211L83.6186 124.418C82.84 124.487 82.4507 124.819 82.4507 125.413ZM99.4593 122.169V128H97.1406V122.627C97.1406 122.033 96.9647 121.557 96.6129 121.2C96.2668 120.842 95.8111 120.663 95.2459 120.663C94.6806 120.663 94.2192 120.842 93.8616 121.2C93.504 121.552 93.3252 122.027 93.3252 122.627V128H91.0065V118.838H93.3252V119.616C93.9885 118.936 94.8277 118.596 95.8428 118.596C96.9041 118.596 97.7722 118.939 98.447 119.625C99.1219 120.306 99.4593 121.154 99.4593 122.169ZM105.281 128C104.474 128 103.851 127.789 103.412 127.368C102.98 126.942 102.764 126.385 102.764 125.699V120.845H100.973V118.838H102.764V116.182H105.074V118.838H107.089V120.845H105.074V125.292C105.074 125.523 105.149 125.699 105.299 125.82C105.454 125.941 105.668 126.001 105.939 126.001H107.089V128H105.281ZM112.496 128.216C111.331 128.216 110.379 127.928 109.641 127.351C108.908 126.774 108.45 126.027 108.265 125.11H110.463C110.572 125.554 110.809 125.886 111.172 126.105C111.536 126.319 111.977 126.425 112.496 126.425C112.911 126.425 113.234 126.339 113.465 126.166C113.696 125.993 113.811 125.765 113.811 125.482C113.811 125.292 113.733 125.122 113.578 124.972C113.422 124.822 113.191 124.709 112.885 124.634L110.991 124.193C109.278 123.784 108.421 122.884 108.421 121.494C108.421 120.629 108.741 119.934 109.381 119.409C110.022 118.878 110.841 118.613 111.839 118.613C112.969 118.613 113.886 118.907 114.59 119.495C115.299 120.078 115.723 120.828 115.862 121.745H113.681C113.566 121.295 113.332 120.957 112.981 120.733C112.629 120.508 112.242 120.395 111.821 120.395C111.464 120.395 111.184 120.476 110.982 120.637C110.786 120.799 110.688 121.004 110.688 121.252C110.688 121.725 111.054 122.048 111.787 122.221L113.543 122.653C115.221 123.057 116.061 123.942 116.061 125.309C116.061 126.151 115.738 126.846 115.092 127.394C114.446 127.942 113.58 128.216 112.496 128.216Z" fill="black"/>
<path d="M26.6094 161H25.4141V149.797H31.9375V150.859H26.6094V154.859H31.7812V155.914H26.6094V161ZM41.3978 154.891C41.7728 155.531 41.9603 156.229 41.9603 156.984C41.9603 157.74 41.7728 158.438 41.3978 159.078C41.0228 159.719 40.5098 160.227 39.8588 160.602C39.2129 160.971 38.5046 161.156 37.7338 161.156C37.1504 161.156 36.5983 161.047 36.0775 160.828C35.5567 160.609 35.1088 160.312 34.7338 159.938C34.3588 159.562 34.0619 159.12 33.8431 158.609C33.6244 158.094 33.515 157.552 33.515 156.984C33.515 156.229 33.6999 155.534 34.0697 154.898C34.4395 154.258 34.9473 153.753 35.5931 153.383C36.2442 153.008 36.9577 152.82 37.7338 152.82C38.5046 152.82 39.2129 153.005 39.8588 153.375C40.5098 153.745 41.0228 154.25 41.3978 154.891ZM40.8041 156.984C40.8041 156.109 40.502 155.37 39.8978 154.766C39.2989 154.156 38.5775 153.852 37.7338 153.852C36.8848 153.852 36.1608 154.156 35.5619 154.766C34.9629 155.37 34.6634 156.109 34.6634 156.984C34.6634 157.854 34.9629 158.594 35.5619 159.203C36.1608 159.812 36.8848 160.117 37.7338 160.117C38.5775 160.117 39.2989 159.812 39.8978 159.203C40.502 158.594 40.8041 157.854 40.8041 156.984ZM47.5847 153.977H46.9831C46.431 153.977 45.9779 154.185 45.6238 154.602C45.2696 155.018 45.0925 155.542 45.0925 156.172V161H43.9363V152.969H45.0925V154.023C45.2904 153.674 45.5534 153.401 45.8816 153.203C46.2149 153.005 46.5977 152.906 47.03 152.906H47.5847V153.977ZM55.9584 161.156C55.0782 161.156 54.3386 160.919 53.7397 160.445C53.1407 159.966 52.7814 159.341 52.6616 158.57H53.7631C53.8673 159.076 54.1147 159.474 54.5053 159.766C54.9011 160.057 55.3751 160.203 55.9272 160.203C56.4272 160.203 56.8282 160.089 57.1303 159.859C57.4376 159.625 57.5912 159.323 57.5912 158.953C57.5912 158.63 57.4793 158.359 57.2553 158.141C57.0366 157.922 56.685 157.745 56.2006 157.609L54.9037 157.258C53.5131 156.888 52.8178 156.167 52.8178 155.094C52.8178 154.411 53.0574 153.862 53.5366 153.445C54.0157 153.029 54.6355 152.82 55.3959 152.82C56.2397 152.82 56.9454 153.06 57.5131 153.539C58.086 154.013 58.4272 154.628 58.5366 155.383H57.4116C57.3178 154.888 57.0834 154.495 56.7084 154.203C56.3386 153.911 55.9064 153.766 55.4116 153.766C54.9636 153.766 54.6069 153.878 54.3412 154.102C54.0756 154.326 53.9428 154.62 53.9428 154.984C53.9428 155.573 54.3803 155.995 55.2553 156.25L56.5209 156.586C57.2449 156.779 57.7918 157.068 58.1616 157.453C58.5366 157.833 58.7241 158.297 58.7241 158.844C58.7241 159.526 58.4689 160.083 57.9584 160.516C57.4532 160.943 56.7866 161.156 55.9584 161.156ZM60.2781 156.984C60.2781 156.229 60.4552 155.534 60.8094 154.898C61.1688 154.263 61.6609 153.758 62.2859 153.383C62.9109 153.008 63.601 152.82 64.3563 152.82C64.9083 152.82 65.4266 152.927 65.9109 153.141C66.4005 153.349 66.8198 153.635 67.1688 154C67.5177 154.359 67.7911 154.792 67.9891 155.297C68.1922 155.797 68.2938 156.328 68.2938 156.891V157.336H61.4266C61.5151 158.133 61.8458 158.799 62.4188 159.336C62.9969 159.867 63.6792 160.133 64.4656 160.133C64.9813 160.133 65.4578 160.018 65.8953 159.789C66.3328 159.56 66.7052 159.237 67.0125 158.82L67.8719 159.43C67.4813 159.966 66.9917 160.385 66.4031 160.688C65.8146 160.99 65.174 161.141 64.4813 161.141C63.299 161.141 62.3016 160.74 61.4891 159.938C60.6818 159.135 60.2781 158.151 60.2781 156.984ZM64.3563 153.828C63.6375 153.828 63.0073 154.068 62.4656 154.547C61.924 155.021 61.588 155.63 61.4578 156.375H67.1375C67.0333 155.635 66.7182 155.026 66.1922 154.547C65.6661 154.068 65.0542 153.828 64.3563 153.828ZM71.4494 161H70.2931V149.797H71.4494V161ZM74.9175 161H73.7612V149.797H74.9175V161ZM76.9325 156.984C76.9325 156.229 77.1096 155.534 77.4637 154.898C77.8231 154.263 78.3153 153.758 78.9403 153.383C79.5653 153.008 80.2554 152.82 81.0106 152.82C81.5627 152.82 82.0809 152.927 82.5653 153.141C83.0549 153.349 83.4742 153.635 83.8231 154C84.1721 154.359 84.4455 154.792 84.6434 155.297C84.8466 155.797 84.9481 156.328 84.9481 156.891V157.336H78.0809C78.1695 158.133 78.5002 158.799 79.0731 159.336C79.6512 159.867 80.3335 160.133 81.12 160.133C81.6356 160.133 82.1122 160.018 82.5497 159.789C82.9872 159.56 83.3596 159.237 83.6669 158.82L84.5262 159.43C84.1356 159.966 83.646 160.385 83.0575 160.688C82.469 160.99 81.8283 161.141 81.1356 161.141C79.9533 161.141 78.9559 160.74 78.1434 159.938C77.3361 159.135 76.9325 158.151 76.9325 156.984ZM81.0106 153.828C80.2919 153.828 79.6617 154.068 79.12 154.547C78.5783 155.021 78.2424 155.63 78.1122 156.375H83.7919C83.6877 155.635 83.3726 155.026 82.8466 154.547C82.3205 154.068 81.7085 153.828 81.0106 153.828ZM90.5959 153.977H89.9944C89.4423 153.977 88.9892 154.185 88.635 154.602C88.2808 155.018 88.1037 155.542 88.1037 156.172V161H86.9475V152.969H88.1037V154.023C88.3017 153.674 88.5647 153.401 88.8928 153.203C89.2261 153.005 89.609 152.906 90.0412 152.906H90.5959V153.977ZM95.1266 161.156C94.2464 161.156 93.5068 160.919 92.9078 160.445C92.3089 159.966 91.9495 159.341 91.8297 158.57H92.9313C93.0354 159.076 93.2828 159.474 93.6734 159.766C94.0693 160.057 94.5432 160.203 95.0953 160.203C95.5953 160.203 95.9964 160.089 96.2984 159.859C96.6057 159.625 96.7594 159.323 96.7594 158.953C96.7594 158.63 96.6474 158.359 96.4234 158.141C96.2047 157.922 95.8531 157.745 95.3688 157.609L94.0719 157.258C92.6813 156.888 91.9859 156.167 91.9859 155.094C91.9859 154.411 92.2255 153.862 92.7047 153.445C93.1839 153.029 93.8036 152.82 94.5641 152.82C95.4078 152.82 96.1135 153.06 96.6813 153.539C97.2542 154.013 97.5953 154.628 97.7047 155.383H96.5797C96.4859 154.888 96.2516 154.495 95.8766 154.203C95.5068 153.911 95.0745 153.766 94.5797 153.766C94.1318 153.766 93.775 153.878 93.5094 154.102C93.2438 154.326 93.1109 154.62 93.1109 154.984C93.1109 155.573 93.5484 155.995 94.4234 156.25L95.6891 156.586C96.413 156.779 96.9599 157.068 97.3297 157.453C97.7047 157.833 97.8922 158.297 97.8922 158.844C97.8922 159.526 97.637 160.083 97.1266 160.516C96.6214 160.943 95.9547 161.156 95.1266 161.156ZM103.172 158.789C103.172 158.117 103.396 157.578 103.844 157.172C104.297 156.766 104.933 156.536 105.75 156.484L108.391 156.312V155.562C108.391 155.031 108.229 154.62 107.907 154.328C107.584 154.031 107.131 153.883 106.547 153.883C105.735 153.883 105.016 154.164 104.391 154.727L103.782 153.898C104.578 153.195 105.55 152.844 106.696 152.844C107.56 152.844 108.248 153.073 108.758 153.531C109.269 153.99 109.524 154.612 109.524 155.398V159.492C109.524 159.643 109.568 159.763 109.657 159.852C109.75 159.935 109.878 159.977 110.039 159.977H110.438V161H109.813C109.427 161 109.107 160.901 108.852 160.703C108.602 160.5 108.459 160.232 108.422 159.898C108.151 160.289 107.792 160.596 107.344 160.82C106.901 161.044 106.412 161.156 105.875 161.156C105.094 161.156 104.448 160.938 103.938 160.5C103.427 160.057 103.172 159.487 103.172 158.789ZM104.297 158.789C104.297 159.195 104.461 159.534 104.789 159.805C105.123 160.07 105.545 160.203 106.055 160.203C106.711 160.203 107.263 159.995 107.711 159.578C108.164 159.156 108.391 158.648 108.391 158.055V157.242L105.93 157.414C105.404 157.451 105 157.589 104.719 157.828C104.438 158.068 104.297 158.388 104.297 158.789ZM118.812 155.852V161H117.656V156.039C117.656 155.398 117.463 154.878 117.078 154.477C116.692 154.07 116.187 153.867 115.562 153.867C114.896 153.867 114.346 154.083 113.914 154.516C113.487 154.943 113.273 155.487 113.273 156.148V161H112.117V152.969H113.273V154.07C113.544 153.674 113.896 153.365 114.328 153.141C114.765 152.917 115.25 152.805 115.781 152.805C116.672 152.805 117.398 153.099 117.961 153.688C118.528 154.271 118.812 154.992 118.812 155.852ZM129.28 161H128.124V159.688C127.749 160.151 127.293 160.513 126.757 160.773C126.22 161.029 125.637 161.156 125.007 161.156C123.84 161.156 122.853 160.753 122.046 159.945C121.239 159.138 120.835 158.151 120.835 156.984C120.835 156.224 121.017 155.526 121.382 154.891C121.752 154.25 122.257 153.745 122.897 153.375C123.538 153.005 124.241 152.82 125.007 152.82C125.637 152.82 126.22 152.953 126.757 153.219C127.293 153.479 127.749 153.844 128.124 154.312V149.797H129.28V161ZM127.249 159.211C127.848 158.596 128.147 157.854 128.147 156.984C128.147 156.115 127.845 155.375 127.241 154.766C126.642 154.156 125.918 153.852 125.069 153.852C124.215 153.852 123.486 154.156 122.882 154.766C122.283 155.375 121.983 156.115 121.983 156.984C121.983 157.859 122.283 158.604 122.882 159.219C123.481 159.828 124.21 160.133 125.069 160.133C125.924 160.133 126.65 159.826 127.249 159.211ZM137.896 161L134.537 152.969H135.763L138.373 159.383L140.967 152.969H142.185L138.826 161H137.896ZM142.896 156.984C142.896 156.229 143.073 155.534 143.427 154.898C143.786 154.263 144.278 153.758 144.903 153.383C145.528 153.008 146.219 152.82 146.974 152.82C147.526 152.82 148.044 152.927 148.528 153.141C149.018 153.349 149.437 153.635 149.786 154C150.135 154.359 150.409 154.792 150.607 155.297C150.81 155.797 150.911 156.328 150.911 156.891V157.336H144.044C144.133 158.133 144.463 158.799 145.036 159.336C145.614 159.867 146.297 160.133 147.083 160.133C147.599 160.133 148.075 160.018 148.513 159.789C148.95 159.56 149.323 159.237 149.63 158.82L150.489 159.43C150.099 159.966 149.609 160.385 149.021 160.688C148.432 160.99 147.791 161.141 147.099 161.141C145.916 161.141 144.919 160.74 144.107 159.938C143.299 159.135 142.896 158.151 142.896 156.984ZM146.974 153.828C146.255 153.828 145.625 154.068 145.083 154.547C144.541 155.021 144.206 155.63 144.075 156.375H149.755C149.651 155.635 149.336 155.026 148.81 154.547C148.284 154.068 147.672 153.828 146.974 153.828ZM159.606 155.852V161H158.45V156.039C158.45 155.398 158.257 154.878 157.872 154.477C157.486 154.07 156.981 153.867 156.356 153.867C155.689 153.867 155.14 154.083 154.707 154.516C154.28 154.943 154.067 155.487 154.067 156.148V161H152.911V152.969H154.067V154.07C154.338 153.674 154.689 153.365 155.122 153.141C155.559 152.917 156.043 152.805 156.575 152.805C157.465 152.805 158.192 153.099 158.754 153.688C159.322 154.271 159.606 154.992 159.606 155.852ZM170.074 161H168.918V159.688C168.543 160.151 168.087 160.513 167.551 160.773C167.014 161.029 166.431 161.156 165.801 161.156C164.634 161.156 163.647 160.753 162.84 159.945C162.032 159.138 161.629 158.151 161.629 156.984C161.629 156.224 161.811 155.526 162.176 154.891C162.545 154.25 163.051 153.745 163.691 153.375C164.332 153.005 165.035 152.82 165.801 152.82C166.431 152.82 167.014 152.953 167.551 153.219C168.087 153.479 168.543 153.844 168.918 154.312V149.797H170.074V161ZM168.043 159.211C168.642 158.596 168.941 157.854 168.941 156.984C168.941 156.115 168.639 155.375 168.035 154.766C167.436 154.156 166.712 153.852 165.863 153.852C165.009 153.852 164.28 154.156 163.676 154.766C163.077 155.375 162.777 156.115 162.777 156.984C162.777 157.859 163.077 158.604 163.676 159.219C164.275 159.828 165.004 160.133 165.863 160.133C166.717 160.133 167.444 159.826 168.043 159.211ZM179.98 154.891C180.355 155.531 180.542 156.229 180.542 156.984C180.542 157.74 180.355 158.438 179.98 159.078C179.605 159.719 179.092 160.227 178.441 160.602C177.795 160.971 177.086 161.156 176.316 161.156C175.732 161.156 175.18 161.047 174.659 160.828C174.139 160.609 173.691 160.312 173.316 159.938C172.941 159.562 172.644 159.12 172.425 158.609C172.206 158.094 172.097 157.552 172.097 156.984C172.097 156.229 172.282 155.534 172.652 154.898C173.021 154.258 173.529 153.753 174.175 153.383C174.826 153.008 175.54 152.82 176.316 152.82C177.086 152.82 177.795 153.005 178.441 153.375C179.092 153.745 179.605 154.25 179.98 154.891ZM179.386 156.984C179.386 156.109 179.084 155.37 178.48 154.766C177.881 154.156 177.159 153.852 176.316 153.852C175.467 153.852 174.743 154.156 174.144 154.766C173.545 155.37 173.245 156.109 173.245 156.984C173.245 157.854 173.545 158.594 174.144 159.203C174.743 159.812 175.467 160.117 176.316 160.117C177.159 160.117 177.881 159.812 178.48 159.203C179.084 158.594 179.386 157.854 179.386 156.984ZM186.167 153.977H185.565C185.013 153.977 184.56 154.185 184.206 154.602C183.851 155.018 183.674 155.542 183.674 156.172V161H182.518V152.969H183.674V154.023C183.872 153.674 184.135 153.401 184.463 153.203C184.797 153.005 185.18 152.906 185.612 152.906H186.167V153.977ZM190.697 161.156C189.817 161.156 189.077 160.919 188.478 160.445C187.879 159.966 187.52 159.341 187.4 158.57H188.502C188.606 159.076 188.853 159.474 189.244 159.766C189.64 160.057 190.114 160.203 190.666 160.203C191.166 160.203 191.567 160.089 191.869 159.859C192.176 159.625 192.33 159.323 192.33 158.953C192.33 158.63 192.218 158.359 191.994 158.141C191.775 157.922 191.424 157.745 190.939 157.609L189.643 157.258C188.252 156.888 187.557 156.167 187.557 155.094C187.557 154.411 187.796 153.862 188.275 153.445C188.754 153.029 189.374 152.82 190.135 152.82C190.978 152.82 191.684 153.06 192.252 153.539C192.825 154.013 193.166 154.628 193.275 155.383H192.15C192.057 154.888 191.822 154.495 191.447 154.203C191.077 153.911 190.645 153.766 190.15 153.766C189.702 153.766 189.346 153.878 189.08 154.102C188.814 154.326 188.682 154.62 188.682 154.984C188.682 155.573 189.119 155.995 189.994 156.25L191.26 156.586C191.984 156.779 192.531 157.068 192.9 157.453C193.275 157.833 193.463 158.297 193.463 158.844C193.463 159.526 193.208 160.083 192.697 160.516C192.192 160.943 191.525 161.156 190.697 161.156ZM26.4844 185H25.3281V173.797H26.4844V185ZM36.3822 178.891C36.7572 179.531 36.9447 180.229 36.9447 180.984C36.9447 181.74 36.7572 182.438 36.3822 183.078C36.0072 183.719 35.4942 184.227 34.8431 184.602C34.1973 184.971 33.489 185.156 32.7181 185.156C32.1348 185.156 31.5827 185.047 31.0619 184.828C30.541 184.609 30.0931 184.312 29.7181 183.938C29.3431 183.562 29.0462 183.12 28.8275 182.609C28.6087 182.094 28.4994 181.552 28.4994 180.984C28.4994 180.229 28.6843 179.534 29.0541 178.898C29.4239 178.258 29.9317 177.753 30.5775 177.383C31.2285 177.008 31.9421 176.82 32.7181 176.82C33.489 176.82 34.1973 177.005 34.8431 177.375C35.4942 177.745 36.0072 178.25 36.3822 178.891ZM35.7884 180.984C35.7884 180.109 35.4864 179.37 34.8822 178.766C34.2832 178.156 33.5619 177.852 32.7181 177.852C31.8692 177.852 31.1452 178.156 30.5462 178.766C29.9473 179.37 29.6478 180.109 29.6478 180.984C29.6478 181.854 29.9473 182.594 30.5462 183.203C31.1452 183.812 31.8692 184.117 32.7181 184.117C33.5619 184.117 34.2832 183.812 34.8822 183.203C35.4864 182.594 35.7884 181.854 35.7884 180.984ZM46.5066 178.891C46.8816 179.531 47.0691 180.229 47.0691 180.984C47.0691 181.74 46.8816 182.438 46.5066 183.078C46.1316 183.719 45.6185 184.227 44.9675 184.602C44.3217 184.971 43.6133 185.156 42.8425 185.156C42.2592 185.156 41.7071 185.047 41.1862 184.828C40.6654 184.609 40.2175 184.312 39.8425 183.938C39.4675 183.562 39.1706 183.12 38.9519 182.609C38.7331 182.094 38.6237 181.552 38.6237 180.984C38.6237 180.229 38.8086 179.534 39.1784 178.898C39.5482 178.258 40.056 177.753 40.7019 177.383C41.3529 177.008 42.0665 176.82 42.8425 176.82C43.6133 176.82 44.3217 177.005 44.9675 177.375C45.6185 177.745 46.1316 178.25 46.5066 178.891ZM45.9128 180.984C45.9128 180.109 45.6107 179.37 45.0066 178.766C44.4076 178.156 43.6862 177.852 42.8425 177.852C41.9935 177.852 41.2696 178.156 40.6706 178.766C40.0717 179.37 39.7722 180.109 39.7722 180.984C39.7722 181.854 40.0717 182.594 40.6706 183.203C41.2696 183.812 41.9935 184.117 42.8425 184.117C43.6862 184.117 44.4076 183.812 45.0066 183.203C45.6107 182.594 45.9128 181.854 45.9128 180.984ZM49.045 173.797H50.2013V180.57L53.8966 176.969H55.3497L51.2559 180.859L55.5138 185H53.9903L50.2013 181.227V185H49.045V173.797ZM57.8412 175.328C57.6954 175.474 57.5183 175.547 57.31 175.547C57.1017 175.547 56.922 175.474 56.7709 175.328C56.6199 175.177 56.5444 174.997 56.5444 174.789C56.5444 174.576 56.6199 174.396 56.7709 174.25C56.922 174.099 57.1017 174.023 57.31 174.023C57.5183 174.023 57.6954 174.099 57.8412 174.25C57.9923 174.396 58.0678 174.576 58.0678 174.789C58.0678 174.997 57.9923 175.177 57.8412 175.328ZM57.8725 176.969V185H56.7162V176.969H57.8725ZM66.8797 179.852V185H65.7234V180.039C65.7234 179.398 65.5307 178.878 65.1453 178.477C64.7599 178.07 64.2547 177.867 63.6297 177.867C62.963 177.867 62.4135 178.083 61.9813 178.516C61.5542 178.943 61.3406 179.487 61.3406 180.148V185H60.1844V176.969H61.3406V178.07C61.6115 177.674 61.963 177.365 62.3953 177.141C62.8328 176.917 63.3172 176.805 63.8484 176.805C64.7391 176.805 65.4656 177.099 66.0281 177.688C66.5958 178.271 66.8797 178.992 66.8797 179.852ZM77.2541 176.969V185.195C77.2541 186.096 76.9963 186.802 76.4806 187.312C75.965 187.828 75.2567 188.086 74.3556 188.086H72.5822V187.062H74.1134C75.4364 187.062 76.0978 186.406 76.0978 185.094V183.625C75.7332 184.083 75.2853 184.44 74.7541 184.695C74.228 184.951 73.6525 185.078 73.0275 185.078C72.2671 185.078 71.5692 184.896 70.9338 184.531C70.2983 184.167 69.7983 183.667 69.4338 183.031C69.0692 182.396 68.8869 181.698 68.8869 180.938C68.8869 180.182 69.0692 179.487 69.4338 178.852C69.8035 178.216 70.3061 177.716 70.9416 177.352C71.577 176.987 72.2723 176.805 73.0275 176.805C73.6473 176.805 74.2254 176.938 74.7619 177.203C75.2983 177.464 75.7489 177.828 76.1134 178.297V176.969H77.2541ZM70.0353 180.938C70.0353 181.807 70.3296 182.544 70.9181 183.148C71.5067 183.753 72.2254 184.055 73.0744 184.055C73.9233 184.055 74.6447 183.753 75.2384 183.148C75.8322 182.539 76.1291 181.802 76.1291 180.938C76.1291 180.083 75.8296 179.352 75.2306 178.742C74.6317 178.133 73.9129 177.828 73.0744 177.828C72.2358 177.828 71.5197 178.133 70.9259 178.742C70.3322 179.352 70.0353 180.083 70.0353 180.938ZM86.0419 185C85.5054 185 85.0835 184.857 84.7762 184.57C84.469 184.279 84.3153 183.893 84.3153 183.414V177.992H82.8153V176.969H84.3153V174.555H85.4716V176.969H87.37V177.992H85.4716V183.242C85.4716 183.471 85.5419 183.651 85.6825 183.781C85.8283 183.911 86.0341 183.977 86.2997 183.977H87.37V185H86.0419ZM96.4241 178.891C96.7991 179.531 96.9866 180.229 96.9866 180.984C96.9866 181.74 96.7991 182.438 96.4241 183.078C96.0491 183.719 95.536 184.227 94.885 184.602C94.2392 184.971 93.5308 185.156 92.76 185.156C92.1767 185.156 91.6246 185.047 91.1037 184.828C90.5829 184.609 90.135 184.312 89.76 183.938C89.385 183.562 89.0881 183.12 88.8694 182.609C88.6506 182.094 88.5412 181.552 88.5412 180.984C88.5412 180.229 88.7261 179.534 89.0959 178.898C89.4657 178.258 89.9735 177.753 90.6194 177.383C91.2704 177.008 91.984 176.82 92.76 176.82C93.5308 176.82 94.2392 177.005 94.885 177.375C95.536 177.745 96.0491 178.25 96.4241 178.891ZM95.8303 180.984C95.8303 180.109 95.5282 179.37 94.9241 178.766C94.3251 178.156 93.6037 177.852 92.76 177.852C91.911 177.852 91.1871 178.156 90.5881 178.766C89.9892 179.37 89.6897 180.109 89.6897 180.984C89.6897 181.854 89.9892 182.594 90.5881 183.203C91.1871 183.812 91.911 184.117 92.76 184.117C93.6037 184.117 94.3251 183.812 94.9241 183.203C95.5282 182.594 95.8303 181.854 95.8303 180.984ZM110.392 178.891C110.767 179.531 110.954 180.229 110.954 180.984C110.954 181.74 110.767 182.438 110.392 183.078C110.017 183.719 109.504 184.227 108.853 184.602C108.207 184.971 107.498 185.156 106.728 185.156C106.144 185.156 105.592 185.047 105.071 184.828C104.55 184.609 104.103 184.312 103.728 183.938C103.353 183.562 103.056 183.12 102.837 182.609C102.618 182.094 102.509 181.552 102.509 180.984C102.509 180.229 102.694 179.534 103.063 178.898C103.433 178.258 103.941 177.753 104.587 177.383C105.238 177.008 105.951 176.82 106.728 176.82C107.498 176.82 108.207 177.005 108.853 177.375C109.504 177.745 110.017 178.25 110.392 178.891ZM109.798 180.984C109.798 180.109 109.496 179.37 108.892 178.766C108.293 178.156 107.571 177.852 106.728 177.852C105.879 177.852 105.155 178.156 104.556 178.766C103.957 179.37 103.657 180.109 103.657 180.984C103.657 181.854 103.957 182.594 104.556 183.203C105.155 183.812 105.879 184.117 106.728 184.117C107.571 184.117 108.293 183.812 108.892 183.203C109.496 182.594 109.798 181.854 109.798 180.984ZM112.032 177.992V176.969H113.547V175.336C113.547 174.815 113.693 174.401 113.985 174.094C114.282 173.781 114.69 173.625 115.211 173.625H116.414V174.648H115.407C115.183 174.648 115.008 174.719 114.883 174.859C114.763 174.995 114.703 175.185 114.703 175.43V176.969H116.414V177.992H114.703V185H113.547V177.992H112.032ZM117.531 177.992V176.969H119.047V175.336C119.047 174.815 119.192 174.401 119.484 174.094C119.781 173.781 120.19 173.625 120.711 173.625H121.914V174.648H120.906C120.682 174.648 120.507 174.719 120.382 174.859C120.263 174.995 120.203 175.185 120.203 175.43V176.969H121.914V177.992H120.203V185H119.047V177.992H117.531ZM122.929 180.984C122.929 180.229 123.106 179.534 123.46 178.898C123.819 178.263 124.312 177.758 124.937 177.383C125.562 177.008 126.252 176.82 127.007 176.82C127.559 176.82 128.077 176.927 128.562 177.141C129.051 177.349 129.47 177.635 129.819 178C130.168 178.359 130.442 178.792 130.64 179.297C130.843 179.797 130.944 180.328 130.944 180.891V181.336H124.077C124.166 182.133 124.496 182.799 125.069 183.336C125.647 183.867 126.33 184.133 127.116 184.133C127.632 184.133 128.108 184.018 128.546 183.789C128.983 183.56 129.356 183.237 129.663 182.82L130.522 183.43C130.132 183.966 129.642 184.385 129.054 184.688C128.465 184.99 127.825 185.141 127.132 185.141C125.95 185.141 124.952 184.74 124.14 183.938C123.332 183.135 122.929 182.151 122.929 180.984ZM127.007 177.828C126.288 177.828 125.658 178.068 125.116 178.547C124.575 179.021 124.239 179.63 124.108 180.375H129.788C129.684 179.635 129.369 179.026 128.843 178.547C128.317 178.068 127.705 177.828 127.007 177.828ZM136.592 177.977H135.991C135.439 177.977 134.985 178.185 134.631 178.602C134.277 179.018 134.1 179.542 134.1 180.172V185H132.944V176.969H134.1V178.023C134.298 177.674 134.561 177.401 134.889 177.203C135.222 177.005 135.605 176.906 136.037 176.906H136.592V177.977ZM144.786 185C144.25 185 143.828 184.857 143.521 184.57C143.213 184.279 143.06 183.893 143.06 183.414V177.992H141.56V176.969H143.06V174.555H144.216V176.969H146.114V177.992H144.216V183.242C144.216 183.471 144.286 183.651 144.427 183.781C144.573 183.911 144.778 183.977 145.044 183.977H146.114V185H144.786ZM148.973 180.148V185H147.817V173.797H148.973V178.086C149.239 177.685 149.593 177.372 150.036 177.148C150.484 176.919 150.973 176.805 151.504 176.805C152.385 176.805 153.106 177.099 153.668 177.688C154.231 178.271 154.512 178.992 154.512 179.852V185H153.356V180.039C153.356 179.398 153.163 178.878 152.778 178.477C152.392 178.07 151.887 177.867 151.262 177.867C150.596 177.867 150.046 178.083 149.614 178.516C149.187 178.943 148.973 179.487 148.973 180.148ZM156.535 180.984C156.535 180.229 156.712 179.534 157.066 178.898C157.426 178.263 157.918 177.758 158.543 177.383C159.168 177.008 159.858 176.82 160.613 176.82C161.165 176.82 161.683 176.927 162.168 177.141C162.657 177.349 163.077 177.635 163.426 178C163.775 178.359 164.048 178.792 164.246 179.297C164.449 179.797 164.551 180.328 164.551 180.891V181.336H157.683C157.772 182.133 158.103 182.799 158.676 183.336C159.254 183.867 159.936 184.133 160.723 184.133C161.238 184.133 161.715 184.018 162.152 183.789C162.59 183.56 162.962 183.237 163.269 182.82L164.129 183.43C163.738 183.966 163.249 184.385 162.66 184.688C162.071 184.99 161.431 185.141 160.738 185.141C159.556 185.141 158.558 184.74 157.746 183.938C156.939 183.135 156.535 182.151 156.535 180.984ZM160.613 177.828C159.894 177.828 159.264 178.068 158.723 178.547C158.181 179.021 157.845 179.63 157.715 180.375H163.394C163.29 179.635 162.975 179.026 162.449 178.547C161.923 178.068 161.311 177.828 160.613 177.828ZM167.675 175.328C167.529 175.474 167.352 175.547 167.144 175.547C166.935 175.547 166.756 175.474 166.605 175.328C166.454 175.177 166.378 174.997 166.378 174.789C166.378 174.576 166.454 174.396 166.605 174.25C166.756 174.099 166.935 174.023 167.144 174.023C167.352 174.023 167.529 174.099 167.675 174.25C167.826 174.396 167.902 174.576 167.902 174.789C167.902 174.997 167.826 175.177 167.675 175.328ZM167.706 176.969V185H166.55V176.969H167.706ZM173.667 177.977H173.065C172.513 177.977 172.06 178.185 171.706 178.602C171.351 179.018 171.174 179.542 171.174 180.172V185H170.018V176.969H171.174V178.023C171.372 177.674 171.635 177.401 171.963 177.203C172.297 177.005 172.68 176.906 173.112 176.906H173.667V177.977ZM182.04 185.156C181.16 185.156 180.421 184.919 179.822 184.445C179.223 183.966 178.863 183.341 178.743 182.57H179.845C179.949 183.076 180.197 183.474 180.587 183.766C180.983 184.057 181.457 184.203 182.009 184.203C182.509 184.203 182.91 184.089 183.212 183.859C183.519 183.625 183.673 183.323 183.673 182.953C183.673 182.63 183.561 182.359 183.337 182.141C183.118 181.922 182.767 181.745 182.283 181.609L180.986 181.258C179.595 180.888 178.9 180.167 178.9 179.094C178.9 178.411 179.139 177.862 179.618 177.445C180.098 177.029 180.717 176.82 181.478 176.82C182.322 176.82 183.027 177.06 183.595 177.539C184.168 178.013 184.509 178.628 184.618 179.383H183.493C183.4 178.888 183.165 178.495 182.79 178.203C182.421 177.911 181.988 177.766 181.493 177.766C181.046 177.766 180.689 177.878 180.423 178.102C180.158 178.326 180.025 178.62 180.025 178.984C180.025 179.573 180.462 179.995 181.337 180.25L182.603 180.586C183.327 180.779 183.874 181.068 184.243 181.453C184.618 181.833 184.806 182.297 184.806 182.844C184.806 183.526 184.551 184.083 184.04 184.516C183.535 184.943 182.868 185.156 182.04 185.156ZM186.36 180.984C186.36 180.229 186.537 179.534 186.891 178.898C187.251 178.263 187.743 177.758 188.368 177.383C188.993 177.008 189.683 176.82 190.438 176.82C190.99 176.82 191.508 176.927 191.993 177.141C192.482 177.349 192.902 177.635 193.251 178C193.6 178.359 193.873 178.792 194.071 179.297C194.274 179.797 194.376 180.328 194.376 180.891V181.336H187.508C187.597 182.133 187.928 182.799 188.501 183.336C189.079 183.867 189.761 184.133 190.548 184.133C191.063 184.133 191.54 184.018 191.977 183.789C192.415 183.56 192.787 183.237 193.094 182.82L193.954 183.43C193.563 183.966 193.074 184.385 192.485 184.688C191.896 184.99 191.256 185.141 190.563 185.141C189.381 185.141 188.383 184.74 187.571 183.938C186.764 183.135 186.36 182.151 186.36 180.984ZM190.438 177.828C189.719 177.828 189.089 178.068 188.548 178.547C188.006 179.021 187.67 179.63 187.54 180.375H193.219C193.115 179.635 192.8 179.026 192.274 178.547C191.748 178.068 191.136 177.828 190.438 177.828ZM200.023 177.977H199.422C198.87 177.977 198.417 178.185 198.062 178.602C197.708 179.018 197.531 179.542 197.531 180.172V185H196.375V176.969H197.531V178.023C197.729 177.674 197.992 177.401 198.32 177.203C198.654 177.005 199.036 176.906 199.469 176.906H200.023V177.977ZM204.359 185L200.999 176.969H202.226L204.835 183.383L207.429 176.969H208.648L205.288 185H204.359ZM211.155 175.328C211.009 175.474 210.832 175.547 210.624 175.547C210.415 175.547 210.236 175.474 210.085 175.328C209.934 175.177 209.858 174.997 209.858 174.789C209.858 174.576 209.934 174.396 210.085 174.25C210.236 174.099 210.415 174.023 210.624 174.023C210.832 174.023 211.009 174.099 211.155 174.25C211.306 174.396 211.382 174.576 211.382 174.789C211.382 174.997 211.306 175.177 211.155 175.328ZM211.186 176.969V185H210.03V176.969H211.186ZM215.248 178.766C214.649 179.37 214.35 180.109 214.35 180.984C214.35 181.859 214.649 182.604 215.248 183.219C215.847 183.828 216.571 184.133 217.42 184.133C217.925 184.133 218.397 184.016 218.834 183.781C219.272 183.547 219.639 183.227 219.936 182.82L220.795 183.43C220.399 183.971 219.912 184.396 219.334 184.703C218.761 185.005 218.123 185.156 217.42 185.156C216.639 185.156 215.925 184.971 215.279 184.602C214.634 184.227 214.126 183.721 213.756 183.086C213.386 182.445 213.201 181.745 213.201 180.984C213.201 180.224 213.386 179.526 213.756 178.891C214.126 178.255 214.634 177.753 215.279 177.383C215.925 177.008 216.639 176.82 217.42 176.82C218.118 176.82 218.756 176.974 219.334 177.281C219.912 177.583 220.399 178.003 220.795 178.539L219.936 179.156C219.644 178.75 219.277 178.432 218.834 178.203C218.397 177.969 217.925 177.852 217.42 177.852C216.571 177.852 215.847 178.156 215.248 178.766ZM221.951 180.984C221.951 180.229 222.128 179.534 222.482 178.898C222.841 178.263 223.333 177.758 223.958 177.383C224.583 177.008 225.274 176.82 226.029 176.82C226.581 176.82 227.099 176.927 227.583 177.141C228.073 177.349 228.492 177.635 228.841 178C229.19 178.359 229.464 178.792 229.662 179.297C229.865 179.797 229.966 180.328 229.966 180.891V181.336H223.099C223.188 182.133 223.518 182.799 224.091 183.336C224.669 183.867 225.352 184.133 226.138 184.133C226.654 184.133 227.13 184.018 227.568 183.789C228.005 183.56 228.378 183.237 228.685 182.82L229.544 183.43C229.154 183.966 228.664 184.385 228.076 184.688C227.487 184.99 226.846 185.141 226.154 185.141C224.971 185.141 223.974 184.74 223.162 183.938C222.354 183.135 221.951 182.151 221.951 180.984ZM226.029 177.828C225.31 177.828 224.68 178.068 224.138 178.547C223.596 179.021 223.261 179.63 223.13 180.375H228.81C228.706 179.635 228.391 179.026 227.865 178.547C227.339 178.068 226.727 177.828 226.029 177.828ZM234.77 185.156C233.89 185.156 233.151 184.919 232.552 184.445C231.953 183.966 231.593 183.341 231.473 182.57H232.575C232.679 183.076 232.927 183.474 233.317 183.766C233.713 184.057 234.187 184.203 234.739 184.203C235.239 184.203 235.64 184.089 235.942 183.859C236.249 183.625 236.403 183.323 236.403 182.953C236.403 182.63 236.291 182.359 236.067 182.141C235.848 181.922 235.497 181.745 235.012 181.609L233.716 181.258C232.325 180.888 231.63 180.167 231.63 179.094C231.63 178.411 231.869 177.862 232.348 177.445C232.828 177.029 233.447 176.82 234.208 176.82C235.052 176.82 235.757 177.06 236.325 177.539C236.898 178.013 237.239 178.628 237.348 179.383H236.223C236.13 178.888 235.895 178.495 235.52 178.203C235.151 177.911 234.718 177.766 234.223 177.766C233.776 177.766 233.419 177.878 233.153 178.102C232.887 178.326 232.755 178.62 232.755 178.984C232.755 179.573 233.192 179.995 234.067 180.25L235.333 180.586C236.057 180.779 236.604 181.068 236.973 181.453C237.348 181.833 237.536 182.297 237.536 182.844C237.536 183.526 237.281 184.083 236.77 184.516C236.265 184.943 235.598 185.156 234.77 185.156Z" fill="#52525B"/>
<g clip-path="url(#clip0_8350_51924)">
<path d="M44.6 80C60.0639 80 72.6 67.464 72.6 52C72.6 36.536 60.0639 24 44.6 24C29.136 24 16.6 36.536 16.6 52C16.6 67.464 29.136 80 44.6 80Z" fill="#FEF4F6"/>
<path d="M44.6003 71.8332C55.554 71.8332 64.4336 62.9535 64.4336 51.9998C64.4336 41.0462 55.554 32.1665 44.6003 32.1665C33.6467 32.1665 24.767 41.0462 24.767 51.9998C24.767 62.9535 33.6467 71.8332 44.6003 71.8332Z" fill="#FFE9F1"/>
<path fill-rule="evenodd" clip-rule="evenodd" d="M44.2382 42.7989C43.6241 42.88 42.8659 43.0542 41.7873 43.3031L40.5591 43.5865C39.6481 43.7968 39.0207 43.9425 38.5415 44.107C38.0789 44.2658 37.8171 44.4223 37.6197 44.6198C37.4222 44.8173 37.2656 45.079 37.1069 45.5416C36.9424 46.0208 36.7966 46.6482 36.5864 47.5592L36.303 48.7874C36.0541 49.866 35.8799 50.6243 35.7988 51.2383C35.7197 51.8365 35.7379 52.2413 35.8435 52.6092C35.949 52.9772 36.148 53.3301 36.5321 53.7954C36.9264 54.2731 37.4759 54.8238 38.2587 55.6066L40.0883 57.4362C41.4478 58.7957 42.4152 59.7608 43.2469 60.3954C44.0613 61.0167 44.6568 61.25 45.2622 61.25C45.8676 61.25 46.4631 61.0167 47.2775 60.3954C48.1092 59.7608 49.0766 58.7957 50.4361 57.4362C51.7956 56.0767 52.7607 55.1093 53.3952 54.2776C54.0166 53.4633 54.2499 52.8678 54.2499 52.2623C54.2499 51.6569 54.0166 51.0614 53.3952 50.247C52.7607 49.4153 51.7956 48.4479 50.4361 47.0885L48.6064 45.2588C47.8237 44.4761 47.273 43.9265 46.7953 43.5323C46.3299 43.1482 45.977 42.9491 45.6091 42.8436C45.2411 42.7381 44.8364 42.7198 44.2382 42.7989ZM44.0417 41.3118C44.759 41.217 45.388 41.2197 46.0226 41.4017C46.6573 41.5837 47.1921 41.9148 47.7501 42.3754C48.2896 42.8206 48.8904 43.4214 49.6409 44.172L51.5367 46.0677C52.8473 47.3783 53.885 48.416 54.5878 49.3371C55.3109 50.2849 55.7499 51.197 55.7499 52.2623C55.7499 53.3276 55.3109 54.2397 54.5878 55.1875C53.885 56.1087 52.8473 57.1463 51.5367 58.4569L51.4568 58.5368C50.1462 59.8474 49.1085 60.8851 48.1874 61.5879C47.2396 62.311 46.3275 62.75 45.2622 62.75C44.1969 62.75 43.2848 62.311 42.337 61.5879C41.4159 60.8851 40.3782 59.8474 39.0676 58.5368L37.1718 56.641C36.4213 55.8905 35.8205 55.2897 35.3753 54.7502C34.9147 54.1922 34.5836 53.6574 34.4016 53.0227C34.2196 52.3881 34.2169 51.7591 34.3117 51.0418C34.4033 50.3484 34.5944 49.5205 34.8331 48.4862L35.1337 47.1833C35.3329 46.3202 35.4953 45.6164 35.6881 45.0547C35.8894 44.4681 36.143 43.9751 36.559 43.5591C36.975 43.1431 37.4679 42.8895 38.0546 42.6882C38.6163 42.4954 39.3201 42.333 40.1832 42.1339L41.4861 41.8332C42.5204 41.5945 43.3482 41.4034 44.0417 41.3118ZM42.4908 47.9951C42.0027 47.507 41.2112 47.507 40.723 47.9951C40.2349 48.4833 40.2349 49.2748 40.723 49.7629C41.2112 50.2511 42.0027 50.2511 42.4908 49.7629C42.979 49.2748 42.979 48.4833 42.4908 47.9951ZM39.6624 46.9345C40.7363 45.8605 42.4775 45.8605 43.5515 46.9345C44.6254 48.0084 44.6254 49.7496 43.5515 50.8236C42.4775 51.8975 40.7363 51.8975 39.6624 50.8236C38.5884 49.7496 38.5884 48.0084 39.6624 46.9345ZM52.051 50.9902C52.3439 51.2831 52.3439 51.7579 52.051 52.0508L45.072 59.0301C44.7791 59.323 44.3042 59.323 44.0113 59.0301C43.7184 58.7372 43.7184 58.2623 44.0113 57.9694L50.9903 50.9902C51.2832 50.6973 51.7581 50.6973 52.051 50.9902Z" fill="#F83062"/>
</g>
<defs>
<clipPath id="clip0_8350_51924">
<rect width="56" height="56" fill="white" transform="translate(16.6 24)"/>
</clipPath>
</defs>
</svg>
