<svg width="57" height="56" viewBox="0 0 57 56" fill="none" xmlns="http://www.w3.org/2000/svg">
<g clip-path="url(#clip0_8350_51929)">
<path d="M28.6 56C44.0639 56 56.6 43.464 56.6 28C56.6 12.536 44.0639 0 28.6 0C13.136 0 0.599976 12.536 0.599976 28C0.599976 43.464 13.136 56 28.6 56Z" fill="#FEF4F6"/>
<path d="M28.6003 47.8332C39.554 47.8332 48.4336 38.9535 48.4336 27.9998C48.4336 17.0462 39.554 8.1665 28.6003 8.1665C17.6467 8.1665 8.76697 17.0462 8.76697 27.9998C8.76697 38.9535 17.6467 47.8332 28.6003 47.8332Z" fill="#FFE9F1"/>
<path fill-rule="evenodd" clip-rule="evenodd" d="M28.2382 18.7989C27.6241 18.88 26.8659 19.0542 25.7873 19.3031L24.5591 19.5865C23.6481 19.7968 23.0207 19.9425 22.5415 20.107C22.0789 20.2658 21.8171 20.4223 21.6197 20.6198C21.4222 20.8173 21.2656 21.079 21.1069 21.5416C20.9424 22.0208 20.7966 22.6482 20.5864 23.5592L20.303 24.7874C20.0541 25.866 19.8799 26.6243 19.7988 27.2383C19.7197 27.8365 19.7379 28.2413 19.8435 28.6092C19.949 28.9772 20.148 29.3301 20.5321 29.7954C20.9264 30.2731 21.4759 30.8238 22.2587 31.6066L24.0883 33.4362C25.4478 34.7957 26.4152 35.7608 27.2469 36.3954C28.0613 37.0167 28.6568 37.25 29.2622 37.25C29.8676 37.25 30.4631 37.0167 31.2775 36.3954C32.1092 35.7608 33.0766 34.7957 34.4361 33.4362C35.7956 32.0767 36.7607 31.1093 37.3952 30.2776C38.0166 29.4633 38.2499 28.8678 38.2499 28.2623C38.2499 27.6569 38.0166 27.0614 37.3952 26.247C36.7607 25.4153 35.7956 24.4479 34.4361 23.0885L32.6064 21.2588C31.8237 20.4761 31.273 19.9265 30.7953 19.5323C30.3299 19.1482 29.977 18.9491 29.6091 18.8436C29.2411 18.7381 28.8364 18.7198 28.2382 18.7989ZM28.0417 17.3118C28.759 17.217 29.388 17.2197 30.0226 17.4017C30.6573 17.5837 31.1921 17.9148 31.7501 18.3754C32.2896 18.8206 32.8904 19.4214 33.6409 20.172L35.5367 22.0677C36.8473 23.3783 37.885 24.416 38.5878 25.3371C39.3109 26.2849 39.7499 27.197 39.7499 28.2623C39.7499 29.3276 39.3109 30.2397 38.5878 31.1875C37.885 32.1087 36.8473 33.1463 35.5367 34.4569L35.4568 34.5368C34.1462 35.8474 33.1085 36.8851 32.1874 37.5879C31.2396 38.311 30.3275 38.75 29.2622 38.75C28.1969 38.75 27.2848 38.311 26.337 37.5879C25.4159 36.8851 24.3782 35.8474 23.0676 34.5368L21.1718 32.641C20.4213 31.8905 19.8205 31.2897 19.3753 30.7502C18.9147 30.1922 18.5836 29.6574 18.4016 29.0227C18.2196 28.3881 18.2169 27.7591 18.3117 27.0418C18.4033 26.3484 18.5944 25.5205 18.8331 24.4862L19.1337 23.1833C19.3329 22.3202 19.4953 21.6164 19.6881 21.0547C19.8894 20.4681 20.143 19.9751 20.559 19.5591C20.975 19.1431 21.4679 18.8895 22.0546 18.6882C22.6163 18.4954 23.3201 18.333 24.1832 18.1339L25.4861 17.8332C26.5204 17.5945 27.3482 17.4034 28.0417 17.3118ZM26.4908 23.9951C26.0027 23.507 25.2112 23.507 24.723 23.9951C24.2349 24.4833 24.2349 25.2748 24.723 25.7629C25.2112 26.2511 26.0027 26.2511 26.4908 25.7629C26.979 25.2748 26.979 24.4833 26.4908 23.9951ZM23.6624 22.9345C24.7363 21.8605 26.4775 21.8605 27.5515 22.9345C28.6254 24.0084 28.6254 25.7496 27.5515 26.8236C26.4775 27.8975 24.7363 27.8975 23.6624 26.8236C22.5884 25.7496 22.5884 24.0084 23.6624 22.9345ZM36.051 26.9902C36.3439 27.2831 36.3439 27.7579 36.051 28.0508L29.072 35.0301C28.7791 35.323 28.3042 35.323 28.0113 35.0301C27.7184 34.7372 27.7184 34.2623 28.0113 33.9694L34.9903 26.9902C35.2832 26.6973 35.7581 26.6973 36.051 26.9902Z" fill="#F83062"/>
</g>
<defs>
<clipPath id="clip0_8350_51929">
<rect width="56" height="56" fill="white" transform="translate(0.599976)"/>
</clipPath>
</defs>
</svg>
