<svg width="40" height="40" viewBox="0 0 40 40" fill="none" xmlns="http://www.w3.org/2000/svg">
<circle cx="20" cy="20" r="20" fill="#FEDFAA"/>
<path fill-rule="evenodd" clip-rule="evenodd" d="M15.9451 12.25H21.0549C22.4225 12.25 23.5248 12.25 24.3918 12.3665C25.2919 12.4875 26.0497 12.7464 26.6517 13.3484C27.2061 13.9028 27.4695 14.5895 27.6022 15.3978C28.4106 15.5305 29.0974 15.7939 29.6519 16.3484C30.2538 16.9503 30.5127 17.7082 30.6337 18.6083C30.7503 19.4753 30.7503 20.5776 30.7503 21.9452V22.0549C30.7503 23.4225 30.7503 24.5248 30.6337 25.3918C30.5127 26.2919 30.2538 27.0498 29.6519 27.6517C29.05 28.2536 28.2921 28.5125 27.392 28.6335C26.525 28.7501 25.4227 28.7501 24.0551 28.7501H18.9454C17.5778 28.7501 16.4755 28.7501 15.6085 28.6335C14.7084 28.5125 13.9505 28.2536 13.3486 27.6517C12.7942 27.0973 12.5307 26.4105 12.3981 25.6022C11.5896 25.4695 10.9028 25.2061 10.3484 24.6516C9.74643 24.0497 9.48754 23.2919 9.36652 22.3918C9.24996 21.5248 9.24998 20.4225 9.25 19.0549V18.9451C9.24998 17.5775 9.24996 16.4752 9.36652 15.6082C9.48754 14.7081 9.74643 13.9503 10.3484 13.3484C10.9503 12.7464 11.7081 12.4875 12.6082 12.3665C13.4752 12.25 14.5775 12.25 15.9451 12.25ZM13.9557 25.7316C14.0606 26.1345 14.21 26.3918 14.4093 26.591C14.686 26.8678 15.0746 27.0483 15.8084 27.1469C16.5637 27.2485 17.5648 27.2501 19.0003 27.2501H24.0003C25.4357 27.2501 26.4368 27.2485 27.1921 27.1469C27.9259 27.0483 28.3145 26.8678 28.5912 26.591C28.868 26.3143 29.0485 25.9257 29.1471 25.1919C29.2487 24.4366 29.2503 23.4355 29.2503 22.0001C29.2503 20.5646 29.2487 19.5635 29.1471 18.8082C29.0485 18.0744 28.868 17.6858 28.5912 17.4091C28.3919 17.2098 28.1346 17.0603 27.7316 16.9555C27.75 17.5443 27.75 18.206 27.75 18.9451V19.0549C27.75 20.4225 27.75 21.5248 27.6335 22.3918C27.5125 23.2919 27.2536 24.0497 26.6517 24.6516C26.0497 25.2536 25.2919 25.5125 24.3918 25.6335C23.5248 25.75 22.4225 25.75 21.0549 25.75H15.9451C15.2061 25.75 14.5445 25.75 13.9557 25.7316ZM12.8081 13.8531C12.0743 13.9518 11.6858 14.1322 11.409 14.409C11.1322 14.6858 10.9518 15.0743 10.8531 15.8081C10.7516 16.5635 10.75 17.5646 10.75 19C10.75 20.4354 10.7516 21.4365 10.8531 22.1919C10.9518 22.9257 11.1322 23.3142 11.409 23.591C11.6858 23.8678 12.0743 24.0482 12.8081 24.1469C13.5635 24.2484 14.5646 24.25 16 24.25H21C22.4354 24.25 23.4365 24.2484 24.1919 24.1469C24.9257 24.0482 25.3142 23.8678 25.591 23.591C25.8678 23.3142 26.0482 22.9257 26.1469 22.1919C26.2484 21.4365 26.25 20.4354 26.25 19C26.25 17.5646 26.2484 16.5635 26.1469 15.8081C26.0482 15.0743 25.8678 14.6858 25.591 14.409C25.3142 14.1322 24.9257 13.9518 24.1919 13.8531C23.4365 13.7516 22.4354 13.75 21 13.75H16C14.5646 13.75 13.5635 13.7516 12.8081 13.8531ZM18.5 17.25C17.5335 17.25 16.75 18.0335 16.75 19C16.75 19.9665 17.5335 20.75 18.5 20.75C19.4665 20.75 20.25 19.9665 20.25 19C20.25 18.0335 19.4665 17.25 18.5 17.25ZM15.25 19C15.25 17.2051 16.7051 15.75 18.5 15.75C20.2949 15.75 21.75 17.2051 21.75 19C21.75 20.7949 20.2949 22.25 18.5 22.25C16.7051 22.25 15.25 20.7949 15.25 19ZM13 16.25C13.4142 16.25 13.75 16.5858 13.75 17V21C13.75 21.4142 13.4142 21.75 13 21.75C12.5858 21.75 12.25 21.4142 12.25 21L12.25 17C12.25 16.5858 12.5858 16.25 13 16.25ZM24 16.25C24.4142 16.25 24.75 16.5858 24.75 17V21C24.75 21.4142 24.4142 21.75 24 21.75C23.5858 21.75 23.25 21.4142 23.25 21V17C23.25 16.5858 23.5858 16.25 24 16.25Z" fill="#F98611"/>
</svg>
