<svg width="40" height="40" viewBox="0 0 40 40" fill="none" xmlns="http://www.w3.org/2000/svg">
<circle cx="20" cy="20" r="20" fill="#FECAAA"/>
<path fill-rule="evenodd" clip-rule="evenodd" d="M14.1494 11.0491C14.1494 10.7788 16.9367 8.88892 19.7042 8.88892C22.4717 8.88892 25.259 10.7794 25.259 11.0491C25.259 12.0119 25.1565 12.5822 25.0701 12.8927C25.0127 13.0964 24.822 13.2093 24.6103 13.2093H14.7981C14.5864 13.2093 14.3957 13.0964 14.3383 12.8927C14.2519 12.5822 14.1494 12.0119 14.1494 11.0491ZM18.7784 10.7405C18.6147 10.7405 18.4577 10.8055 18.342 10.9213C18.2262 11.037 18.1612 11.194 18.1612 11.3577C18.1612 11.5214 18.2262 11.6784 18.342 11.7941C18.4577 11.9099 18.6147 11.9749 18.7784 11.9749H20.63C20.7937 11.9749 20.9507 11.9099 21.0664 11.7941C21.1822 11.6784 21.2472 11.5214 21.2472 11.3577C21.2472 11.194 21.1822 11.037 21.0664 10.9213C20.9507 10.8055 20.7937 10.7405 20.63 10.7405H18.7784ZM14.7901 17.047C12.7348 16.4113 13.2532 15.2757 14.0371 14.4437H25.5429C26.17 15.2448 26.5063 16.3255 24.6109 16.9724C24.6884 17.6599 24.6205 18.3561 24.4116 19.0157C24.2027 19.6754 23.8576 20.2838 23.3984 20.8014C22.9393 21.3191 22.3765 21.7345 21.7466 22.0207C21.1166 22.3068 20.4335 22.4574 19.7416 22.4626C19.0497 22.4679 18.3644 22.3276 17.7302 22.0509C17.096 21.7743 16.527 21.3674 16.0602 20.8568C15.5933 20.3461 15.239 19.743 15.0202 19.0866C14.8014 18.4302 14.723 17.7351 14.7901 17.0464V17.047ZM19.5363 17.5297C21.167 17.5297 22.431 17.4433 23.4 17.2927C23.4318 17.7959 23.3606 18.3003 23.1906 18.775C23.0206 19.2497 22.7555 19.6847 22.4115 20.0533C22.0674 20.4219 21.6518 20.7164 21.1899 20.9187C20.728 21.121 20.2297 21.2268 19.7255 21.2298C19.2213 21.2327 18.7218 21.1326 18.2577 20.9356C17.7935 20.7386 17.3744 20.449 17.0262 20.0843C16.6779 19.7197 16.4078 19.2878 16.2324 18.8151C16.0569 18.3424 15.9799 17.8388 16.006 17.3353C16.9089 17.4599 18.0662 17.5297 19.5363 17.5297ZM24.8992 26.5408C24.3409 25.6698 23.5725 24.9532 22.6646 24.4571C21.7568 23.961 20.7388 23.7012 19.7042 23.7017C18.6692 23.701 17.6507 23.9608 16.7425 24.4572C15.8343 24.9536 15.0657 25.6705 14.5074 26.542C14.3002 26.2229 13.982 25.992 13.6143 25.894L12.4219 25.5749C12.0267 25.4689 11.6055 25.5243 11.2511 25.7288C10.8967 25.9333 10.638 26.2702 10.532 26.6655L10.0531 28.4541C10.0006 28.6498 9.98724 28.854 10.0137 29.0549C10.0401 29.2558 10.1059 29.4495 10.2072 29.625C10.3086 29.8005 10.4435 29.9543 10.6043 30.0777C10.765 30.201 10.9485 30.2915 11.1443 30.344L12.3361 30.6637C12.5366 30.7177 12.7459 30.7305 12.9515 30.7015C13.157 30.6724 13.3546 30.602 13.5322 30.4945C13.5327 30.6582 13.5982 30.815 13.7143 30.9304C13.8304 31.0458 13.9876 31.1104 14.1513 31.1099C14.315 31.1094 14.4718 31.0439 14.5872 30.9278C14.7026 30.8117 14.7671 30.6545 14.7666 30.4908V29.8736C14.7666 29.6385 14.7833 29.407 14.8148 29.1805L18.0267 30.0415C18.1757 30.3606 18.4128 30.6306 18.7099 30.8198C19.007 31.0089 19.352 31.1094 19.7042 31.1094C20.0564 31.1094 20.4014 31.0089 20.6985 30.8198C20.9956 30.6306 21.2327 30.3606 21.3817 30.0415L24.5936 29.1805C24.6251 29.407 24.6418 29.6385 24.6418 29.8736V30.4908C24.641 30.6545 24.7052 30.8118 24.8204 30.9282C24.9355 31.0445 25.0922 31.1103 25.2559 31.1111C25.4196 31.1119 25.5769 31.0477 25.6932 30.9325C25.8096 30.8174 25.8754 30.6607 25.8762 30.497C26.2218 30.7044 26.6489 30.7766 27.0692 30.6637L28.2617 30.3446C28.4574 30.2921 28.6409 30.2017 28.8017 30.0783C28.9625 29.955 29.0974 29.8011 29.1987 29.6257C29.3 29.4502 29.3658 29.2564 29.3922 29.0555C29.4187 28.8546 29.4053 28.6504 29.3529 28.4547L28.8733 26.6661C28.7673 26.2709 28.5086 25.9339 28.1542 25.7294C27.7998 25.5249 27.3787 25.4695 26.9834 25.5755L25.791 25.8946C25.4242 25.9922 25.1065 26.2228 24.8992 26.5408ZM15.1388 27.9893C15.4722 27.183 16.0131 26.4793 16.7066 25.9498C17.4 25.4202 18.2213 25.0837 19.087 24.9743V27.5104C18.8104 27.6085 18.561 27.7708 18.3593 27.984C18.1576 28.1972 18.0093 28.4552 17.9267 28.7368L15.1388 27.99V27.9893ZM24.2696 27.9893C23.9362 27.183 23.3952 26.4794 22.7018 25.9498C22.0083 25.4203 21.187 25.0837 20.3214 24.9743V27.5104C20.8793 27.7079 21.3151 28.1646 21.4817 28.7368L24.2696 27.99V27.9893ZM19.7042 29.8736C19.8679 29.8736 20.0249 29.8086 20.1406 29.6929C20.2564 29.5771 20.3214 29.4201 20.3214 29.2565C20.3214 29.0928 20.2564 28.9358 20.1406 28.82C20.0249 28.7043 19.8679 28.6393 19.7042 28.6393C19.5405 28.6393 19.3835 28.7043 19.2678 28.82C19.152 28.9358 19.087 29.0928 19.087 29.2565C19.087 29.4201 19.152 29.5771 19.2678 29.6929C19.3835 29.8086 19.5405 29.8736 19.7042 29.8736Z" fill="#F98611"/>
</svg>
