<svg width="40" height="40" viewBox="0 0 40 40" fill="none" xmlns="http://www.w3.org/2000/svg">
<circle cx="20" cy="20" r="20" fill="#FEDFAA"/>
<path fill-rule="evenodd" clip-rule="evenodd" d="M17 9.25C14.3766 9.25 12.25 11.3766 12.25 14C12.25 16.6234 14.3766 18.75 17 18.75C19.6234 18.75 21.75 16.6234 21.75 14C21.75 11.3766 19.6234 9.25 17 9.25ZM13.75 14C13.75 12.2051 15.2051 10.75 17 10.75C18.7949 10.75 20.25 12.2051 20.25 14C20.25 15.7949 18.7949 17.25 17 17.25C15.2051 17.25 13.75 15.7949 13.75 14Z" fill="#F98611"/>
<path d="M23 10.25C22.5858 10.25 22.25 10.5858 22.25 11C22.25 11.4142 22.5858 11.75 23 11.75C24.2426 11.75 25.25 12.7574 25.25 14C25.25 15.2426 24.2426 16.25 23 16.25C22.5858 16.25 22.25 16.5858 22.25 17C22.25 17.4142 22.5858 17.75 23 17.75C25.0711 17.75 26.75 16.0711 26.75 14C26.75 11.9289 25.0711 10.25 23 10.25Z" fill="#F98611"/>
<path fill-rule="evenodd" clip-rule="evenodd" d="M11.6781 21.5204C13.0775 20.7208 14.9607 20.25 17 20.25C19.0393 20.25 20.9225 20.7208 22.3219 21.5204C23.7 22.3079 24.75 23.5101 24.75 25C24.75 26.4899 23.7 27.6921 22.3219 28.4796C20.9225 29.2792 19.0393 29.75 17 29.75C14.9607 29.75 13.0775 29.2792 11.6781 28.4796C10.3 27.6921 9.25 26.4899 9.25 25C9.25 23.5101 10.3 22.3079 11.6781 21.5204ZM12.4224 22.8228C11.267 23.483 10.75 24.2807 10.75 25C10.75 25.7193 11.267 26.517 12.4224 27.1772C13.5565 27.8253 15.1733 28.25 17 28.25C18.8267 28.25 20.4435 27.8253 21.5776 27.1772C22.733 26.517 23.25 25.7193 23.25 25C23.25 24.2807 22.733 23.483 21.5776 22.8228C20.4435 22.1747 18.8267 21.75 17 21.75C15.1733 21.75 13.5565 22.1747 12.4224 22.8228Z" fill="#F98611"/>
<path d="M26.1607 21.2674C25.7561 21.1787 25.3561 21.4347 25.2674 21.8393C25.1787 22.2439 25.4347 22.6439 25.8393 22.7326C26.6317 22.9064 27.2649 23.2048 27.6829 23.5468C28.1014 23.8892 28.25 24.2237 28.25 24.5C28.25 24.7507 28.1294 25.045 27.7969 25.3539C27.462 25.665 26.9475 25.9524 26.2838 26.1523C25.8871 26.2717 25.6624 26.69 25.7818 27.0867C25.9013 27.4833 26.3196 27.708 26.7162 27.5886C27.5388 27.3409 28.2743 26.9578 28.8178 26.4529C29.3637 25.9457 29.75 25.2786 29.75 24.5C29.75 23.6352 29.2758 22.912 28.6328 22.3859C27.9893 21.8593 27.1225 21.4783 26.1607 21.2674Z" fill="#F98611"/>
</svg>
