<svg width="56" height="56" viewBox="0 0 56 56" fill="none" xmlns="http://www.w3.org/2000/svg">
<g clip-path="url(#clip0_9875_48019)">
<path d="M28 56C43.464 56 56 43.464 56 28C56 12.536 43.464 0 28 0C12.536 0 0 12.536 0 28C0 43.464 12.536 56 28 56Z" fill="#211E8A" fill-opacity="0.05"/>
<path d="M28.0003 47.8332C38.954 47.8332 47.8337 38.9535 47.8337 27.9998C47.8337 17.0462 38.954 8.1665 28.0003 8.1665C17.0467 8.1665 8.16699 17.0462 8.16699 27.9998C8.16699 38.9535 17.0467 47.8332 28.0003 47.8332Z" fill="#211E8A" fill-opacity="0.08"/>
<path fill-rule="evenodd" clip-rule="evenodd" d="M18.9238 26.2064C18.8098 26.7866 18.75 27.3863 18.75 28C18.75 28.2264 18.7581 28.451 18.7741 28.6733C18.7952 28.6904 18.8173 28.7083 18.8404 28.7268C19.0606 28.9028 19.3709 29.1369 19.7319 29.3698C20.4894 29.8584 21.3318 30.25 22 30.25C22.4356 30.25 22.9638 30.0813 23.518 29.8023C23.8547 29.6327 24.1765 29.435 24.4607 29.2423C24.3242 28.8535 24.25 28.4354 24.25 28C24.25 25.9289 25.9289 24.25 28 24.25C30.0711 24.25 31.75 25.9289 31.75 28C31.75 28.7595 31.5242 29.4662 31.1361 30.0568C31.1836 30.0826 31.2334 30.1095 31.2856 30.1377C31.3054 30.1484 31.3255 30.1592 31.3459 30.1703C31.6383 30.3283 32.013 30.5325 32.3261 30.7866C32.9868 30.6782 33.6623 30.7793 34.216 31.1298C34.4093 30.7699 34.6888 30.4463 35.0327 30.1919C35.6351 29.7465 36.3998 29.5477 37.0993 29.6723C37.1983 29.1303 37.25 28.5715 37.25 28C37.25 27.5465 37.2174 27.1007 37.1543 26.6647L35.4953 28.1257C35.1845 28.3995 34.7106 28.3694 34.4368 28.0586C34.163 27.7477 34.1931 27.2738 34.504 27L36.182 25.5222C36.3764 25.351 36.6345 25.2986 36.8676 25.3594C36.6364 24.5819 36.3058 23.8473 35.8905 23.1702L35.5303 23.5303C35.2374 23.8232 34.7626 23.8232 34.4697 23.5303C34.1768 23.2374 34.1768 22.7626 34.4697 22.4697L34.9936 21.9457C33.2976 19.9882 30.7934 18.75 28 18.75C26.2299 18.75 24.576 19.2472 23.1702 20.1095L23.5303 20.4697C23.8232 20.7626 23.8232 21.2374 23.5303 21.5303C23.2374 21.8232 22.7626 21.8232 22.4697 21.5303L21.9457 21.0064C20.9404 21.8774 20.1248 22.9616 19.5692 24.1886C19.9799 24.1693 20.3302 24.4847 20.3531 24.8961L20.4318 26.3081C20.4548 26.7217 20.1382 27.0756 19.7246 27.0987C19.3111 27.1217 18.9571 26.8051 18.9341 26.3916L18.9238 26.2064ZM30.7095 31.5316C30.6844 31.5179 30.6587 31.5039 30.6326 31.4898C30.5981 31.4712 30.5623 31.4519 30.5252 31.4321C30.3717 31.3497 30.1982 31.2567 30.0279 31.1549C29.4433 31.5315 28.7472 31.75 28 31.75C26.9043 31.75 25.9184 31.2801 25.2327 30.5308C24.9222 30.7382 24.5688 30.9526 24.1926 31.142C23.5513 31.4649 22.7764 31.75 22 31.75C20.9874 31.75 19.9535 31.2623 19.1792 30.7932C20.3122 34.3744 23.5659 37.013 27.4663 37.2349C27.4162 36.421 27.77 35.563 28.498 35.0246C28.8438 34.7689 29.2344 34.5971 29.6339 34.5182C29.3438 33.4575 29.8257 32.275 30.7095 31.5316ZM17.25 28C17.25 22.0629 22.0629 17.25 28 17.25C33.9371 17.25 38.75 22.0629 38.75 28C38.75 29.0111 38.6102 29.9907 38.3484 30.9201C38.2792 31.1662 38.0893 31.36 37.8447 31.4343C37.6002 31.5087 37.3346 31.4534 37.14 31.2876C36.9259 31.105 36.4213 31.0306 35.9246 31.398C35.5124 31.7028 35.3792 32.1229 35.4251 32.3974C35.4651 32.6365 35.3871 32.8801 35.2157 33.0515L35.1143 33.153C34.9599 33.3073 34.746 33.3868 34.5283 33.3706C34.3106 33.3544 34.1107 33.2441 33.9809 33.0686L33.6465 32.6163C33.351 32.2168 32.5445 32.0321 31.7654 32.6083C30.9862 33.1845 30.9266 34.0097 31.2221 34.4092L31.4074 34.6598C31.6282 34.9583 31.5973 35.3735 31.3347 35.6361L31.1494 35.8213C30.9517 36.019 30.6605 36.0904 30.3938 36.0064C30.1352 35.9249 29.747 35.9665 29.3899 36.2306C28.9028 36.5909 28.8699 37.2389 29.103 37.554C29.2677 37.7768 29.2963 38.0721 29.1772 38.3222C29.0582 38.5724 28.811 38.7365 28.5343 38.7492C28.4074 38.755 28.2412 38.7528 28.1175 38.7512C28.0709 38.7505 28.0302 38.75 28 38.75C22.0629 38.75 17.25 33.9371 17.25 28ZM26.4697 19.4697C26.7626 19.1768 27.2374 19.1768 27.5303 19.4697L28.5303 20.4697C28.8232 20.7626 28.8232 21.2374 28.5303 21.5303C28.2374 21.8232 27.7626 21.8232 27.4697 21.5303L26.4697 20.5303C26.1768 20.2374 26.1768 19.7626 26.4697 19.4697ZM32.45 20.4C32.7814 20.6485 32.8485 21.1186 32.6 21.45L31.1 23.45C30.8515 23.7814 30.3814 23.8485 30.05 23.6C29.7186 23.3515 29.6515 22.8814 29.9 22.55L31.4 20.55C31.6485 20.2186 32.1186 20.1515 32.45 20.4ZM27.2244 22.8059C27.3317 23.206 27.0942 23.6172 26.6941 23.7244L25.3281 24.0905C24.928 24.1977 24.5167 23.9602 24.4095 23.5601C24.3023 23.16 24.5398 22.7488 24.9399 22.6416L26.3059 22.2756C26.706 22.1683 27.1172 22.4058 27.2244 22.8059ZM21.8969 23.1736C22.2739 23.0022 22.7186 23.169 22.89 23.546L23.4752 24.8335C23.6466 25.2106 23.4799 25.6552 23.1028 25.8266C22.7257 25.998 22.2811 25.8313 22.1097 25.4542L21.5244 24.1668C21.353 23.7897 21.5198 23.345 21.8969 23.1736ZM32.6145 24.2274C33.0283 24.208 33.3795 24.5276 33.3989 24.9414L33.4653 26.354C33.4847 26.7678 33.1651 27.119 32.7513 27.1384C32.3376 27.1579 31.9864 26.8382 31.967 26.4245L31.9006 25.0118C31.8811 24.5981 32.2008 24.2469 32.6145 24.2274ZM28 25.75C26.7574 25.75 25.75 26.7574 25.75 28C25.75 29.2426 26.7574 30.25 28 30.25C29.2426 30.25 30.25 29.2426 30.25 28C30.25 26.7574 29.2426 25.75 28 25.75ZM22.9429 26.8948C23.2772 27.1394 23.3499 27.6087 23.1052 27.9429L22.27 29.0842C22.0254 29.4184 21.5561 29.4911 21.2218 29.2464C20.8876 29.0018 20.8149 28.5325 21.0595 28.1983L21.8948 27.0571C22.1394 26.7228 22.6087 26.6501 22.9429 26.8948Z" fill="#47449D"/>
</g>
<defs>
<clipPath id="clip0_9875_48019">
<rect width="56" height="56" fill="white"/>
</clipPath>
</defs>
</svg>
