<svg width="56" height="56" viewBox="0 0 56 56" fill="none" xmlns="http://www.w3.org/2000/svg">
<g clip-path="url(#clip0_9875_47904)">
<path d="M28 56C43.464 56 56 43.464 56 28C56 12.536 43.464 0 28 0C12.536 0 0 12.536 0 28C0 43.464 12.536 56 28 56Z" fill="#211E8A" fill-opacity="0.05"/>
<path d="M28.0003 47.8332C38.954 47.8332 47.8337 38.9535 47.8337 27.9998C47.8337 17.0462 38.954 8.1665 28.0003 8.1665C17.0467 8.1665 8.16699 17.0462 8.16699 27.9998C8.16699 38.9535 17.0467 47.8332 28.0003 47.8332Z" fill="#211E8A" fill-opacity="0.08"/>
<path fill-rule="evenodd" clip-rule="evenodd" d="M34.1437 19.6308C32.9737 19.839 31.3964 20.3626 29.1827 21.1005L24.1714 22.7709C22.3914 23.3643 21.1021 23.7947 20.1915 24.182C19.2394 24.5869 18.9007 24.8692 18.7907 25.0584C18.4519 25.6412 18.4519 26.361 18.7907 26.9437C18.9007 27.1329 19.2394 27.4152 20.1915 27.8201C21.1021 28.2075 22.3914 28.6379 24.1714 29.2312C24.1995 29.2406 24.2273 29.2498 24.2547 29.2589C24.6343 29.3852 24.9479 29.4895 25.222 29.6328L30.5454 24.3681C30.8471 24.0697 31.3335 24.0724 31.6319 24.3741C31.9303 24.6758 31.9276 25.1623 31.6259 25.4607L26.3259 30.7022C26.4912 30.994 26.603 31.3302 26.7411 31.7453C26.7502 31.7727 26.7594 31.8005 26.7688 31.8286C27.3621 33.6086 27.7925 34.8979 28.1799 35.8085C28.5848 36.7606 28.867 37.0993 29.0563 37.2093C29.639 37.5481 30.3588 37.5481 30.9416 37.2093C31.1308 37.0993 31.4131 36.7606 31.818 35.8085C32.2053 34.8979 32.6357 33.6086 33.2291 31.8286L34.8995 26.8173C35.6374 24.6036 36.161 23.0263 36.3692 21.8563C36.5783 20.6807 36.4185 20.1814 36.1185 19.8815C35.8186 19.5815 35.3193 19.4217 34.1437 19.6308ZM33.8746 18.118C35.1768 17.8863 36.3496 17.9394 37.2051 18.7949C38.0606 19.6504 38.1137 20.8232 37.882 22.1254C37.6518 23.4197 37.0903 25.1041 36.3794 27.2367L34.6745 32.3515C34.096 34.0869 33.6465 35.4354 33.232 36.41C32.8322 37.35 32.3882 38.1457 31.7139 38.5377C30.6537 39.1541 29.3442 39.1541 28.284 38.5377C27.6096 38.1457 27.1657 37.35 26.7658 36.41C26.3513 35.4354 25.9018 34.0869 25.3234 32.3515L25.311 32.3145C25.1084 31.7065 25.0466 31.5416 24.9591 31.4109C24.8611 31.2646 24.7354 31.1389 24.5891 31.0409C24.4584 30.9534 24.2935 30.8916 23.6855 30.689L23.6485 30.6766C21.9131 30.0982 20.5646 29.6487 19.59 29.2342C18.65 28.8343 17.8543 28.3904 17.4623 27.716C16.8459 26.6558 16.8459 25.3463 17.4623 24.2861C17.8543 23.6118 18.65 23.1678 19.59 22.768C20.5646 22.3535 21.9131 21.904 23.6485 21.3255L28.7633 19.6206C30.8959 18.9097 32.5803 18.3482 33.8746 18.118Z" fill="#211E8A"/>
</g>
<defs>
<clipPath id="clip0_9875_47904">
<rect width="56" height="56" fill="white"/>
</clipPath>
</defs>
</svg>
