<svg width="56" height="56" viewBox="0 0 56 56" fill="none" xmlns="http://www.w3.org/2000/svg">
<g clip-path="url(#clip0_9875_47915)">
<path d="M28 56C43.464 56 56 43.464 56 28C56 12.536 43.464 0 28 0C12.536 0 0 12.536 0 28C0 43.464 12.536 56 28 56Z" fill="#211E8A" fill-opacity="0.05"/>
<path d="M28.0003 47.8332C38.954 47.8332 47.8337 38.9535 47.8337 27.9998C47.8337 17.0462 38.954 8.1665 28.0003 8.1665C17.0467 8.1665 8.16699 17.0462 8.16699 27.9998C8.16699 38.9535 17.0467 47.8332 28.0003 47.8332Z" fill="#211E8A" fill-opacity="0.08"/>
<path d="M35 28C35 28.5523 34.5523 29 34 29C33.4477 29 33 28.5523 33 28C33 27.4477 33.4477 27 34 27C34.5523 27 35 27.4477 35 28Z" fill="#211E8A"/>
<path fill-rule="evenodd" clip-rule="evenodd" d="M25.9436 19.25H29.0564C30.8942 19.25 32.3498 19.25 33.489 19.4031C34.6614 19.5608 35.6104 19.8929 36.3588 20.6412C37.2831 21.5656 37.5777 22.8036 37.6847 24.4101C38.2619 24.6641 38.6978 25.2013 38.7458 25.8818C38.7501 25.942 38.75 26.0069 38.75 26.067C38.75 26.0725 38.75 26.0779 38.75 26.0833V29.9167C38.75 29.9221 38.75 29.9275 38.75 29.933C38.75 29.9931 38.7501 30.058 38.7458 30.1182C38.6978 30.7987 38.2619 31.3359 37.6847 31.5899C37.5777 33.1964 37.2831 34.4344 36.3588 35.3588C35.6104 36.1071 34.6614 36.4392 33.489 36.5969C32.3498 36.75 30.8942 36.75 29.0564 36.75H25.9436C24.1058 36.75 22.6502 36.75 21.511 36.5969C20.3386 36.4392 19.3896 36.1071 18.6412 35.3588C17.8929 34.6104 17.5608 33.6614 17.4031 32.489C17.25 31.3498 17.25 29.8942 17.25 28.0564V27.9436C17.25 26.1058 17.25 24.6502 17.4031 23.511C17.5608 22.3386 17.8929 21.3896 18.6412 20.6412C19.3896 19.8929 20.3386 19.5608 21.511 19.4031C22.6502 19.25 24.1058 19.25 25.9436 19.25ZM36.1679 31.75H34.2308C32.0856 31.75 30.25 30.1224 30.25 28C30.25 25.8776 32.0856 24.25 34.2308 24.25H36.1679C36.0541 22.9085 35.7966 22.2004 35.2981 21.7019C34.8749 21.2787 34.2952 21.025 33.2892 20.8898C32.2615 20.7516 30.9068 20.75 29 20.75H26C24.0932 20.75 22.7385 20.7516 21.7108 20.8898C20.7048 21.025 20.1251 21.2787 19.7019 21.7019C19.2787 22.1251 19.025 22.7048 18.8898 23.7108C18.7516 24.7385 18.75 26.0932 18.75 28C18.75 29.9068 18.7516 31.2615 18.8898 32.2892C19.025 33.2952 19.2787 33.8749 19.7019 34.2981C20.1251 34.7213 20.7048 34.975 21.7108 35.1102C22.7385 35.2484 24.0932 35.25 26 35.25H29C30.9068 35.25 32.2615 35.2484 33.2892 35.1102C34.2952 34.975 34.8749 34.7213 35.2981 34.2981C35.7966 33.7996 36.0541 33.0915 36.1679 31.75ZM21.25 24C21.25 23.5858 21.5858 23.25 22 23.25H26C26.4142 23.25 26.75 23.5858 26.75 24C26.75 24.4142 26.4142 24.75 26 24.75H22C21.5858 24.75 21.25 24.4142 21.25 24ZM36.9235 25.7502C36.9032 25.75 36.8766 25.75 36.8333 25.75H34.2308C32.8074 25.75 31.75 26.8087 31.75 28C31.75 29.1913 32.8074 30.25 34.2308 30.25H36.8333C36.8766 30.25 36.9032 30.25 36.9235 30.2498C36.936 30.2496 36.9426 30.2495 36.9457 30.2493L36.9479 30.2492C37.1541 30.2367 37.2427 30.0976 37.2495 30.0139C37.2495 30.0139 37.2497 30.0076 37.2498 29.9986C37.25 29.9808 37.25 29.9572 37.25 29.9167V26.0833C37.25 26.0428 37.25 26.0192 37.2498 26.0014C37.2497 25.9924 37.2495 25.9861 37.2495 25.9861C37.2427 25.9024 37.1541 25.7633 36.9479 25.7508C36.9479 25.7508 36.943 25.7504 36.9235 25.7502Z" fill="#211E8A"/>
</g>
<defs>
<clipPath id="clip0_9875_47915">
<rect width="56" height="56" fill="white"/>
</clipPath>
</defs>
</svg>
