<svg width="56" height="56" viewBox="0 0 56 56" fill="none" xmlns="http://www.w3.org/2000/svg">
<g clip-path="url(#clip0_8849_46654)">
<path d="M28 56C43.464 56 56 43.464 56 28C56 12.536 43.464 0 28 0C12.536 0 0 12.536 0 28C0 43.464 12.536 56 28 56Z" fill="#FEF4F6"/>
<path d="M28.0003 47.8332C38.954 47.8332 47.8337 38.9535 47.8337 27.9998C47.8337 17.0462 38.954 8.1665 28.0003 8.1665C17.0467 8.1665 8.16699 17.0462 8.16699 27.9998C8.16699 38.9535 17.0467 47.8332 28.0003 47.8332Z" fill="#FFE9F1"/>
<path fill-rule="evenodd" clip-rule="evenodd" d="M28.4004 19.25C28.8146 19.25 29.1504 19.5858 29.1504 20L29.1504 36C29.1504 36.4142 28.8146 36.75 28.4004 36.75C27.9862 36.75 27.6504 36.4142 27.6504 36L27.6504 20C27.6504 19.5858 27.9862 19.25 28.4004 19.25ZM24.4004 22.25C24.8146 22.25 25.1504 22.5858 25.1504 23V33C25.1504 33.4142 24.8146 33.75 24.4004 33.75C23.9862 33.75 23.6504 33.4142 23.6504 33V23C23.6504 22.5858 23.9862 22.25 24.4004 22.25ZM32.4004 22.25C32.8146 22.25 33.1504 22.5858 33.1504 23V33C33.1504 33.4142 32.8146 33.75 32.4004 33.75C31.9862 33.75 31.6504 33.4142 31.6504 33V23C31.6504 22.5858 31.9862 22.25 32.4004 22.25ZM20.4004 26.25C20.8146 26.25 21.1504 26.5858 21.1504 27L21.1504 29C21.1504 29.4142 20.8146 29.75 20.4004 29.75C19.9862 29.75 19.6504 29.4142 19.6504 29L19.6504 27C19.6504 26.5858 19.9862 26.25 20.4004 26.25ZM36.4004 26.25C36.8146 26.25 37.1504 26.5858 37.1504 27V29C37.1504 29.4142 36.8146 29.75 36.4004 29.75C35.9862 29.75 35.6504 29.4142 35.6504 29V27C35.6504 26.5858 35.9862 26.25 36.4004 26.25Z" fill="#F83062"/>
</g>
<defs>
<clipPath id="clip0_8849_46654">
<rect width="56" height="56" fill="white"/>
</clipPath>
</defs>
</svg>
