<svg width="56" height="56" viewBox="0 0 56 56" fill="none" xmlns="http://www.w3.org/2000/svg">
<g clip-path="url(#clip0_8849_46620)">
<path d="M28 56C43.464 56 56 43.464 56 28C56 12.536 43.464 0 28 0C12.536 0 0 12.536 0 28C0 43.464 12.536 56 28 56Z" fill="#FEF4F6"/>
<path d="M28.0003 47.8332C38.954 47.8332 47.8337 38.9535 47.8337 27.9998C47.8337 17.0462 38.954 8.1665 28.0003 8.1665C17.0467 8.1665 8.16699 17.0462 8.16699 27.9998C8.16699 38.9535 17.0467 47.8332 28.0003 47.8332Z" fill="#FFE9F1"/>
<path fill-rule="evenodd" clip-rule="evenodd" d="M23.7195 20.8392C23.7195 20.623 25.9493 19.1111 28.1634 19.1111C30.3774 19.1111 32.6072 20.6235 32.6072 20.8392C32.6072 21.6095 32.5252 22.0657 32.4561 22.3141C32.4102 22.477 32.2576 22.5674 32.0882 22.5674H24.2385C24.0691 22.5674 23.9165 22.477 23.8706 22.3141C23.8015 22.0657 23.7195 21.6095 23.7195 20.8392ZM27.4227 20.5924C27.2918 20.5924 27.1662 20.6444 27.0736 20.737C26.981 20.8296 26.929 20.9552 26.929 21.0861C26.929 21.2171 26.981 21.3427 27.0736 21.4353C27.1662 21.5279 27.2918 21.5799 27.4227 21.5799H28.904C29.035 21.5799 29.1605 21.5279 29.2531 21.4353C29.3457 21.3427 29.3978 21.2171 29.3978 21.0861C29.3978 20.9552 29.3457 20.8296 29.2531 20.737C29.1605 20.6444 29.035 20.5924 28.904 20.5924H27.4227ZM24.2321 25.6376C22.5878 25.129 23.0026 24.2205 23.6297 23.5549H32.8343C33.336 24.1958 33.6051 25.0604 32.0887 25.5778C32.1507 26.1279 32.0964 26.6848 31.9293 27.2126C31.7622 27.7403 31.486 28.227 31.1188 28.6411C30.7515 29.0552 30.3012 29.3875 29.7973 29.6165C29.2933 29.8454 28.7468 29.9659 28.1933 29.9701C27.6398 29.9742 27.0916 29.862 26.5842 29.6407C26.0768 29.4194 25.6216 29.0939 25.2481 28.6854C24.8746 28.2768 24.5912 27.7943 24.4161 27.2692C24.2411 26.7441 24.1784 26.188 24.2321 25.6371V25.6376ZM28.0291 26.0237C29.3336 26.0237 30.3448 25.9546 31.12 25.8341C31.1455 26.2367 31.0885 26.6402 30.9525 27.02C30.8165 27.3997 30.6044 27.7477 30.3292 28.0426C30.054 28.3375 29.7214 28.5731 29.3519 28.7349C28.9824 28.8968 28.5838 28.9814 28.1804 28.9838C27.777 28.9861 27.3775 28.906 27.0061 28.7484C26.6348 28.5909 26.2996 28.3591 26.021 28.0674C25.7424 27.7757 25.5263 27.4302 25.3859 27.052C25.2456 26.6739 25.1839 26.271 25.2048 25.8682C25.9271 25.9679 26.8529 26.0237 28.0291 26.0237ZM32.3193 33.2326C31.8727 32.5358 31.258 31.9625 30.5317 31.5656C29.8054 31.1687 28.991 30.9609 28.1634 30.9613C27.3354 30.9608 26.5206 31.1686 25.794 31.5657C25.0675 31.9628 24.4526 32.5364 24.0059 33.2336C23.8402 32.9783 23.5856 32.7935 23.2914 32.7151L22.3375 32.4598C22.0213 32.3751 21.6844 32.4194 21.4009 32.583C21.1174 32.7466 20.9104 33.0161 20.8256 33.3323L20.4425 34.7632C20.4005 34.9198 20.3898 35.0831 20.411 35.2439C20.4321 35.4046 20.4847 35.5596 20.5658 35.7C20.6469 35.8404 20.7548 35.9634 20.8834 36.0621C21.012 36.1608 21.1588 36.2332 21.3154 36.2751L22.2689 36.5309C22.4292 36.5741 22.5967 36.5844 22.7612 36.5611C22.9256 36.5379 23.0837 36.4816 23.2258 36.3956C23.2262 36.5265 23.2786 36.652 23.3714 36.7443C23.4643 36.8366 23.5901 36.8883 23.721 36.8879C23.852 36.8875 23.9774 36.8351 24.0697 36.7422C24.162 36.6493 24.2137 36.5236 24.2133 36.3926V35.8989C24.2133 35.7107 24.2266 35.5256 24.2518 35.3444L26.8213 36.0332C26.9406 36.2885 27.1302 36.5044 27.3679 36.6558C27.6056 36.8071 27.8816 36.8875 28.1634 36.8875C28.4451 36.8875 28.7211 36.8071 28.9588 36.6558C29.1965 36.5044 29.3861 36.2885 29.5054 36.0332L32.0749 35.3444C32.1001 35.5256 32.1134 35.7107 32.1134 35.8989V36.3926C32.1128 36.5236 32.1642 36.6494 32.2563 36.7425C32.3484 36.8356 32.4738 36.8882 32.6047 36.8889C32.7357 36.8895 32.8615 36.8381 32.9546 36.746C33.0476 36.6538 33.1003 36.5285 33.1009 36.3976C33.3774 36.5635 33.7191 36.6212 34.0554 36.5309L35.0093 36.2756C35.1659 36.2337 35.3127 36.1613 35.4413 36.0626C35.57 35.9639 35.6779 35.8409 35.759 35.7005C35.84 35.5601 35.8926 35.4051 35.9138 35.2444C35.935 35.0836 35.9242 34.9203 35.8823 34.7637L35.4986 33.3328C35.4138 33.0166 35.2069 32.7471 34.9234 32.5835C34.6398 32.4199 34.3029 32.3756 33.9867 32.4603L33.0328 32.7156C32.7394 32.7937 32.4852 32.9782 32.3193 33.2326ZM24.511 34.3914C24.7778 33.7464 25.2105 33.1834 25.7653 32.7598C26.32 32.3361 26.9771 32.0669 27.6696 31.9794V34.0083C27.4483 34.0868 27.2488 34.2166 27.0875 34.3872C26.9261 34.5577 26.8075 34.7641 26.7413 34.9894L24.511 34.3919V34.3914ZM31.8157 34.3914C31.5489 33.7464 31.1162 33.1835 30.5614 32.7598C30.0066 32.3362 29.3496 32.0669 28.6571 31.9794V34.0083C29.1035 34.1663 29.4521 34.5317 29.5854 34.9894L31.8157 34.3919V34.3914ZM28.1634 35.8989C28.2943 35.8989 28.4199 35.8468 28.5125 35.7543C28.6051 35.6617 28.6571 35.5361 28.6571 35.4051C28.6571 35.2742 28.6051 35.1486 28.5125 35.056C28.4199 34.9634 28.2943 34.9114 28.1634 34.9114C28.0324 34.9114 27.9068 34.9634 27.8142 35.056C27.7216 35.1486 27.6696 35.2742 27.6696 35.4051C27.6696 35.5361 27.7216 35.6617 27.8142 35.7543C27.9068 35.8468 28.0324 35.8989 28.1634 35.8989Z" fill="#F83062"/>
</g>
<defs>
<clipPath id="clip0_8849_46620">
<rect width="56" height="56" fill="white"/>
</clipPath>
</defs>
</svg>
