<svg width="56" height="56" viewBox="0 0 56 56" fill="none" xmlns="http://www.w3.org/2000/svg">
<g clip-path="url(#clip0_9875_47956)">
<path d="M28 56C43.464 56 56 43.464 56 28C56 12.536 43.464 0 28 0C12.536 0 0 12.536 0 28C0 43.464 12.536 56 28 56Z" fill="#211E8A" fill-opacity="0.05"/>
<path d="M28.0003 47.8332C38.954 47.8332 47.8337 38.9535 47.8337 27.9998C47.8337 17.0462 38.954 8.1665 28.0003 8.1665C17.0467 8.1665 8.16699 17.0462 8.16699 27.9998C8.16699 38.9535 17.0467 47.8332 28.0003 47.8332Z" fill="#211E8A" fill-opacity="0.08"/>
<path d="M35.9994 27.7501H19.9994C19.7694 27.7501 19.5594 27.6501 19.4194 27.4701C19.2794 27.3001 19.2194 27.0601 19.2694 26.8401L20.3994 21.4401C20.7694 19.6901 21.5194 18.0801 24.4894 18.0801H31.5194C34.4894 18.0801 35.2394 19.7001 35.6094 21.4401L36.7394 26.8501C36.7894 27.0701 36.7294 27.3001 36.5894 27.4801C36.4394 27.6501 36.2294 27.7501 35.9994 27.7501ZM20.9194 26.2501H35.0694L34.1294 21.7501C33.8494 20.4401 33.5194 19.5801 31.5094 19.5801H24.4894C22.4794 19.5801 22.1494 20.4401 21.8694 21.7501L20.9194 26.2501Z" fill="#211E8A"/>
<path d="M35.9596 38.7501H34.0796C32.4596 38.7501 32.1496 37.8201 31.9496 37.2101L31.7496 36.6101C31.4896 35.8501 31.4596 35.7501 30.5596 35.7501H25.4396C24.5396 35.7501 24.4796 35.9201 24.2496 36.6101L24.0496 37.2101C23.8396 37.8301 23.5396 38.7501 21.9196 38.7501H20.0396C19.2496 38.7501 18.4896 38.4201 17.9596 37.8401C17.4396 37.2701 17.1896 36.5101 17.2596 35.7501L17.8196 29.6601C17.9696 28.0101 18.4096 26.2501 21.6196 26.2501H34.3796C37.5896 26.2501 38.0196 28.0101 38.1796 29.6601L38.7396 35.7501C38.8096 36.5101 38.5596 37.2701 38.0396 37.8401C37.5096 38.4201 36.7496 38.7501 35.9596 38.7501ZM25.4396 34.2501H30.5596C32.3796 34.2501 32.8096 35.0601 33.1696 36.1201L33.3796 36.7401C33.5496 37.2501 33.5496 37.2601 34.0896 37.2601H35.9696C36.3396 37.2601 36.6896 37.1101 36.9396 36.8401C37.1796 36.5801 37.2896 36.2501 37.2596 35.9001L36.6996 29.8101C36.5696 28.4601 36.4096 27.7601 34.3996 27.7601H21.6196C19.5996 27.7601 19.4396 28.4601 19.3196 29.8101L18.7596 35.9001C18.7296 36.2501 18.8396 36.5801 19.0796 36.8401C19.3196 37.1101 19.6796 37.2601 20.0496 37.2601H21.9296C22.4696 37.2601 22.4696 37.2501 22.6396 36.7501L22.8396 36.1401C23.0896 35.3401 23.4596 34.2501 25.4396 34.2501Z" fill="#211E8A"/>
<path d="M20 24.7501H19C18.59 24.7501 18.25 24.4101 18.25 24.0001C18.25 23.5901 18.59 23.2501 19 23.2501H20C20.41 23.2501 20.75 23.5901 20.75 24.0001C20.75 24.4101 20.41 24.7501 20 24.7501Z" fill="#211E8A"/>
<path d="M37 24.7501H36C35.59 24.7501 35.25 24.4101 35.25 24.0001C35.25 23.5901 35.59 23.2501 36 23.2501H37C37.41 23.2501 37.75 23.5901 37.75 24.0001C37.75 24.4101 37.41 24.7501 37 24.7501Z" fill="#211E8A"/>
<path d="M28 21.7501C27.59 21.7501 27.25 21.4101 27.25 21.0001V19.0001C27.25 18.5901 27.59 18.2501 28 18.2501C28.41 18.2501 28.75 18.5901 28.75 19.0001V21.0001C28.75 21.4101 28.41 21.7501 28 21.7501Z" fill="#211E8A"/>
<path d="M29.5 21.7501H26.5C26.09 21.7501 25.75 21.4101 25.75 21.0001C25.75 20.5901 26.09 20.2501 26.5 20.2501H29.5C29.91 20.2501 30.25 20.5901 30.25 21.0001C30.25 21.4101 29.91 21.7501 29.5 21.7501Z" fill="#211E8A"/>
<path d="M25 31.7501H22C21.59 31.7501 21.25 31.4101 21.25 31.0001C21.25 30.5901 21.59 30.2501 22 30.2501H25C25.41 30.2501 25.75 30.5901 25.75 31.0001C25.75 31.4101 25.41 31.7501 25 31.7501Z" fill="#211E8A"/>
<path d="M34 31.7501H31C30.59 31.7501 30.25 31.4101 30.25 31.0001C30.25 30.5901 30.59 30.2501 31 30.2501H34C34.41 30.2501 34.75 30.5901 34.75 31.0001C34.75 31.4101 34.41 31.7501 34 31.7501Z" fill="#211E8A"/>
</g>
<defs>
<clipPath id="clip0_9875_47956">
<rect width="56" height="56" fill="white"/>
</clipPath>
</defs>
</svg>
