<svg width="56" height="56" viewBox="0 0 56 56" fill="none" xmlns="http://www.w3.org/2000/svg">
<g clip-path="url(#clip0_8849_46664)">
<path d="M28 56C43.464 56 56 43.464 56 28C56 12.536 43.464 0 28 0C12.536 0 0 12.536 0 28C0 43.464 12.536 56 28 56Z" fill="#E5FDF3"/>
<path d="M28.0003 47.8332C38.954 47.8332 47.8337 38.9535 47.8337 27.9998C47.8337 17.0462 38.954 8.1665 28.0003 8.1665C17.0467 8.1665 8.16699 17.0462 8.16699 27.9998C8.16699 38.9535 17.0467 47.8332 28.0003 47.8332Z" fill="#BCF2DD"/>
<path d="M33.2002 30C33.7525 30 34.2002 29.5523 34.2002 29C34.2002 28.4477 33.7525 28 33.2002 28C32.6479 28 32.2002 28.4477 32.2002 29C32.2002 29.5523 32.6479 30 33.2002 30Z" fill="#22B02E"/>
<path d="M33.2002 34C33.7525 34 34.2002 33.5523 34.2002 33C34.2002 32.4477 33.7525 32 33.2002 32C32.6479 32 32.2002 32.4477 32.2002 33C32.2002 33.5523 32.6479 34 33.2002 34Z" fill="#22B02E"/>
<path d="M29.2002 29C29.2002 29.5523 28.7525 30 28.2002 30C27.6479 30 27.2002 29.5523 27.2002 29C27.2002 28.4477 27.6479 28 28.2002 28C28.7525 28 29.2002 28.4477 29.2002 29Z" fill="#22B02E"/>
<path d="M29.2002 33C29.2002 33.5523 28.7525 34 28.2002 34C27.6479 34 27.2002 33.5523 27.2002 33C27.2002 32.4477 27.6479 32 28.2002 32C28.7525 32 29.2002 32.4477 29.2002 33Z" fill="#22B02E"/>
<path d="M23.2002 30C23.7525 30 24.2002 29.5523 24.2002 29C24.2002 28.4477 23.7525 28 23.2002 28C22.6479 28 22.2002 28.4477 22.2002 29C22.2002 29.5523 22.6479 30 23.2002 30Z" fill="#22B02E"/>
<path d="M23.2002 34C23.7525 34 24.2002 33.5523 24.2002 33C24.2002 32.4477 23.7525 32 23.2002 32C22.6479 32 22.2002 32.4477 22.2002 33C22.2002 33.5523 22.6479 34 23.2002 34Z" fill="#22B02E"/>
<path fill-rule="evenodd" clip-rule="evenodd" d="M23.2002 17.75C23.6144 17.75 23.9502 18.0858 23.9502 18.5V19.2627C24.6122 19.25 25.3415 19.25 26.1437 19.25H30.2566C31.0588 19.25 31.7882 19.25 32.4502 19.2627V18.5C32.4502 18.0858 32.786 17.75 33.2002 17.75C33.6144 17.75 33.9502 18.0858 33.9502 18.5V19.3271C34.2101 19.3469 34.4563 19.3718 34.6892 19.4031C35.8616 19.5608 36.8106 19.8929 37.559 20.6412C38.3073 21.3896 38.6394 22.3386 38.7971 23.511C38.9502 24.6502 38.9502 26.1058 38.9502 27.9435V30.0564C38.9502 31.8941 38.9502 33.3498 38.7971 34.489C38.6394 35.6614 38.3073 36.6104 37.559 37.3588C36.8106 38.1071 35.8616 38.4392 34.6892 38.5969C33.55 38.75 32.0944 38.75 30.2567 38.75H26.1438C24.306 38.75 22.8504 38.75 21.7112 38.5969C20.5388 38.4392 19.5898 38.1071 18.8414 37.3588C18.0931 36.6104 17.761 35.6614 17.6033 34.489C17.4502 33.3498 17.4502 31.8942 17.4502 30.0564V27.9436C17.4502 26.1058 17.4502 24.6502 17.6033 23.511C17.761 22.3386 18.0931 21.3896 18.8414 20.6412C19.5898 19.8929 20.5388 19.5608 21.7112 19.4031C21.9441 19.3718 22.1903 19.3469 22.4502 19.3271V18.5C22.4502 18.0858 22.786 17.75 23.2002 17.75ZM21.911 20.8898C20.905 21.025 20.3253 21.2787 19.9021 21.7019C19.4789 22.1251 19.2252 22.7048 19.09 23.7108C19.067 23.8812 19.0479 24.0606 19.0319 24.25H37.3685C37.3525 24.0606 37.3333 23.8812 37.3104 23.7108C37.1752 22.7048 36.9215 22.1251 36.4983 21.7019C36.0751 21.2787 35.4954 21.025 34.4893 20.8898C33.4617 20.7516 32.107 20.75 30.2002 20.75H26.2002C24.2934 20.75 22.9387 20.7516 21.911 20.8898ZM18.9502 28C18.9502 27.146 18.9505 26.4027 18.9633 25.75H37.4371C37.4499 26.4027 37.4502 27.146 37.4502 28V30C37.4502 31.9068 37.4486 33.2615 37.3104 34.2892C37.1752 35.2952 36.9215 35.8749 36.4983 36.2981C36.0751 36.7213 35.4954 36.975 34.4893 37.1102C33.4617 37.2484 32.107 37.25 30.2002 37.25H26.2002C24.2934 37.25 22.9387 37.2484 21.911 37.1102C20.905 36.975 20.3253 36.7213 19.9021 36.2981C19.4789 35.8749 19.2252 35.2952 19.09 34.2892C18.9518 33.2615 18.9502 31.9068 18.9502 30V28Z" fill="#22B02E"/>
</g>
<defs>
<clipPath id="clip0_8849_46664">
<rect width="56" height="56" fill="white"/>
</clipPath>
</defs>
</svg>
