<svg width="56" height="56" viewBox="0 0 56 56" fill="none" xmlns="http://www.w3.org/2000/svg">
<g clip-path="url(#clip0_8849_46630)">
<path d="M28 56C43.464 56 56 43.464 56 28C56 12.536 43.464 0 28 0C12.536 0 0 12.536 0 28C0 43.464 12.536 56 28 56Z" fill="#E5FDF3"/>
<path d="M28.0003 47.8332C38.954 47.8332 47.8337 38.9535 47.8337 27.9998C47.8337 17.0462 38.954 8.1665 28.0003 8.1665C17.0467 8.1665 8.16699 17.0462 8.16699 27.9998C8.16699 38.9535 17.0467 47.8332 28.0003 47.8332Z" fill="#BCF2DD"/>
<path fill-rule="evenodd" clip-rule="evenodd" d="M25.2002 17.25C22.5768 17.25 20.4502 19.3766 20.4502 22C20.4502 24.6234 22.5768 26.75 25.2002 26.75C27.8235 26.75 29.9502 24.6234 29.9502 22C29.9502 19.3766 27.8235 17.25 25.2002 17.25ZM21.9502 22C21.9502 20.2051 23.4053 18.75 25.2002 18.75C26.9951 18.75 28.4502 20.2051 28.4502 22C28.4502 23.7949 26.9951 25.25 25.2002 25.25C23.4053 25.25 21.9502 23.7949 21.9502 22Z" fill="#22B02E"/>
<path d="M31.2002 18.25C30.786 18.25 30.4502 18.5858 30.4502 19C30.4502 19.4142 30.786 19.75 31.2002 19.75C32.4428 19.75 33.4502 20.7574 33.4502 22C33.4502 23.2426 32.4428 24.25 31.2002 24.25C30.786 24.25 30.4502 24.5858 30.4502 25C30.4502 25.4142 30.786 25.75 31.2002 25.75C33.2713 25.75 34.9502 24.0711 34.9502 22C34.9502 19.9289 33.2713 18.25 31.2002 18.25Z" fill="#22B02E"/>
<path fill-rule="evenodd" clip-rule="evenodd" d="M19.8783 29.5204C21.2777 28.7208 23.1609 28.25 25.2002 28.25C27.2395 28.25 29.1227 28.7208 30.522 29.5204C31.9002 30.3079 32.9502 31.5101 32.9502 33C32.9502 34.4899 31.9002 35.6921 30.522 36.4796C29.1227 37.2792 27.2395 37.75 25.2002 37.75C23.1609 37.75 21.2777 37.2792 19.8783 36.4796C18.5002 35.6921 17.4502 34.4899 17.4502 33C17.4502 31.5101 18.5002 30.3079 19.8783 29.5204ZM20.6226 30.8228C19.4672 31.483 18.9502 32.2807 18.9502 33C18.9502 33.7193 19.4672 34.517 20.6226 35.1772C21.7567 35.8253 23.3735 36.25 25.2002 36.25C27.0269 36.25 28.6437 35.8253 29.7778 35.1772C30.9332 34.517 31.4502 33.7193 31.4502 33C31.4502 32.2807 30.9332 31.483 29.7778 30.8228C28.6437 30.1747 27.0269 29.75 25.2002 29.75C23.3735 29.75 21.7567 30.1747 20.6226 30.8228Z" fill="#22B02E"/>
<path d="M34.3608 29.2674C33.9562 29.1787 33.5563 29.4347 33.4676 29.8393C33.3789 30.2439 33.6349 30.6439 34.0395 30.7326C34.8319 30.9064 35.4651 31.2048 35.8831 31.5468C36.3016 31.8892 36.4502 32.2237 36.4502 32.5C36.4502 32.7507 36.3296 33.045 35.9971 33.3539C35.6622 33.665 35.1477 33.9524 34.484 34.1523C34.0873 34.2717 33.8626 34.69 33.982 35.0867C34.1015 35.4833 34.5198 35.708 34.9164 35.5886C35.739 35.3409 36.4745 34.9578 37.018 34.4529C37.5639 33.9457 37.9502 33.2786 37.9502 32.5C37.9502 31.6352 37.4759 30.912 36.833 30.3859C36.1895 29.8593 35.3227 29.4783 34.3608 29.2674Z" fill="#22B02E"/>
</g>
<defs>
<clipPath id="clip0_8849_46630">
<rect width="56" height="56" fill="white"/>
</clipPath>
</defs>
</svg>
