<svg width="56" height="56" viewBox="0 0 56 56" fill="none" xmlns="http://www.w3.org/2000/svg">
<g clip-path="url(#clip0_9875_47978)">
<path d="M28 56C43.464 56 56 43.464 56 28C56 12.536 43.464 0 28 0C12.536 0 0 12.536 0 28C0 43.464 12.536 56 28 56Z" fill="#211E8A" fill-opacity="0.05"/>
<path d="M28.0003 47.8332C38.954 47.8332 47.8337 38.9535 47.8337 27.9998C47.8337 17.0462 38.954 8.1665 28.0003 8.1665C17.0467 8.1665 8.16699 17.0462 8.16699 27.9998C8.16699 38.9535 17.0467 47.8332 28.0003 47.8332Z" fill="#211E8A" fill-opacity="0.08"/>
<path fill-rule="evenodd" clip-rule="evenodd" d="M25 17.25C22.3766 17.25 20.25 19.3766 20.25 22C20.25 24.6234 22.3766 26.75 25 26.75C27.6234 26.75 29.75 24.6234 29.75 22C29.75 19.3766 27.6234 17.25 25 17.25ZM21.75 22C21.75 20.2051 23.2051 18.75 25 18.75C26.7949 18.75 28.25 20.2051 28.25 22C28.25 23.7949 26.7949 25.25 25 25.25C23.2051 25.25 21.75 23.7949 21.75 22Z" fill="#211E8A"/>
<path d="M31 18.25C30.5858 18.25 30.25 18.5858 30.25 19C30.25 19.4142 30.5858 19.75 31 19.75C32.2426 19.75 33.25 20.7574 33.25 22C33.25 23.2426 32.2426 24.25 31 24.25C30.5858 24.25 30.25 24.5858 30.25 25C30.25 25.4142 30.5858 25.75 31 25.75C33.0711 25.75 34.75 24.0711 34.75 22C34.75 19.9289 33.0711 18.25 31 18.25Z" fill="#211E8A"/>
<path fill-rule="evenodd" clip-rule="evenodd" d="M19.6781 29.5204C21.0775 28.7208 22.9607 28.25 25 28.25C27.0393 28.25 28.9225 28.7208 30.3219 29.5204C31.7 30.3079 32.75 31.5101 32.75 33C32.75 34.4899 31.7 35.6921 30.3219 36.4796C28.9225 37.2792 27.0393 37.75 25 37.75C22.9607 37.75 21.0775 37.2792 19.6781 36.4796C18.3 35.6921 17.25 34.4899 17.25 33C17.25 31.5101 18.3 30.3079 19.6781 29.5204ZM20.4224 30.8228C19.267 31.483 18.75 32.2807 18.75 33C18.75 33.7193 19.267 34.517 20.4224 35.1772C21.5565 35.8253 23.1733 36.25 25 36.25C26.8267 36.25 28.4435 35.8253 29.5776 35.1772C30.733 34.517 31.25 33.7193 31.25 33C31.25 32.2807 30.733 31.483 29.5776 30.8228C28.4435 30.1747 26.8267 29.75 25 29.75C23.1733 29.75 21.5565 30.1747 20.4224 30.8228Z" fill="#211E8A"/>
<path d="M34.1607 29.2674C33.7561 29.1787 33.3561 29.4347 33.2674 29.8393C33.1787 30.2439 33.4347 30.6439 33.8393 30.7326C34.6317 30.9064 35.2649 31.2048 35.6829 31.5468C36.1014 31.8892 36.25 32.2237 36.25 32.5C36.25 32.7507 36.1294 33.045 35.7969 33.3539C35.462 33.665 34.9475 33.9524 34.2838 34.1523C33.8871 34.2717 33.6624 34.69 33.7818 35.0867C33.9013 35.4833 34.3196 35.708 34.7162 35.5886C35.5388 35.3409 36.2743 34.9578 36.8178 34.4529C37.3637 33.9457 37.75 33.2786 37.75 32.5C37.75 31.6352 37.2758 30.912 36.6328 30.3859C35.9893 29.8593 35.1225 29.4783 34.1607 29.2674Z" fill="#211E8A"/>
</g>
<defs>
<clipPath id="clip0_9875_47978">
<rect width="56" height="56" fill="white"/>
</clipPath>
</defs>
</svg>
