<svg width="73" height="73" viewBox="0 0 73 73" fill="none" xmlns="http://www.w3.org/2000/svg">
<g clip-path="url(#clip0_8350_52036)">
<path d="M36.5 73C56.6584 73 73 56.6584 73 36.5C73 16.3416 56.6584 0 36.5 0C16.3416 0 0 16.3416 0 36.5C0 56.6584 16.3416 73 36.5 73Z" fill="#211E8A" fill-opacity="0.05"/>
<path d="M36.5004 62.354C50.7793 62.354 62.3546 50.7787 62.3546 36.4998C62.3546 22.2209 50.7793 10.6456 36.5004 10.6456C22.2215 10.6456 10.6462 22.2209 10.6462 36.4998C10.6462 50.7787 22.2215 62.354 36.5004 62.354Z" fill="#211E8A" fill-opacity="0.08"/>
<path fill-rule="evenodd" clip-rule="evenodd" d="M36.645 22.6297C33.2248 22.6297 30.4522 25.4023 30.4522 28.8225C30.4522 32.2427 33.2248 35.0153 36.645 35.0153C40.0652 35.0153 42.8378 32.2427 42.8378 28.8225C42.8378 25.4023 40.0652 22.6297 36.645 22.6297ZM32.4078 28.8225C32.4078 26.4824 34.3049 24.5853 36.645 24.5853C38.9851 24.5853 40.8822 26.4824 40.8822 28.8225C40.8822 31.1626 38.9851 33.0597 36.645 33.0597C34.3049 33.0597 32.4078 31.1626 32.4078 28.8225Z" fill="#211E8A"/>
<path d="M44.4675 25.2372C43.9275 25.2372 43.4897 25.675 43.4897 26.215C43.4897 26.755 43.9275 27.1928 44.4675 27.1928C46.2621 27.1928 47.4009 28.3737 47.4009 29.4744C47.4009 30.5751 46.2621 31.7559 44.4675 31.7559C43.9275 31.7559 43.4897 32.1937 43.4897 32.7338C43.4897 33.2738 43.9275 33.7116 44.4675 33.7116C46.9931 33.7116 49.3566 31.9739 49.3566 29.4744C49.3566 26.9749 46.9931 25.2372 44.4675 25.2372Z" fill="#211E8A"/>
<path d="M29.8003 26.215C29.8003 25.675 29.3625 25.2372 28.8225 25.2372C26.2968 25.2372 23.9334 26.9749 23.9334 29.4744C23.9334 31.9739 26.2968 33.7116 28.8225 33.7116C29.3625 33.7116 29.8003 33.2738 29.8003 32.7338C29.8003 32.1937 29.3625 31.7559 28.8225 31.7559C27.0279 31.7559 25.8891 30.5751 25.8891 29.4744C25.8891 28.3737 27.0279 27.1928 28.8225 27.1928C29.3625 27.1928 29.8003 26.755 29.8003 26.215Z" fill="#211E8A"/>
<path fill-rule="evenodd" clip-rule="evenodd" d="M36.645 36.971C34.3187 36.971 32.1685 37.5978 30.5713 38.6626C28.9808 39.7229 27.8447 41.295 27.8447 43.1638C27.8447 45.0325 28.9808 46.6046 30.5713 47.6649C32.1685 48.7297 34.3187 49.3566 36.645 49.3566C38.9712 49.3566 41.1215 48.7297 42.7187 47.6649C44.3091 46.6046 45.4453 45.0325 45.4453 43.1638C45.4453 41.295 44.3091 39.7229 42.7187 38.6626C41.1215 37.5978 38.9712 36.971 36.645 36.971ZM29.8003 43.1638C29.8003 42.1523 30.4153 41.117 31.656 40.2898C32.89 39.4672 34.651 38.9266 36.645 38.9266C38.639 38.9266 40.4 39.4672 41.6339 40.2898C42.8747 41.117 43.4897 42.1523 43.4897 43.1638C43.4897 44.1752 42.8747 45.2106 41.6339 46.0377C40.4 46.8604 38.639 47.401 36.645 47.401C34.651 47.401 32.89 46.8604 31.656 46.0377C30.4153 45.2106 29.8003 44.1752 29.8003 43.1638Z" fill="#211E8A"/>
<path d="M46.1199 39.0431C46.2356 38.5156 46.7569 38.1817 47.2844 38.2974C48.5385 38.5724 49.6685 39.0691 50.5075 39.7557C51.3458 40.4416 51.9641 41.3845 51.9641 42.5119C51.9641 43.6393 51.3458 44.5822 50.5075 45.2681C49.6685 45.9546 48.5385 46.4514 47.2844 46.7264C46.7569 46.8421 46.2356 46.5082 46.1199 45.9807C46.0042 45.4532 46.338 44.9318 46.8655 44.8161C47.8986 44.5896 48.7242 44.2005 49.269 43.7546C49.8147 43.3082 50.0084 42.8721 50.0084 42.5119C50.0084 42.1517 49.8147 41.7156 49.269 41.2692C48.7242 40.8233 47.8986 40.4342 46.8655 40.2076C46.338 40.092 46.0042 39.5706 46.1199 39.0431Z" fill="#211E8A"/>
<path d="M26.0055 38.2974C26.533 38.1817 27.0544 38.5156 27.1701 39.0431C27.2858 39.5706 26.9519 40.092 26.4244 40.2076C25.3914 40.4342 24.5658 40.8233 24.0209 41.2692C23.4753 41.7156 23.2816 42.1517 23.2816 42.5119C23.2816 42.8721 23.4753 43.3082 24.0209 43.7546C24.5658 44.2005 25.3914 44.5896 26.4244 44.8161C26.9519 44.9318 27.2858 45.4532 27.1701 45.9807C27.0544 46.5082 26.533 46.8421 26.0055 46.7264C24.7515 46.4514 23.6214 45.9546 22.7825 45.2681C21.9442 44.5822 21.3259 43.6393 21.3259 42.5119C21.3259 41.3845 21.9442 40.4416 22.7825 39.7557C23.6214 39.0691 24.7515 38.5724 26.0055 38.2974Z" fill="#211E8A"/>
</g>
<defs>
<clipPath id="clip0_8350_52036">
<rect width="73" height="73" fill="white"/>
</clipPath>
</defs>
</svg>
