<svg width="57" height="57" viewBox="0 0 57 57" fill="none" xmlns="http://www.w3.org/2000/svg">
<g clip-path="url(#clip0_8685_21089)">
<path d="M28.6992 56.5C44.1632 56.5 56.6992 43.964 56.6992 28.5C56.6992 13.036 44.1632 0.5 28.6992 0.5C13.2352 0.5 0.699219 13.036 0.699219 28.5C0.699219 43.964 13.2352 56.5 28.6992 56.5Z" fill="#FEF4F6"/>
<path d="M28.6995 48.3332C39.6532 48.3332 48.5329 39.4535 48.5329 28.4998C48.5329 17.5462 39.6532 8.6665 28.6995 8.6665C17.7459 8.6665 8.86621 17.5462 8.86621 28.4998C8.86621 39.4535 17.7459 48.3332 28.6995 48.3332Z" fill="#FFE9F1"/>
<path fill-rule="evenodd" clip-rule="evenodd" d="M32.8496 22.2506V24.825C34.5613 25.1725 35.8496 26.6858 35.8496 28.5C35.8496 30.3142 34.5613 31.8275 32.8496 32.175V34.7494C33.8866 34.747 34.6735 34.7343 35.3099 34.6696C36.0789 34.5914 36.5445 34.4433 36.9052 34.2023C37.2601 33.9652 37.5648 33.6605 37.8019 33.3056C38.0429 32.9449 38.191 32.4793 38.2692 31.7102C38.3487 30.9287 38.3496 29.9201 38.3496 28.5C38.3496 27.0799 38.3487 26.0713 38.2692 25.2898C38.191 24.5207 38.0429 24.0551 37.8019 23.6944C37.5648 23.3395 37.2601 23.0348 36.9052 22.7977C36.5445 22.5567 36.0789 22.4086 35.3099 22.3304C34.6735 22.2657 33.8866 22.253 32.8496 22.2506ZM31.3496 34.75L31.3496 22.25L26.8496 22.25V34.75H31.3496ZM25.3496 34.7494V32.175C23.6379 31.8275 22.3496 30.3142 22.3496 28.5C22.3496 26.6858 23.6379 25.1725 25.3496 24.825V22.2506C24.3126 22.2531 23.5257 22.2657 22.8894 22.3304C22.1203 22.4086 21.6547 22.5567 21.294 22.7977C20.9391 23.0348 20.6344 23.3395 20.3973 23.6944C20.1563 24.0551 20.0083 24.5207 19.93 25.2898C19.8505 26.0713 19.8496 27.0799 19.8496 28.5C19.8496 29.9201 19.8505 30.9287 19.93 31.7102C20.0083 32.4793 20.1563 32.9449 20.3973 33.3056C20.6344 33.6605 20.9391 33.9652 21.294 34.2023C21.6547 34.4433 22.1203 34.5914 22.8894 34.6696C23.5257 34.7343 24.3126 34.747 25.3496 34.7494ZM25.3496 26.378C24.4757 26.6869 23.8496 27.5203 23.8496 28.5C23.8496 29.4797 24.4757 30.3131 25.3496 30.622L25.3496 26.378ZM32.8496 30.622C33.7235 30.3131 34.3496 29.4797 34.3496 28.5C34.3496 27.5203 33.7235 26.6869 32.8496 26.378L32.8496 30.622ZM35.4617 20.8381C36.3493 20.9284 37.0903 21.1174 37.7386 21.5505C38.2572 21.8971 38.7025 22.3424 39.0491 22.861C39.4822 23.5093 39.6712 24.2503 39.7615 25.1379C39.8496 26.0043 39.8496 27.0892 39.8496 28.4584V28.5416C39.8496 29.9108 39.8496 30.9957 39.7615 31.8621C39.6712 32.7497 39.4822 33.4907 39.0491 34.139C38.7025 34.6576 38.2572 35.1029 37.7386 35.4495C37.0903 35.8826 36.3493 36.0716 35.4617 36.1619C34.5953 36.25 33.5104 36.25 32.1412 36.25H26.058C24.6888 36.25 23.6039 36.25 22.7376 36.1619C21.8499 36.0716 21.1089 35.8826 20.4607 35.4495C19.942 35.1029 19.4967 34.6576 19.1501 34.139C18.717 33.4907 18.528 32.7497 18.4377 31.8621C18.3496 30.9957 18.3496 29.9108 18.3496 28.5416V28.4584C18.3496 27.0892 18.3496 26.0043 18.4377 25.1379C18.528 24.2503 18.717 23.5093 19.1501 22.861C19.4967 22.3424 19.942 21.8971 20.4607 21.5505C21.1089 21.1174 21.8499 20.9284 22.7376 20.8381C23.6039 20.75 24.6888 20.75 26.058 20.75L32.1412 20.75C33.5104 20.75 34.5953 20.75 35.4617 20.8381Z" fill="#F83062"/>
</g>
<defs>
<clipPath id="clip0_8685_21089">
<rect width="56" height="56" fill="white" transform="translate(0.699219 0.5)"/>
</clipPath>
</defs>
</svg>
