<svg width="57" height="57" viewBox="0 0 57 57" fill="none" xmlns="http://www.w3.org/2000/svg">
<g clip-path="url(#clip0_8685_21069)">
<path d="M28.0996 56.5C43.5636 56.5 56.0996 43.964 56.0996 28.5C56.0996 13.036 43.5636 0.5 28.0996 0.5C12.6356 0.5 0.0996094 13.036 0.0996094 28.5C0.0996094 43.964 12.6356 56.5 28.0996 56.5Z" fill="#F4FAFE"/>
<path d="M28.0999 48.3332C39.0536 48.3332 47.9333 39.4535 47.9333 28.4998C47.9333 17.5462 39.0536 8.6665 28.0999 8.6665C17.1463 8.6665 8.2666 17.5462 8.2666 28.4998C8.2666 39.4535 17.1463 48.3332 28.0999 48.3332Z" fill="#DBEDFF"/>
<path d="M27.3496 18.5C27.3496 18.0858 27.6854 17.75 28.0996 17.75C34.0367 17.75 38.8496 22.5629 38.8496 28.5C38.8496 34.4371 34.0367 39.25 28.0996 39.25C22.1625 39.25 17.3496 34.4371 17.3496 28.5C17.3496 25.493 18.5853 22.7732 20.5746 20.823C20.8704 20.533 21.3452 20.5377 21.6352 20.8335C21.9252 21.1293 21.9204 21.6042 21.6246 21.8941C19.9112 23.5738 18.8496 25.9123 18.8496 28.5C18.8496 33.6086 22.991 37.75 28.0996 37.75C33.2082 37.75 37.3496 33.6086 37.3496 28.5C37.3496 23.3914 33.2082 19.25 28.0996 19.25C27.6854 19.25 27.3496 18.9142 27.3496 18.5Z" fill="#2168F2"/>
<path d="M27.3496 21.5C27.3496 21.0858 27.6854 20.75 28.0996 20.75C32.3798 20.75 35.8496 24.2198 35.8496 28.5C35.8496 32.7802 32.3798 36.25 28.0996 36.25C23.8194 36.25 20.3496 32.7802 20.3496 28.5C20.3496 28.0858 20.6854 27.75 21.0996 27.75C21.5138 27.75 21.8496 28.0858 21.8496 28.5C21.8496 31.9518 24.6478 34.75 28.0996 34.75C31.5514 34.75 34.3496 31.9518 34.3496 28.5C34.3496 25.0482 31.5514 22.25 28.0996 22.25C27.6854 22.25 27.3496 21.9142 27.3496 21.5Z" fill="#2168F2"/>
<path d="M28.0996 23.75C27.6854 23.75 27.3496 24.0858 27.3496 24.5C27.3496 24.9142 27.6854 25.25 28.0996 25.25C29.8945 25.25 31.3496 26.7051 31.3496 28.5C31.3496 30.2949 29.8945 31.75 28.0996 31.75C27.6854 31.75 27.3496 32.0858 27.3496 32.5C27.3496 32.9142 27.6854 33.25 28.0996 33.25C30.723 33.25 32.8496 31.1234 32.8496 28.5C32.8496 25.8766 30.723 23.75 28.0996 23.75Z" fill="#2168F2"/>
</g>
<defs>
<clipPath id="clip0_8685_21069">
<rect width="56" height="56" fill="white" transform="translate(0.0996094 0.5)"/>
</clipPath>
</defs>
</svg>
